<svg width="24" height="20" viewBox="0 0 24 20" fill="none" xmlns="http://www.w3.org/2000/svg">
<path d="M5.51351 4.43456H5.22029L5.07714 4.69046L0.721877 12.4765C0.577565 11.7347 0.5 10.9704 0.5 10.1889C0.5 6.59377 2.08085 3.36959 4.55359 1.20001H19.4665C20.4968 2.11377 21.3742 3.20722 22.0435 4.43456H5.51351ZM23.5 10.2111C23.5 10.7428 23.4486 11.28 23.3742 11.8173H5.80785L7.62161 8.60492H23.3745C23.4488 9.13677 23.5 9.6628 23.5 10.2111ZM19.4471 19.2H4.53431C3.88108 18.6166 3.298 17.9561 2.77311 17.2292L3.47302 15.9655H22.0434C21.3734 17.1934 20.4932 18.2867 19.4471 19.2Z" stroke="white"/>
</svg>
