<svg height="62" viewBox="0 0 79 62" width="79" xmlns="http://www.w3.org/2000/svg"><path d="m90.9675262 98.3700038c-.7434363.1401566-1.279686.7982812-1.2674993 1.5599991v6.2399961c0 .859218.7007813 1.559999 1.5599991 1.559999h6.2399964v4.679998h-7.7999955c-1.1699993 0-2.297342.475313-3.1199982 1.316249-.0304683.012188-.0670316.030468-.0974999.04875l-6.8737461 7.994995h-3.9487477c-1.304061 0-2.4374986.585-3.2662481 1.41375-.8287496.828749-1.4137492 1.962187-1.4137492 3.266248v4.679997h-3.1199982v-7.799996c0-.859217-.7007813-1.559999-1.5599991-1.559999h-6.2399964c-.04875 0-.0975 0-.14625 0-.8043745.073125-1.4198429.749532-1.4137491 1.559999v24.959986c0 .859218.7007812 1.559999 1.5599991 1.559999h6.2399964c.8592178 0 1.5599991-.700781 1.5599991-1.559999v-7.799995h3.1199982v4.679997c0 1.310156.5789063 2.437498 1.4137492 3.266248.8348428.82875 1.9743738 1.413749 3.2662481 1.413749h3.9487477l6.8737461 7.994996c.0304683.018281.0670316.036563.0974999.04875.8165628.834842 1.9499989 1.316249 3.1199982 1.316249h20.0362381c1.17 0 2.303437-.481407 3.119999-1.316249l11.456243-11.651244c.822656-.834843 1.267499-1.956092 1.267499-3.119998v-2.632498h1.559999v6.239996c.006094.859218.700782 1.553906 1.559999 1.559999h6.239997c.859218-.006093 1.553906-.700781 1.559999-1.559999v-24.959986c-.006093-.859218-.700781-1.553905-1.559999-1.559999h-6.239997c-.859217.006094-1.553905.700781-1.559999 1.559999v6.239997h-1.559999v-11.163744c0-2.419217-1.96828-4.436247-4.387497-4.436247h-14.332492v-4.679998h6.239996c.859218 0 1.56-.700781 1.56-1.559999v-6.2399961c0-.8592179-.700782-1.5599991-1.56-1.5599991h-21.839987c-.04875 0-.0974999 0-.1462499 0s-.0974999 0-.1462499 0zm1.8524989 3.1199982h18.7199889v3.119998h-6.239996c-.859218 0-1.559999.700781-1.559999 1.559999v6.239997h-3.119998v-6.239997c0-.859218-.7007816-1.559999-1.5599995-1.559999h-6.2399964zm-3.1199982 14.039992h31.4924821c.694688 0 1.267499.560625 1.267499 1.316249v12.723743c.006093.859218.700781 1.553906 1.559999 1.559999h4.679997c.859218-.006093 1.553906-.700781 1.56-1.559999v-6.239997h3.119998v21.839988h-3.119998v-6.239997c-.006094-.859217-.700782-1.553905-1.56-1.559999h-4.679997c-.859218.006094-1.553906.700782-1.559999 1.559999v4.192498c0 .359532-.152343.6825-.39.92625l-11.456243 11.651243c-.237657.24375-.554531.39-.8775.39h-20.0362381c-.3229682 0-.639843-.14625-.8774995-.39l-7.3124958-8.433745c-.2924998-.335157-.7190613-.53625-1.1699993-.53625h-4.6799973c-.2620315 0-.688593-.201093-1.0237494-.53625-.3351565-.335156-.5362497-.743436-.5362497-1.023749v-18.719989c0-.255937.1949999-.6825.5362497-1.02375s.7678128-.536249 1.0237494-.536249h4.6799973c.450938 0 .8774995-.201094 1.1699993-.53625l7.3124958-8.433745c.2376565-.24375.5545313-.39.8774995-.39zm-28.0799838 9.359995h3.1199982v7.799995c0 .859218.7007812 1.559999 1.5599991 1.559999h4.6799973v3.119998h-4.6799973c-.8592179 0-1.5599991.700782-1.5599991 1.559999v7.799996h-3.1199982z" fill="#4f8be6" fill-rule="evenodd" transform="translate(-58 -98)"/></svg>