<svg width="33" height="32" viewBox="0 0 33 32" fill="none" xmlns="http://www.w3.org/2000/svg">
<path fill-rule="evenodd" clip-rule="evenodd" d="M13.3194 0L19.6806 0C24.1382 0 25.7546 0.464128 27.3842 1.33566C29.0139 2.2072 30.2928 3.48614 31.1643 5.11577C32.0359 6.7454 32.5 8.36183 32.5 12.8194V19.1806C32.5 23.6382 32.0359 25.2546 31.1643 26.8842C30.2928 28.5139 29.0139 29.7928 27.3842 30.6643C25.7546 31.5359 24.1382 32 19.6806 32H13.3194C8.86183 32 7.2454 31.5359 5.61577 30.6643C3.98614 29.7928 2.7072 28.5139 1.83566 26.8842C0.964128 25.2546 0.5 23.6382 0.5 19.1806L0.5 12.8194C0.5 8.36183 0.964128 6.7454 1.83566 5.11577C2.7072 3.48614 3.98614 2.2072 5.61577 1.33566C7.2454 0.464128 8.86183 0 13.3194 0ZM27.3589 9.95943C26.6029 10.2943 25.7897 10.5177 24.932 10.6234C25.804 10.1057 26.4749 9.28 26.7897 8.30457C25.9737 8.78286 25.0697 9.13429 24.108 9.31943C23.34 8.50514 22.2446 8 21.0309 8C18.6994 8 16.8097 9.87314 16.8097 12.1829C16.8097 12.5097 16.848 12.828 16.92 13.1371C13.4126 12.9611 10.3017 11.2937 8.22057 8.76343C7.85486 9.38171 7.64914 10.1057 7.64914 10.8697C7.64914 12.3217 8.39257 13.6 9.52629 14.3531C8.83429 14.332 8.18286 14.1394 7.61257 13.8309C7.61257 13.8434 7.61257 13.8623 7.61257 13.88C7.61257 15.9091 9.068 17.5989 10.9971 17.9834C10.6446 18.08 10.272 18.1337 9.888 18.1337C9.61543 18.1337 9.34971 18.1029 9.09257 18.0566C9.62971 19.7149 11.188 20.9269 13.0343 20.9629C11.5897 22.0829 9.77029 22.7537 7.792 22.7537C7.45029 22.7537 7.116 22.7343 6.78571 22.6943C8.65486 23.8777 10.8743 24.5714 13.2566 24.5714C21.0194 24.5714 25.2663 18.1966 25.2663 12.6663C25.2663 12.4851 25.2606 12.3046 25.252 12.1263C26.0806 11.5411 26.7949 10.8029 27.3589 9.95943Z" fill="white"/>
</svg>
