<svg width="24" height="23" viewBox="0 0 24 23" fill="none" xmlns="http://www.w3.org/2000/svg">
<path d="M8.15997 0.960022C6.5756 0.960022 5.27997 2.25095 5.27997 3.82959C5.27997 4.77864 5.74872 5.62307 6.46497 6.14616C6.0806 6.33859 5.72997 6.58706 5.42997 6.89345C5.08122 6.77014 4.70997 6.69915 4.31997 6.69915C2.46935 6.69915 0.959974 8.20306 0.959974 10.047C0.959974 11.2183 1.56935 12.2589 2.48997 12.8568C1.02372 13.548 -2.58313e-05 15.0276 -2.58313e-05 16.7426V18.8948C-0.00190083 19.048 0.0712244 19.1918 0.194974 19.2834C0.194974 19.2834 0.534349 19.5225 1.18497 19.7168C1.8356 19.9111 2.8406 20.0905 4.31997 20.0905C5.79935 20.0905 6.80435 19.9111 7.45497 19.7168C7.53935 19.6925 7.60685 19.6682 7.67997 19.6421V21.7644C7.6781 21.9176 7.75122 22.0614 7.87497 22.153C7.87497 22.153 8.21435 22.3921 8.86497 22.5864C9.5156 22.7807 10.5206 22.96 12 22.96C13.4793 22.96 14.4843 22.7807 15.135 22.5864C15.7856 22.3921 16.125 22.153 16.125 22.153C16.2487 22.0614 16.3218 21.9176 16.32 21.7644V19.6421C16.3931 19.6682 16.4606 19.6925 16.545 19.7168C17.1956 19.9111 18.2006 20.0905 19.68 20.0905C21.1593 20.0905 22.1643 19.9111 22.815 19.7168C23.4656 19.5225 23.805 19.2834 23.805 19.2834C23.9287 19.1918 24.0018 19.048 24 18.8948V16.7426C24 15.0276 22.9762 13.548 21.51 12.8568C22.4306 12.2589 23.04 11.2183 23.04 10.047C23.04 8.20306 21.5306 6.69915 19.68 6.69915C19.2618 6.69915 18.8643 6.78322 18.495 6.92334C18.1931 6.60761 17.8368 6.34419 17.445 6.14616C18.1612 5.62307 18.63 4.77864 18.63 3.82959C18.63 2.25095 17.3343 0.960022 15.75 0.960022C14.1656 0.960022 12.87 2.25095 12.87 3.82959C12.87 4.77864 13.3387 5.62307 14.055 6.14616C12.9525 6.68794 12.1462 7.7304 11.955 8.98584C11.7637 7.72853 10.9593 6.68607 9.85497 6.14616C10.5712 5.62307 11.04 4.77864 11.04 3.82959C11.04 2.25095 9.74435 0.960022 8.15997 0.960022ZM8.15997 1.91654C9.22685 1.91654 10.08 2.76658 10.08 3.82959C10.08 4.8926 9.22685 5.74263 8.15997 5.74263C7.0931 5.74263 6.23997 4.8926 6.23997 3.82959C6.23997 2.76658 7.0931 1.91654 8.15997 1.91654ZM15.75 1.91654C16.8168 1.91654 17.67 2.76658 17.67 3.82959C17.67 4.8926 16.8168 5.74263 15.75 5.74263C14.6831 5.74263 13.83 4.8926 13.83 3.82959C13.83 2.76658 14.6831 1.91654 15.75 1.91654ZM8.15997 6.69915C9.7781 6.69915 11.04 7.95646 11.04 9.56872V9.71817C9.65997 10.1348 8.63997 11.4089 8.63997 12.9165C8.63997 14.0879 9.24935 15.1285 10.17 15.7263C9.5681 16.0103 9.05247 16.4269 8.63997 16.9369V16.7426C8.63997 15.0276 7.61622 13.548 6.14997 12.8568C7.0706 12.2589 7.67997 11.2183 7.67997 10.047C7.67997 8.95595 7.1456 7.98448 6.32997 7.37171C6.82872 6.94762 7.44747 6.69915 8.15997 6.69915ZM15.75 6.69915C16.4831 6.69915 17.1206 6.9551 17.625 7.4016C16.8337 8.01437 16.32 8.9765 16.32 10.047C16.32 11.2183 16.9293 12.2589 17.85 12.8568C16.3837 13.548 15.36 15.0276 15.36 16.7426V16.9369C14.9475 16.4269 14.4318 16.0103 13.83 15.7263C14.7506 15.1285 15.36 14.0879 15.36 12.9165C15.36 11.3753 14.2987 10.0731 12.87 9.68828V9.56872C12.87 7.95646 14.1318 6.69915 15.75 6.69915ZM4.31997 7.65567C4.6931 7.65567 5.03997 7.74535 5.35497 7.8948C6.16122 8.27966 6.71997 9.09232 6.71997 10.047C6.71997 11.3734 5.65122 12.4383 4.31997 12.4383C2.98872 12.4383 1.91997 11.3734 1.91997 10.047C1.91997 8.72055 2.98872 7.65567 4.31997 7.65567ZM19.68 7.65567C21.0112 7.65567 22.08 8.72055 22.08 10.047C22.08 11.3734 21.0112 12.4383 19.68 12.4383C18.3487 12.4383 17.28 11.3734 17.28 10.047C17.28 9.16332 17.7543 8.39922 18.465 7.98448C18.4687 7.98261 18.4762 7.98635 18.48 7.98448C18.5512 7.96953 18.6168 7.93964 18.675 7.8948C18.6918 7.88733 18.7031 7.87239 18.72 7.86491C18.7293 7.86118 18.7406 7.85557 18.75 7.84997C19.0368 7.72853 19.3481 7.65567 19.68 7.65567ZM12 10.5252C13.3312 10.5252 14.4 11.5901 14.4 12.9165C14.4 14.243 13.3312 15.3078 12 15.3078C10.6687 15.3078 9.59997 14.243 9.59997 12.9165C9.59997 11.5901 10.6687 10.5252 12 10.5252ZM4.31997 13.3948C6.1706 13.3948 7.67997 14.8987 7.67997 16.7426V18.5809C7.60872 18.6239 7.5806 18.6725 7.18497 18.7902C6.6356 18.9546 5.7206 19.1339 4.31997 19.1339C2.91935 19.1339 2.00435 18.9546 1.45497 18.7902C1.05935 18.6725 1.03122 18.6239 0.959974 18.5809V16.7426C0.959974 14.8987 2.46935 13.3948 4.31997 13.3948ZM19.68 13.3948C21.5306 13.3948 23.04 14.8987 23.04 16.7426V18.5809C22.9687 18.6239 22.9406 18.6725 22.545 18.7902C21.9956 18.9546 21.0806 19.1339 19.68 19.1339C18.2793 19.1339 17.3643 18.9546 16.815 18.7902C16.4193 18.6725 16.3912 18.6239 16.32 18.5809V16.7426C16.32 14.8987 17.8293 13.3948 19.68 13.3948ZM12 16.2644C13.8506 16.2644 15.36 17.7683 15.36 19.6122V21.4505C15.2887 21.4935 15.2606 21.5421 14.865 21.6598C14.3156 21.8242 13.4006 22.0035 12 22.0035C10.5993 22.0035 9.68435 21.8242 9.13497 21.6598C8.73935 21.5421 8.71122 21.4935 8.63997 21.4505V19.6122C8.63997 17.7683 10.1493 16.2644 12 16.2644Z" fill="white"/>
</svg>
