<svg width="360" height="299" viewBox="0 0 360 299" fill="none" xmlns="http://www.w3.org/2000/svg">
<path opacity="0.1" d="M359.322 98H326V138.28H356.887C356.966 138.695 357.043 139.111 357.133 139.523H326V172L326.156 171.949C327.035 171.641 327.909 171.313 328.776 170.966L329.334 170.739C330.224 170.375 331.097 169.986 331.955 169.571C332.263 169.43 332.567 169.282 332.868 169.13C337.66 166.778 342.077 163.733 345.977 160.095C346.09 159.997 346.195 159.896 346.296 159.799C346.829 159.285 347.351 158.769 347.858 158.237L348.417 157.645C349.015 156.998 349.591 156.329 350.153 155.653L350.399 155.357C352.657 152.596 354.555 149.559 356.046 146.321C356.093 146.224 356.133 146.123 356.176 146.025C356.629 145.006 357.039 143.972 357.394 142.92C357.546 142.476 357.691 142.031 357.818 141.587C357.862 141.453 357.902 141.323 357.938 141.193C359.786 134.742 360 128.037 360 121.369C360 120.592 360 119.811 360 119.038C360 116.345 359.96 113.617 359.909 110.924C359.909 110.223 359.877 109.526 359.859 108.821C359.815 107.031 359.75 105.243 359.663 103.457C359.641 102.959 359.619 102.463 359.587 101.972C359.587 101.686 359.558 101.401 359.54 101.115C359.467 100.056 359.402 99.03 359.322 98Z" fill="#004C92"/>
<path opacity="0.1" d="M326.011 53H344C341.051 48.7439 337.852 44.6805 334.422 40.8327C331.747 37.802 328.939 34.8454 326 32L326.011 53Z" fill="#004C92"/>
<path opacity="0.1" d="M326 55.0107V97H359C359 96.8782 358.978 96.7528 358.968 96.6417C358.939 96.3121 358.91 95.9824 358.878 95.6492C358.845 95.316 358.802 94.8753 358.759 94.4847C358.716 94.0942 358.672 93.6427 358.622 93.2271C358.572 92.8115 358.528 92.3851 358.474 91.9659C358.42 91.5467 358.37 91.1275 358.312 90.7118C358.255 90.2962 358.201 89.8734 358.136 89.4578C358.085 89.0995 358.039 88.7698 357.985 88.4223C357.909 87.935 357.83 87.4441 357.747 86.9604C357.738 86.8881 357.724 86.8164 357.707 86.7454C357.112 83.1853 356.301 79.664 355.281 76.2006C354.201 72.5314 352.833 68.9528 351.187 65.4982C349.412 61.8441 347.352 58.3339 345.026 55L326 55.0107Z" fill="#004C92"/>
<path opacity="0.1" d="M247.054 98.3987V138.647H318V98.3987H247.054ZM247.054 139.889V167.143C255.312 164.504 264.756 165.569 273.318 167.736C279.947 169.419 286.407 171.708 293.025 173.355C295.981 174.11 298.982 174.677 302.01 175.052L302.754 175.132C303.116 175.168 303.477 175.204 303.838 175.233L304.922 175.309H305.034H305.518C305.573 175.312 305.629 175.312 305.684 175.309L306.27 175.33H306.288C306.566 175.33 306.848 175.33 307.129 175.352H307.491C307.769 175.352 308.051 175.352 308.332 175.352H308.95H309.449C309.662 175.352 309.871 175.352 310.081 175.33C310.421 175.33 310.76 175.301 311.103 175.276L311.736 175.236L312.516 175.175C313.069 175.132 313.6 175.074 314.16 175.009C314.376 174.984 314.597 174.958 314.814 174.926L315.135 174.886C315.681 174.814 316.219 174.727 316.764 174.637C317.165 174.576 317.566 174.5 317.971 174.427V139.889H247.054ZM299.821 53.5789V54.8212H247.054V97.1564H318V54.8356H314.441V53.5933H318V26.2413C304.199 15.1293 288.069 6.42611 270.103 2.40673C262.536 0.732514 254.803 -0.0732018 247.054 0.00521805V53.5933L299.821 53.5789ZM137.61 53.3405L137.86 53.5789H239.117V0.377182C221.089 1.87587 203.51 7.92841 189.337 17.957C182.527 22.7709 176.411 28.4767 168.77 32.1711C164.76 34.1599 160.38 35.2914 155.909 35.4935L137.61 53.3405ZM136.913 31.5138V43.5575L146.696 34.0128C143.058 32.7561 140.19 31.8966 136.899 31.5283L136.913 31.5138ZM136.588 183.03H136.913V209.428C140.605 209.154 144.283 208.776 147.946 208.294C164.327 206.184 180.379 202.028 195.724 195.922C197.372 195.262 199.007 194.581 200.63 193.878C201.712 193.408 202.787 192.927 203.856 192.433C205.461 191.697 207.053 190.94 208.632 190.162C215.624 186.727 222.369 182.81 228.817 178.44C229.218 178.169 229.622 177.894 230.02 177.616C230.819 177.062 231.613 176.504 232.4 175.941C232.794 175.655 233.188 175.37 233.578 175.081L234.38 174.467C235.189 173.864 235.995 173.257 236.812 172.662C237.567 172.12 238.329 171.578 239.102 171.073V139.871H157.762C157.82 139.687 157.874 139.51 157.935 139.315C157.87 139.503 157.812 139.676 157.758 139.871H136.899V183.022L136.588 183.03ZM136.913 54.8284V97.1564H239.117V54.8356L136.913 54.8284ZM136.913 98.3915V138.647H239.117V98.3987L136.913 98.3915ZM116.48 32.7525L128.965 44.9334V31.4597C124.782 31.7197 120.62 32.1506 116.48 32.7525ZM29.5397 98.3987V138.647H128.965V98.3987H29.5397ZM53.5714 197.8C68.6415 203.535 84.398 207.272 100.439 208.915H100.508C103.54 209.236 106.581 209.484 109.63 209.659H109.742C116.133 210.02 122.549 210.103 128.954 209.865V139.889H29.5397L29.9009 186.229L53.5714 197.8ZM2 138.647H21.6098V98.3987H13.8533C13.0477 99.8144 12.2673 101.237 11.5267 102.682C11.1293 103.45 10.7428 104.226 10.367 105.011C5.26228 115.603 2.01806 127.246 2 138.647ZM2 139.889C2.15896 148.065 4.00144 156.089 8.04406 163.503C11.4039 169.661 16.0715 175.059 21.5953 179.754V139.889H2ZM14.565 97.1564H21.5953V86.6837C19.0614 90.0398 16.7191 93.5363 14.5795 97.1564H14.565ZM58.6148 53.5933H126.62L126.866 53.355L126.505 52.9938L107.383 34.3487C101.707 35.5329 96.1022 37.034 90.5945 38.8448C90.0742 39.0145 89.554 39.2059 89.0374 39.3684C78.4028 42.9741 68.1998 47.7448 58.6148 53.5933ZM29.5397 77.2004V97.1564H116.736H116.754H128.976V55.9876L127.581 54.8537H56.6133C46.6638 61.1061 37.5639 68.6172 29.5397 77.2004Z" fill="#004C92"/>
<path opacity="0.1" d="M326 75V96H359C359 95.8771 358.978 95.7505 358.968 95.6384C358.939 95.3058 358.91 94.9731 358.878 94.6369C358.845 94.3006 358.802 93.8559 358.759 93.4618C358.716 93.0677 358.672 92.6121 358.622 92.1927C358.572 91.7732 358.528 91.343 358.474 90.9199C358.42 90.4969 358.37 90.0739 358.312 89.6544C358.255 89.235 358.201 88.8084 358.136 88.3889C358.085 88.0274 358.039 87.6947 357.985 87.344C357.909 86.8523 357.83 86.3569 357.747 85.8688C357.738 85.7958 357.724 85.7234 357.707 85.6519C357.112 82.0592 356.301 78.5058 355.281 75.0108L326 75Z" fill="#004C92"/>
<path opacity="0.1" d="M359.322 98H326V138.28H356.887C356.966 138.695 357.043 139.111 357.133 139.523H326V172L326.156 171.949C327.035 171.641 327.909 171.313 328.776 170.966L329.334 170.739C330.224 170.375 331.097 169.986 331.955 169.571C332.263 169.43 332.567 169.282 332.868 169.13C337.66 166.778 342.077 163.733 345.977 160.095C346.09 159.997 346.195 159.896 346.296 159.799C346.829 159.285 347.351 158.769 347.858 158.237L348.417 157.645C349.015 156.998 349.591 156.329 350.153 155.653L350.399 155.357C352.657 152.596 354.555 149.559 356.046 146.321C356.093 146.224 356.133 146.123 356.176 146.025C356.629 145.006 357.039 143.972 357.394 142.92C357.546 142.476 357.691 142.031 357.818 141.587C357.862 141.453 357.902 141.323 357.938 141.193C359.786 134.742 360 128.037 360 121.369C360 120.592 360 119.811 360 119.038C360 116.345 359.96 113.617 359.909 110.924C359.909 110.223 359.877 109.526 359.859 108.821C359.815 107.031 359.75 105.243 359.663 103.457C359.641 102.959 359.619 102.463 359.587 101.972C359.587 101.686 359.558 101.401 359.54 101.115C359.467 100.056 359.402 99.03 359.322 98Z" fill="#004C92"/>
<path opacity="0.1" d="M293 60.3949V97H318V60.3949H314.438V48H299.802V60.3949H293Z" fill="#004C92"/>
<path opacity="0.1" d="M318 98H293V138H318V98Z" fill="#004C92"/>
<path opacity="0.1" d="M318 139H293V172.952C295.959 173.716 298.962 174.291 301.992 174.674L302.737 174.755C303.098 174.795 303.46 174.828 303.822 174.857L304.907 174.934C304.943 174.934 304.983 174.934 305.019 174.934C305.178 174.934 305.341 174.934 305.504 174.956H305.67C305.865 174.956 306.061 174.956 306.26 174.978C306.538 174.978 306.82 174.978 307.102 175H307.464C307.746 175 308.025 175 308.307 175H308.925H309.424L310.061 174.978C310.397 174.978 310.741 174.949 311.081 174.923L311.71 174.883L312.495 174.82C313.045 174.773 313.58 174.718 314.137 174.652L314.792 174.568L315.114 174.527C315.66 174.45 316.199 174.37 316.745 174.275C317.15 174.212 317.548 174.135 317.953 174.062L318 139Z" fill="#004C92"/>
<path opacity="0.1" d="M158 56H137V97H158V56Z" fill="#004C92"/>
<path opacity="0.1" d="M137 98V138H239V120.747H184.669V130.926H157.549V98H137Z" fill="#004C92"/>
<path opacity="0.1" d="M137 182.639H137.323V209C140.996 208.721 144.654 208.344 148.298 207.868C164.597 205.753 180.568 201.597 195.838 195.497C200.207 193.737 204.487 191.822 208.677 189.749C215.632 186.319 222.341 182.407 228.755 178.042C230.357 176.951 231.935 175.834 233.487 174.692C234.566 173.895 235.644 173.084 236.722 172.295C237.473 171.754 238.231 171.213 239 170.704V139.552H158.08C158.137 139.368 158.191 139.191 158.249 139C158.188 139.184 158.127 139.361 158.073 139.552H137.323V182.621L137 182.639Z" fill="#004C92"/>
<path opacity="0.1" d="M84 53H97V49.2206H91.1756V38C90.6715 38.1726 90.1675 38.3673 89.6669 38.5326V49.2206H84V53Z" fill="#004C92"/>
<path opacity="0.1" d="M51 97H116.788H116.767H116.799H129V56.7633H125.544V86.5099H109.743V68.9056H96.6867V55H83.2881V68.9056H70.2357V86.5063H51V97Z" fill="#004C92"/>
<path opacity="0.1" d="M50.4382 98V138.392H129V98H50.4382ZM53.1815 197.756C68.3387 203.511 84.1863 207.262 100.32 208.911H100.389C103.439 209.233 106.497 209.482 109.564 209.658H109.677C116.104 210.021 122.558 210.104 129 209.865V139.638H50.4382V153.958H29L29.1126 185.927L53.1815 197.756Z" fill="#004C92"/>
<path opacity="0.1" d="M20.5951 139H2C2.16224 147.204 4.04646 155.255 8.16888 162.694C11.5981 168.876 16.3658 174.289 22 179V153.317H20.5951V139Z" fill="#004C92"/>
<path opacity="0.1" d="M3 139H21V105H11.26C6.22053 115.707 3.01783 127.476 3 139Z" fill="#004C92"/>
<path opacity="0.1" d="M148 68H137V81H148V68Z" fill="#004C92"/>
<path opacity="0.1" d="M148 93H137V96H148V93Z" fill="#004C92"/>
<path opacity="0.1" d="M148 98H137V107H148V98Z" fill="#004C92"/>
<path opacity="0.1" d="M148 120H137V133H148V120Z" fill="#004C92"/>
<path opacity="0.1" d="M148 146H137V159H148V146Z" fill="#004C92"/>
<path opacity="0.1" d="M137.315 181.983H137H137.315V185H148V172H137.315V181.983Z" fill="#004C92"/>
<path opacity="0.1" d="M137 199V209C140.681 208.716 144.348 208.331 148 207.845V199.018L137 199Z" fill="#004C92"/>
<path opacity="0.1" d="M240 137H192V138H240V137Z" fill="#004C92"/>
<path opacity="0.1" d="M240 140H192V143H240V140Z" fill="#004C92"/>
<path opacity="0.1" d="M240 154H192V160H240V154Z" fill="#004C92"/>
<path opacity="0.1" d="M192 173V179H228.99C230.597 177.863 232.183 176.696 233.748 175.499C234.832 174.671 235.916 173.824 237 173.004L192 173Z" fill="#004C92"/>
<path opacity="0.1" d="M192 190V196H195.707C199.889 194.168 203.987 192.168 208 190H192Z" fill="#004C92"/>
<path opacity="0.1" d="M100 110H110V101H100V110Z" fill="#004C92"/>
<path opacity="0.1" d="M302 72H312V63H302V72Z" fill="#004C92"/>
<path opacity="0.1" d="M302 91H312V82H302V91Z" fill="#004C92"/>
<path opacity="0.1" d="M302 110H312V101H302V110Z" fill="#004C92"/>
<path opacity="0.1" d="M302 129H312V120H302V129Z" fill="#004C92"/>
<path opacity="0.1" d="M302 149H312V140H302V149Z" fill="#004C92"/>
<path opacity="0.1" d="M302 168H312V159H302V168Z" fill="#004C92"/>
<path opacity="0.1" d="M65 110H75V101H65V110Z" fill="#004C92"/>
<path opacity="0.1" d="M100 131H110V122H100V131Z" fill="#004C92"/>
<path opacity="0.1" d="M65 131H75V122H65V131Z" fill="#004C92"/>
<path opacity="0.1" d="M100 151H110V142H100V151Z" fill="#004C92"/>
<path opacity="0.1" d="M65 151H75V142H65V151Z" fill="#004C92"/>
<path opacity="0.1" d="M100 172H110V163H100V172Z" fill="#004C92"/>
<path opacity="0.1" d="M65 172H75V163H65V172Z" fill="#004C92"/>
<path opacity="0.1" d="M100 193H110V184H100V193Z" fill="#004C92"/>
<path opacity="0.1" d="M65 193H75V184H65V193Z" fill="#004C92"/>
<path opacity="0.1" d="M110 209V204H100V208.289L110 209Z" fill="#004C92"/>
<path opacity="0.1" d="M326 87V91H358V87H326ZM354.813 87.2532H357.423V90.7498H354.799L354.813 87.2532ZM351.627 87.2532H354.251V90.7498H351.616L351.627 87.2532ZM348.448 87.2532H351.072V90.7498H348.448V87.2532ZM345.261 87.2532H347.885V90.7498H345.261V87.2532ZM342.078 87.2532H344.72V90.7498H342.096L342.078 87.2532ZM338.891 87.2532H341.515V90.7498H338.891V87.2532ZM335.705 87.2532H338.329V90.7498H335.705V87.2532ZM332.522 87.2532H335.146V90.7498H332.522V87.2532ZM329.339 87.2532H331.963V90.7498H329.339V87.2532ZM326.156 87.2532H328.78V90.7498H326.156V87.2532Z" fill="#004C92"/>
<path opacity="0.1" d="M326 101V105H358V101H326ZM354.813 101.253H357.423V104.747H354.799L354.813 101.253ZM351.627 101.253H354.251V104.747H351.616L351.627 101.253ZM348.448 101.253H351.072V104.747H348.448V101.253ZM345.261 101.253H347.885V104.747H345.261V101.253ZM342.078 101.253H344.72V104.747H342.096L342.078 101.253ZM338.891 101.253H341.515V104.747H338.891V101.253ZM335.705 101.253H338.329V104.747H335.705V101.253ZM332.522 101.253H335.146V104.747H332.522V101.253ZM329.339 101.253H331.963V104.747H329.339V101.253ZM326.156 101.253H328.78V104.747H326.156V101.253Z" fill="#004C92"/>
<path opacity="0.1" d="M326 115V119H358V115H326ZM354.813 115.25H357.423V118.75H354.799L354.813 115.25ZM351.627 115.25H354.251V118.75H351.616L351.627 115.25ZM348.448 115.25H351.072V118.75H348.448V115.25ZM345.261 115.25H347.885V118.75H345.261V115.25ZM342.078 115.25H344.72V118.75H342.096L342.078 115.25ZM338.891 115.25H341.515V118.75H338.891V115.25ZM335.705 115.25H338.329V118.75H335.705V115.25ZM332.522 115.25H335.146V118.75H332.522V115.25ZM329.339 115.25H331.963V118.75H329.339V115.25ZM326.156 115.25H328.78V118.75H326.156V115.25Z" fill="#004C92"/>
<path opacity="0.1" d="M326 128V132H358V128H326ZM354.813 128.25H357.423V131.75H354.799L354.813 128.25ZM351.627 128.25H354.251V131.75H351.616L351.627 128.25ZM348.448 128.25H351.072V131.75H348.448V128.25ZM345.261 128.25H347.885V131.75H345.261V128.25ZM342.078 128.25H344.72V131.75H342.096L342.078 128.25ZM338.891 128.25H341.515V131.75H338.891V128.25ZM335.705 128.25H338.329V131.75H335.705V128.25ZM332.522 128.25H335.146V131.75H332.522V128.25ZM329.339 128.25H331.963V131.75H329.339V128.25ZM326.156 128.25H328.78V131.75H326.156V128.25Z" fill="#004C92"/>
<path opacity="0.1" d="M325 141V145H355.231C355.275 144.918 355.319 144.832 355.359 144.75H353.951V141.253H356.573V142.121C356.726 141.749 356.872 141.378 357 141H325ZM350.75 141.253H353.386V144.741H350.739L350.75 141.253ZM347.555 141.253H350.192V144.741H347.555V141.253ZM344.353 141.253H346.99V144.741H344.353V141.253ZM341.155 141.253H343.81V144.741H341.173L341.155 141.253ZM337.953 141.253H340.59V144.741H337.953V141.253ZM334.751 141.253H337.388V144.741H334.751V141.253ZM331.553 141.253H334.19V144.741H331.553V141.253ZM328.355 141.253H330.992V144.741H328.355V141.253ZM325.157 141.253H327.793V144.741H325.157V141.253Z" fill="#004C92"/>
<path opacity="0.1" d="M326 155V159H345.647C345.761 158.918 345.861 158.829 345.964 158.75H344.92V155.26H347.497V157.443L348.05 156.939V155.26H349.758C349.84 155.174 349.918 155.089 350 155.009L326 155ZM341.793 155.25H344.389V158.75H341.811L341.793 155.25ZM338.663 155.25H341.241V158.75H338.663V155.25ZM335.533 155.25H338.111V158.75H335.533V155.25ZM332.406 155.25H334.984V158.75H332.406V155.25ZM329.28 155.25H331.857V158.75H329.28V155.25ZM326.153 155.25H328.731V158.75H326.153V155.25Z" fill="#004C92"/>
<path opacity="0.1" d="M326 169V172C326.054 171.985 326.107 171.966 326.159 171.943V169.295H328.83V170.907L329.398 170.668V169.31H332.069V169.462C332.383 169.314 332.693 169.159 333 169.004L326 169Z" fill="#004C92"/>
<path opacity="0.1" d="M137 182H137.324H137ZM158.082 138.995C158.139 138.812 158.193 138.635 158.254 138.441C158.193 138.628 158.135 138.812 158.082 138.995ZM299.451 53V54.238H314V53H299.451ZM137 182H137.324H137ZM158.082 138.995C158.139 138.812 158.193 138.635 158.254 138.441C158.193 138.628 158.135 138.812 158.082 138.995ZM137 182H137.324H137ZM158.082 138.995C158.139 138.812 158.193 138.635 158.254 138.441C158.193 138.628 158.135 138.812 158.082 138.995Z" fill="#004C92"/>
<path opacity="0.1" d="M325.5 297C332.404 297 338 296.328 338 295.5C338 294.672 332.404 294 325.5 294C318.596 294 313 294.672 313 295.5C313 296.328 318.596 297 325.5 297Z" fill="#004C92"/>
<path d="M241 192L234.538 191.668L234.101 174.309L234 170.175L240.817 169L240.862 174.33L241 192Z" fill="#D48A9B"/>
<path d="M235.879 190.038L203.572 209.935L202.873 215.989L206.366 216.162V211.838L227.496 200.075L202 231.385V236.229H206.191L205.842 230.866L235.355 197.653L239.022 197.999L270.11 232.942L270.809 238.827L275 239L274.301 232.942L249.678 202.496L266.094 213.741L266.443 218.584L269.761 218.757L269.412 212.876L238.149 189L235.879 190.038Z" fill="#D48A9B"/>
<path d="M195.507 155.168C198.531 151.361 201.065 147.182 203.049 142.73C205.252 137.797 207.668 132.102 207.851 130.416C208.212 127.264 217.023 120.959 226.713 120.609C233.033 120.379 242.879 115.388 248.971 111.94C254.702 108.642 261.075 106.65 267.646 106.102C274.773 105.559 281.475 106.974 278.101 115.344L232.784 170.882C232.784 170.882 194.138 177.774 191.755 166.693C191.621 166.135 191.437 165.59 191.203 165.066C190.752 164.019 190.633 161.286 195.507 155.168Z" fill="#004C92"/>
<path opacity="0.2" d="M200.101 156.392C203.136 152.61 205.688 148.466 207.698 144.057C209.748 139.524 211.923 134.443 212.096 132.905C212.426 129.947 220.848 124.027 230.096 123.697C236.125 123.482 245.521 118.799 251.332 115.561C256.805 112.469 262.889 110.604 269.159 110.096C275.958 109.587 281.719 110.859 279.148 118.773L243.295 171.126C243.295 171.126 199.069 177.383 196.728 167.031C196.589 166.481 196.405 165.944 196.178 165.425C195.768 164.399 195.71 161.885 200.101 156.392Z" fill="#DDA2A6"/>
<path opacity="0.1" d="M241 174C238.795 174 236.472 174 234.103 173.98L234 170.1L240.954 169L241 174Z" fill="black"/>
<g opacity="0.1">
<path opacity="0.1" d="M265.936 212.441L249.631 201.167L251.499 203.498L265.936 213.482L266.283 218.338L269.579 218.512L269.518 217.467L266.283 217.298L265.936 212.441Z" fill="black"/>
<path opacity="0.1" d="M206.608 210.533V211.574L226.061 200.643L227.597 198.739L206.608 210.533Z" fill="black"/>
<path opacity="0.1" d="M202.271 234.989V236.03H206.434L206.366 234.989H202.271Z" fill="black"/>
<path opacity="0.1" d="M206.608 214.869L203.254 214.703L203.138 215.737L206.608 215.91V214.869Z" fill="black"/>
<path opacity="0.1" d="M270.62 237.594L269.926 231.694L239.046 196.658L235.403 196.311L206.087 229.612L206.149 230.584L235.403 197.351L239.046 197.698L269.926 232.734L270.62 238.635L274.783 238.809L274.664 237.761L270.62 237.594Z" fill="black"/>
</g>
<path d="M278.777 111.105C278.852 110.605 278.875 110.326 278.875 110.326C278.875 110.326 282.351 119.159 277.324 126.387C272.296 133.615 270.451 144.742 266.929 156.531C263.407 168.321 262.07 173.034 255.698 173.708C253.52 173.938 247.106 174.011 239.613 173.999C229.776 174.016 217.135 173.856 209.542 173.697C205.464 173.585 203 173.335 203 173.335C203 173.335 216.341 172.292 221.334 162.555C221.334 162.555 233.381 143.53 241.648 141.269C249.915 139.009 263.175 133.268 269.545 125.444C275.914 117.62 278.752 111 278.752 111C278.752 111 278.762 111.036 278.777 111.105Z" fill="#004C92"/>
<path opacity="0.1" d="M196 168.411C196 168.411 203.056 170.991 207.063 169.576C211.07 168.161 221 164 221 164C221 164 204.275 165.013 196 168.411Z" fill="black"/>
<path d="M243 294C243 294 222.785 292.923 217.858 290.053C212.931 287.182 205.957 287.182 205.921 287.182L125.431 269.778L91.9689 261.884L86 261.105L105.715 238.728L106.316 238.47L135.379 226C135.379 226 148.402 226.718 150.974 235.136C151.15 235.729 151.271 236.337 151.336 236.952C151.606 239.577 150.872 242.207 149.281 244.322C148.254 245.715 146.991 247.692 146.593 249.432C146.369 250.415 146.42 251.323 146.955 252.016C148.04 253.085 149.239 254.034 150.529 254.847C157.616 259.512 175.53 267.198 206.825 255.425C206.825 255.425 220.21 242.327 230.339 247.889C240.468 253.451 243 294 243 294Z" fill="#E1DEE5"/>
<path opacity="0.1" d="M146.277 248.873C146.055 249.875 146.105 250.8 146.634 251.505C147.706 252.594 148.889 253.561 150.164 254.39L90 259L106.489 237.704L135.189 225C135.189 225 148.049 225.731 150.589 234.308C150.762 234.912 150.882 235.531 150.946 236.158C151.212 238.833 150.488 241.512 148.917 243.667C147.917 245.086 146.67 247.1 146.277 248.873Z" fill="black"/>
<path d="M138 167.086V226.863L90 259.481L79 248.506L81.36 213.767L79 181.379L87.8954 166L138 167.086Z" fill="#A36468"/>
<path d="M59 157.379L117.266 139.387C118.313 139.066 119.411 138.943 120.503 139.024L259.695 149.204C271.601 150.022 283.059 154.072 292.843 160.92C301.851 167.287 310.772 177.06 314.902 191.86C317.89 202.781 317.682 214.332 314.306 225.138L302.01 265C302.01 265 311.232 178.39 219.196 174.042L59 157.379Z" fill="#D9D6DF"/>
<path d="M90 164.457V261C90 261 74.0276 258.74 71.1877 255.604C68.8579 253.031 55.3601 245.78 49.5029 238.31C48.2186 236.672 47.2997 235.035 46.9488 233.408C44.988 224.428 37 203.208 37 203.208L39.1706 182.468L48.215 169.005L65.7611 161H79.3276L90 164.457Z" fill="#B8797D"/>
<path d="M64.6765 167C64.6765 167 38.7163 183.193 44.396 209.25C44.8591 211.373 45.2606 213.507 45.5247 215.666C46.563 224.094 52.7925 248.311 90 259.481V262L74.2162 257.621L63.5008 251.744L55.3213 244.447L45.3221 232.312L40.6807 222.417L38.9804 209.383L38 194.503L40.3913 181.739L46.0312 173.434L52.9047 168.119L64.6765 167Z" fill="#D9D6DF"/>
<path opacity="0.1" d="M90 164.457V179.754C78.6772 180.987 43.62 188.09 49.8457 228.679L49.5021 238C48.2179 236.369 47.299 234.738 46.9481 233.118C44.9874 224.174 37 203.039 37 203.039L39.1705 182.382L48.2143 168.973L65.7591 161H79.3248L90 164.457Z" fill="black"/>
<path d="M295 253.438L288.16 276.802L272.68 292.015L253.24 296L223 290.567V182.441C223 182.441 228.22 179 228.76 179C229.3 179 243.88 181.354 243.88 181.354L276.892 205.178L278.26 206.167L293.02 228.263L295 253.438Z" fill="#B8797D"/>
<path d="M223 178V290.476L226 291V178H223Z" fill="#A36468"/>
<path opacity="0.1" d="M278 213C256.218 194.967 232.003 192.315 223 191.985V182.475C223 182.475 228.264 179 228.809 179C229.353 179 244.056 181.378 244.056 181.378L277.347 205.436L278 213Z" fill="black"/>
<path d="M219.004 171.662L83.1617 156.861L67.8942 156.052C58.2534 155.496 48.893 159.404 42.5171 166.648C34.5653 175.781 28.5544 191.892 37.334 219.556C37.334 219.556 46.4894 255.414 90.828 263.118L219.662 292.276C222.517 292.922 225.337 293.719 228.12 294.626C239.816 298.463 279.445 308.405 298.114 274.608C304.511 263.02 306.427 249.508 303.962 236.501C299.469 212.711 282.506 172.341 219.004 171.662ZM285.557 273.063C268.135 301.409 232.237 292.972 221.444 289.644C218.802 288.828 216.127 288.117 213.42 287.539L94.4099 262.11C53.4075 255.385 44.9388 224.075 44.9388 224.075C38.0171 203.499 41.0424 190.221 46.6376 181.817C52.4966 173.019 62.6966 168.099 73.2653 168.633L87.3328 169.355L208.837 185.568C211.294 185.896 213.77 186.113 216.25 186.196C270.282 188.026 287.093 217.7 291.366 238.151C293.874 250.104 291.966 262.645 285.557 273.063Z" fill="#E1DEE5"/>
<path d="M1.52977 232.101C5.986 235.081 12.7518 233.663 12.7518 233.663C12.7518 233.663 22.9566 228.835 25.972 228.835C28.9875 228.835 36.3216 225.852 36.3216 225.852L36.0718 223.841L35.3261 217.784C39.9706 221.4 45.1327 220.153 47.674 219.889C50.4035 219.607 64.9884 210.946 66.393 210.375C66.7731 210.223 67.2184 209.727 67.6709 209.087C68.6104 207.652 69.4358 206.145 70.1397 204.581C71.0519 203.779 71.718 203.135 71.671 202.994C71.6239 202.853 72.033 201.797 72.5651 200.607C74.6357 200.246 76.4204 199.479 76.9888 199.016C77.9356 198.259 78.4718 197.102 78.4368 195.892C78.4368 195.892 92.667 181.553 90.7955 175.59C88.9239 169.627 95.3965 169.482 95.3965 169.482C95.3965 169.482 105.312 165.222 106.691 162.669C107.542 161.096 114.981 157.643 120.577 155.22L121.265 154.923C123.437 159.679 134.471 156.008 136.643 154.009C138.942 151.879 145.693 150.884 145.693 150.884C145.693 150.884 145.982 123.039 148.136 119.503C149.161 117.821 149.407 112.324 149.382 107.016C149.382 106.828 149.382 106.654 149.382 106.452C152.401 105.862 159.583 104.499 162.917 104.17C165.031 103.96 167.235 102.644 168.926 101.364L169.125 101.613C169.706 101.851 170.334 101.954 170.96 101.913C171.515 101.975 172.076 101.871 172.571 101.613C173.867 100.89 178.61 99.4833 180.333 98.7745C182.056 98.0657 180.047 92.9524 178.754 91.9579C177.462 90.9635 176.582 89.6869 177.306 89.1192C178.03 88.5514 175.583 87.1303 174.146 86.8446C172.709 86.5589 168.397 84.5736 168.397 84.5736C168.397 84.5736 166.816 81.319 164.231 81.319C161.646 81.319 158.193 78.7623 158.193 78.7623C158.052 77.6268 155.318 77.4858 155.318 77.4858C155.318 77.4858 144.972 69.5301 143.246 70.5282C141.519 71.5263 136.78 68.966 136.78 68.966C136.78 68.966 130.963 69.6169 129.595 68.5465C129.582 68.195 129.455 67.8572 129.233 67.5846C128.925 66.6227 127.423 65.3064 125.975 64.2107C126.085 63.5316 126.141 62.8447 126.141 62.1567C126.141 61.8601 126.141 61.5636 126.109 61.2707C126.109 61.2201 126.109 61.1731 126.109 61.1224L126.315 59.1227C126.329 58.465 126.5 57.8203 126.814 57.2422C127.057 56.8806 127.415 56.5732 127.687 56.2152C127.75 56.1309 127.808 56.0427 127.861 55.9512L127.904 55.8753C127.944 55.806 127.98 55.7348 128.013 55.6619L128.045 55.5896C128.125 55.3932 128.187 55.1898 128.23 54.9821V54.9351C128.248 54.8411 128.262 54.747 128.273 54.6494C128.272 54.6362 128.272 54.6228 128.273 54.6096C128.333 53.7835 128.222 52.9539 127.948 52.1723C127.517 50.8307 126.843 49.5361 126.771 48.1366C126.735 47.4423 126.851 46.7335 126.699 46.0536C126.337 44.5023 124.755 43.5223 123.216 42.8714C121.091 41.9818 120.02 41.009 118.315 39.6855C116.867 38.5645 114.47 39.1286 112.646 39.2443C108.476 39.5119 104.36 40.7667 100.436 42.0613C98.9115 42.5676 97.3585 43.1462 96.1712 44.1768C95.3718 44.856 94.8226 45.7827 94.6109 46.8094C94.5698 47.0482 94.554 47.2906 94.5639 47.5327C94.5639 47.5544 94.5639 47.5761 94.5639 47.5942C94.5639 47.6882 94.5639 47.7786 94.5965 47.869C94.5944 47.8991 94.5944 47.9293 94.5965 47.9594C94.6144 48.0698 94.641 48.1786 94.6761 48.2849C94.8426 48.8092 95.1503 49.2829 95.3277 49.8037C95.3679 49.922 95.4005 50.0428 95.4254 50.1653C95.4254 50.1653 95.4254 50.1906 95.4254 50.2014C95.4508 50.3172 95.4689 50.4293 95.4834 50.5631C95.6426 51.8541 95.1648 53.2029 94.9548 54.5192C94.9259 54.7036 94.9042 54.8808 94.8897 55.0833C94.8269 55.8449 94.8942 56.6117 95.0888 57.3507C95.0872 57.3591 95.0872 57.3677 95.0888 57.376C95.1105 57.4664 95.1431 57.5568 95.172 57.6436C95.1819 57.6828 95.194 57.7215 95.2082 57.7593C95.2336 57.8353 95.2662 57.9112 95.2951 57.9835L95.3567 58.1354C95.3856 58.2005 95.4182 58.2656 95.4508 58.3307C95.4834 58.3958 95.5051 58.4392 95.534 58.4898C95.5637 58.5493 95.5963 58.6072 95.6318 58.6634C95.6644 58.7213 95.7006 58.7755 95.7368 58.8297C95.773 58.884 95.8055 58.9346 95.8454 58.9852C95.8852 59.0359 95.9286 59.0973 95.9721 59.1516L96.0843 59.289L96.2363 59.4481L96.3558 59.5675L96.5332 59.7193C96.5766 59.7519 96.6128 59.788 96.6562 59.817C96.6997 59.8459 96.8047 59.9218 96.8807 59.9688L96.9857 60.0412C97.1015 60.1099 97.2246 60.1714 97.3477 60.2292C98.173 60.5908 99.2156 60.7391 99.7115 61.466C99.8298 61.6357 99.9123 61.8276 99.9541 62.0301C99.9541 62.0771 99.9541 62.1277 99.9541 62.1747V62.3013C99.9541 62.7208 99.983 63.1367 100.026 63.5453C100.023 63.7702 100.037 63.995 100.066 64.2179C100.09 64.386 100.137 64.5501 100.204 64.7061C100.783 67.5637 102.314 70.1411 104.548 72.0181C104.591 72.2387 104.642 72.4954 104.696 72.7847C103.432 73.7328 102.019 74.4659 100.515 74.9545C97.0653 75.9634 92.1892 80.6175 92.1892 80.6175C92.1892 80.6175 89.7637 98.0802 89.1809 100.21C88.5981 102.34 88.1673 110.578 88.1673 110.578C88.1673 110.578 87.5918 113.984 86.7193 115.688C86.1076 116.888 86.2198 122.048 87.9212 125.184C87.6438 125.8 87.2886 126.379 86.8641 126.905C83.4143 130.883 73.0647 130.738 69.6148 130.738C66.4401 130.738 65.459 132.662 65.3251 132.966C59.0082 134.774 38.5552 140.589 36.1298 141.645C33.2555 142.9 31.6735 155.3 31.6735 155.3C31.6735 155.3 25.668 175.883 25.9539 178.581C26.2399 181.278 23.9412 188.793 23.9412 188.793C23.9412 188.793 23.9412 197.287 22.9674 197.862C22.959 197.87 22.9492 197.876 22.9385 197.881C21.9321 198.307 22.0733 202.426 22.0733 202.426C22.0733 202.426 22.8154 202.639 23.9702 202.932C23.6625 205.012 22.5222 207.923 21.6425 209.991C21.1936 209.424 20.7556 209.188 20.495 209.847C19.771 211.655 8.99784 224.434 6.26474 224.434C4.96516 224.434 2.81487 225.498 1.39945 226.933C-0.14991 228.514 -0.808751 230.542 1.52977 232.101ZM50.9609 158.124C63.1784 159.259 76.2575 157.26 76.2575 157.26C76.2575 157.26 75.2512 160.822 74.3896 162.243C73.528 163.664 71.0809 171.757 71.0809 173.453C71.0809 175.149 67.2003 189.78 66.0527 190.489C65.5713 190.789 65.1405 191.534 64.8002 192.297C64.498 193.002 64.244 193.727 64.04 194.467C64.0569 194.836 64.0895 195.186 64.1377 195.519C63.2798 196.304 62.3712 197.128 61.5639 197.859C61.5639 197.859 56.4235 200.716 54.6859 202.278C52.9483 203.84 44.9119 205.757 44.9119 205.757C42.9193 206.613 40.9846 207.597 39.1199 208.704C36.6257 210.205 34.1315 212.114 33.4799 213.998C33.7623 210.823 34.222 207.001 34.5297 204.571L34.9859 204.552C39.0149 204.303 38.414 200.463 38.2004 199.511C38.1715 199.374 38.1497 199.298 38.1497 199.298C41.024 196.174 47.4893 172.9 46.6278 170.332C45.7662 167.765 47.3518 165.505 47.6884 165.505C48.0251 165.505 48.4957 162.666 47.7789 161.104C47.0622 159.541 50.9609 158.124 50.9609 158.124ZM149.751 95.4837L148.987 95.6718V95.509C148.987 95.509 149.266 95.509 149.751 95.4837ZM107.99 74.0576C107.875 74.2023 107.759 74.3397 107.628 74.4735L107.48 74.6254C107.48 74.3614 107.48 74.0938 107.48 73.837C107.654 73.9058 107.82 73.9889 107.99 74.0576ZM93.5937 101.606L93.6444 102.405C93.6444 102.405 93.5684 102.893 93.4236 103.729L93.5937 101.606ZM159.641 93.672L157.132 94.1023C157.494 93.9685 157.838 93.8239 158.178 93.6611C158.43 93.5432 158.701 93.4697 158.978 93.4442C159.296 93.4779 159.609 93.5445 159.912 93.6431C159.821 93.6455 159.73 93.6552 159.641 93.672Z" fill="url(#paint0_linear)"/>
<path d="M75 196.257C75 196.257 72.0796 202.157 72.2293 202.575C72.379 202.993 65.9687 208 65.9687 208L59 203.129L59.7301 199.784C59.7301 199.784 67.553 192.883 68.1262 192.087C68.6993 191.29 75 196.257 75 196.257Z" fill="#EFB7B9"/>
<path d="M35.9386 216.506C40.721 221.306 46.3444 219.865 49.0189 219.563C51.6935 219.26 65.9613 210.399 67.3329 209.817C67.6938 209.66 68.145 209.153 68.5853 208.496C69.5055 207.024 70.3129 205.481 71 203.879C70.9062 203.905 66.2284 205.29 65.0481 203.879C65.0481 203.879 63.0774 201.382 62.6551 201.382C62.2328 201.382 62.6226 197 62.6226 197C62.6226 197 57.5912 199.926 55.9056 201.527C54.22 203.129 46.3408 205.088 46.3408 205.088C44.3922 205.965 42.5016 206.974 40.6813 208.108C36.9564 210.459 33.2026 213.777 35.9386 216.506Z" fill="#67647E"/>
<path opacity="0.1" d="M34.9502 215.768C39.7917 220.208 45.4845 218.875 48.1921 218.595C50.8996 218.316 65.3436 210.12 66.7321 209.581C67.0975 209.436 67.5542 208.967 68 208.359C66.3155 207.41 55.3099 214.021 52.2297 215.233C49.1494 216.445 41.3556 215.768 36.9307 214.021C34.7383 213.148 36.9599 210.465 39.7442 208C35.9806 210.175 32.1806 213.244 34.9502 215.768Z" fill="black"/>
<path d="M36 201C36 201 34.0062 215.78 34.5127 217.715C35.0192 219.651 22 211.086 22 211.086C22 211.086 26.5553 201.822 25.2333 199.695C23.9112 197.568 36 201 36 201Z" fill="#EFB7B9"/>
<path d="M23.0069 201.844C23.0069 201.844 31.2011 204.261 35.7188 203.977C39.6781 203.728 39.0871 199.88 38.8805 198.927C38.8515 198.792 38.8297 198.715 38.8297 198.715C41.6542 195.583 48.0137 172.252 47.1689 169.692C46.3241 167.133 47.8578 164.873 48.2204 164.873C48.583 164.873 49.0144 162.025 48.3074 160.462C47.6004 158.899 51.4183 157.475 51.4183 157.475C63.4268 158.611 76.2837 156.606 76.2837 156.606C76.2837 156.606 75.2939 160.177 74.4455 161.601C73.597 163.025 71.1823 171.131 71.1823 172.84C71.1823 174.548 67.368 189.2 66.2368 189.912C65.7654 190.212 65.3412 190.957 65.0076 191.738C64.7097 192.45 64.4602 193.182 64.2607 193.929C64.6849 203.462 75.4208 199.771 76.9762 198.482C77.1976 198.296 77.3993 198.088 77.5781 197.861C78.1237 197.141 78.4089 196.255 78.3867 195.349C78.3867 195.349 92.3748 180.982 90.5365 175.005C88.6983 169.028 95.0578 168.889 95.0578 168.889C95.0578 168.889 104.807 164.621 106.164 162.058C107.001 160.484 114.311 157.026 119.814 154.595C123.263 153.072 126 151.959 126 151.959L123.709 143.685L121.896 137.16L118.495 135.875L107.617 131.757L88.1037 129L86.3162 129.234L67.3571 131.706C67.3571 131.706 39.6781 139.68 36.8501 140.928C34.022 142.177 32.4701 154.609 32.4701 154.609C32.4701 154.609 26.5384 175.238 26.8285 177.955C27.1185 180.671 24.8488 188.178 24.8488 188.178C24.8488 188.178 24.8488 196.689 23.888 197.266C23.8785 197.269 23.8685 197.269 23.859 197.266C22.8655 197.733 23.0069 201.844 23.0069 201.844Z" fill="#444053"/>
<path opacity="0.1" d="M52 157.67C63.8206 158.747 76.4763 156.845 76.4763 156.845C77.3115 154.293 89 147.277 89 147.277C79.4101 144.985 52 157.67 52 157.67Z" fill="black"/>
<path d="M65 193.299C65.4141 203.373 75.8941 199.472 77.4125 198.11C77.6286 197.914 77.8255 197.695 78 197.454C74.3368 198.924 67.8421 200.063 65.7291 191C65.4389 191.748 65.1953 192.516 65 193.299Z" fill="#444053"/>
<path d="M23.007 201.757C23.007 201.757 31.1822 204.272 35.6895 203.976C39.6396 203.717 39.05 199.713 38.8438 198.721C34.7055 198.584 27.5793 198.178 23.8788 197C23.8693 197.003 23.8593 197.003 23.8499 197C22.8659 197.479 23.007 201.757 23.007 201.757Z" fill="#444053"/>
<path opacity="0.1" d="M65 193.299C65.4141 203.373 75.8941 199.472 77.4125 198.11C77.6286 197.914 77.8255 197.695 78 197.454C74.3368 198.924 67.8421 200.063 65.7291 191C65.4389 191.748 65.1953 192.516 65 193.299Z" fill="black"/>
<path opacity="0.1" d="M23.007 201.757C23.007 201.757 31.1822 204.272 35.6895 203.976C39.6396 203.717 39.05 199.713 38.8438 198.721C34.7055 198.584 27.5793 198.178 23.8788 197C23.8693 197.003 23.8593 197.003 23.8499 197C22.8659 197.479 23.007 201.757 23.007 201.757Z" fill="black"/>
<path d="M3.46962 231.145C7.76629 234.058 14.2824 232.669 14.2824 232.669C14.2824 232.669 24.1207 227.953 27.0337 227.953C29.9468 227.953 37 225.036 37 225.036L36.7617 223.073L35.6164 213.655C35.6164 213.655 24.8214 213.378 24.3874 212.405C24.3874 212.405 22.4489 207.625 21.7554 209.392C21.0618 211.159 10.6687 223.64 8.03305 223.64C6.77748 223.64 4.70384 224.68 3.34157 226.083C1.85837 227.64 1.22169 229.62 3.46962 231.145Z" fill="#67647E"/>
<path opacity="0.1" d="M41 148C41 148 50.0713 153.645 47.5608 154.873C45.0504 156.101 41 148 41 148Z" fill="black"/>
<path opacity="0.1" d="M37 159C37 159 44.0501 166.789 41.4071 166.996C38.7641 167.203 37 159 37 159Z" fill="black"/>
<path opacity="0.1" d="M28 183C28 183 32.2353 190.571 30.6413 191.883C29.0474 193.196 28 183 28 183Z" fill="black"/>
<path opacity="0.1" d="M73.0897 190.795C71.7593 192.159 85.7117 186.284 82.5255 186.011C79.3393 185.737 73.0897 190.795 73.0897 190.795Z" fill="black"/>
<path d="M102 85L102.469 84.9318C104.201 84.6662 110.488 83.6756 116.128 82.4482C117.502 82.1467 118.833 81.8345 120.064 81.5115C124.383 80.3773 127.282 79.1534 125.432 78.1485C122.984 76.817 121.696 74.398 121.016 72.3163C120.952 72.1117 120.891 71.9143 120.834 71.7169C120.533 70.6631 120.345 69.5804 120.272 68.4868C120.272 68.4868 104.526 62.8915 107.582 68.4868C109.089 71.2324 108.076 73.472 106.656 75.0404C105.679 76.0773 104.53 76.9359 103.26 77.5779L102 85Z" fill="#EFB7B9"/>
<path opacity="0.1" d="M119.457 81C119.457 81 113.813 85.0985 108.048 81.7073C102.282 78.316 94.7425 111.67 94.7425 111.67L86.9235 131.172C86.9235 131.172 81.8602 135.412 88.1634 137.251C94.4665 139.09 108.449 135.412 112 140.783C115.551 146.155 122.274 147 122.962 147C123.65 147 126.308 126.787 126.308 126.787L127 97.5317L119.457 81Z" fill="black"/>
<path d="M88.1519 135.235C94.4552 137.07 108.441 133.397 111.993 138.767C113.489 140.955 115.578 142.659 118.009 143.673C119.579 144.386 121.253 144.834 122.965 145C123.055 145 123.187 144.637 123.341 143.988C124.323 139.898 126.312 124.792 126.312 124.792L127 95.5453L120.367 80.987L119.46 79C118.572 79.6 117.608 80.0768 116.594 80.4178C114.411 81.1647 111.254 81.5853 108.058 79.6926C106.367 78.699 104.521 80.8674 102.762 84.4281C98.5188 92.9999 94.7526 109.647 94.7526 109.647L86.9264 129.169C86.7403 129.331 86.5633 129.502 86.396 129.684C85.2852 130.859 83.2032 133.792 88.1519 135.235Z" fill="#F3F5F9"/>
<path opacity="0.1" d="M118.104 135.563C117.792 138.009 117.729 140.481 117.915 142.939C118.144 146.438 118.586 149.919 119.241 153.364C119.281 153.58 119.339 153.793 119.414 154C122.858 152.501 125.592 151.405 125.592 151.405L123.303 143.259C124.295 139.205 126.305 124.229 126.305 124.229L127 95.235L120.298 80.8097C124.668 79.6738 127.601 78.4481 125.729 77.4416C123.013 75.9786 121.706 73.2035 121.076 71C119.928 72.5887 118.584 74.0282 117.075 75.2848L116.988 75.3567L116.482 80.2454L116.326 81.7479L116 84.8645C116 84.8645 117.553 121.702 118.679 123.805C119.805 125.908 119.244 129.966 118.259 134.729C118.198 134.999 118.162 135.276 118.104 135.563Z" fill="black"/>
<path d="M119.268 135.126C118.278 139.898 119.126 147.755 120.262 153.787C121.397 159.819 133.454 155.894 135.725 153.787C137.997 151.681 144.658 150.701 144.658 150.701C144.658 150.701 144.942 123.199 147.072 119.692C148.08 118.028 148.324 112.598 148.298 107.351C148.28 102.641 148.044 98.0783 147.956 96.5478C147.934 96.1877 147.923 95.9896 147.923 95.9896C147.923 95.9896 157.14 80.5553 156.998 79.4246C156.856 78.2938 154.163 78.1642 154.163 78.1642C154.163 78.1642 143.97 70.3066 142.248 71.2861C140.527 72.2656 135.863 69.7449 135.863 69.7449C135.863 69.7449 129.934 70.4111 128.707 69.2767C128.556 69.1491 128.474 68.958 128.488 68.7617C128.627 66.9612 122.446 63.1296 122.253 63C127.466 67.6382 119.039 74.7864 118.081 75.5714L117.994 75.6434L117 85.1683C117 85.1683 118.562 122.072 119.694 124.179C120.826 126.286 120.262 130.355 119.268 135.126Z" fill="#67647E"/>
<path d="M119 95C119.552 95 120 94.5523 120 94C120 93.4477 119.552 93 119 93C118.448 93 118 93.4477 118 94C118 94.5523 118.448 95 119 95Z" fill="#444053"/>
<path opacity="0.1" d="M119 76.0543L123.056 80L129 70.0065C128.858 69.8844 128.781 69.7015 128.794 69.5137C128.925 67.7907 123.104 64.1241 122.926 64C127.832 68.4626 119.915 75.303 119 76.0543Z" fill="black"/>
<path opacity="0.1" d="M121 118C121.552 118 122 117.552 122 117C122 116.448 121.552 116 121 116C120.448 116 120 116.448 120 117C120 117.552 120.448 118 121 118Z" fill="black"/>
<path d="M121 118C121.552 118 122 117.552 122 117C122 116.448 121.552 116 121 116C120.448 116 120 116.448 120 117C120 117.552 120.448 118 121 118Z" fill="#444053"/>
<path d="M118 75.0543L122.056 79L128 69.0065C127.858 68.8844 127.781 68.7015 127.794 68.5137C127.925 66.7907 122.108 63.1241 121.926 63C126.832 67.4626 118.901 74.2996 118 75.0543Z" fill="#67647E"/>
<path d="M121.652 114.697L115.261 114.551C114.323 114.53 113.579 113.751 113.601 112.813L113.996 95.5155C114.017 94.5768 114.796 93.8333 115.734 93.8548C115.734 93.8548 115.734 93.8548 115.734 93.8548L122.125 94.0009C123.064 94.0224 123.808 94.8007 123.786 95.7393L123.391 113.037C123.369 113.975 122.591 114.719 121.652 114.697C121.652 114.697 121.652 114.697 121.652 114.697Z" fill="#D1D9EC"/>
<path d="M121.703 115.155L115.312 115.009C114.373 114.987 113.629 114.209 113.651 113.27L114.046 95.9731C114.068 95.0345 114.846 94.2909 115.785 94.3124C115.785 94.3124 115.785 94.3124 115.785 94.3124L122.176 94.4586C123.114 94.4801 123.858 95.2584 123.836 96.197L123.441 113.494C123.419 114.433 122.641 115.176 121.703 115.155C121.703 115.155 121.703 115.155 121.703 115.155Z" fill="#DFE6F5"/>
<path d="M119.5 102C120.328 102 121 101.328 121 100.5C121 99.6716 120.328 99 119.5 99C118.672 99 118 99.6716 118 100.5C118 101.328 118.672 102 119.5 102Z" fill="white"/>
<path opacity="0.1" d="M66 133.654C69.5381 135.198 92.7539 131.133 96.1503 130.147C99.5468 129.16 104.505 121.589 102.097 116.105C99.6884 110.622 102.943 105.304 102.943 105.304C102.943 105.304 108.029 94.5027 109.173 92.3964C110.317 90.2902 112.668 84.1658 112.995 83.1397C113.021 82.9067 112.949 82.6731 112.795 82.4952C111.872 81.1163 108.312 78.6608 108.312 78.6608C107.313 79.0208 107.19 76.1801 107.222 74.0954C107.244 72.9289 107.313 72 107.313 72C107.313 72 106.845 72.4717 106.078 73.1161C105.798 73.3502 105.479 73.6094 105.123 73.8758C103.795 74.9298 102.293 75.7472 100.684 76.2917C97.2873 77.289 92.4742 81.8868 92.4742 81.8868L93.8909 103.432C93.8909 103.432 90.6215 123.695 87.236 127.623C83.8504 131.551 73.6466 131.411 70.2501 131.411C66.8537 131.411 66 133.654 66 133.654Z" fill="black"/>
<path d="M66 132.655C69.5381 134.196 92.7539 130.134 96.1504 129.144C99.5469 128.154 104.505 120.585 102.097 115.1C99.6885 109.616 102.943 104.298 102.943 104.298C102.943 104.298 108.029 93.4949 109.173 91.3884C110.317 89.2818 112.668 83.1567 112.995 82.1304C113.021 81.8974 112.949 81.664 112.795 81.4859C111.865 80.1103 108.323 77.6617 108.323 77.6617C107.324 78.0218 107.201 75.1843 107.233 73.0993C107.255 71.929 107.324 71 107.324 71C107.324 71 106.856 71.4717 106.089 72.1199C105.809 72.3503 105.49 72.6096 105.134 72.8761C103.8 73.9324 102.29 74.75 100.673 75.2923C97.2765 76.2897 92.4633 80.8881 92.4633 80.8881L93.88 102.436C93.88 102.436 90.6107 122.702 87.2252 126.631C83.8396 130.559 73.6393 130.419 70.2392 130.419C66.8391 130.419 66 132.655 66 132.655Z" fill="#67647E"/>
<path opacity="0.1" d="M104 71C104 71 104.134 71.7475 104.362 72.8997C105.124 76.8012 106.936 85.3189 108.245 84.9908C109.184 84.7538 110.782 83.0838 112 81.6398C111.083 80.2324 107.538 77.7456 107.538 77.7456C106.541 78.1102 106.418 75.237 106.45 73.1258L105.309 72.134L104 71Z" fill="black"/>
<path d="M105 71C105 71 105.134 71.7475 105.362 72.8997C106.124 76.8012 107.936 85.3189 109.245 84.9908C110.184 84.7538 111.782 83.0838 113 81.6398C112.065 80.236 108.531 77.7566 108.531 77.7566C107.534 78.1212 107.411 75.2479 107.443 73.1367L106.301 72.1449L105 71Z" fill="#67647E"/>
<path d="M95.1714 112.578C95.1714 112.578 102.197 111.161 104.162 108.04C106.126 104.919 119.507 102.213 117.86 105.491C116.212 108.769 104.162 119.436 104.162 119.436L98.9312 127L91.9451 125.208L89 119.421L95.1714 112.578Z" fill="#EFB7B9"/>
<path opacity="0.1" d="M112 120C112 120 105.119 122.662 104.083 126.22C103.048 129.779 112 120 112 120Z" fill="black"/>
<path opacity="0.1" d="M115.99 124C115.99 124 116.617 127.229 108 126.987L115.99 124Z" fill="black"/>
<path opacity="0.1" d="M152.864 79.282L155.927 79C155.927 79 159.265 81.5304 161.767 81.5304C164.27 81.5304 165.801 84.7837 165.801 84.7837C165.801 84.7837 169.974 86.7574 171.367 87.0394C172.759 87.3214 175.122 88.7275 174.426 89.2914C173.73 89.8554 174.565 91.1242 175.818 92.1074C177.071 93.0906 179.031 98.1659 177.346 98.8708C175.661 99.5757 171.088 100.982 169.849 101.687C168.611 102.392 167.068 101.687 167.068 101.687C167.068 101.687 159.7 91.9664 155.941 93.7991C152.182 95.6319 147.034 95.621 147.034 95.621L143 87.0322L152.864 79.282Z" fill="black"/>
<path d="M88.9053 126.03C89.5866 127.025 90.468 127.723 91.5975 127.865C94.4219 128.189 97.2842 127.929 100 127.102C100 127.102 85.465 122.571 99.4593 111.554H95.7191L94.46 111.089L95.0303 108.157L95.8524 81.7085L92.8232 81C92.8232 81 90.3828 98.4153 89.8014 100.537C89.22 102.659 88.783 110.875 88.783 110.875C88.783 110.875 88.2053 114.272 87.3388 115.961C86.6833 117.248 86.8648 123.007 88.9053 126.03Z" fill="#67647E"/>
<path opacity="0.1" d="M88 125.137C88.6719 126.078 89.5494 126.738 90.6692 126.872C93.4695 127.179 96.3073 126.933 99 126.151C99 126.151 84.5891 121.866 98.464 111.44H94.7593L93.522 111C91.4549 114.385 88.2607 120.395 88 125.137Z" fill="black"/>
<path d="M88 125.136C88.6756 126.078 89.5494 126.738 90.6692 126.872C93.4695 127.179 96.3073 126.933 99 126.15C99 126.15 84.5891 121.863 98.464 111.44H94.7557L93.5073 111C91.4806 114.379 88.2717 120.392 88 125.136Z" fill="#67647E"/>
<path opacity="0.1" d="M107 74.8833C112.1 77.0638 118.103 75.9895 122 72.1992C121.933 71.9984 121.869 71.8047 121.809 71.6109C121.496 70.5766 121.299 69.514 121.223 68.4407C121.223 68.4407 104.776 62.9491 107.968 68.4407C109.542 71.1459 108.484 73.344 107 74.8833Z" fill="black"/>
<path d="M99 61.9831V62.1116C99 62.5337 99.0293 62.9522 99.0733 63.3634C99.1173 63.7745 99.176 64.149 99.2493 64.5344C100.402 70.3004 105.271 74.5773 111.13 74.9706C116.99 75.3639 122.385 71.776 124.296 66.2157C124.384 65.9624 124.461 65.7091 124.531 65.4521C124.844 64.3226 125.002 63.1554 125 61.9831C125 61.6858 125 61.3847 124.967 61.0911C124.469 54.1066 118.543 48.7677 111.554 49.0078C104.565 49.2479 99.0184 54.9809 99 61.9831Z" fill="#EFB7B9"/>
<path opacity="0.1" d="M99 62.9161C99.0711 63.3233 99.0958 63.737 99.0734 64.1496C99.069 64.3733 99.0813 64.5969 99.11 64.8188C99.1345 64.9858 99.1813 65.1488 99.2494 65.3035C99.7739 66.5189 101.49 67.3075 102.624 66.5225C103.06 66.1699 103.407 65.7215 103.636 65.2131C104.839 63.0102 106.508 60.4781 109.137 60.4347C110.26 60.413 111.312 60.8796 112.398 61.1582C113.484 61.4367 114.767 61.462 115.574 60.735C116.198 60.1743 116.491 59.2193 117.324 59.024C118.156 58.8287 118.926 59.5811 119.308 60.319C119.689 61.0569 119.994 61.925 120.775 62.3084C121.12 62.4748 121.508 62.5255 121.875 62.7063C123.43 63.5455 122.715 66.4864 124.329 66.9638C124.379 66.9793 124.431 66.9914 124.483 67C124.509 66.7396 124.538 66.4719 124.564 66.2114C124.71 64.779 124.856 63.3466 125 61.9142C124.502 55.0319 118.573 49.7711 111.582 50.0077C104.59 50.2442 99.0404 55.8934 99.022 62.7932L99 62.9161Z" fill="black"/>
<path d="M122.029 43.839C123.533 44.4812 125.098 45.468 125.434 47.0099C125.582 47.6883 125.47 48.3921 125.506 49.0814C125.578 50.4746 126.227 51.7661 126.657 53.1012C127.086 54.4363 127.23 56.0036 126.386 57.1283C126.123 57.4911 125.773 57.7777 125.535 58.1477C125.224 58.731 125.056 59.3801 125.044 60.0415L124.348 67C122.567 66.6626 123.36 63.5534 121.78 62.69C121.452 62.5086 121.059 62.4578 120.716 62.2873C119.955 61.9245 119.659 61.0356 119.274 60.2955C118.888 59.5554 118.155 58.7971 117.322 58.9967C116.489 59.1962 116.215 60.154 115.605 60.7127C114.808 61.4383 113.542 61.4093 112.478 61.1372C111.414 60.8651 110.376 60.4116 109.276 60.4116C106.686 60.4551 105.041 62.9947 103.865 65.2042C103.639 65.7155 103.297 66.1665 102.866 66.5211C101.611 67.4063 99.6202 66.2889 99.4146 64.8087C99.292 63.9779 99.5517 63.0528 99.0756 62.3489C98.5995 61.6451 97.5679 61.4964 96.7636 61.1191C94.7077 60.1685 94.073 57.589 94.412 55.4268C94.6609 53.8667 95.2776 52.2632 94.7727 50.7612C94.5959 50.2424 94.2966 49.7707 94.1343 49.2519C93.6834 47.8008 94.4192 46.1899 95.577 45.156C96.7348 44.122 98.2532 43.5524 99.7464 43.0517C103.58 41.7565 107.606 40.5121 111.685 40.2437C113.47 40.1276 115.811 39.5652 117.228 40.6863C118.913 41.9851 119.952 42.9538 122.029 43.839Z" fill="#585268"/>
<path opacity="0.1" d="M119 84C119.552 84 120 83.5523 120 83C120 82.4477 119.552 82 119 82C118.448 82 118 82.4477 118 83C118 83.5523 118.448 84 119 84Z" fill="black"/>
<path d="M119 84C119.552 84 120 83.5523 120 83C120 82.4477 119.552 82 119 82C118.448 82 118 82.4477 118 83C118 83.5523 118.448 84 119 84Z" fill="#444053"/>
<path opacity="0.1" d="M124 128C124.552 128 125 127.552 125 127C125 126.448 124.552 126 124 126C123.448 126 123 126.448 123 127C123 127.552 123.448 128 124 128Z" fill="black"/>
<path d="M124 128C124.552 128 125 127.552 125 127C125 126.448 124.552 126 124 126C123.448 126 123 126.448 123 127C123 127.552 123.448 128 124 128Z" fill="#444053"/>
<path opacity="0.1" d="M121 141C121.552 141 122 140.552 122 140C122 139.448 121.552 139 121 139C120.448 139 120 139.448 120 140C120 140.552 120.448 141 121 141Z" fill="black"/>
<path d="M121 141C121.552 141 122 140.552 122 140C122 139.448 121.552 139 121 139C120.448 139 120 139.448 120 140C120 140.552 120.448 141 121 141Z" fill="#444053"/>
<path opacity="0.1" d="M97 95C97 95 94.75 105.086 97 106.843C99.25 108.601 97 95 97 95Z" fill="black"/>
<path opacity="0.1" d="M142.78 114C142.78 114 145.525 120.288 142.78 126.316C140.035 132.344 138.334 134.794 139.25 138.642C140.166 142.491 142.78 114 142.78 114Z" fill="black"/>
<path opacity="0.1" d="M3.46962 231.131C7.76629 234.066 14.2824 232.667 14.2824 232.667C14.2824 232.667 24.1207 227.916 27.0337 227.916C29.9468 227.916 37 224.977 37 224.977L36.7617 223C33.8913 223.556 27.3609 224.887 26.6069 225.537C25.6359 226.376 13.7169 230.431 13.7169 230.431C13.7169 230.431 5.60017 229.409 3.34157 226.043C1.85837 227.6 1.22169 229.595 3.46962 231.131Z" fill="black"/>
<g opacity="0.1">
<path opacity="0.1" d="M125.389 47.64C125.389 47.4873 125.389 47.3346 125.389 47.1782C125.389 47.3564 125.389 47.5419 125.389 47.7091C125.397 47.6873 125.389 47.6655 125.389 47.64Z" fill="black"/>
<path opacity="0.1" d="M96.8086 59.6946C97.6085 60.0582 98.6021 60.2037 99.1078 60.9237C99.6136 61.6437 99.3231 62.5564 99.445 63.3891C99.6566 64.8728 101.629 65.9964 102.878 65.1055C103.306 64.7501 103.646 64.298 103.871 63.7855C105.044 61.5709 106.68 59.0255 109.252 58.9818C110.349 58.9637 111.379 59.4328 112.441 59.7091C113.502 59.9855 114.758 60.0146 115.55 59.2837C116.157 58.7237 116.444 57.76 117.258 57.5637C118.072 57.3673 118.822 58.1237 119.198 58.8655C119.575 59.6073 119.869 60.48 120.633 60.8655C120.97 61.0328 121.351 61.0837 121.691 61.2655C123.262 62.1346 122.473 65.2655 124.245 65.5855C124.484 63.2582 124.715 60.9334 124.938 58.6109C124.952 57.9553 125.119 57.3124 125.425 56.7346C125.662 56.3709 126.01 56.0655 126.272 55.7091C126.589 55.269 126.787 54.7525 126.846 54.2109C126.994 55.1306 126.789 56.0731 126.272 56.8437C126.01 57.2073 125.662 57.4946 125.425 57.8655C125.115 58.4483 124.945 59.0977 124.93 59.76C124.691 62.0849 124.46 64.4097 124.238 66.7346C122.466 66.3964 123.255 63.28 121.684 62.4146C121.358 62.2328 120.967 62.1818 120.626 62.0109C119.869 61.6473 119.575 60.7564 119.191 60.0146C118.807 59.2728 118.079 58.5128 117.251 58.7128C116.422 58.9128 116.149 59.8728 115.543 60.4328C114.751 61.16 113.492 61.1309 112.433 60.8582C111.375 60.5855 110.342 60.1309 109.245 60.1309C106.673 60.1746 105.037 62.72 103.864 64.9346C103.639 65.4471 103.299 65.8992 102.871 66.2546C101.622 67.1418 99.6423 66.0218 99.4378 64.5382C99.3159 63.7055 99.5741 62.7782 99.1007 62.0728C98.6272 61.3673 97.6013 61.2182 96.8014 60.84C94.9326 59.9673 94.2439 57.7309 94.4017 55.6982C94.5452 57.36 95.2841 58.9818 96.8086 59.6946Z" fill="black"/>
<path opacity="0.1" d="M94.1937 47.7964C94.3551 48.3164 94.6528 48.7928 94.8286 49.3091C95.0137 49.9121 95.0676 50.5485 94.9864 51.1746C94.9585 50.9273 94.9056 50.6836 94.8286 50.4473C94.6528 49.9273 94.3551 49.4546 94.1937 48.9346C94.052 48.4547 94.0238 47.9477 94.1112 47.4546C94.132 47.5701 94.1596 47.6842 94.1937 47.7964Z" fill="black"/>
</g>
<path d="M173.516 163.991L144.957 160.458C144.547 160.407 144.2 160.132 144.062 159.746C143.925 159.36 144.019 158.931 144.307 158.637L156.285 146.331C156.521 146.088 156.858 145.968 157.196 146.007L179.03 148.426C179.367 148.464 179.667 148.653 179.842 148.94C180.017 149.226 180.049 149.577 179.926 149.889L174.671 163.316C174.487 163.776 174.011 164.053 173.516 163.991Z" fill="#746D83"/>
<path opacity="0.1" d="M173.516 163.991L144.957 160.458C144.547 160.407 144.2 160.132 144.062 159.746C143.925 159.36 144.019 158.931 144.307 158.637L156.285 146.331C156.521 146.088 156.858 145.968 157.196 146.007L179.03 148.426C179.367 148.464 179.667 148.653 179.842 148.94C180.017 149.226 180.049 149.577 179.926 149.889L174.671 163.316C174.487 163.776 174.011 164.053 173.516 163.991Z" fill="black"/>
<path d="M173.512 162.992L144.956 159.449C144.546 159.397 144.2 159.121 144.062 158.735C143.925 158.35 144.019 157.92 144.306 157.626L156.285 145.333C156.521 145.091 156.857 144.97 157.195 145.006L179.027 147.423C179.364 147.46 179.665 147.65 179.841 147.937C180.017 148.223 180.049 148.574 179.927 148.887L174.668 162.301C174.489 162.766 174.012 163.051 173.512 162.992Z" fill="#746D83"/>
<path d="M156.078 150.266L164.701 151L177 150.152H176.789L165.395 148.987C162.785 147.972 164.594 142 164.594 142L155.867 142.469L155.17 142.507C152.084 150.152 156.078 150.266 156.078 150.266Z" fill="#D1D9EC"/>
<path opacity="0.1" d="M156.078 150.311L164.701 151L177 150.205H176.789L164.355 150.645L156.024 149.747C153.658 149.129 155.013 145.052 155.867 143L155.17 143.036C152.084 150.205 156.078 150.311 156.078 150.311Z" fill="black"/>
<path d="M141.017 97.783L143.723 135.966L144.09 140.976C144.165 142.125 145.142 143.014 146.311 143H147.133L187.865 142.758C188.187 142.755 188.492 142.619 188.706 142.384C188.921 142.148 189.026 141.835 188.995 141.521L188.628 136.507L185.761 102.931C185.67 102.037 185.059 101.276 184.195 100.983L145.373 95.2543C144.053 94.8034 142.707 94.9621 141.868 95.6511C141.239 96.1768 140.92 96.9771 141.017 97.783Z" fill="#4C4C56"/>
<path d="M144 137L144.364 141.986C144.44 143.129 145.41 144.014 146.573 144H147.389L187.872 143.759C188.192 143.756 188.495 143.621 188.708 143.387C188.921 143.153 189.025 142.841 188.995 142.528L188.63 137.538L144 137Z" fill="#DFE6F5"/>
<path d="M170.5 141C171.052 141 171.5 140.552 171.5 140C171.5 139.448 171.052 139 170.5 139C169.948 139 169.5 139.448 169.5 140C169.5 140.552 169.948 141 170.5 141Z" fill="white"/>
<path d="M169 154.285C169 154.285 158.014 150.037 155.052 153.125C155.052 153.125 154.567 154.066 156.56 154.285L164.61 154.947C164.61 154.947 167.922 155.277 169 154.285Z" fill="#D1D9EC"/>
<path d="M168.575 153.772C166.446 152.899 160.082 150.644 156 153.139C156 153.139 160.515 152.635 162.996 154.079C165.477 155.523 168.863 154.837 168.863 154.837L168.912 154.748C169.008 154.575 169.026 154.37 168.962 154.183C168.897 153.997 168.757 153.847 168.575 153.772Z" fill="#DFE6F5"/>
<path d="M141.016 98.1539L144.015 141.948C144.09 143.113 145.047 144.014 146.194 144H147C146.448 143.464 145.978 142.848 145.605 142.171C145.605 142.171 142.659 98.1649 142.444 97.0751C142.349 96.6672 142.144 96.2946 141.85 96C141.236 96.5315 140.923 97.3393 141.016 98.1539Z" fill="#DFE6F5"/>
<path opacity="0.1" d="M141.016 98.1539L144.015 141.948C144.09 143.113 145.047 144.014 146.194 144H147C146.448 143.464 145.978 142.848 145.605 142.171C145.605 142.171 142.659 98.1649 142.444 97.0751C142.349 96.6672 142.144 96.2946 141.85 96C141.236 96.5315 140.923 97.3393 141.016 98.1539Z" fill="black"/>
<path opacity="0.1" d="M136.051 110.42C139.237 109.679 146.669 107.397 146.669 107.397L148 107.115C147.982 102.269 147.752 97.5747 147.667 96H147.635C147.635 96 141.29 98.1675 139.775 99.3346C138.26 100.502 133.567 100.198 133.567 100.198C133.567 100.198 126.262 100.609 120.199 107.697C114.136 114.785 132.88 111.15 136.051 110.42Z" fill="black"/>
<path d="M167.904 97.8079C168.49 98.0699 168.898 98.608 168.983 99.2326C169.069 99.8573 168.82 100.481 168.325 100.885C166.615 102.268 164.119 103.923 161.735 104.155C157.774 104.546 148.196 106.423 147.245 106.62C147.194 106.628 147.143 106.64 147.094 106.655C146.305 106.88 139.406 108.855 136.363 109.507C133.122 110.211 114.037 113.629 120.227 106.908C125.909 100.719 132.661 99.8674 133.702 99.7864C133.784 99.7794 133.867 99.7794 133.95 99.7864C134.67 99.8181 138.747 99.9554 140.155 98.9591C140.888 98.5093 141.665 98.1308 142.474 97.829C145.525 96.5947 148.707 95.6973 151.962 95.1534L158.563 94.0269C158.939 93.9636 159.325 94.0127 159.672 94.1677L167.904 97.8079Z" fill="#EFB7B9"/>
<path d="M153.871 79.282L156.93 79C156.93 79 160.27 81.5304 162.772 81.5304C165.274 81.5304 166.805 84.7837 166.805 84.7837C166.805 84.7837 170.977 86.7574 172.369 87.0394C173.761 87.3214 176.123 88.7275 175.427 89.2914C174.731 89.8554 175.566 91.1242 176.819 92.1074C178.072 93.0906 180.031 98.1659 178.346 98.8708C176.662 99.5757 172.09 100.982 170.852 101.687C169.614 102.392 168.072 101.687 168.072 101.687C168.072 101.687 160.691 91.9592 156.933 93.7919C153.175 95.6246 148.033 95.621 148.033 95.621L144 87.0322L153.871 79.282Z" fill="#67647E"/>
<path d="M339.272 255.757C338.929 256.243 338.656 256.777 338.461 257.344C338.407 257.481 338.361 257.64 338.311 257.792C338.22 257.749 338.125 257.714 338.028 257.688C337.612 257.58 337.181 257.542 336.753 257.577C336.753 257.404 336.753 257.226 336.778 257.034C336.828 255.083 336.607 252.367 334.813 253.518C333.087 254.628 334.316 256.478 335.428 257.663L335.713 257.955C334.702 258.695 334.509 260.445 334.338 262.262C334.166 264.079 332.68 266.066 331.694 267.194C331.594 267.313 331.501 267.413 331.415 267.509C330.611 266.845 329.572 266.567 328.557 266.743L328.425 266.243C327.625 263.25 325.963 258.066 323.845 256.93C323.934 256.815 324.027 256.697 324.123 256.56C325.024 255.342 326.035 253.529 324.538 253.067C323.041 252.604 322.909 254.639 322.991 256.16C322.991 256.353 323.005 256.534 323.034 256.704C322.428 256.733 321.86 257.019 321.465 257.496L321.237 257.211C320.022 255.731 317.793 253.374 317.121 255.154C316.492 256.811 318.454 258.965 319.833 260.212L319.918 260.29C318.989 264.179 323.034 267.35 325.21 268.737L325.488 268.915C322.487 272.578 320.636 279.446 320.636 279.446L329.04 281C329.04 281 334.609 276.019 333.898 271.342H333.956C339.522 270.188 340.79 264.038 339.922 260.39L340.022 260.345C341.035 259.914 341.923 259.218 342.598 258.325C344.138 256.086 340.869 253.555 339.272 255.757Z" fill="#004C92"/>
<path opacity="0.1" d="M339.272 255.757C338.929 256.243 338.656 256.777 338.461 257.344C338.407 257.481 338.361 257.64 338.311 257.792C338.22 257.749 338.125 257.714 338.028 257.688C337.612 257.58 337.181 257.542 336.753 257.577C336.753 257.404 336.753 257.226 336.778 257.034C336.828 255.083 336.607 252.367 334.813 253.518C333.087 254.628 334.316 256.478 335.428 257.663L335.713 257.955C334.702 258.695 334.509 260.445 334.338 262.262C334.166 264.079 332.68 266.066 331.694 267.194C331.594 267.313 331.501 267.413 331.415 267.509C330.611 266.845 329.572 266.567 328.557 266.743L328.425 266.243C327.625 263.25 325.963 258.066 323.845 256.93C323.934 256.815 324.027 256.697 324.123 256.56C325.024 255.342 326.035 253.529 324.538 253.067C323.041 252.604 322.909 254.639 322.991 256.16C322.991 256.353 323.005 256.534 323.034 256.704C322.428 256.733 321.86 257.019 321.465 257.496L321.237 257.211C320.022 255.731 317.793 253.374 317.121 255.154C316.492 256.811 318.454 258.965 319.833 260.212L319.918 260.29C318.989 264.179 323.034 267.35 325.21 268.737L325.488 268.915C322.487 272.578 320.636 279.446 320.636 279.446L329.04 281C329.04 281 334.609 276.019 333.898 271.342H333.956C339.522 270.188 340.79 264.038 339.922 260.39L340.022 260.345C341.035 259.914 341.923 259.218 342.598 258.325C344.138 256.086 340.869 253.555 339.272 255.757Z" fill="black"/>
<path d="M322 258.9L321.027 262C321.027 262 320.489 261.584 319.806 260.929C318.44 259.632 316.497 257.39 317.12 255.665C317.785 253.812 319.993 256.258 321.197 257.806C321.682 258.422 322 258.9 322 258.9Z" fill="#004C92"/>
<path d="M324.497 257.004C324.108 257.351 323.692 257.684 323.249 258C323.138 257.561 323.063 257.117 323.023 256.673C322.917 255.386 323.115 253.67 325.023 254.055C326.932 254.44 325.652 255.974 324.497 257.004Z" fill="#004C92"/>
<path d="M336.993 257.411C336.959 258.294 336.861 259 336.861 259C336.402 258.685 335.968 258.343 335.561 257.978C334.383 256.905 333.08 255.243 334.91 254.247C336.823 253.211 337.046 255.656 336.993 257.411Z" fill="#004C92"/>
<path d="M342.589 258.961C341.915 259.738 341.029 260.343 340.018 260.717C339.738 260.829 339.45 260.923 339.155 261L338 259.537C338.121 259.054 338.281 258.579 338.478 258.116C338.672 257.623 338.945 257.159 339.287 256.736C340.885 254.823 344.147 257.023 342.589 258.961Z" fill="#004C92"/>
<path opacity="0.1" d="M320.902 258C321.565 258.588 322 259.043 322 259.043L320.669 262C320.669 262 319.934 261.603 319 260.979C319.206 260.032 319.72 259.14 320.495 258.382C320.631 258.242 320.771 258.118 320.902 258Z" fill="black"/>
<path opacity="0.1" d="M324 256.5C323.736 257.023 323.454 257.524 323.154 258C323.078 257.338 323.027 256.67 323 256C323.36 256.007 323.709 256.182 324 256.5Z" fill="black"/>
<path d="M329 267.959L326.338 269C325.853 268.783 325.38 268.545 324.922 268.286C322.123 266.752 316.496 262.892 320.252 258.342C324.007 253.791 327.167 261.952 328.424 265.944C328.805 267.141 329 267.959 329 267.959Z" fill="#004C92"/>
<path opacity="0.1" d="M335 257.713C335.529 257.284 336.244 257.029 337 257C336.952 258.111 336.815 259 336.815 259C336.175 258.603 335.568 258.173 335 257.713Z" fill="black"/>
<path opacity="0.1" d="M340 260.706C339.722 260.822 339.436 260.92 339.145 261L338 259.478C338.12 258.975 338.278 258.481 338.474 258C339.212 258.415 339.756 259.431 340 260.706Z" fill="black"/>
<path d="M333.856 271.696C333.722 271.725 333.588 271.751 333.45 271.773C325.353 273.053 330.781 268.504 330.781 268.504C330.781 268.504 331.134 268.154 331.639 267.58C332.613 266.477 334.086 264.495 334.252 262.678C334.506 259.945 334.803 257.382 337.9 258.132C340.94 258.875 341.519 270.1 333.856 271.696Z" fill="#004C92"/>
<path d="M334 292H318V296H334V292Z" fill="#D4DFEC"/>
<path d="M336 278H315V293H336V278Z" fill="#D4DFEC"/>
<path opacity="0.1" d="M334 292H318V296H334V292Z" fill="black"/>
<path opacity="0.1" d="M336 278H315V293H336V278Z" fill="black"/>
<path d="M335 292H319V296H335V292Z" fill="#D4DFEC"/>
<path opacity="0.1" d="M328.576 266C328.863 267.173 329 267.977 329 267.977L327.042 269C326.685 268.787 326.337 268.553 326 268.298C326.773 267.135 327.637 266.262 328.576 266Z" fill="black"/>
<path opacity="0.1" d="M334 271.725C333.862 271.751 333.724 271.775 333.582 271.795C325.245 272.953 330.833 268.835 330.833 268.835C330.833 268.835 331.197 268.519 331.717 268C333.273 269.148 333.916 270.427 334 271.725Z" fill="black"/>
<path d="M320 279.481C320 279.481 324.819 262.85 331.575 267.984C338.331 273.118 328.828 281 328.828 281L320 279.481Z" fill="#004C92"/>
<path opacity="0.1" d="M322.5 262.5C323.052 262.5 323.5 262.052 323.5 261.5C323.5 260.948 323.052 260.5 322.5 260.5C321.948 260.5 321.5 260.948 321.5 261.5C321.5 262.052 321.948 262.5 322.5 262.5Z" fill="black"/>
<path opacity="0.1" d="M322.5 264.5C323.052 264.5 323.5 264.052 323.5 263.5C323.5 262.948 323.052 262.5 322.5 262.5C321.948 262.5 321.5 262.948 321.5 263.5C321.5 264.052 321.948 264.5 322.5 264.5Z" fill="black"/>
<path opacity="0.1" d="M337.5 262.5C338.052 262.5 338.5 262.052 338.5 261.5C338.5 260.948 338.052 260.5 337.5 260.5C336.948 260.5 336.5 260.948 336.5 261.5C336.5 262.052 336.948 262.5 337.5 262.5Z" fill="black"/>
<path opacity="0.1" d="M325.5 275.5C326.052 275.5 326.5 275.052 326.5 274.5C326.5 273.948 326.052 273.5 325.5 273.5C324.948 273.5 324.5 273.948 324.5 274.5C324.5 275.052 324.948 275.5 325.5 275.5Z" fill="black"/>
<path opacity="0.1" d="M337.5 266.5C338.052 266.5 338.5 266.052 338.5 265.5C338.5 264.948 338.052 264.5 337.5 264.5C336.948 264.5 336.5 264.948 336.5 265.5C336.5 266.052 336.948 266.5 337.5 266.5Z" fill="black"/>
<path opacity="0.1" d="M331.5 271.5C332.052 271.5 332.5 271.052 332.5 270.5C332.5 269.948 332.052 269.5 331.5 269.5C330.948 269.5 330.5 269.948 330.5 270.5C330.5 271.052 330.948 271.5 331.5 271.5Z" fill="black"/>
<path opacity="0.1" d="M324.5 263.5C325.052 263.5 325.5 263.052 325.5 262.5C325.5 261.948 325.052 261.5 324.5 261.5C323.948 261.5 323.5 261.948 323.5 262.5C323.5 263.052 323.948 263.5 324.5 263.5Z" fill="black"/>
<path opacity="0.1" d="M336.5 264.5C337.052 264.5 337.5 264.052 337.5 263.5C337.5 262.948 337.052 262.5 336.5 262.5C335.948 262.5 335.5 262.948 335.5 263.5C335.5 264.052 335.948 264.5 336.5 264.5Z" fill="black"/>
<path opacity="0.1" d="M334.5 268.5C335.052 268.5 335.5 268.052 335.5 267.5C335.5 266.948 335.052 266.5 334.5 266.5C333.948 266.5 333.5 266.948 333.5 267.5C333.5 268.052 333.948 268.5 334.5 268.5Z" fill="black"/>
<path opacity="0.1" d="M329.5 274.5C330.052 274.5 330.5 274.052 330.5 273.5C330.5 272.948 330.052 272.5 329.5 272.5C328.948 272.5 328.5 272.948 328.5 273.5C328.5 274.052 328.948 274.5 329.5 274.5Z" fill="black"/>
<path opacity="0.1" d="M328.5 271.5C329.052 271.5 329.5 271.052 329.5 270.5C329.5 269.948 329.052 269.5 328.5 269.5C327.948 269.5 327.5 269.948 327.5 270.5C327.5 271.052 327.948 271.5 328.5 271.5Z" fill="black"/>
<path opacity="0.1" d="M324.5 266.5C325.052 266.5 325.5 266.052 325.5 265.5C325.5 264.948 325.052 264.5 324.5 264.5C323.948 264.5 323.5 264.948 323.5 265.5C323.5 266.052 323.948 266.5 324.5 266.5Z" fill="black"/>
<path opacity="0.1" d="M335 292H319V294H335V292Z" fill="black"/>
<path d="M338 278H317V293H338V278Z" fill="#D4DFEC"/>
<path opacity="0.1" d="M330.5 277.5C331.052 277.5 331.5 277.052 331.5 276.5C331.5 275.948 331.052 275.5 330.5 275.5C329.948 275.5 329.5 275.948 329.5 276.5C329.5 277.052 329.948 277.5 330.5 277.5Z" fill="black"/>
<path opacity="0.1" d="M326.5 277.5C327.052 277.5 327.5 277.052 327.5 276.5C327.5 275.948 327.052 275.5 326.5 275.5C325.948 275.5 325.5 275.948 325.5 276.5C325.5 277.052 325.948 277.5 326.5 277.5Z" fill="black"/>
<defs>
<linearGradient id="paint0_linear" x1="90.4878" y1="233.999" x2="90.4878" y2="38.9803" gradientUnits="userSpaceOnUse">
<stop stop-color="#808080" stop-opacity="0.25"/>
<stop offset="0.54" stop-color="#808080" stop-opacity="0.12"/>
<stop offset="1" stop-color="#808080" stop-opacity="0.1"/>
</linearGradient>
</defs>
</svg>
