<svg width="151" height="46" viewBox="0 0 151 46" fill="none" xmlns="http://www.w3.org/2000/svg">
<path d="M144.451 44.3167C147.023 44.3167 149.116 42.187 149.116 39.5698V5.65282C149.116 3.03557 147.023 0.905865 144.451 0.905865H5.5558C2.98347 0.905865 0.890317 3.03557 0.890317 5.65282V39.5698C0.890317 42.187 2.98347 44.3167 5.5558 44.3167H144.451ZM144.451 45.2226H5.5558C2.5015 45.2226 0 42.6774 0 39.5698V5.65282C0 2.54518 2.5015 0 5.5558 0H144.451C147.505 0 150.007 2.54518 150.007 5.65282V39.5698C150.007 42.6774 147.505 45.2226 144.451 45.2226Z" fill="white"/>
<path d="M75.5839 26.1828C72.9871 26.1828 70.8656 28.1361 70.8656 30.8311C70.8656 33.5043 72.9871 35.4781 75.5839 35.4781C78.1863 35.4781 80.3077 33.5043 80.3077 30.8311C80.3077 28.1361 78.1863 26.1828 75.5839 26.1828ZM75.5839 33.6477C74.159 33.6477 72.9332 32.4853 72.9332 30.8311C72.9332 29.1551 74.159 28.0132 75.5839 28.0132C77.0088 28.0132 78.2402 29.1551 78.2402 30.8311C78.2402 32.4853 77.0088 33.6477 75.5839 33.6477ZM65.2891 26.1828C62.6867 26.1828 60.5708 28.1361 60.5708 30.8311C60.5708 33.5043 62.6867 35.4781 65.2891 35.4781C67.8901 35.4781 70.0074 33.5043 70.0074 30.8311C70.0074 28.1361 67.8901 26.1828 65.2891 26.1828ZM65.2891 33.6477C63.8629 33.6477 62.6328 32.4853 62.6328 30.8311C62.6328 29.1551 63.8629 28.0132 65.2891 28.0132C66.714 28.0132 67.9399 29.1551 67.9399 30.8311C67.9399 32.4853 66.714 33.6477 65.2891 33.6477ZM53.0388 27.6075V29.5827H57.8109C57.6713 30.6864 57.2982 31.4977 56.726 32.0632C56.0295 32.7462 54.9446 33.5043 53.0388 33.5043C50.1019 33.5043 47.8022 31.1617 47.8022 28.259C47.8022 25.3564 50.1019 23.0138 53.0388 23.0138C54.6267 23.0138 55.7821 23.6271 56.6348 24.4221L58.0431 23.0302C56.8504 21.9046 55.2638 21.04 53.0388 21.04C49.0115 21.04 45.6269 24.2787 45.6269 28.259C45.6269 32.2394 49.0115 35.4781 53.0388 35.4781C55.2155 35.4781 56.8504 34.7733 58.1357 33.451C59.4528 32.1493 59.8632 30.3189 59.8632 28.8409C59.8632 28.382 59.8245 27.9599 59.7554 27.6075H53.0388ZM103.132 29.1387C102.744 28.0992 101.545 26.1828 99.1048 26.1828C96.6862 26.1828 94.6726 28.0664 94.6726 30.8311C94.6726 33.4347 96.6655 35.4781 99.337 35.4781C101.497 35.4781 102.744 34.1764 103.256 33.4183L101.653 32.3624C101.118 33.1355 100.39 33.6477 99.337 33.6477C98.2908 33.6477 97.5403 33.1738 97.0594 32.2394L103.349 29.6673L103.132 29.1387ZM96.7194 30.6864C96.6655 28.8942 98.1277 27.9763 99.1753 27.9763C99.9962 27.9763 100.693 28.382 100.925 28.9625L96.7194 30.6864ZM91.6072 35.1954H93.6748V21.5358H91.6072V35.1954ZM88.2212 27.2182H88.1521C87.6878 26.6745 86.8019 26.1828 85.6797 26.1828C83.3247 26.1828 81.1715 28.2263 81.1715 30.8462C81.1715 33.451 83.3247 35.4781 85.6797 35.4781C86.8019 35.4781 87.6878 34.9823 88.1521 34.4222H88.2212V35.0888C88.2212 36.8659 87.2607 37.8207 85.7115 37.8207C84.4483 37.8207 83.6647 36.9192 83.3413 36.1611L81.5432 36.9028C82.0615 38.1349 83.4339 39.6511 85.7115 39.6511C88.1356 39.6511 90.181 38.2415 90.181 34.8115V26.4655H88.2212V27.2182ZM85.8566 33.6477C84.4317 33.6477 83.239 32.4689 83.239 30.8462C83.239 29.2084 84.4317 28.0132 85.8566 28.0132C87.2607 28.0132 88.3677 29.2084 88.3677 30.8462C88.3677 32.4689 87.2607 33.6477 85.8566 33.6477ZM112.812 21.5358H107.867V35.1954H109.929V30.0198H112.812C115.102 30.0198 117.348 28.382 117.348 25.7771C117.348 23.1736 115.096 21.5358 112.812 21.5358ZM112.866 28.1197H109.929V23.4359H112.866C114.405 23.4359 115.284 24.6994 115.284 25.7771C115.284 26.8344 114.405 28.1197 112.866 28.1197ZM125.612 26.1568C124.122 26.1568 122.573 26.807 121.936 28.2481L123.766 29.0062C124.16 28.2481 124.884 28.0022 125.65 28.0022C126.719 28.0022 127.804 28.6374 127.821 29.7589V29.9023C127.448 29.6892 126.649 29.3737 125.666 29.3737C123.695 29.3737 121.687 30.4459 121.687 32.4471C121.687 34.2775 123.301 35.4563 125.116 35.4563C126.504 35.4563 127.269 34.8375 127.75 34.1176H127.821V35.1735H129.812V29.9337C129.812 27.5119 127.982 26.1568 125.612 26.1568ZM125.363 33.6423C124.689 33.6423 123.749 33.3117 123.749 32.4853C123.749 31.4281 124.921 31.0224 125.936 31.0224C126.844 31.0224 127.269 31.2204 127.821 31.4813C127.659 32.7462 126.558 33.6423 125.363 33.6423ZM137.068 26.456L134.698 32.3774H134.627L132.177 26.456H129.953L133.635 34.7309L131.534 39.3356H133.689L139.362 26.456H137.068ZM118.481 35.1954H120.548V21.5358H118.481V35.1954Z" fill="white"/>
<path fill-rule="evenodd" clip-rule="evenodd" d="M48.6307 12.0252H50.9487V15.1877C50.5695 15.3112 50.2055 15.3988 49.8565 15.4505C49.5075 15.5022 49.1305 15.5281 48.7255 15.5281C47.7718 15.5281 47.0365 15.2459 46.5195 14.6814C46.0025 14.117 45.744 13.3207 45.744 12.2924C45.744 11.2784 46.0355 10.4849 46.6186 9.91187C47.2017 9.33883 48.0045 9.05232 49.0271 9.05232C49.6849 9.05232 50.3082 9.1787 50.897 9.43147L50.5351 10.2889C50.0238 10.0533 49.5125 9.93557 49.0012 9.93557C48.3291 9.93557 47.7977 10.1467 47.4071 10.5689C47.0164 10.9912 46.8211 11.5685 46.8211 12.301C46.8211 13.0708 46.997 13.656 47.3489 14.0567C47.7008 14.4574 48.207 14.6577 48.8677 14.6577C49.2009 14.6577 49.557 14.6161 49.9362 14.5328V12.9085H48.6307V12.0252ZM56.0242 15.4419H52.461V9.1428H56.0242V10.0131H53.4907V11.7279H55.8648V12.5896H53.4907V14.5673H56.0242V15.4419ZM59.5615 15.4419H58.5317V10.0261H56.6791V9.1428H61.4142V10.0261H59.5615V15.4419ZM64.6714 15.4419V9.1428H65.7012V15.4419H64.6714ZM69.5401 15.4419H68.5104V10.0261H66.6577V9.1428H71.3928V10.0261H69.5401V15.4419ZM80.2426 12.2837C80.2426 13.3092 79.9862 14.1063 79.4735 14.675C78.9608 15.2437 78.2348 15.5281 77.2955 15.5281C76.3447 15.5281 75.6145 15.2459 75.1046 14.6814C74.5948 14.117 74.3398 13.3149 74.3398 12.2751C74.3398 11.2353 74.5962 10.4368 75.1089 9.87956C75.6216 9.32232 76.3534 9.0437 77.3041 9.0437C78.2405 9.0437 78.9643 9.32663 79.4756 9.89249C79.9869 10.4583 80.2426 11.2554 80.2426 12.2837ZM75.4342 12.2837C75.4342 13.0593 75.5908 13.6474 75.9038 14.0481C76.2169 14.4488 76.6808 14.6491 77.2955 14.6491C77.9073 14.6491 78.3691 14.4509 78.6807 14.0546C78.9924 13.6582 79.1482 13.0679 79.1482 12.2837C79.1482 11.5111 78.9938 10.9251 78.685 10.5258C78.3762 10.1266 77.9159 9.92695 77.3041 9.92695C76.6866 9.92695 76.2205 10.1266 75.906 10.5258C75.5915 10.9251 75.4342 11.5111 75.4342 12.2837ZM86.8433 15.4419H85.5809L82.483 10.4224H82.4485L82.4701 10.7025C82.5103 11.2368 82.5304 11.7251 82.5304 12.1674V15.4419H81.5954V9.1428H82.8449L85.9342 14.1364H85.96C85.9543 14.0703 85.9428 13.8298 85.9255 13.4147C85.9083 12.9997 85.8997 12.6758 85.8997 12.4432V9.1428H86.8433V15.4419Z" fill="white"/>
<path d="M11.7891 37.4111C11.4643 37.075 11.2764 36.5519 11.2764 35.8744V11.7079C11.2764 11.0304 11.4643 10.5072 11.7891 10.1712L11.8693 10.0974L25.5708 23.634V23.9537L11.8693 37.4903L11.7891 37.4111Z" fill="url(#paint0_linear)"/>
<path d="M30.1328 19.1194L25.5707 23.6339V23.9535L30.1384 28.468L30.2406 28.4093L35.6499 25.3673C37.1937 24.504 37.1937 23.0834 35.6499 22.2146L30.2406 19.1781L30.1328 19.1194Z" fill="url(#paint1_linear)"/>
<path d="M30.2407 19.1782L25.5708 23.7938L11.7891 10.1711C12.3019 9.6384 13.138 9.5742 14.0888 10.1069L30.2407 19.1782Z" fill="url(#paint2_linear)"/>
<path d="M30.2407 28.4093L14.0888 37.4806C13.138 38.0078 12.3019 37.9436 11.7891 37.4109L25.5708 23.7937L30.2407 28.4093Z" fill="url(#paint3_linear)"/>
<defs>
<linearGradient id="paint0_linear" x1="20.0385" y1="11.4562" x2="8.31365" y2="23.0447" gradientUnits="userSpaceOnUse">
<stop stop-color="white" stop-opacity="0.595137"/>
<stop offset="0.0066" stop-color="white" stop-opacity="0.466033"/>
<stop offset="0.2601" stop-color="white" stop-opacity="0.772475"/>
<stop offset="0.5122" stop-color="white" stop-opacity="0.819039"/>
<stop offset="0.7604" stop-color="white" stop-opacity="0.908231"/>
<stop offset="1" stop-color="white"/>
</linearGradient>
<linearGradient id="paint1_linear" x1="37.6601" y1="23.7952" x2="10.9073" y2="23.7952" gradientUnits="userSpaceOnUse">
<stop stop-color="white"/>
<stop offset="0.4087" stop-color="white" stop-opacity="0.837777"/>
<stop offset="0.7754" stop-color="white" stop-opacity="0.780288"/>
<stop offset="1" stop-color="white" stop-opacity="0.48078"/>
</linearGradient>
<linearGradient id="paint2_linear" x1="26.3473" y1="17.5109" x2="23.7959" y2="20.5054" gradientUnits="userSpaceOnUse">
<stop stop-color="white"/>
<stop offset="1" stop-color="white" stop-opacity="0.974326"/>
</linearGradient>
<linearGradient id="paint3_linear" x1="24.5436" y1="27.3652" x2="26.4293" y2="30.5966" gradientUnits="userSpaceOnUse">
<stop stop-color="white" stop-opacity="0.800555"/>
<stop offset="0.0685" stop-color="white" stop-opacity="0.875425"/>
<stop offset="0.4762" stop-color="white" stop-opacity="0.919582"/>
<stop offset="0.8009" stop-color="white" stop-opacity="0.94987"/>
<stop offset="1" stop-color="white"/>
</linearGradient>
</defs>
</svg>
