<svg width="33" height="32" viewBox="0 0 33 32" fill="none" xmlns="http://www.w3.org/2000/svg">
<path fill-rule="evenodd" clip-rule="evenodd" d="M13.3194 0L19.6806 0C24.1382 0 25.7546 0.464128 27.3842 1.33566C29.0139 2.2072 30.2928 3.48614 31.1643 5.11577C32.0359 6.7454 32.5 8.36183 32.5 12.8194V19.1806C32.5 23.6382 32.0359 25.2546 31.1643 26.8842C30.2928 28.5139 29.0139 29.7928 27.3842 30.6643C25.7546 31.5359 24.1382 32 19.6806 32H13.3194C8.86183 32 7.2454 31.5359 5.61577 30.6643C3.98614 29.7928 2.7072 28.5139 1.83566 26.8842C0.964128 25.2546 0.5 23.6382 0.5 19.1806L0.5 12.8194C0.5 8.36183 0.964128 6.7454 1.83566 5.11577C2.7072 3.48614 3.98614 2.2072 5.61577 1.33566C7.2454 0.464128 8.86183 0 13.3194 0ZM11.9286 24.5714H8.5V13.1429H11.9286V24.5714ZM9.92915 11.4286C8.82302 11.4286 7.92857 10.5318 7.92857 9.42799C7.92857 8.32418 8.82418 7.42857 9.92915 7.42857C11.0318 7.42857 11.9286 8.32534 11.9286 9.42799C11.9286 10.5318 11.0318 11.4286 9.92915 11.4286ZM25.0714 24.5714H21.5924V19.1485C21.5924 17.855 21.5688 16.1915 19.7833 16.1915C17.9718 16.1915 17.6933 17.6001 17.6933 19.0545V24.5714H14.2143V13.4201H17.554V14.9438H17.6012C18.0662 14.0674 19.2015 13.1429 20.895 13.1429C24.42 13.1429 25.0714 15.4525 25.0714 18.4554V24.5714Z" fill="white"/>
</svg>
