<svg height="105" viewBox="0 0 105 105" width="105" xmlns="http://www.w3.org/2000/svg"><g fill="#7849e6" fill-rule="evenodd"><path d="m96.8835616 88.7671233c-1.6818493 0-3.2457534.5145205-4.5431506 1.3939726l-27.2566439-27.2566438c2.3422603-2.8278083 3.7518493-6.4545206 3.7518493-10.4044521s-1.409589-7.5766438-3.7518493-10.4044521l18.8026028-18.8026027c2.2218493 1.7529452 5.0225342 2.8029452 8.0656849 2.8029452 7.1946575 0 13.0479452-5.8532877 13.0479452-13.0479452 0-7.19465753-5.8532877-13.0479452-13.0479452-13.0479452s-13.0479452 5.85328767-13.0479452 13.0479452c0 3.0431507 1.05 5.8438356 2.8029452 8.0656849l-18.8026027 18.8026028c-2.8278083-2.3422603-6.4545206-3.7518493-10.4044521-3.7518493s-7.5766438 1.409589-10.4044521 3.7518493l-12.4621232-12.4621233c.879452-1.2971918 1.3939726-2.8610959 1.3939726-4.5431507 0-4.4753425-3.6410959-8.1164384-8.1164384-8.1164384s-8.1164384 3.6410959-8.1164384 8.1164384 3.6410959 8.1164384 8.1164384 8.1164384c1.6818493 0 3.2457534-.5145206 4.5431507-1.3939726l12.4621233 12.4621232c-2.3422603 2.8278083-3.7518493 6.4545206-3.7518493 10.4044521 0 1.8976027.3287671 3.7189726.9263013 5.4147945l-19.2285616 8.8746576c-1.7543836-2.6058905-4.7311644-4.3236987-8.10184933-4.3236987-5.38171233 0-9.76027397 4.3785617-9.76027397 9.760274s4.37856164 9.760274 9.76027397 9.760274 9.76027393-4.3785617 9.76027393-9.760274c0-.9143836-.1292465-1.7987671-.3653424-2.6387671l19.2318493-8.8763014c2.825137 4.8369863 8.0613699 8.1002055 14.0504794 8.1230137l1.0941781 12.0353425c-3.3809589.980137-5.8604794 4.1026027-5.8604794 7.7950685 0 4.4753424 3.6410959 8.1164383 8.1164383 8.1164383 4.4753425 0 8.1164384-3.6410959 8.1164384-8.1164383 0-4.200822-3.2081507-7.6662329-7.3031507-8.075548l-1.0939726-12.0353424c2.7743836-.5186302 5.305274-1.7367124 7.3974658-3.4697261l27.2566438 27.2566439c-.8794521 1.2971917-1.3939726 2.8610958-1.3939726 4.5431506 0 4.4753424 3.6410959 8.1164384 8.1164383 8.1164384s8.1164384-3.641096 8.1164384-8.1164384-3.641096-8.1164383-8.1164384-8.1164383zm-87.3835616-9.7671233c-3.584 0-6.5-2.916-6.5-6.5s2.916-6.5 6.5-6.5c2.5754 0 4.8058 1.5058 5.8572 3.683.0122.032.024.0642.0386.0958.008.0174.0188.0324.0274.0494.3694.8158.5768 1.7198.5768 2.6718 0 3.584-2.916 6.5-6.5 6.5zm82.5-76c5.5140206 0 10 4.48597938 10 10 0 5.5140206-4.4859794 10-10 10s-10-4.4859794-10-10c0-5.51402062 4.4859794-10 10-10zm-74 20c0-2.7569388 2.2430612-5 5-5s5 2.2430612 5 5-2.2430612 5-5 5-5-2.2430612-5-5zm21 29.5c0-7.4438372 6.0561628-13.5 13.5-13.5s13.5 6.0561628 13.5 13.5-6.0561628 13.5-13.5 13.5-13.5-6.0561628-13.5-13.5zm22 36.5c0 2.7569388-2.2430612 5-5 5s-5-2.2430612-5-5 2.2430612-5 5-5 5 2.2430612 5 5zm36 13c-2.7569388 0-5-2.2430612-5-5s2.2430612-5 5-5 5 2.2430612 5 5-2.2430612 5-5 5z"/><path d="m59.7272727 52.3636364c0 .9037091.7326546 1.6363636 1.6363637 1.6363636s1.6363636-.7326545 1.6363636-1.6363636c0-5.7144-4.6492364-10.3636364-10.3636364-10.3636364-.9037091 0-1.6363636.7326545-1.6363636 1.6363636s.7326545 1.6363637 1.6363636 1.6363637c3.9098182 0 7.0909091 3.1810909 7.0909091 7.0909091z"/><path d="m91.5384615 10.0769231c1.8662564 0 3.3846154 1.518359 3.3846154 3.3846154 0 .849641.6888205 1.5384615 1.5384616 1.5384615.849641 0 1.5384615-.6888205 1.5384615-1.5384615 0-3.56287183-2.8986667-6.4615385-6.4615385-6.4615385-.849641 0-1.5384615.68882051-1.5384615 1.53846154 0 .84964102.6888205 1.53846156 1.5384615 1.53846156z"/><path d="m9.63043478 69c-.90043478 0-1.63043478.73-1.63043478 1.6304348s.73 1.6304348 1.63043478 1.6304348c.06 0 .10869565.0486956.10869565.1086956 0 .9004348.72999997 1.6304348 1.63043477 1.6304348s1.6304348-.73 1.6304348-1.6304348c0-1.8580435-1.5115217-3.3695652-3.36956522-3.3695652z"/></g></svg>