<svg height="51" viewBox="0 0 147 51" width="147" xmlns="http://www.w3.org/2000/svg"><g fill="#fff" fill-rule="evenodd"><path d="m46.1350294 42.2700587c-.8008807 0-1.5455969.2450098-2.1634051.6637965l-12.9793542-12.9793542c1.115362-1.3465754 1.7865949-3.0735812 1.7865949-4.954501s-.6712329-3.6079256-1.7865949-4.954501l8.9536203-8.9536203c1.0580235.8347358 2.391683 1.3347358 3.8408024 1.3347358 3.4260274 0 6.2133072-2.78727986 6.2133072-6.21330726s-2.7872798-6.21330724-6.2133072-6.21330724-6.2133073 2.78727984-6.2133073 6.21330724c0 1.44911937.5 2.78277887 1.3347358 3.84080236l-8.9536203 8.9536203c-1.3465754-1.115362-3.0735812-1.7865949-4.954501-1.7865949s-3.6079256.6712329-4.954501 1.7865949l-5.9343444-5.9343444c.4187867-.6177104.6637965-1.3624266.6637965-2.1634051 0-2.13111543-1.7338552-3.86497062-3.8649707-3.86497062-2.13111543 0-3.86497062 1.73385519-3.86497062 3.86497062 0 2.1311155 1.73385519 3.8649707 3.86497062 3.8649707.8008807 0 1.5455969-.2450098 2.1634051-.6637965l5.9343444 5.9343444c-1.115362 1.3465754-1.7865949 3.0735812-1.7865949 4.954501 0 .9036204.1565558 1.7709393.4410959 2.5784736l-9.15645791 4.2260274c-.83542074-1.2409002-2.25293542-2.0589041-3.85802348-2.0589041-2.56272016 0-4.64774951 2.0850293-4.64774951 4.6477495 0 2.5627201 2.08502935 4.6477495 4.64774951 4.6477495s4.64774951-2.0850294 4.64774951-4.6477495c0-.4354208-.06154599-.8565558-.1739726-1.2565558l9.15802348-4.2268102c1.3453033 2.3033268 3.8387476 3.8572407 6.6907045 3.8681018l.5210372 5.7311155c-1.6099804.4667318-2.7907045 1.9536203-2.7907045 3.7119373 0 2.1311155 1.7338552 3.8649707 3.8649706 3.8649707 2.1311155 0 3.8649707-1.7338552 3.8649707-3.8649707 0-2.0003914-1.5276908-3.6505871-3.4776908-3.845499l-.5209394-5.7311155c1.3211351-.2469667 2.526321-.8270058 3.5226028-1.6522504l12.9793542 12.9793542c-.4187867.6177103-.6637965 1.3624266-.6637965 2.1634051 0 2.1311154 1.7338552 3.8649706 3.8649707 3.8649706 2.1311154 0 3.8649706-1.7338552 3.8649706-3.8649706 0-2.1311155-1.7338552-3.8649707-3.8649706-3.8649707zm-41.61121988-4.6510111c-1.70666666 0-3.09523809-1.3885714-3.09523809-3.0952381 0-1.7066666 1.38857143-3.0952381 3.09523809-3.0952381 1.22638096 0 2.28847619.7170476 2.78914286 1.7538096.00580952.015238.01142857.0305714.01838095.045619.00380953.0082857.00895238.0154286.01304762.0235238.17590476.3884762.27466667.8189524.27466667 1.2722857 0 1.7066667-1.38857143 3.0952381-3.0952381 3.0952381zm39.28571428-36.19047617c2.6257241 0 4.7619048 2.13618066 4.7619048 4.76190476s-2.1361807 4.76190481-4.7619048 4.76190481-4.7619048-2.13618071-4.7619048-4.76190481 2.1361807-4.76190476 4.7619048-4.76190476zm-35.23809523 9.52380957c0-1.31282804 1.06812439-2.38095243 2.38095243-2.38095243 1.3128279 0 2.3809523 1.06812439 2.3809523 2.38095243 0 1.3128279-1.0681244 2.3809523-2.3809523 2.3809523-1.31282804 0-2.38095243-1.0681244-2.38095243-2.3809523zm10.00000003 14.047619c0-3.5446844 2.883887-6.4285714 6.4285714-6.4285714s6.4285714 2.883887 6.4285714 6.4285714-2.883887 6.4285714-6.4285714 6.4285714-6.4285714-2.883887-6.4285714-6.4285714zm10.4761904 17.3809524c0 1.312828-1.0681243 2.3809524-2.3809523 2.3809524s-2.3809524-1.0681244-2.3809524-2.3809524 1.0681244-2.3809524 2.3809524-2.3809524 2.3809523 1.0681244 2.3809523 2.3809524zm17.1428572 6.1904762c-1.312828 0-2.3809524-1.0681244-2.3809524-2.3809524s1.0681244-2.3809524 2.3809524-2.3809524 2.3809524 1.0681244 2.3809524 2.3809524-1.0681244 2.3809524-2.3809524 2.3809524z"/><path d="m28.3636364 25.1818182c0 .4518545.3663272.8181818.8181818.8181818.4518545 0 .8181818-.3663273.8181818-.8181818 0-2.8572-2.3246182-5.1818182-5.1818182-5.1818182-.4518545 0-.8181818.3663273-.8181818.8181818 0 .4518546.3663273.8181818.8181818.8181818 1.9549091 0 3.5454546 1.5905455 3.5454546 3.5454546z"/><path d="m43.7692308 4.53846154c.9331282 0 1.6923077.75917949 1.6923077 1.69230769 0 .42482051.3444102.76923077.7692307.76923077s.7692308-.34441026.7692308-.76923077c0-1.7814359-1.4493333-3.23076923-3.2307692-3.23076923-.4248205 0-.7692308.34441026-.7692308.76923077s.3444103.76923077.7692308.76923077z"/><path d="m4.65217391 33c-.36017391 0-.65217391.292-.65217391.6521739s.292.6521739.65217391.6521739c.024 0 .04347826.0194783.04347826.0434783 0 .3601739.292.6521739.65217392.6521739.36017391 0 .65217391-.292.65217391-.6521739 0-.7432174-.6046087-1.3478261-1.34782609-1.3478261z"/><path d="m133.940315 11.7229232c.725967-.8535607 2.287403-1.7219153 4.140398-1.73312281h.004506c.350591-.00493129.641699.01793191.914781.04976111-.158171.4998531-.941368 2.9771518-1.095484 3.4671423-.387993-.1672154-.804827-.2474608-1.286551-.2474608-1.579011 0-3.176498 1.1745426-3.176498 3.4272437v10.0091655h-3.65642v-16.4229753h3.65642v2.0406558zm-6.697324 7.8297887h-10.674247v.2835526c0 2.4982436 1.573457 4.1115138 4.014488 4.1115138 1.87489 0 2.846824-.5291779 3.863547-1.5062607.302329.3020649 1.856079 1.8254832 2.182595 2.1465118-1.576593 1.5333517-3.127207 2.4228402-6.078839 2.4228402-5.04823 0-7.60661-2.8639723-7.60661-8.5246409 0-5.2416607 2.739777-8.49709827 7.147965-8.49709827 4.343243 0 7.151101 3.11501577 7.151101 7.93179907zm-10.803739-2.3135815h6.990655l-.013282-.2896784c-.031434-.7755623-.133704-1.2543916-.405538-1.8998852-.552523-1.2182369-1.672621-1.9082625-3.076508-1.9082625-1.403886 0-2.522656.6935529-3.068095 1.9029716-.275819.6507845-.379417 1.1278501-.414393 1.9051761zm-3.813084-6.9347826c-.272751.7287863-7.229933 19.3880507-7.23129 19.3947863-.377237.9824919-.75538 1.6237161-1.222177 2.0871218-.841773.8307176-1.986603 1.2290131-3.503695 1.2132968h-1.4012972v-3.2474323h.7060764c1.3800378 0 1.9676058-.417604 2.4194768-1.7243003l.759903-2.187706s-5.510201-14.8137155-5.7793332-15.5357663h3.7027172c.133888.3542899 3.994918 10.9003621 3.994918 10.9003621s3.704527-10.5361934 3.835248-10.9003621zm-17.7550638 1.7057727c1.5625558 1.633137 1.8672136 3.613039 1.8672136 6.4761082 0 3.3592865-.4870011 5.0628601-1.8672136 6.5031993-.709514.7558394-2.3244258 2.0214416-5.139012 2.0214416-2.6435266 0-4.2354198-1.0980894-5.1065153-2.0214416-1.3784071-1.4403392-1.8685676-3.1439128-1.8685676-6.5031993 0-3.3398712.4901605-5.036672 1.8685676-6.4729476.8710955-.9251583 2.4616346-2.02415067 5.1065153-2.02415067 2.8177457 0 4.429498 1.26695667 5.139012 2.02099007zm-2.7208459 11.0110186c1.0093845-.9914762 1.0927324-2.6359855 1.0927324-4.3772572 0-1.7255196-.0833479-3.3596775-1.0927324-4.3498036-.5714627-.5549206-1.3321849-.8375566-2.260524-.8375566-.9218922 0-1.6457756.2758852-2.2223036.8375566-1.0144498.9901261-1.0973372 2.624284-1.0973372 4.3498036 0 1.7412717.0828874 3.385781 1.0973372 4.3772572.576528.5634717 1.3040953.8375566 2.2223036.8375566.9283391 0 1.6872194-.2799357 2.260524-.8375566zm-8.7577349-19.0211391v3.51515302h-8.4087329v6.12083768h5.5783804v3.5129218h-5.5783804v9.5467397h-3.9837905v-22.6956522z"/><path d="m76.164 43.728c0 1.308 0 2.556-.756 3.372-.576.624-1.284.9-2.244.9h-2.928v-8.544h2.928c.96 0 1.668.276 2.244.9.756.816.756 2.064.756 3.372zm-.912 0c0-1.188-.012-2.244-.564-2.832-.432-.48-1.032-.624-1.68-.624h-1.86v6.912h1.86c.648 0 1.248-.144 1.68-.624.552-.588.564-1.644.564-2.832zm7.428 1.548h-3.984c0 1.296.6 2.04 1.74 2.04.684 0 1.08-.204 1.548-.672l.588.516c-.6.6-1.164.912-2.16.912-1.572 0-2.58-.936-2.58-3.024 0-1.92.924-3.024 2.424-3.024 1.536 0 2.424 1.092 2.424 2.868zm-.852-.648c-.036-.48-.048-.672-.192-.984-.252-.54-.744-.888-1.38-.888s-1.128.348-1.38.888c-.144.312-.156.504-.18.984zm6.948 1.644c0 1.14-.96 1.8-2.4 1.8-1.008 0-1.788-.228-2.424-.852l.576-.576c.456.48 1.104.684 1.836.684.984 0 1.572-.348 1.572-1.044 0-.528-.288-.804-.984-.864l-.972-.084c-1.152-.096-1.764-.6-1.764-1.584 0-1.08.9-1.728 2.172-1.728.852 0 1.584.204 2.124.636l-.564.564c-.42-.324-.96-.468-1.572-.468-.864 0-1.32.36-1.32.972 0 .528.324.792 1.056.864l.924.084c1.032.096 1.74.48 1.74 1.596zm2.556 1.728h-.864v-5.904h.864zm.06-7.584h-.972v-.972h.972zm6.456 7.764c0 1.464-.912 2.532-2.46 2.532-.888 0-1.38-.228-2.004-.792l.564-.552c.432.384.732.588 1.416.588 1.14 0 1.62-.804 1.62-1.812v-.924c-.48.612-1.02.768-1.656.768-.6 0-1.116-.216-1.428-.528-.588-.588-.72-1.5-.72-2.46s.132-1.872.72-2.46c.312-.312.84-.516 1.44-.516.648 0 1.176.144 1.656.768v-.696h.852zm-.864-3.18c0-1.104-.18-2.208-1.464-2.208s-1.476 1.104-1.476 2.208.192 2.208 1.476 2.208 1.464-1.104 1.464-2.208zm7.668 3h-.864v-3.636c0-1.044-.564-1.572-1.452-1.572s-1.464.54-1.464 1.572v3.636h-.864v-5.904h.864v.648c.42-.48.996-.72 1.656-.72.636 0 1.152.192 1.512.552.42.408.612.96.612 1.644zm10.392-2.352c0 1.5-1.164 2.424-2.952 2.424-1.272 0-2.124-.324-2.916-1.128l.612-.612c.708.708 1.368.924 2.328.924 1.26 0 2.028-.576 2.028-1.584 0-.456-.132-.816-.42-1.068-.264-.24-.504-.324-1.116-.42l-.996-.144c-.672-.108-1.176-.312-1.56-.648-.432-.384-.66-.912-.66-1.608 0-1.452 1.044-2.4 2.736-2.4 1.092 0 1.812.288 2.544.936l-.588.588c-.516-.492-1.104-.744-1.992-.744-1.152 0-1.812.636-1.812 1.596 0 .42.12.768.384.996s.672.372 1.116.444l.996.156c.792.12 1.164.264 1.548.612.456.396.72.972.72 1.68zm5.904-3.552-2.688 7.332c-.12.324-.252.54-.42.696-.312.3-.732.408-1.152.408h-.372v-.768h.264c.6 0 .78-.192.972-.732l.42-1.152-2.124-5.784h.936l1.62 4.74 1.608-4.74zm5.472 4.176c0 1.14-.96 1.8-2.4 1.8-1.008 0-1.788-.228-2.424-.852l.576-.576c.456.48 1.104.684 1.836.684.984 0 1.572-.348 1.572-1.044 0-.528-.288-.804-.984-.864l-.972-.084c-1.152-.096-1.764-.6-1.764-1.584 0-1.08.9-1.728 2.172-1.728.852 0 1.584.204 2.124.636l-.564.564c-.42-.324-.96-.468-1.572-.468-.864 0-1.32.36-1.32.972 0 .528.324.792 1.056.864l.924.084c1.032.096 1.74.48 1.74 1.596zm3.96 1.728h-.612c-1.008 0-1.512-.708-1.512-1.584v-3.66h-.744v-.66h.744v-1.812h.864v1.812h1.26v.66h-1.26v3.636c0 .54.252.864.804.864h.456zm6.24-2.724h-3.984c0 1.296.6 2.04 1.74 2.04.684 0 1.08-.204 1.548-.672l.588.516c-.6.6-1.164.912-2.16.912-1.572 0-2.58-.936-2.58-3.024 0-1.92.924-3.024 2.424-3.024 1.536 0 2.424 1.092 2.424 2.868zm-.852-.648c-.036-.48-.048-.672-.192-.984-.252-.54-.744-.888-1.38-.888s-1.128.348-1.38.888c-.144.312-.156.504-.18.984zm11.136 3.372h-.864v-3.636c0-1.044-.564-1.572-1.452-1.572-.864 0-1.476.54-1.476 1.476v3.732h-.864v-3.636c0-1.044-.564-1.572-1.452-1.572s-1.476.54-1.476 1.572v3.636h-.864v-5.904h.864v.648c.42-.48 1.008-.72 1.668-.72.816 0 1.452.336 1.812.984.456-.648 1.116-.984 1.944-.984.636 0 1.164.204 1.524.552.42.408.636.96.636 1.644z" opacity=".65"/></g></svg>