<?xml version="1.0" encoding="UTF-8"?>
<svg width="147px" height="51px" viewBox="0 0 147 51" version="1.1" xmlns="http://www.w3.org/2000/svg" xmlns:xlink="http://www.w3.org/1999/xlink">
    <!-- Generator: Sketch 51.2 (57519) - http://www.bohemiancoding.com/sketch -->
    <title>logo</title>
    <desc>Created with Sketch.</desc>
    <defs></defs>
    <g id="FDS-Design-Pages" stroke="none" stroke-width="1" fill="none" fill-rule="evenodd">
        <g id="Home" transform="translate(-86.000000, -37.000000)" fill="#FFFFFF">
            <g id="Menu">
                <g id="logo" transform="translate(86.000000, 37.000000)">
                    <g id="molecule">
                        <path d="M46.1350294,42.2700587 C45.3341487,42.2700587 44.5894325,42.5150685 43.9716243,42.9338552 L30.9922701,29.954501 C32.1076321,28.6079256 32.778865,26.8809198 32.778865,25 C32.778865,23.1190802 32.1076321,21.3920744 30.9922701,20.045499 L39.9458904,11.0918787 C41.0039139,11.9266145 42.3375734,12.4266145 43.7866928,12.4266145 C47.2127202,12.4266145 50,9.63933464 50,6.21330724 C50,2.78727984 47.2127202,0 43.7866928,0 C40.3606654,0 37.5733855,2.78727984 37.5733855,6.21330724 C37.5733855,7.66242661 38.0733855,8.99608611 38.9081213,10.0541096 L29.954501,19.0077299 C28.6079256,17.8923679 26.8809198,17.221135 25,17.221135 C23.1190802,17.221135 21.3920744,17.8923679 20.045499,19.0077299 L14.1111546,13.0733855 C14.5299413,12.4556751 14.7749511,11.7109589 14.7749511,10.9099804 C14.7749511,8.77886497 13.0410959,7.04500978 10.9099804,7.04500978 C8.77886497,7.04500978 7.04500978,8.77886497 7.04500978,10.9099804 C7.04500978,13.0410959 8.77886497,14.7749511 10.9099804,14.7749511 C11.7108611,14.7749511 12.4555773,14.5299413 13.0733855,14.1111546 L19.0077299,20.045499 C17.8923679,21.3920744 17.221135,23.1190802 17.221135,25 C17.221135,25.9036204 17.3776908,26.7709393 17.6622309,27.5784736 L8.50577299,31.804501 C7.67035225,30.5636008 6.25283757,29.7455969 4.64774951,29.7455969 C2.08502935,29.7455969 0,31.8306262 0,34.3933464 C0,36.9560665 2.08502935,39.0410959 4.64774951,39.0410959 C7.21046967,39.0410959 9.29549902,36.9560665 9.29549902,34.3933464 C9.29549902,33.9579256 9.23395303,33.5367906 9.12152642,33.1367906 L18.2795499,28.9099804 C19.6248532,31.2133072 22.1182975,32.7672211 24.9702544,32.7780822 L25.4912916,38.5091977 C23.8813112,38.9759295 22.7005871,40.462818 22.7005871,42.221135 C22.7005871,44.3522505 24.4344423,46.0861057 26.5655577,46.0861057 C28.6966732,46.0861057 30.4305284,44.3522505 30.4305284,42.221135 C30.4305284,40.2207436 28.9028376,38.5705479 26.9528376,38.375636 L26.4318982,32.6445205 C27.7530333,32.3975538 28.9582192,31.8175147 29.954501,30.9922701 L42.9338552,43.9716243 C42.5150685,44.5893346 42.2700587,45.3340509 42.2700587,46.1350294 C42.2700587,48.2661448 44.0039139,50 46.1350294,50 C48.2661448,50 50,48.2661448 50,46.1350294 C50,44.0039139 48.2661448,42.2700587 46.1350294,42.2700587 Z M4.52380952,37.6190476 C2.81714286,37.6190476 1.42857143,36.2304762 1.42857143,34.5238095 C1.42857143,32.8171429 2.81714286,31.4285714 4.52380952,31.4285714 C5.75019048,31.4285714 6.81228571,32.145619 7.31295238,33.182381 C7.3187619,33.197619 7.32438095,33.2129524 7.33133333,33.228 C7.33514286,33.2362857 7.34028571,33.2434286 7.34438095,33.2515238 C7.52028571,33.64 7.61904762,34.0704762 7.61904762,34.5238095 C7.61904762,36.2304762 6.23047619,37.6190476 4.52380952,37.6190476 Z M43.8095238,1.42857143 C46.4352479,1.42857143 48.5714286,3.56475209 48.5714286,6.19047619 C48.5714286,8.81620029 46.4352479,10.952381 43.8095238,10.952381 C41.1837997,10.952381 39.047619,8.81620029 39.047619,6.19047619 C39.047619,3.56475209 41.1837997,1.42857143 43.8095238,1.42857143 Z M8.57142857,10.952381 C8.57142857,9.63955296 9.63955296,8.57142857 10.952381,8.57142857 C12.2652089,8.57142857 13.3333333,9.63955296 13.3333333,10.952381 C13.3333333,12.2652089 12.2652089,13.3333333 10.952381,13.3333333 C9.63955296,13.3333333 8.57142857,12.2652089 8.57142857,10.952381 Z M18.5714286,25 C18.5714286,21.4553156 21.4553156,18.5714286 25,18.5714286 C28.5446844,18.5714286 31.4285714,21.4553156 31.4285714,25 C31.4285714,28.5446844 28.5446844,31.4285714 25,31.4285714 C21.4553156,31.4285714 18.5714286,28.5446844 18.5714286,25 Z M29.047619,42.3809524 C29.047619,43.6937804 27.9794947,44.7619048 26.6666667,44.7619048 C25.3538387,44.7619048 24.2857143,43.6937804 24.2857143,42.3809524 C24.2857143,41.0681244 25.3538387,40 26.6666667,40 C27.9794947,40 29.047619,41.0681244 29.047619,42.3809524 Z M46.1904762,48.5714286 C44.8776482,48.5714286 43.8095238,47.5033042 43.8095238,46.1904762 C43.8095238,44.8776482 44.8776482,43.8095238 46.1904762,43.8095238 C47.5033042,43.8095238 48.5714286,44.8776482 48.5714286,46.1904762 C48.5714286,47.5033042 47.5033042,48.5714286 46.1904762,48.5714286 Z" id="Shape"></path>
                        <path d="M28.3636364,25.1818182 C28.3636364,25.6336727 28.7299636,26 29.1818182,26 C29.6336727,26 30,25.6336727 30,25.1818182 C30,22.3246182 27.6753818,20 24.8181818,20 C24.3663273,20 24,20.3663273 24,20.8181818 C24,21.2700364 24.3663273,21.6363636 24.8181818,21.6363636 C26.7730909,21.6363636 28.3636364,23.2269091 28.3636364,25.1818182 Z" id="Shape"></path>
                        <path d="M43.7692308,4.53846154 C44.702359,4.53846154 45.4615385,5.29764103 45.4615385,6.23076923 C45.4615385,6.65558974 45.8059487,7 46.2307692,7 C46.6555897,7 47,6.65558974 47,6.23076923 C47,4.44933333 45.5506667,3 43.7692308,3 C43.3444103,3 43,3.34441026 43,3.76923077 C43,4.19405128 43.3444103,4.53846154 43.7692308,4.53846154 Z" id="Shape"></path>
                        <path d="M4.65217391,33 C4.292,33 4,33.292 4,33.6521739 C4,34.0123478 4.292,34.3043478 4.65217391,34.3043478 C4.67617391,34.3043478 4.69565217,34.3238261 4.69565217,34.3478261 C4.69565217,34.708 4.98765217,35 5.34782609,35 C5.708,35 6,34.708 6,34.3478261 C6,33.6046087 5.3953913,33 4.65217391,33 Z" id="Shape"></path>
                    </g>
                    <path d="M133.940315,11.7229232 C134.666282,10.8693625 136.227718,10.0010079 138.080713,9.98980039 L138.085219,9.98980039 C138.43581,9.9848691 138.726918,10.0077323 139,10.0395615 C138.841829,10.5394146 138.058632,13.0167133 137.904516,13.5067038 C137.516523,13.3394884 137.099689,13.259243 136.617965,13.259243 C135.038954,13.259243 133.441467,14.4337856 133.441467,16.6864867 L133.441467,26.6956522 L129.785047,26.6956522 L129.785047,10.2726769 L133.441467,10.2726769 L133.441467,12.3133327 L133.940315,11.7229232 Z M127.242991,19.5527119 L116.568744,19.5527119 L116.568744,19.8362645 C116.568744,22.3345081 118.142201,23.9477783 120.583232,23.9477783 C122.458122,23.9477783 123.430056,23.4186004 124.446779,22.4415176 C124.749108,22.7435825 126.302858,24.2670008 126.629374,24.5880294 C125.052781,26.1213811 123.502167,27.0108696 120.550535,27.0108696 C115.502305,27.0108696 112.943925,24.1468973 112.943925,18.4862287 C112.943925,13.244568 115.683702,9.98913043 120.09189,9.98913043 C124.435133,9.98913043 127.242991,13.1041462 127.242991,17.9209295 L127.242991,19.5527119 Z M116.439252,17.2391304 L123.429907,17.2391304 L123.416625,16.949452 C123.385191,16.1738897 123.282921,15.6950604 123.011087,15.0495668 C122.458564,13.8313299 121.338466,13.1413043 119.934579,13.1413043 C118.530693,13.1413043 117.411923,13.8348572 116.866484,15.0442759 C116.590665,15.6950604 116.487067,16.172126 116.452091,16.949452 L116.439252,17.2391304 Z M112.626168,10.3043478 C112.353417,11.0331341 105.396235,29.6923985 105.394878,29.6991341 C105.017641,30.681626 104.639498,31.3228502 104.172701,31.7862559 C103.330928,32.6169735 102.186098,33.015269 100.669006,32.9995527 L99.2677088,32.9995527 L99.2677088,29.7521204 L99.9737852,29.7521204 C101.353823,29.7521204 101.941391,29.3345164 102.393262,28.0278201 L103.153165,25.8401141 C103.153165,25.8401141 97.642964,11.0263986 97.3738318,10.3043478 L101.076549,10.3043478 C101.210437,10.6586377 105.071467,21.2047099 105.071467,21.2047099 C105.071467,21.2047099 108.775994,10.6685165 108.906715,10.3043478 L112.626168,10.3043478 Z M94.8711042,12.0101205 C96.43366,13.6432575 96.7383178,15.6231595 96.7383178,18.4862287 C96.7383178,21.8455152 96.2513167,23.5490888 94.8711042,24.989428 C94.1615902,25.7452674 92.5466784,27.0108696 89.7320922,27.0108696 C87.0885656,27.0108696 85.4966724,25.9127802 84.6255769,24.989428 C83.2471698,23.5490888 82.7570093,21.8455152 82.7570093,18.4862287 C82.7570093,15.1463575 83.2471698,13.4495567 84.6255769,12.0132811 C85.4966724,11.0881228 87.0872115,9.98913043 89.7320922,9.98913043 C92.5498379,9.98913043 94.1615902,11.2560871 94.8711042,12.0101205 Z M92.1502583,23.0211391 C93.1596428,22.0296629 93.2429907,20.3851536 93.2429907,18.6438819 C93.2429907,16.9183623 93.1596428,15.2842044 92.1502583,14.2940783 C91.5787956,13.7391577 90.8180734,13.4565217 89.8897343,13.4565217 C88.9678421,13.4565217 88.2439587,13.7324069 87.6674307,14.2940783 C86.6529809,15.2842044 86.5700935,16.9183623 86.5700935,18.6438819 C86.5700935,20.3851536 86.6529809,22.0296629 87.6674307,23.0211391 C88.2439587,23.5846108 88.971526,23.8586957 89.8897343,23.8586957 C90.8180734,23.8586957 91.5769537,23.57876 92.1502583,23.0211391 Z M83.3925234,4 L83.3925234,7.51515302 L74.9837905,7.51515302 L74.9837905,13.6359907 L80.5621709,13.6359907 L80.5621709,17.1489125 L74.9837905,17.1489125 L74.9837905,26.6956522 L71,26.6956522 L71,4 L83.3925234,4 Z" id="Foyer"></path>
                    <path d="M76.164,43.728 C76.164,45.036 76.164,46.284 75.408,47.1 C74.832,47.724 74.124,48 73.164,48 L70.236,48 L70.236,39.456 L73.164,39.456 C74.124,39.456 74.832,39.732 75.408,40.356 C76.164,41.172 76.164,42.42 76.164,43.728 Z M75.252,43.728 C75.252,42.54 75.24,41.484 74.688,40.896 C74.256,40.416 73.656,40.272 73.008,40.272 L71.148,40.272 L71.148,47.184 L73.008,47.184 C73.656,47.184 74.256,47.04 74.688,46.56 C75.24,45.972 75.252,44.916 75.252,43.728 Z M82.68,45.276 L78.696,45.276 C78.696,46.572 79.296,47.316 80.436,47.316 C81.12,47.316 81.516,47.112 81.984,46.644 L82.572,47.16 C81.972,47.76 81.408,48.072 80.412,48.072 C78.84,48.072 77.832,47.136 77.832,45.048 C77.832,43.128 78.756,42.024 80.256,42.024 C81.792,42.024 82.68,43.116 82.68,44.892 L82.68,45.276 Z M81.828,44.628 C81.792,44.148 81.78,43.956 81.636,43.644 C81.384,43.104 80.892,42.756 80.256,42.756 C79.62,42.756 79.128,43.104 78.876,43.644 C78.732,43.956 78.72,44.148 78.696,44.628 L81.828,44.628 Z M88.776,46.272 C88.776,47.412 87.816,48.072 86.376,48.072 C85.368,48.072 84.588,47.844 83.952,47.22 L84.528,46.644 C84.984,47.124 85.632,47.328 86.364,47.328 C87.348,47.328 87.936,46.98 87.936,46.284 C87.936,45.756 87.648,45.48 86.952,45.42 L85.98,45.336 C84.828,45.24 84.216,44.736 84.216,43.752 C84.216,42.672 85.116,42.024 86.388,42.024 C87.24,42.024 87.972,42.228 88.512,42.66 L87.948,43.224 C87.528,42.9 86.988,42.756 86.376,42.756 C85.512,42.756 85.056,43.116 85.056,43.728 C85.056,44.256 85.38,44.52 86.112,44.592 L87.036,44.676 C88.068,44.772 88.776,45.156 88.776,46.272 Z M91.332,48 L90.468,48 L90.468,42.096 L91.332,42.096 L91.332,48 Z M91.392,40.416 L90.42,40.416 L90.42,39.444 L91.392,39.444 L91.392,40.416 Z M97.848,48.18 C97.848,49.644 96.936,50.712 95.388,50.712 C94.5,50.712 94.008,50.484 93.384,49.92 L93.948,49.368 C94.38,49.752 94.68,49.956 95.364,49.956 C96.504,49.956 96.984,49.152 96.984,48.144 L96.984,47.22 C96.504,47.832 95.964,47.988 95.328,47.988 C94.728,47.988 94.212,47.772 93.9,47.46 C93.312,46.872 93.18,45.96 93.18,45 C93.18,44.04 93.312,43.128 93.9,42.54 C94.212,42.228 94.74,42.024 95.34,42.024 C95.988,42.024 96.516,42.168 96.996,42.792 L96.996,42.096 L97.848,42.096 L97.848,48.18 Z M96.984,45 C96.984,43.896 96.804,42.792 95.52,42.792 C94.236,42.792 94.044,43.896 94.044,45 C94.044,46.104 94.236,47.208 95.52,47.208 C96.804,47.208 96.984,46.104 96.984,45 Z M104.652,48 L103.788,48 L103.788,44.364 C103.788,43.32 103.224,42.792 102.336,42.792 C101.448,42.792 100.872,43.332 100.872,44.364 L100.872,48 L100.008,48 L100.008,42.096 L100.872,42.096 L100.872,42.744 C101.292,42.264 101.868,42.024 102.528,42.024 C103.164,42.024 103.68,42.216 104.04,42.576 C104.46,42.984 104.652,43.536 104.652,44.22 L104.652,48 Z M115.044,45.648 C115.044,47.148 113.88,48.072 112.092,48.072 C110.82,48.072 109.968,47.748 109.176,46.944 L109.788,46.332 C110.496,47.04 111.156,47.256 112.116,47.256 C113.376,47.256 114.144,46.68 114.144,45.672 C114.144,45.216 114.012,44.856 113.724,44.604 C113.46,44.364 113.22,44.28 112.608,44.184 L111.612,44.04 C110.94,43.932 110.436,43.728 110.052,43.392 C109.62,43.008 109.392,42.48 109.392,41.784 C109.392,40.332 110.436,39.384 112.128,39.384 C113.22,39.384 113.94,39.672 114.672,40.32 L114.084,40.908 C113.568,40.416 112.98,40.164 112.092,40.164 C110.94,40.164 110.28,40.8 110.28,41.76 C110.28,42.18 110.4,42.528 110.664,42.756 C110.928,42.984 111.336,43.128 111.78,43.2 L112.776,43.356 C113.568,43.476 113.94,43.62 114.324,43.968 C114.78,44.364 115.044,44.94 115.044,45.648 Z M120.948,42.096 L118.26,49.428 C118.14,49.752 118.008,49.968 117.84,50.124 C117.528,50.424 117.108,50.532 116.688,50.532 L116.316,50.532 L116.316,49.764 L116.58,49.764 C117.18,49.764 117.36,49.572 117.552,49.032 L117.972,47.88 L115.848,42.096 L116.784,42.096 L118.404,46.836 L120.012,42.096 L120.948,42.096 Z M126.42,46.272 C126.42,47.412 125.46,48.072 124.02,48.072 C123.012,48.072 122.232,47.844 121.596,47.22 L122.172,46.644 C122.628,47.124 123.276,47.328 124.008,47.328 C124.992,47.328 125.58,46.98 125.58,46.284 C125.58,45.756 125.292,45.48 124.596,45.42 L123.624,45.336 C122.472,45.24 121.86,44.736 121.86,43.752 C121.86,42.672 122.76,42.024 124.032,42.024 C124.884,42.024 125.616,42.228 126.156,42.66 L125.592,43.224 C125.172,42.9 124.632,42.756 124.02,42.756 C123.156,42.756 122.7,43.116 122.7,43.728 C122.7,44.256 123.024,44.52 123.756,44.592 L124.68,44.676 C125.712,44.772 126.42,45.156 126.42,46.272 Z M130.38,48 L129.768,48 C128.76,48 128.256,47.292 128.256,46.416 L128.256,42.756 L127.512,42.756 L127.512,42.096 L128.256,42.096 L128.256,40.284 L129.12,40.284 L129.12,42.096 L130.38,42.096 L130.38,42.756 L129.12,42.756 L129.12,46.392 C129.12,46.932 129.372,47.256 129.924,47.256 L130.38,47.256 L130.38,48 Z M136.62,45.276 L132.636,45.276 C132.636,46.572 133.236,47.316 134.376,47.316 C135.06,47.316 135.456,47.112 135.924,46.644 L136.512,47.16 C135.912,47.76 135.348,48.072 134.352,48.072 C132.78,48.072 131.772,47.136 131.772,45.048 C131.772,43.128 132.696,42.024 134.196,42.024 C135.732,42.024 136.62,43.116 136.62,44.892 L136.62,45.276 Z M135.768,44.628 C135.732,44.148 135.72,43.956 135.576,43.644 C135.324,43.104 134.832,42.756 134.196,42.756 C133.56,42.756 133.068,43.104 132.816,43.644 C132.672,43.956 132.66,44.148 132.636,44.628 L135.768,44.628 Z M146.904,48 L146.04,48 L146.04,44.364 C146.04,43.32 145.476,42.792 144.588,42.792 C143.724,42.792 143.112,43.332 143.112,44.268 L143.112,48 L142.248,48 L142.248,44.364 C142.248,43.32 141.684,42.792 140.796,42.792 C139.908,42.792 139.32,43.332 139.32,44.364 L139.32,48 L138.456,48 L138.456,42.096 L139.32,42.096 L139.32,42.744 C139.74,42.264 140.328,42.024 140.988,42.024 C141.804,42.024 142.44,42.36 142.8,43.008 C143.256,42.36 143.916,42.024 144.744,42.024 C145.38,42.024 145.908,42.228 146.268,42.576 C146.688,42.984 146.904,43.536 146.904,44.22 L146.904,48 Z" id="Design-System" opacity="0.65"></path>
                </g>
            </g>
        </g>
    </g>
</svg>