<svg height="886" viewBox="0 0 1405 886" width="1405" xmlns="http://www.w3.org/2000/svg"><g fill="#f2f8ff" fill-opacity=".124123" opacity=".25" stroke-dasharray="2 1 2 1" transform="translate(1 1)"><g transform="translate(978)"><path d="m301.723092 276.446184c-5.237759 0-10.108204 1.602364-14.148669 4.341229l-84.884977-84.884977c7.294468-8.806602 11.684331-20.101221 11.684331-32.402436s-4.389863-23.595834-11.684331-32.402436l58.556677-58.5566775c6.919474 5.4591722 15.641607 8.7291722 25.118848 8.7291722 22.406219 0 40.635029-18.2288102 40.635029-40.6350293 0-22.4062192-18.22881-40.6350294-40.635029-40.6350294-22.40622 0-40.63503 18.2288102-40.63503 40.6350294 0 9.4772407 3.27 18.1993737 8.729173 25.1188473l-58.556678 58.5566773c-8.806602-7.294468-20.101221-11.684331-32.402436-11.684331s-23.595834 4.389863-32.402436 11.684331l-38.8106129-38.8106127c2.7388649-4.0398258 4.3412289-8.9102701 4.3412289-14.1486693 0-13.9374951-11.3394129-25.276908-25.276908-25.276908s-25.276908 11.3394129-25.276908 25.276908 11.3394129 25.276908 25.276908 25.276908c5.2377593 0 10.1082035-1.602364 14.1486693-4.3412289l38.8106127 38.8106129c-7.294468 8.806602-11.684331 20.101221-11.684331 32.402436 0 5.909677 1.023875 11.581943 2.884767 16.863217l-59.8832346 27.638219c-5.4636517-8.115487-14.7341977-13.465232-25.2314736-13.465232-16.7601898 0-30.3962818 13.636091-30.3962818 30.396281s13.636092 30.396282 30.3962818 30.396282 30.3962818-13.636092 30.3962818-30.396282c0-2.847651-.4025108-5.601874-1.1377808-8.217874l59.8934732-27.643339c8.798284 15.063757 25.105409 25.226354 43.757208 25.297386l3.407583 37.481495c-10.529272 3.052426-18.251207 12.776677-18.251207 24.27607 0 13.937495 11.339412 25.276908 25.276908 25.276908 13.937495 0 25.276908-11.339413 25.276908-25.276908 0-13.08256-9.991098-23.874839-22.744098-25.149564l-3.406944-37.481495c8.640224-1.615162 16.522139-5.408618 23.037822-10.805718l84.884977 84.884977c-2.738865 4.039826-4.341229 8.91027-4.341229 14.148669 0 13.937495 11.339413 25.276908 25.276908 25.276908s25.276908-11.339413 25.276908-25.276908-11.339413-25.276908-25.276908-25.276908zm-270.723092-30.446184c-11.5790769 0-21-9.420923-21-21s9.4209231-21 21-21c8.3205231 0 15.5264308 4.864892 18.9232615 11.898923.0394154.103385.0775385.207415.1247077.309508.0258462.056215.0607385.104677.0885231.1596 1.1934462 2.635661 1.8635077 5.556277 1.8635077 8.631969 0 11.579077-9.4209231 21-21 21zm255-236c17.093464 0 31 13.9065361 31 31s-13.906536 31-31 31-31-13.9065361-31-31 13.906536-31 31-31zm-230 61.5c0-8.5465102 6.9534898-15.5 15.5-15.5s15.5 6.9534898 15.5 15.5-6.9534898 15.5-15.5 15.5-15.5-6.9534898-15.5-15.5zm66 92c0-22.882907 18.617093-41.5 41.5-41.5s41.5 18.617093 41.5 41.5-18.617093 41.5-41.5 41.5-41.5-18.617093-41.5-41.5zm67 112c0 8.54651-6.95349 15.5-15.5 15.5s-15.5-6.95349-15.5-15.5 6.95349-15.5 15.5-15.5 15.5 6.95349 15.5 15.5zm112.5 41.5c-8.54651 0-15.5-6.95349-15.5-15.5s6.95349-15.5 15.5-15.5 15.5 6.95349 15.5 15.5-6.95349 15.5-15.5 15.5z" stroke="#fff"/><g stroke="#c3e0fb"><path d="m185.181818 163.090909c0 2.711127 2.197964 4.909091 4.909091 4.909091s4.909091-2.197964 4.909091-4.909091c0-17.1432-13.947709-31.090909-31.090909-31.090909-2.711127 0-4.909091 2.197964-4.909091 4.909091s2.197964 4.909091 4.909091 4.909091c11.729454 0 21.272727 9.543273 21.272727 21.272727z"/><path d="m286.615385 30.2307692c5.598769 0 10.153846 4.555077 10.153846 10.1538462 0 2.5489231 2.066461 4.6153846 4.615384 4.6153846s4.615385-2.0664615 4.615385-4.6153846c0-10.6886154-8.696-19.3846154-19.384615-19.3846154-2.548923 0-4.615385 2.0664615-4.615385 4.6153846s2.066462 4.6153846 4.615385 4.6153846z"/><path d="m30.8913043 216c-2.7013043 0-4.8913043 2.19-4.8913043 4.891304 0 2.701305 2.19 4.891305 4.8913043 4.891305.18 0 .326087.146087.326087.326087 0 2.701304 2.19 4.891304 4.8913044 4.891304 2.7013043 0 4.8913043-2.19 4.8913043-4.891304 0-5.574131-4.5345652-10.108696-10.1086957-10.108696z"/></g></g><g transform="matrix(-.98768834 -.15643447 .15643447 -.98768834 1379.515801 886.860624)"><path d="m141.583248 80.3753559c-10.005848-6.851486-16.583248-18.3599459-16.583248-31.3753559 0-.6521269.016511-1.3004683.049138-1.9446283l-84.989784-14.7099538c-3.7360074 6.3692551-10.6561828 10.6545821-18.5586112 10.6545821-11.85638281 0-21.5007428-9.6455123-21.5007428-21.5 0-11.85597319 9.64435999-21.5 21.4992572-21.5 11.8563828 0 21.5007428 9.64402681 21.5007428 21.5 0 .4270982-.0125157.8513259-.0371995 1.2723357l83.8826085 14.518325c4.948036-15.2418361 19.285614-26.2906607 36.154591-26.2906607 20.952687 0 38 17.0458248 38 38s-17.045825 38-38 38c-4.339041 0-8.510495-.7309746-12.397713-2.076235l-46.510846 83.488352c11.053606 7.587796 19.427711 18.808403 23.386044 31.925551l58.991998-14.404102c-.959709-3.821129-1.469483-7.818931-1.469483-11.933566 0-27.018873 21.981127-49 49-49s49 21.981127 49 49-21.981127 49-49 49c-19.379137 0-36.166658-11.307963-44.110812-27.672138l-60.351479 14.736048c.305094 2.43647.462291 4.918266.462291 7.43609 0 32.80721-26.691313 59.5-59.5 59.5-32.8086873 0-59.5-26.691313-59.5-59.5s26.6913127-59.5 59.5-59.5c8.8522721 0 17.2591989 1.943129 24.8166559 5.425264zm-120.083248-47.3753559c6.3395893 0 11.4984959-5.1604107 11.5-11.5 0-6.3410934-5.1604107-11.5-11.5-11.5-6.3410934 0-11.5 5.1589066-11.5 11.5s5.1589066 11.5 11.5 11.5zm142 43c15.162122 0 27.5-12.3378776 27.5-27.5s-12.337878-27.5-27.5-27.5-27.5 12.3378776-27.5 27.5 12.337878 27.5 27.5 27.5zm70 136c21.231249 0 38.5-17.270228 38.5-38.5s-17.270228-38.5-38.5-38.5c-21.228296 0-38.5 17.270228-38.5 38.5 0 21.228296 17.270228 38.5 38.5 38.5zm-163 55c27.2959553 0 49.5-22.204045 49.5-49.5 0-27.292996-22.2040447-49.5-49.5-49.5s-49.5 22.204045-49.5 49.5 22.2040447 49.5 49.5 49.5z" stroke="#fff"/><path d="m70.9758366 242.951673c-14.2981833 0-25.9275097-11.63227-25.9275097-25.92751 0-2.773373-2.2507899-5.024163-5.0241635-5.024163-2.7733735 0-5.0241634 2.25079-5.0241634 5.024163 0 19.83757 16.1397386 35.975837 35.9758366 35.975837 2.7733735 0 5.0241634-2.25079 5.0241634-5.024163 0-2.773374-2.2507899-5.024164-5.0241634-5.024164z" stroke="#c3e0fb"/></g><path d="m235.121759 78c1.567209 0 3.133194-.6020213 4.328804-1.8066807l29.12928-29.3491546c3.284406 1.6481566 6.982653 2.5801793 10.893942 2.5801793 13.523915 0 24.526215-11.0855805 24.526215-24.7118636 0-13.626283-11.0023-24.7124804-24.526215-24.7124804s-24.526215 11.0855805-24.526215 24.7118636c0 5.2090879 1.611899 10.043763 4.353904 14.0333876l-28.508519 28.7243109c-2.390607 2.4087019-2.390607 6.3144384 0 8.7237572 1.195609 1.2046594 2.761594 1.8066807 4.328804 1.8066807zm44.378241-66c6.892663 0 12.5 5.6073369 12.5 12.5s-5.607337 12.5-12.5 12.5-12.5-5.6073369-12.5-12.5 5.606714-12.5 12.5-12.5z" stroke="#c3e0fb"/><path d="m215.174595 95c1.580598 0 3.160578-.6032086 4.365783-1.808391l3.651428-3.6519742c2.411028-2.4109822 2.411028-6.320416-.000618-8.7313982-2.410411-2.4109821-6.320538-2.4109821-8.731566 0l-3.651428 3.6519743c-2.411028 2.4109821-2.411028 6.320416.000618 8.7313981 1.205823 1.2057998 2.785803 1.808391 4.365783 1.808391z" stroke="#c3e0fb"/><path d="m316.958032 187.975078c-4.500586 0-10.961436 2.034619-15.100618 6.830306l-81.880401-20.737642c4.532628-8.599796 7.103336-18.384096 7.103336-28.759108 0-34.161055-27.830435-61.9528708-62.03896-61.9528708-7.646807 0-14.9732 1.3924829-21.743182 3.9307027l-25.899939-40.1721753c2.880647-3.59535 4.609035-8.1499933 4.609035-13.1015219 0-11.5865892-9.439278-21.0127687-21.041968-21.0127687-11.6026896 0-21.0419675 9.4261795-21.0419675 21.0127687s9.4392779 21.0127687 21.0419675 21.0127687c2.180665 0 4.284307-.3335067 6.263481-.9506787l24.95595 38.707084c-17.511867 10.9632643-29.18172 30.4081823-29.18172 52.5266913 0 1.938277.094276 3.855018.269271 5.748376l-58.7624769 11.186639c-4.5024351-6.050501-11.7117537-9.978742-19.8237776-9.978742-13.61144-.000616-24.6860625 11.058639-24.6860625 24.651807 0 13.593167 11.0746225 24.651806 24.6860625 24.651806s24.6860625-11.058639 24.6860625-24.651806c0-1.108818-.0807197-2.199176-.2236737-3.269843l56.5294367-10.32949c5.421161 17.785999 18.65365 32.203703 35.691057 39.252878 2.46329 1.015289 4.362327 1.722918 5.697113 2.122888 1.311918.393117 3.382935.875118 6.213051 1.446003 3.809847.733469 7.741082 1.12174 11.761664 1.12174 19.374582 0 36.700977-8.917305 48.086771-22.85567l81.156389 20.122931c1.630899.164996 1.630899 1.834715 1.630899 4.45908 0 11.58659 9.439278 21.012769 21.041968 21.012769s21.0432-9.425564 21.0432-21.012153c0-11.58659-9.439278-21.012769-21.041968-21.012769zm-216.458032-145.975078c-4.6864443 0-8.5-3.8135557-8.5-8.5 0-4.687045 3.8135557-8.5 8.5-8.5 4.686444 0 8.5 3.8135557 8.5 8.5s-3.813556 8.5-8.5 8.5zm-76 148c-6.8926631 0-12.5-5.607337-12.5-12.5s5.6073369-12.5 12.5-12.5 12.5 5.607337 12.5 12.5-5.6067139 12.5-12.5 12.5zm140.000307 5c-27.294373 0-49.500307-22.205458-49.500307-49.5s22.205321-49.5 49.500307-49.5c27.293759 0 49.499693 22.205458 49.499693 49.5s-22.205934 49.5-49.499693 49.5zm151.999693 22c-4.687045 0-8.5-3.812955-8.5-8.5s3.813556-8.5 8.5-8.5 8.5 3.812955 8.5 8.5-3.813556 8.5-8.5 8.5z" stroke="#fff"/></g></svg>