<svg fill="none" height="116" viewBox="0 0 139 116" width="139" xmlns="http://www.w3.org/2000/svg"><path d="m132.402 68.7843c.489-1.0075.923-2.0672 1.299-3.1777 4.295-12.7071-2.201-27.9296-15.881-31.6044-1.479-18.6159-14.532-31.38853-29.2734-33.566905-16.8722-2.494015-32.3281 8.249045-37.4709 25.324405-6.1983-2.2012-12.2384-1.933-17.931 1.4016-2.5828 1.1971-4.9453 2.9634-7.0648 5.2873-3.1114 3.4115-5.1345 7.7175-5.9585 12.2574-1.2204.193-2.4196.386-3.5503.7916-6.59157 2.3697-10.75047 7.2465-11.89094 14.5928-.70974 4.5742.72279 9.1371 1.52226 10.9802 3.15711 7.2858 10.47798 11.4152 17.91638 10.3227.3704-.0539.9088.1129 1.2269.3811.3932 11.6441 6.0336 21.9426 14.495 27.8246 13.5764 9.44 31.044 6.532 42.0637-6.412 4.7218 4.841 10.341 7.192 16.9423 6.339 6.5643-.849 11.6613-4.48 15.3793-10.3835 1.718.4628 3.346 1.1305 5.03 1.3145 6.595.723 11.906-1.936 15.879-7.8496.135-.2028.331-.3582.499-.5364.568-1.3051 1.136-2.6102 1.703-3.9152.253-1.9805.7-3.9626.723-5.9399.065-5.3249-2.108-10.1772-5.658-13.4316z" fill="#dfeaf5"/><path d="m54.0355 89.4854h5.7758c3.4426 0 6.2343-2.7377 6.2343-6.1149 0-2.947-2.1243-5.405-4.9519-5.9856.0327-.2584.0555-.5184.0555-.785 0-3.4981-2.8912-6.334-6.4561-6.334-2.1048 0-3.9697.9927-5.1477 2.5235-.3018-3.8939-3.8472-6.8982-7.9947-6.3994-3.0331.3647-5.5425 2.6641-6.1005 5.6111-.1795.9453-.1599 1.8628.018 2.723-.8126-.8586-1.971-1.3999-3.2599-1.3999-2.3593 0-4.2862 1.8022-4.4379 4.0787-1.072-.2322-2.2369-.2175-3.4639.2339-2.3462.8635-4.0169 3.0304-4.1148 5.4884-.1387 3.4884 2.7035 6.3602 6.2294 6.3602h1.426 12.9449z" fill="#f7fbff"/><path d="m60.2759 77.3962c-.0003-.0377.0019-.0759.0069-.1143.0294-.2241.049-.4498.049-.6804 0-3.0418-2.5306-5.5162-5.6404-5.5162-1.7833 0-3.4247.803-4.5031 2.2045-.2056.2682-.5597.3794-.8778.283-.3231-.0965-.5548-.3827-.5792-.7196-.1289-1.6665-.9219-3.1776-2.2353-4.257-1.3493-1.1121-3.0641-1.6076-4.8507-1.3934-2.6856.3206-4.9045 2.3566-5.3973 4.9504-.1533.8079-.1468 1.6174.0164 2.4057.075.3582-.0979.7212-.421.8897-.3214.1701-.7179.103-.9691-.1619-.7-.7392-1.6479-1.1448-2.6693-1.1448-1.9073 0-3.5014 1.4571-3.6254 3.3166-.0163.2371-.1338.4547-.323.5986-.1893.1439-.4308.1962-.6641.1455-1.0409-.2289-2.0264-.1602-3.0102.2028-2.0591.7588-3.4981 2.669-3.5781 4.7525-.0571 1.431.4601 2.7933 1.4586 3.8351 1.0361 1.081 2.4409 1.6763 3.955 1.6763h14.3709c.4503 0 .8158.3663.8158.8177s-.3655.8177-.8158.8177h-14.3709c-1.9351 0-3.8049-.7932-5.1313-2.1784-1.3102-1.3655-1.9889-3.1531-1.9139-5.0338.1077-2.7377 1.9775-5.2382 4.6484-6.2227.9969-.368 2.0264-.5054 3.069-.3991.5629-2.283 2.6595-3.9642 5.1166-3.9642.8142 0 1.5973.1799 2.3054.5217.0147-.3925.0588-.7867.1338-1.1792.6233-3.2872 3.4231-5.8646 6.8054-6.2702 2.2254-.2649 4.3824.3566 6.0808 1.7532 1.2188 1.0025 2.0852 2.3043 2.5225 3.7631 1.2905-1.0597 2.9123-1.6452 4.6385-1.6452 4.0105 0 7.272 3.2087 7.272 7.1516 0 .0557-.0016.1113-.0033.1685 2.8781.906 4.8997 3.5783 4.8997 6.6022 0 3.8219-3.1637 6.9325-7.0501 6.9325h-5.7758c-.4503 0-.8158-.3663-.8158-.8177s.3655-.8177.8158-.8177h5.7758c2.9874 0 5.4168-2.3763 5.4168-5.2988 0-2.4733-1.7802-4.639-4.2422-5.1706-1.441-.0949-2.7753.5265-3.3479 1.6921-.0946.1881-.1664.3892-.2121.6002-.044.1913-.2121.3205-.3997.3205-.0294 0-.0587-.0032-.0897-.0098-.2203-.049-.359-.2682-.3084-.489.062-.2747.155-.5396.2774-.785.6155-1.2513 1.9102-2.0075 3.3704-2.1327zm-16.2224 12.9085h-.5857c-.4503 0-.8158-.3663-.8158-.8177s.3655-.8177.8158-.8177h.5857c.4503 0 .8158.3663.8158.8177s-.3638.8177-.8158.8177zm4.5554 0h-1.8062c-.4503 0-.8158-.3663-.8158-.8177s.3655-.8177.8158-.8177h1.8062c.4503 0 .8158.3663.8158.8177s-.3639.8177-.8158.8177z" fill="#472b29"/><path d="m109.038 98.044h19.191c4.405 0 7.975-3.5799 7.975-7.9955 0-3.8514-2.718-7.0667-6.337-7.8239.042-.3368.07-.6787.07-1.027 0-4.5726-3.699-8.2801-8.261-8.2801-2.694 0-5.079 1.2985-6.587 3.2986-.385-5.091-4.922-9.0177-10.23-8.3668-3.881.4759-7.0904 3.4835-7.805 7.3365-.2284 1.2364-.2056 2.4351.0228 3.5603-1.0409-1.1235-2.5224-1.83-4.1719-1.83-3.0184 0-5.4837 2.3566-5.6779 5.3331-1.3705-.3042-2.8618-.2846-4.433.3074-3.0021 1.1301-5.1395 3.9627-5.2651 7.1746-.1778 4.5612 3.4589 8.3161 7.9703 8.3161h1.8241 16.5617z" fill="#f7fbff"/><path d="m128.229 98.8617h-19.191c-.45 0-.816-.3663-.816-.8177 0-.4513.366-.8177.816-.8177h19.191c3.948 0 7.161-3.2201 7.161-7.1778 0-3.3788-2.392-6.334-5.688-7.0241-.415-.0867-.695-.4776-.643-.8995.036-.3058.064-.6133.064-.9273 0-4.1147-3.34-7.4624-7.444-7.4624-2.347 0-4.513 1.0843-5.935 2.9732-.206.2715-.56.3876-.881.2927-.327-.0965-.558-.3843-.584-.7228-.17-2.252-1.27-4.3682-3.019-5.8041-1.765-1.4506-4-2.0983-6.298-1.8137-3.534.4334-6.4543 3.1776-7.1036 6.6741-.2023 1.0909-.1958 2.1833.0212 3.248.0718.3598-.1012.7228-.4275.8896-.323.1685-.7195.0982-.9724-.1717-.9333-1.0107-2.2043-1.5683-3.5715-1.5683-2.5584 0-4.6957 2.0066-4.8621 4.5677-.0164.2387-.1338.4579-.3247.6002-.1893.1423-.4389.193-.6641.1439-1.3754-.3058-2.6741-.2142-3.9712.2731-2.7232 1.0238-4.6272 3.6126-4.7349 6.4403-.0783 1.9739.6298 3.8432 1.9922 5.2627 1.3623 1.4196 3.1962 2.203 5.1607 2.203h18.3879c.45 0 .816.3663.816.8177 0 .4513-.366.8177-.816.8177h-18.3879c-2.4132 0-4.6631-.96-6.3371-2.705-1.6724-1.7434-2.542-4.0379-2.4474-6.4599.1355-3.4769 2.4637-6.6545 5.7938-7.9089 1.3069-.4906 2.6562-.6541 4.0267-.4873.6151-2.9814 3.2566-5.2039 6.3697-5.2039 1.1176 0 2.2091.2927 3.1718.8324-.0017-.6296.0571-1.2625.1746-1.8955.7766-4.1899 4.2748-7.4787 8.5088-7.9988 2.752-.3401 5.417.435 7.53 2.1719 1.638 1.3459 2.799 3.1907 3.325 5.2218 1.651-1.498 3.783-2.3304 6.059-2.3304 5.004 0 9.075 4.082 9.075 9.0978 0 .1357-.003.2731-.011.4072 3.677 1.099 6.278 4.5416 6.278 8.4453-.001 4.8621-3.945 8.8165-8.792 8.8165z" fill="#472b29"/><path d="m102.293 80.2916c-2.5763-.1685-4.8115 1.8938-4.9926 4.6069-.0229.3369-.0115.6689.0277.9911-.4911-.6394-1.2237-1.0696-2.0688-1.1252-1.5451-.1014-2.8912 1.0827-3.0968 2.6772-.2806-.085-.5727-.1423-.8778-.1619-2.2532-.1472-4.2094 1.6567-4.3693 4.0313" fill="#fdfcef"/><path d="m86.917 91.7182c-.0098 0-.0179 0-.0277 0-.2252-.0147-.3949-.2093-.3786-.435.173-2.5954 2.2957-4.5841 4.8018-4.4123.1762.0114.354.0343.5319.0687.4095-1.5799 1.8143-2.7067 3.441-2.584.5775.0376 1.129.2339 1.6038.5609 0-.0147.0016-.031.0033-.0458.1958-2.9339 2.617-5.1793 5.4245-4.988.226.0147.395.2094.379.4351-.013.224-.17.4055-.434.381-2.3527-.1325-4.3906 1.7417-4.5586 4.2259-.0196.3075-.0115.6149.0261.9142.0228.1832-.08.3582-.2497.4285-.1664.0703-.3638.0164-.478-.1292-.4422-.5773-1.072-.9191-1.7719-.9649-1.2971-.085-2.4849.9338-2.666 2.3207-.0163.1193-.0832.2256-.1827.2911-.1012.0654-.2252.0817-.3394.0474-.2611-.0801-.5254-.1292-.7848-.1456-2.0068-.1357-3.7918 1.503-3.9354 3.6503-.013.2159-.1909.381-.4046.381z" fill="#472b29"/><path d="m123.969 86.5798c-.031 0-.061-.0033-.092-.0098-.22-.0507-.357-.2699-.307-.4907.08-.3532.201-.6983.358-1.0237 1.277-2.6527 4.73-3.6699 7.702-2.2635.204.0965.292.3402.196.5446-.098.2045-.342.2911-.543.1963-2.568-1.2119-5.536-.3696-6.619 1.8791-.131.2715-.232.5577-.301.852-.04.1881-.207.3157-.394.3157z" fill="#472b29"/><g fill="#fff"><path d="m17.6447 55.7598h-16.36639c-.450312 0-.815786-.3663-.815786-.8177s.365474-.8177.815786-.8177h16.36479c.4503 0 .8157.3663.8157.8177s-.3638.8177-.8141.8177z"/><path d="m22.3453 55.7598h-2.3593c-.4503 0-.8158-.3663-.8158-.8177s.3655-.8177.8158-.8177h2.3593c.4503 0 .8158.3663.8158.8177s-.3639.8177-.8158.8177z"/><path d="m28.9597 55.7598h-4.154c-.4503 0-.8158-.3663-.8158-.8177s.3655-.8177.8158-.8177h4.154c.4503 0 .8158.3663.8158.8177s-.3655.8177-.8158.8177z"/><path d="m28.9597 58.8099h-15.6893c-.4503 0-.8158-.3664-.8158-.8178 0-.4513.3655-.8177.8158-.8177h15.6893c.4503 0 .8158.3664.8158.8177 0 .4514-.3655.8178-.8158.8178z"/><path d="m10.4445 58.8099h-.94629c-.45032 0-.81579-.3664-.81579-.8178 0-.4513.36547-.8177.81579-.8177h.94629c.4503 0 .8158.3664.8158.8177 0 .4514-.3638.8178-.8158.8178z"/><path d="m6.56789 58.8099h-2.37721c-.45031 0-.81579-.3664-.81579-.8178 0-.4513.36548-.8177.81579-.8177h2.37558c.45032 0 .81579.3664.81579.8177 0 .4514-.36384.8178-.81416.8178z"/><path d="m21.4724 52.7098h-8.202c-.4503 0-.8158-.3664-.8158-.8178 0-.4513.3655-.8177.8158-.8177h8.202c.4503 0 .8158.3664.8158.8177 0 .4514-.3639.8178-.8158.8178z"/><path d="m21.4724 49.6597h-2.0509c-.4503 0-.8158-.3663-.8158-.8177s.3655-.8177.8158-.8177h2.0509c.4503 0 .8158.3663.8158.8177s-.3639.8177-.8158.8177z"/><path d="m16.1404 61.8599h-2.87c-.4503 0-.8158-.3663-.8158-.8177s.3655-.8177.8158-.8177h2.87c.4503 0 .8158.3663.8158.8177s-.3655.8177-.8158.8177z"/><path d="m104.407 12.786h-16.3646c-.4503 0-.8158-.3664-.8158-.8177 0-.4514.3655-.8178.8158-.8178h16.3646c.45 0 .816.3664.816.8178 0 .4513-.364.8177-.816.8177z"/><path d="m109.109 12.786h-2.359c-.45 0-.816-.3664-.816-.8177 0-.4514.366-.8178.816-.8178h2.359c.451 0 .816.3664.816.8178 0 .4513-.364.8177-.816.8177z"/><path d="m115.725 12.786h-4.154c-.45 0-.815-.3664-.815-.8177 0-.4514.365-.8178.815-.8178h4.154c.451 0 .816.3664.816.8178 0 .4513-.365.8177-.816.8177z"/><path d="m112.418 6.68586h-15.6891c-.4503 0-.8157-.36633-.8157-.81771 0-.45137.3654-.8177.8157-.8177h15.6891c.451 0 .816.36633.816.8177 0 .45138-.364.81771-.816.81771z"/><path d="m93.9047 6.68586h-.9463c-.4503 0-.8158-.36633-.8158-.81771 0-.45137.3655-.8177.8158-.8177h.9463c.4503 0 .8158.36633.8158.8177 0 .45138-.3655.81771-.8158.81771z"/><path d="m90.0264 6.68586h-2.3756c-.4503 0-.8157-.36633-.8157-.81771 0-.45137.3654-.8177.8157-.8177h2.3756c.4503 0 .8158.36633.8158.8177 0 .45138-.3655.81771-.8158.81771z"/><path d="m108.238 9.73591h-8.203c-.4508 0-.8163-.36633-.8163-.81771 0-.45137.3655-.81771.8163-.81771h8.203c.45 0 .816.36634.816.81771 0 .45138-.366.81771-.816.81771z"/><path d="m108.238 6.68586h-2.052c-.451 0-.816-.36633-.816-.81771 0-.45137.365-.8177.816-.8177h2.052c.45 0 .816.36633.816.8177 0 .45138-.366.81771-.816.81771z"/><path d="m97.6606 9.73591h-2.87c-.4503 0-.8158-.36633-.8158-.81771 0-.45137.3655-.81771.8158-.81771h2.87c.4503 0 .8158.36634.8158.81771 0 .45138-.3655.81771-.8158.81771z"/></g><path d="m71.4542 19.5026.4127 12.5829-3.0673 4.6544-5.6486.1865-3.3659-4.4435-.4128-12.5829c-5.4201 2.5938-9.0291 8.3243-8.5739 14.7809.4144 5.8761 4.2698 10.8641 9.486 12.9885l1.7262 52.5986c.1077 3.287 2.8797 5.889 6.1592 5.781l.155-.005c3.2795-.108 5.8753-2.887 5.7676-6.1737l-1.7262-52.5901c5.2521-2.5169 8.8089-7.9645 8.605-14.1791-.2024-6.2178-4.1067-11.4348-9.517-13.5985zm-3.4052 80.4887c-1.023.0347-1.8861-.7768-1.9203-1.8022-.0343-1.0254.775-1.8906 1.798-1.9249 1.023-.0344 1.8861.7768 1.9203 1.8022.0343 1.0254-.775 1.8922-1.798 1.9249z" fill="#8e9db5"/><path d="m68.0882 107.03c-1.891 0-3.5585-.664-4.8556-1.881-1.3575-1.274-2.139-2.996-2.1993-4.847l-1.7067-51.9752c-5.3858-2.4482-9.0911-7.7077-9.5056-13.5739-.4699-6.6807 3.1147-12.8577 9.1304-15.7376.2985-.1439.6461-.126.93.0474.2822.1717.4584.4759.4699.8063l.403 12.2705 2.8699 3.7893 4.6369-.1538 2.6171-3.9708-.403-12.2705c-.0114-.3304.1452-.646.4161-.8357.2708-.1897.6167-.2322.9251-.1079 5.9471 2.3795 9.9232 8.0609 10.1321 14.4783.2023 6.1868-3.1474 11.9287-8.5854 14.8071l1.7066 51.9637c.0604 1.8508-.6053 3.6208-1.8763 4.9818-1.271 1.362-2.989 2.144-4.8376 2.204-.0898.003-.1795.005-.2676.005zm-9.641-85.5076c-4.464 2.7556-7.0484 7.7388-6.6732 13.0915.3753 5.3363 3.8604 10.1036 8.8775 12.1479.3589.1455.5971.4889.6102.8765l1.7278 52.5997c.0424 1.328.6037 2.563 1.581 3.479.9757.916 2.2434 1.395 3.5683 1.352 1.4798-.049 2.7133-.611 3.627-1.589.9153-.978 1.3933-2.249 1.3493-3.5754l-1.7278-52.5917c-.0131-.3892.2055-.749.5563-.9175 5.0742-2.4318 8.2346-7.6374 8.0502-13.2616-.168-5.1188-3.0641-9.7078-7.5085-12.071l.3606 10.9933c.0065.2028-.049.4039-.1615.5724l-3.0674 4.6544c-.1746.2666-.4683.4301-.7848.4399l-5.6485.1864c-.328.0082-.62-.1341-.8109-.3875l-3.3643-4.4435c-.1224-.1619-.1926-.3581-.1991-.5609zm9.5398 79.4516c-1.5239 0-2.7867-1.2149-2.8356-2.7522-.0506-1.5684 1.1796-2.8865 2.7443-2.9372 1.5386-.0524 2.8797 1.1807 2.9303 2.7507.0261.7572-.2464 1.4801-.7669 2.0357-.5204.556-1.2204.877-1.9774.902-.0327.001-.062.001-.0947.001zm0-3.7269c-.0097 0-.0195 0-.0293 0-.4846.0163-.8664.4252-.8501.9125.0163.4857.4291.8292.9104.8521.2334-.0082.4504-.1063.6119-.2797.1615-.1733.2464-.3974.2382-.6312-.0163-.4776-.4079-.8537-.8811-.8537z" fill="#472b29"/><path d="m64.5901 80.8373c-.2203 0-.3998-.1734-.4079-.3958l-.6836-20.809c-.0082-.2257.1696-.4138.3948-.422h.0131c.2202 0 .3997.1734.4079.3958l.6836 20.8091c.0081.2256-.1697.4137-.3949.4219-.0032 0-.0081 0-.013 0zm.1893 5.7796c-.2203 0-.3998-.1734-.4079-.3958l-.1094-3.3216c-.0081-.2256.1697-.4137.3949-.4219h.013c.2203 0 .3998.1734.4079.3958l.1093 3.3215c.0082.2257-.1696.4138-.3948.422-.0033 0-.0082 0-.013 0zm.1517 4.6233c-.2203 0-.3997-.1734-.4079-.3958l-.0751-2.3125c-.0065-.2257.1697-.4154.3949-.4219.2415-.0196.4128.1701.4209.3958l.0751 2.3124c.0065.2257-.1697.4154-.3949.422-.0049 0-.0081 0-.013 0z" fill="#472b29"/><path d="m86.1612 80.5805c-1.5598-.2895-2.6007-1.8055-2.3119-3.3689l10.274-55.735c.2888-1.5635 1.8013-2.6069 3.3611-2.3174 1.5598.2894 2.6006 1.8055 2.3119 3.3689l-10.274 55.735c-.2872 1.5635-1.7997 2.6069-3.3611 2.3174z" fill="#7c8ba2"/><path d="m86.6898 81.4473c-.2251 0-.4503-.0213-.6754-.0622-.9692-.1799-1.8127-.7294-2.374-1.5471-.5629-.8177-.7733-1.8038-.5922-2.7753l10.274-55.735c.1779-.9714.7261-1.8169 1.5435-2.3795.8158-.5626 1.8029-.7735 2.7671-.5937 2.0053.3729 3.3362 2.3109 2.9642 4.3225l-10.2736 55.735c-.1779.9714-.7261 1.8169-1.5419 2.3795-.6265.4301-1.3509.6558-2.0917.6558zm10.2708-61.5195c-.4144 0-.8206.1259-1.1714.368-.4569.3156-.7652.7866-.8648 1.3279l-10.274 55.735c-.0996.543.0196 1.0925.3328 1.5504.3149.4579.7864.7654 1.3265.8652.5417.1013 1.0883-.0164 1.5451-.3337.4568-.314.7652-.7866.8647-1.3279l10.2741-55.735c.2072-1.1252-.5368-2.2095-1.6593-2.4172-.124-.0212-.2497-.0327-.3737-.0327z" fill="#472b29"/><path d="m81.7217 63.2909-4.9257 26.726c-.7522 4.0803 1.2546 8.2588 4.9077 9.4723 4.358 1.4478 8.9166-1.709 9.8026-6.5188l4.9681-26.9467z" fill="#3f7ab1"/><path d="m83.8803 100.987c-.8501 0-1.7034-.135-2.5388-.414-4.1132-1.3651-6.5508-5.995-5.6713-10.7655l4.9273-26.7243c.1142-.6215.7065-1.0336 1.3298-.9191l14.7511 2.7311c.6216.1145 1.0311.7131.9169 1.3329l-4.9665 26.9484c-.5188 2.8145-2.1684 5.2284-4.5227 6.6251-1.3265.7864-2.7737 1.1854-4.2258 1.1854zm-1.2417-36.3633-4.7201 25.5992c-.6739 3.6535 1.1078 7.1697 4.1426 8.1771 1.6217.5381 3.3561.3369 4.8816-.5691 1.7883-1.0598 3.0413-2.9078 3.4394-5.0698l4.7593-25.8216z" fill="#472b29"/><path d="m81.3334 90.8607c-.9365-.1733-1.5614-1.0826-1.3869-2.0213l3.565-19.3372c.173-.9387 1.0801-1.5651 2.0167-1.3901.9365.1733 1.5614 1.0826 1.3868 2.0214l-3.565 19.3355c-.1729.9387-1.0801 1.5651-2.0166 1.3917z" fill="#5b94c8"/><path d="m81.6483 91.299c-.1289 0-.2578-.0114-.3883-.0343h-.0017c-1.1584-.2142-1.9285-1.3345-1.7148-2.4973l3.565-19.3372c.217-1.1627 1.3412-1.9314 2.4915-1.7188 1.16.2143 1.9301 1.3345 1.7164 2.4973l-3.565 19.3372c-.1909 1.0303-1.0932 1.7531-2.1031 1.7531zm-.2399-.8406c.7228.1309 1.4081-.345 1.5402-1.063l3.565-19.3372c.1322-.7179-.3442-1.4113-1.0589-1.5454-.7276-.1243-1.4096.3467-1.5418 1.063l-3.565 19.3372c-.1338.7195.3426 1.413 1.0605 1.5454z" fill="#472b29"/><path d="m91.6613 76.2123-2.6383 14.3083c-.1729.9387-1.0801 1.5651-2.0166 1.3901-.9365-.1734-1.5614-1.0827-1.3869-2.0214l3.565-19.3372c.173-.9387 1.0801-1.5651 2.0167-1.3901.9365.1734 1.5614 1.0827 1.3868 2.0214l-.2643 1.4343z" fill="#5b94c8"/><path d="m87.3229 92.349c-.1289 0-.2578-.0115-.3883-.0344-1.1601-.2142-1.9302-1.3361-1.7164-2.4973l3.565-19.3371c.2153-1.1628 1.3428-1.9315 2.4914-1.7189 1.16.2143 1.9301 1.3345 1.7164 2.4973l-.2643 1.4343c-.0408.2208-.2464.3729-.4764.3271-.2219-.0409-.3671-.2535-.3263-.4759l.2643-1.4343c.1321-.7179-.3443-1.4114-1.0589-1.5455-.731-.1243-1.4081.3467-1.5419 1.0631l-3.565 19.3355c-.1321.7196.3443 1.413 1.0606 1.5455.7179.1308 1.408-.3451 1.5402-1.0631l2.6366-14.3099c.0408-.2207.2578-.3728.4748-.327.2235.0408.3687.2534.3279.4759l-2.6366 14.3099c-.1909 1.0319-1.0931 1.7548-2.1031 1.7548zm4.5929-17.1098c-.0245 0-.0489-.0016-.0734-.0065-.2235-.0409-.3688-.2535-.328-.4759l.1681-.9077c.0408-.2208.2545-.3712.4748-.3271.2235.0409.3687.2535.3279.476l-.168.9076c-.0359.1963-.2089.3336-.4014.3336z" fill="#472b29"/><path d="m94.5002 17.4289 6.4598 1.1971.078 12.9542-3.0658 1.7842-5.6746-1.0516-2.4882-2.8129z" fill="#8e9db5"/><path d="m97.9722 34.1821c-.0489 0-.0995-.0049-.1485-.0131l-5.6746-1.0516c-.1778-.0343-.341-.1259-.4617-.2616l-2.4882-2.8129c-.2023-.229-.261-.5528-.1501-.839l4.6908-12.071c.142-.3663.5221-.5855.9088-.507l6.4593 1.1971c.385.0704.666.4073.667.7998l.079 12.9525c.001.2927-.154.5642-.407.7114l-3.0653 1.7842c-.124.0736-.2659.1112-.4095.1112zm-5.2504-2.6216 5.1019.9453 2.3953-1.395-.07-11.8028-5.1332-.9518-4.2633 10.9753z" fill="#472b29"/><path d="m91.8228 35.2239c-.0865 0-.1664-.054-.1925-.139-.0359-.1063.0212-.2225.1272-.2584l4.9502-1.6551c.1143-.0343.2252.0229.2578.1292.0359.1063-.0212.2224-.1272.2584l-4.9502 1.6551c-.0213.0065-.0441.0098-.0653.0098z" fill="#472b29"/><path d="m91.9598 36.7268c-.0864 0-.1664-.054-.1925-.139-.0359-.1063.0212-.2224.1273-.2584l4.9502-1.655c.1158-.036.2252.0245.2578.1292.0359.1063-.0212.2224-.1273.2584l-4.9502 1.655c-.0212.0065-.044.0098-.0653.0098z" fill="#472b29"/><path d="m91.6482 38.4244c-.0865 0-.1664-.054-.1925-.139-.0359-.1063.0212-.2224.1273-.2584l4.9502-1.6551c.1174-.0376.2251.0229.2578.1292.0359.1063-.0213.2224-.1273.2584l-4.9502 1.6551c-.0229.0065-.0441.0098-.0653.0098z" fill="#472b29"/><path d="m91.3774 40.0435c-.0865 0-.1664-.054-.1926-.1391-.0358-.1063.0213-.2224.1273-.2584l4.9502-1.655c.1159-.0343.2252.0229.2578.1292.0359.1063-.0212.2224-.1273.2584l-4.9502 1.655c-.0228.0066-.044.0099-.0652.0099z" fill="#472b29"/><path d="m92.8066 41.113c-.0864 0-.1664-.0539-.1925-.139-.0359-.1063.0212-.2224.1273-.2584l4.0838-1.3639c.1077-.036.2235.0245.2562.1292.0359.1063-.0212.2224-.1273.2584l-4.0838 1.3639c-.0212.0066-.0425.0098-.0637.0098z" fill="#472b29"/><path d="m94.3648 42.0583c-.0865 0-.1664-.054-.1925-.139-.0359-.1063.0212-.2224.1289-.2584l1.8453-.6166c.106-.0343.2235.0229.2561.1292.0359.1063-.0212.2224-.1289.2584l-1.8453.6166c-.0212.0065-.0424.0098-.0636.0098z" fill="#472b29"/></svg>