<svg version="1.1" id="Calque_1" xmlns="http://www.w3.org/2000/svg" xmlns:xlink="http://www.w3.org/1999/xlink" x="0" y="0" viewBox="0 0 460.1 460.1" xml:space="preserve" enable-background="new 0 0 460.1 460.1"><style type="text/css">.st0{fill:#f0f5fb}.st1{fill:#fff}.st2,.st3{fill:none;stroke:#d4e6f7;stroke-width:3;stroke-linecap:round;stroke-linejoin:round;stroke-miterlimit:10}.st3{stroke:#a2bbee}.st4{fill:url(#SVGID_1_)}.st5{fill:#66bfee}.st6{fill:#0050d2}.st7{fill:#243859}.st8{fill:url(#SVGID_2_)}.st9{fill:#d4e6f7}.st10{fill:#a2bbee}.st11{fill:none;stroke:#fff;stroke-width:8;stroke-linecap:round;stroke-linejoin:round;stroke-miterlimit:10}</style><path class="st0" d="M415,355.5c-76.9,97.4-218.1,114-315.5,37.1S-39,148.6,62.4,77.2C174-1.5,225.3,88.5,334.5,95	C458.3,102.3,491.9,258.1,415,355.5z"/><circle class="st1" cx="231.9" cy="244.5" r="115.8"/><g><path class="st2" d="M177.5,271.1c9.6,20.4,30.3,34.6,54.4,34.6c33.2,0,60-26.9,60-60s-26.9-60-60-60s-60,26.9-60,60"/><g><line class="st3" x1="233.4" y1="154.4" x2="233.4" y2="143.1"/><line class="st3" x1="297.2" y1="182.1" x2="305.2" y2="174.1"/><line class="st3" x1="322.7" y1="246.8" x2="334" y2="246.8"/><line class="st3" x1="295" y1="310.6" x2="303" y2="318.6"/><line class="st3" x1="230.3" y1="336.1" x2="230.3" y2="347.4"/><line class="st3" x1="166.5" y1="308.5" x2="158.5" y2="316.4"/><line class="st3" x1="141" y1="243.7" x2="129.7" y2="243.7"/><line class="st3" x1="168.7" y1="179.9" x2="160.7" y2="172"/></g><g><line class="st3" x1="241.5" y1="154.9" x2="242.5" y2="143.7"/><line class="st3" x1="302.6" y1="188.2" x2="311.3" y2="181"/><line class="st3" x1="322.3" y1="254.9" x2="333.5" y2="255.9"/><line class="st3" x1="289" y1="316" x2="296.2" y2="324.7"/><line class="st3" x1="222.2" y1="335.6" x2="221.2" y2="346.9"/><line class="st3" x1="161.2" y1="302.3" x2="152.5" y2="309.6"/><line class="st3" x1="141.5" y1="235.6" x2="130.3" y2="234.6"/><line class="st3" x1="174.8" y1="174.5" x2="167.6" y2="165.9"/></g><g><line class="st3" x1="249.6" y1="156.1" x2="251.6" y2="145"/><line class="st3" x1="307.5" y1="194.8" x2="316.7" y2="188.3"/><line class="st3" x1="321.1" y1="263" x2="332.2" y2="265"/><line class="st3" x1="282.4" y1="320.8" x2="288.9" y2="330.1"/><line class="st3" x1="214.2" y1="334.4" x2="212.2" y2="345.5"/><line class="st3" x1="156.4" y1="295.8" x2="147.1" y2="302.2"/><line class="st3" x1="142.8" y1="227.6" x2="131.7" y2="225.6"/><line class="st3" x1="181.4" y1="169.7" x2="175" y2="160.5"/></g><g><line class="st3" x1="257.6" y1="158.1" x2="260.6" y2="147.2"/><line class="st3" x1="311.7" y1="201.7" x2="321.5" y2="196.2"/><line class="st3" x1="319.2" y1="270.9" x2="330" y2="273.9"/><line class="st3" x1="275.5" y1="325.1" x2="281.1" y2="334.9"/><line class="st3" x1="206.3" y1="332.5" x2="203.3" y2="343.4"/><line class="st3" x1="152.2" y1="288.8" x2="142.4" y2="294.4"/><line class="st3" x1="144.8" y1="219.7" x2="133.9" y2="216.7"/><line class="st3" x1="188.4" y1="165.5" x2="182.8" y2="155.7"/></g><g><line class="st3" x1="265.3" y1="160.7" x2="269.3" y2="150.2"/><line class="st3" x1="315.3" y1="209.1" x2="325.6" y2="204.4"/><line class="st3" x1="316.6" y1="278.6" x2="327.1" y2="282.6"/><line class="st3" x1="268.2" y1="328.6" x2="272.9" y2="338.9"/><line class="st3" x1="198.7" y1="329.9" x2="194.7" y2="340.4"/><line class="st3" x1="148.6" y1="281.5" x2="138.4" y2="286.2"/><line class="st3" x1="147.4" y1="212" x2="136.9" y2="208"/><line class="st3" x1="195.8" y1="161.9" x2="191.1" y2="151.7"/></g><g><line class="st3" x1="272.8" y1="164.1" x2="277.7" y2="153.9"/><line class="st3" x1="318.3" y1="216.7" x2="328.9" y2="213"/><line class="st3" x1="313.3" y1="286.1" x2="323.4" y2="291"/><line class="st3" x1="260.6" y1="331.6" x2="264.4" y2="342.2"/><line class="st3" x1="191.3" y1="326.5" x2="186.4" y2="336.7"/><line class="st3" x1="145.8" y1="273.9" x2="135.1" y2="277.7"/><line class="st3" x1="150.8" y1="204.5" x2="140.6" y2="199.7"/><line class="st3" x1="203.4" y1="159" x2="199.7" y2="148.4"/></g><g><line class="st3" x1="279.9" y1="168.1" x2="285.7" y2="158.4"/><line class="st3" x1="320.5" y1="224.5" x2="331.5" y2="221.8"/><line class="st3" x1="309.3" y1="293.2" x2="319" y2="299"/><line class="st3" x1="252.8" y1="333.8" x2="255.6" y2="344.7"/><line class="st3" x1="184.2" y1="322.6" x2="178.4" y2="332.3"/><line class="st3" x1="143.6" y1="266.1" x2="132.6" y2="268.9"/><line class="st3" x1="154.8" y1="197.5" x2="145.1" y2="191.7"/><line class="st3" x1="211.3" y1="156.8" x2="208.5" y2="145.9"/></g><g><line class="st3" x1="286.7" y1="172.7" x2="293.3" y2="163.6"/><line class="st3" x1="322.1" y1="232.6" x2="333.2" y2="230.8"/><line class="st3" x1="304.8" y1="299.9" x2="313.9" y2="306.6"/><line class="st3" x1="244.9" y1="335.3" x2="246.6" y2="346.5"/><line class="st3" x1="177.5" y1="318" x2="170.9" y2="327.1"/><line class="st3" x1="142.1" y1="258.1" x2="131" y2="259.9"/><line class="st3" x1="159.4" y1="190.7" x2="150.3" y2="184.1"/><line class="st3" x1="219.3" y1="155.4" x2="217.6" y2="144.2"/></g><g><line class="st3" x1="293" y1="177.9" x2="300.4" y2="169.4"/><line class="st3" x1="322.9" y1="240.7" x2="334.1" y2="239.9"/><line class="st3" x1="299.6" y1="306.3" x2="308.1" y2="313.7"/><line class="st3" x1="236.8" y1="336.1" x2="237.5" y2="347.4"/><line class="st3" x1="171.2" y1="312.8" x2="163.8" y2="321.3"/><line class="st3" x1="141.4" y1="250" x2="130.1" y2="250.8"/><line class="st3" x1="164.6" y1="184.5" x2="156.1" y2="177.1"/><line class="st3" x1="227.5" y1="154.6" x2="226.7" y2="143.4"/></g><path class="st2" d="M297.5,207c6.7,11.3,10.6,24.6,10.6,38.7c0,26-13.1,49-33,62.8c-4.2,2.9-8.8,5.4-13.6,7.5 c-3.7,1.6-7.5,2.8-11.5,3.8c-5.8,1.4-11.8,2.1-18,2.1c-42.1,0-76.2-34.1-76.2-76.2s34.1-76.2,76.2-76.2c15.5,0,29.9,4.6,41.9,12.6"/><circle class="st2" cx="277.6" cy="185.7" r="5.3"/><circle class="st2" cx="177.1" cy="267.1" r="5.3"/></g><linearGradient id="SVGID_1_" gradientUnits="userSpaceOnUse" x1="236.69" y1="244.47" x2="236.69" y2="244.47"><stop offset="0" stop-color="#0095E2"/><stop offset="1" stop-color="#00AEDF"/></linearGradient><path class="st4" d="M236.7,244.5"/><g><g><path class="st5" d="M107.2,153c-2.4,0-4.3-1.9-4.3-4.3v-25.9c0-4.3,3.5-7.8,7.8-7.8h25.9c2.4,0,4.3,1.9,4.3,4.3s-1.9,4.3-4.3,4.3 h-25v25C111.5,151.1,109.6,153,107.2,153z"/></g><g><path class="st6" d="M136.5,360h-25.9c-4.3,0-7.8-3.5-7.8-7.8v-26.1c0-2.4,1.9-4.3,4.3-4.3c2.4,0,4.3,1.9,4.3,4.3v25.3h25 c2.4,0,4.3,1.9,4.3,4.3S138.9,360,136.5,360z"/></g><g><path class="st6" d="M342.8,360h-26.3c-2.4,0-4.3-1.9-4.3-4.3s1.9-4.3,4.3-4.3h25.4v-25.3c0-2.4,1.9-4.3,4.3-4.3 c2.4,0,4.3,1.9,4.3,4.3v26.1C350.5,356.6,347.1,360,342.8,360z"/></g><g><path class="st6" d="M346.2,153c-2.4,0-4.3-1.9-4.3-4.3v-25h-25.4c-2.4,0-4.3-1.9-4.3-4.3s1.9-4.3,4.3-4.3h26.3 c4.3,0,7.8,3.5,7.8,7.8v25.9C350.5,151.1,348.6,153,346.2,153z M342.8,123.7L342.8,123.7L342.8,123.7z"/></g></g><g><path class="st7" d="M208.6,251.4h62.2c0.2-2.2,0.7-4.5,0.7-6.9c0-2.5-0.2-4.7-0.7-6.9h-54.5L208.6,251.4z"/><path class="st7" d="M199.5,267.5c2,3,4.5,5.7,7.2,7.9h50.6c4.5-3.7,8.2-8.4,10.7-13.9h-65.2L199.5,267.5z"/><path class="st7" d="M267.9,227.4c-2.5-5.5-6.2-10.2-10.7-13.9h-50.6c-8.7,7.4-14.4,18.6-14.4,31c0,4.2,0.7,8.2,1.7,11.9l16.4-29 L267.9,227.4z"/></g><linearGradient id="SVGID_2_" gradientUnits="userSpaceOnUse" x1="104.322" y1="263.828" x2="104.322" y2="263.828"><stop offset="0" stop-color="#0095E2"/><stop offset="1" stop-color="#00AEDF"/></linearGradient><path class="st8" d="M104.3,263.8"/><polygon class="st9" points="74.1,249.5 78.6,257.7 86.9,262.2 78.6,266.8 74.1,275 69.6,266.8 61.4,262.2 69.6,257.7"/><g><polygon class="st9" points="395.7,204.9 401.1,214.7 410.9,220.1 401.1,225.5 395.7,235.3 390.3,225.5 380.5,220.1 390.3,214.7"/><polygon class="st9" points="370.3,173.4 373.2,178.6 378.4,181.5 373.2,184.3 370.3,189.6 367.5,184.3 362.3,181.5 367.5,178.6"/></g><g><circle class="st10" cx="138" cy="156.3" r="51.4"/><polyline class="st11" points="121.3,154.1 135.3,168.1 154.7,142.5"/></g></svg>