<svg width="1595" height="854" viewBox="0 0 1595 854" fill="none" xmlns="http://www.w3.org/2000/svg">
<g clip-path="url(#clip0)">
<path d="M770.458 797.922C758.456 799.422 764.482 812.53 742.751 813.318C737.767 813.498 735.53 812.201 730.135 809.998C719.802 805.778 706.294 814.107 696.091 807.879C686.688 802.139 683.874 799.504 682.148 788.623C680.203 776.368 698.264 772.814 691.624 753.559C688.246 743.763 694.198 734.803 702.067 728.062C713.817 717.996 728.459 716.582 743.899 717.577C758.8 718.537 768.314 725.59 779.934 734.967C786.807 740.513 791.14 744.081 794.542 752.231C797.367 758.999 798.33 762.915 797.198 770.822C794.993 786.223 786.394 795.93 770.458 797.922Z" fill="#F0F5FB"/>
<path d="M770.458 797.922C758.456 799.422 764.482 812.53 742.751 813.318C737.767 813.498 735.53 812.201 730.135 809.998C719.802 805.778 706.294 814.107 696.091 807.879C686.688 802.139 683.874 799.504 682.148 788.623C680.203 776.368 698.264 772.814 691.624 753.559C688.246 743.763 694.198 734.803 702.067 728.062C713.817 717.996 728.459 716.582 743.899 717.577C758.8 718.537 768.314 725.59 779.934 734.967C786.807 740.513 791.14 744.081 794.542 752.231C797.367 758.999 798.33 762.915 797.198 770.822C794.993 786.223 786.394 795.93 770.458 797.922Z" fill="#F0F5FB"/>
<path d="M785.608 792.341L683.503 794.728C682.96 793.011 682.527 791.017 682.148 788.624C681.329 783.464 684.056 779.847 686.993 775.951C691.032 770.593 695.469 764.708 691.624 753.559C691.284 752.575 691.039 751.599 690.881 750.633C696.702 746.401 703.991 744.217 712.026 744.703C718.852 745.116 722.533 750.014 726.219 754.919C729.891 759.805 733.568 764.697 740.365 765.17C744.205 765.436 747.192 763.778 750.087 762.171C753.406 760.328 756.604 758.552 760.831 759.817C764.735 760.985 766.272 764.389 767.791 767.757C769.356 771.224 770.903 774.653 775 775.56C780.983 776.885 783.366 770.392 785.734 763.94C787.848 758.18 789.95 752.452 794.592 752.35C797.378 759.045 798.324 762.961 797.198 770.822C795.839 780.317 792.049 787.648 785.608 792.341Z" fill="#F0F5FB"/>
<path d="M770.458 797.922C765.438 798.55 763.571 801.208 761.509 804.146C759.05 807.648 756.313 811.548 747.621 812.88C745.984 813.051 744.194 813.173 742.234 813.244C741.027 813.288 739.98 813.245 739.011 813.124C736.763 812.767 734.868 811.973 732.19 810.851C731.554 810.585 730.874 810.3 730.135 809.998C728.794 809.45 727.4 809.114 725.966 808.93C722.148 808.335 718.035 808.885 713.9 809.439C709.907 809.973 705.893 810.51 702.105 810.021C700.014 809.697 697.995 809.041 696.091 807.879C686.688 802.139 683.874 799.504 682.147 788.623C681.67 785.612 682.4 783.126 683.674 780.804C691.17 773.284 701.199 765.792 710.846 766.639C717.032 767.182 720.788 770.871 724.561 774.576C728.273 778.222 731.999 781.883 738.07 782.574C742.914 783.126 746.921 780.713 750.732 778.416C755.279 775.677 759.548 773.106 764.629 775.934C767.037 777.275 768.059 779.437 769.064 781.563C770.142 783.843 771.2 786.081 773.925 787.222C778.318 789.061 781.396 785.767 784.585 782.354C787.609 779.117 790.733 775.774 795.173 776.598C795.227 776.608 795.514 776.679 795.756 776.738C795.824 776.754 795.888 776.77 795.942 776.783C792.519 788.72 784.227 796.201 770.458 797.922Z" fill="#D9E6F5"/>
<path d="M738.563 752.45C739.029 752.437 739.418 752.804 739.431 753.27L740.037 775.09L753.236 760.691C753.551 760.347 754.085 760.324 754.429 760.639C754.773 760.954 754.796 761.488 754.481 761.832L740.11 777.509L743.414 850.198C743.435 850.663 743.075 851.058 742.609 851.079C742.143 851.1 741.748 850.74 741.727 850.274L738.407 777.228L737.743 753.317C737.73 752.851 738.097 752.462 738.563 752.45Z" fill="#A1BEDD"/>
<path d="M762.827 771.775C763.254 771.961 763.45 772.458 763.265 772.886L756.691 788.005L755.366 850.918C755.357 851.384 754.971 851.754 754.505 851.744C754.038 851.734 753.669 851.348 753.678 850.882L755.006 787.812V774.541C755.006 774.075 755.384 773.697 755.85 773.697C756.317 773.697 756.695 774.075 756.695 774.541V783.762L761.716 772.213C761.902 771.785 762.399 771.589 762.827 771.775Z" fill="#A1BEDD"/>
<path d="M769.253 773.706C769.714 773.774 770.033 774.203 769.965 774.664L766.646 797.239L759.343 851.013C759.28 851.475 758.855 851.799 758.393 851.736C757.931 851.674 757.607 851.248 757.67 850.786L764.939 797.261L760.407 788.198C760.199 787.781 760.368 787.274 760.785 787.066C761.202 786.857 761.709 787.026 761.917 787.443L765.365 794.339L768.295 774.418C768.363 773.957 768.792 773.638 769.253 773.706Z" fill="#A1BEDD"/>
<path d="M751.382 781.216C751.401 780.75 751.039 780.357 750.574 780.338C750.108 780.318 749.714 780.68 749.695 781.146L749.202 792.98L745.351 782.872C745.185 782.437 744.698 782.218 744.262 782.384C743.826 782.55 743.608 783.038 743.774 783.474L749.024 797.257L747.039 850.204C747.021 850.67 747.385 851.062 747.851 851.08C748.317 851.097 748.709 850.733 748.726 850.268L750.718 797.152L750.718 797.148L751.382 781.216Z" fill="#A1BEDD"/>
<path d="M727.479 755.286C727.479 754.819 727.101 754.441 726.635 754.441C726.169 754.441 725.791 754.819 725.791 755.286V770.895L722.042 764.803C721.798 764.406 721.278 764.282 720.88 764.526C720.483 764.771 720.359 765.291 720.604 765.688L725.841 774.199C726.487 777.115 726.972 779.705 727.297 781.575C727.462 782.524 727.586 783.287 727.668 783.812C727.709 784.075 727.74 784.278 727.761 784.415C727.771 784.483 727.779 784.535 727.784 784.569L727.789 784.608L727.789 784.61L728.102 787.314C728.302 789.043 728.587 791.518 728.929 794.495C729.614 800.45 730.527 808.417 731.44 816.468C732.353 824.518 733.266 832.651 733.95 838.936C734.292 842.079 734.577 844.758 734.777 846.734C734.98 848.742 735.086 849.959 735.086 850.236C735.086 850.702 735.464 851.08 735.931 851.08C736.397 851.08 736.775 850.702 736.775 850.236C736.775 849.849 736.654 848.514 736.457 846.564C736.257 844.582 735.971 841.897 735.629 838.753C734.944 832.464 734.031 824.329 733.118 816.277C732.205 808.226 731.291 800.258 730.607 794.302C730.264 791.325 729.979 788.85 729.779 787.12L729.492 784.633L734.71 772.892C734.9 772.466 734.708 771.967 734.282 771.778C733.855 771.588 733.357 771.78 733.167 772.206L729.009 781.563C728.993 781.473 728.977 781.38 728.961 781.285C728.63 779.386 728.136 776.751 727.479 773.785V755.286Z" fill="#A1BEDD"/>
<path d="M719.216 770.385C719.678 770.321 720.104 770.644 720.167 771.106L722.815 790.302L722.851 790.427C722.886 790.548 722.937 790.726 723.002 790.957C723.133 791.417 723.323 792.087 723.556 792.923C724.023 794.595 724.666 796.935 725.372 799.603C726.782 804.933 728.449 811.597 729.456 816.878C730.687 823.329 731.685 831.659 732.376 838.36C732.722 841.714 732.991 844.666 733.173 846.78C733.265 847.837 733.335 848.684 733.381 849.268C733.405 849.56 733.423 849.786 733.435 849.939L733.453 850.171C733.453 850.172 733.453 850.173 732.611 850.236C731.769 850.3 731.769 850.3 731.769 850.299L731.751 850.07C731.739 849.918 731.722 849.694 731.698 849.403C731.652 848.823 731.582 847.978 731.491 846.925C731.309 844.818 731.041 841.876 730.696 838.533C730.007 831.841 729.014 823.571 727.798 817.195C726.802 811.974 725.148 805.358 723.74 800.035C723.036 797.375 722.395 795.044 721.93 793.377C721.697 792.544 721.508 791.877 721.378 791.418C721.313 791.189 721.262 791.012 721.228 790.893L721.205 790.814L712.628 776.299C712.391 775.897 712.524 775.38 712.926 775.142C713.327 774.905 713.845 775.038 714.082 775.44L720.577 786.431L718.495 771.337C718.431 770.875 718.754 770.449 719.216 770.385Z" fill="#A1BEDD"/>
<path d="M732.611 850.236L733.453 850.173C733.488 850.637 733.139 851.043 732.674 851.078C732.209 851.113 731.804 850.764 731.769 850.299L732.611 850.236Z" fill="#A1BEDD"/>
<path d="M713.187 783.194C713.542 783.101 713.905 783.314 713.997 783.669L714.011 783.72L714.05 783.87C714.084 784.002 714.134 784.196 714.199 784.449C714.328 784.955 714.515 785.692 714.745 786.62C715.206 788.475 715.843 791.091 716.544 794.138C717.946 800.227 719.61 808.048 720.651 814.945L725.963 850.136C726.018 850.499 725.769 850.837 725.406 850.892C725.043 850.947 724.705 850.697 724.65 850.334L719.338 815.143C718.716 811.018 717.867 806.553 716.985 802.326C716.944 802.3 716.905 802.269 716.869 802.234L709.566 794.93C709.306 794.67 709.306 794.25 709.566 793.991C709.825 793.731 710.245 793.731 710.505 793.991L716.485 799.971C716.066 798.029 715.648 796.163 715.25 794.435C714.551 791.398 713.916 788.789 713.456 786.94C713.227 786.016 713.04 785.281 712.912 784.778C712.848 784.527 712.798 784.333 712.764 784.202L712.726 784.054L712.713 784.004C712.62 783.65 712.832 783.287 713.187 783.194Z" fill="#A1BEDD"/>
<path fill-rule="evenodd" clip-rule="evenodd" d="M623.875 379.147C625.192 380.441 626.438 381.795 627.609 383.204C630.863 383.529 634.054 384.158 637.164 385.07C658.939 391.453 676.801 411.698 685.248 438.488C686.862 438.814 688.45 439.2 690.01 439.642C713.404 446.275 730.335 465.635 730.335 488.486L730.335 488.647L730.334 488.797C730.323 490.35 730.235 491.886 730.071 493.404C731.753 493.933 733.399 494.49 735.009 495.074C759.156 503.83 775 518.542 775 535.214C775 535.816 774.979 536.416 774.938 537.013C774.323 545.969 769.134 554.307 760.571 561.391C760.869 561.988 761.149 562.59 761.412 563.197C763.252 567.446 764.237 571.932 764.237 576.57C764.237 578.419 764.081 580.244 763.776 582.04C761.641 594.609 752.236 605.729 738.398 613.53C738.404 613.741 738.407 613.954 738.407 614.166C738.407 615.455 738.3 616.728 738.093 617.983C736.216 629.325 726.069 639.165 711.411 645.196C701.743 649.174 690.111 651.495 677.597 651.495C671.852 651.495 666.293 651.006 661.024 650.091L661.185 650.152C648.788 653.706 641.568 653.79 629.165 653.912C615.788 665.956 607.181 671.882 592.28 678.495C604.775 747.658 616.461 820.706 610.869 824.649C603.235 830.033 588.529 831.801 579.207 829.507C579.492 830.393 579.775 831.225 580.054 832C575.841 831.103 572.588 829.431 571.335 826.948C568.796 821.913 568.355 803.811 568.376 784.639C568.369 778.255 568.422 771.698 568.473 765.417V765.41L568.473 765.4C568.512 760.563 568.55 755.891 568.558 751.588C568.493 738.654 566.359 726.29 564.26 714.137C562.202 702.214 560.178 690.493 560.178 678.634C560.178 670.496 559.578 653.48 558.783 634.5L558.883 634.599L558.857 633.97C552.241 627.628 540.495 615.941 533.377 606.378C527.246 598.14 520.182 585.609 516.607 579.046C510.802 581.49 504.293 583.088 497.369 583.623C489.567 597.025 471.881 606.379 451.311 606.379C423.523 606.379 400.996 589.306 400.996 568.245C400.996 556.725 407.735 546.399 418.389 539.407C403.301 528.56 394 513.718 394 497.348C394 471.627 416.962 449.676 449.26 441.075C452.822 410.825 481.655 387.244 516.695 387.244C521.262 387.244 525.724 387.644 530.038 388.408C540.207 372.613 559.103 362 580.733 362C597.796 362 613.157 368.604 623.875 379.147ZM640.901 643.934C644.061 645.405 647.463 646.69 651.063 647.763C644.519 649.308 640.238 649.833 633.201 649.884L640.901 643.934ZM628.814 636.456C630.645 637.964 632.658 639.384 634.832 640.704C632.916 642.355 620.529 652.911 611.138 657.94C607.092 660.107 603.635 661.831 600.686 663.202C600.166 655.501 601.939 648.655 603.832 641.34C604.224 639.827 604.621 638.294 605.004 636.729C608.602 637.943 612.479 638.605 616.519 638.605C620.853 638.605 624.999 637.844 628.814 636.456ZM582.348 606.379C582.348 617.433 588.249 627.187 597.243 632.991C595.968 638.35 593.847 647.568 593.379 651.495C592.759 656.703 592.418 664.435 592.328 666.696C591.573 666.966 590.886 667.196 590.261 667.391C585.143 639.408 580.038 612.726 576.066 592.315C579.679 592.117 583.187 591.63 586.549 590.885C583.871 595.482 582.348 600.763 582.348 606.379ZM522.122 576.354C524.253 575.157 526.256 573.836 528.111 572.405C531.661 577.377 536.627 581.683 542.598 585.014C542.172 586.55 541.686 588.131 541.18 589.46C539.604 593.602 536.068 599.933 536.068 599.933C529.688 591.679 524.554 582.183 522.122 576.354ZM547.39 587.381C550.382 588.683 553.568 589.757 556.906 590.575C557.373 600.384 557.867 611.071 558.327 621.558C555.905 619.958 553.309 618.089 551.405 616.315C546.676 611.91 540.911 603.156 540.911 603.156C540.911 603.156 544.595 595.067 546.562 589.728C546.832 588.995 547.11 588.203 547.39 587.381Z" fill="#F0F5FB"/>
<path fill-rule="evenodd" clip-rule="evenodd" d="M365.286 454.696C364.343 455.654 363.45 456.657 362.611 457.7C360.279 457.94 357.993 458.406 355.764 459.081C340.162 463.808 327.363 478.797 321.311 498.634C320.154 498.875 319.016 499.161 317.898 499.488C301.136 504.399 289.004 518.734 289.004 535.654L289.004 535.773L289.005 535.884C289.012 537.033 289.076 538.171 289.193 539.295C287.988 539.687 286.808 540.099 285.655 540.532C268.353 547.015 257 557.907 257 570.252C257 570.698 257.015 571.142 257.044 571.584C257.485 578.216 261.203 584.389 267.339 589.634C267.126 590.076 266.925 590.522 266.736 590.971C265.418 594.117 264.712 597.439 264.712 600.873C264.712 602.242 264.824 603.594 265.043 604.923C266.572 614.23 273.311 622.463 283.227 628.239C283.222 628.396 283.22 628.553 283.22 628.71C283.22 629.664 283.297 630.607 283.445 631.536C284.79 639.934 292.061 647.22 302.563 651.686C309.491 654.631 317.826 656.349 326.792 656.349C330.909 656.349 334.893 655.987 338.668 655.31L338.553 655.355C347.435 657.986 352.609 658.048 361.496 658.139C371.081 667.057 377.248 671.444 387.925 676.341C378.972 727.551 370.599 781.638 374.606 784.558C380.075 788.544 390.613 789.852 397.292 788.154C397.088 788.81 396.885 789.426 396.686 790C399.704 789.336 402.036 788.098 402.933 786.259C404.752 782.531 405.069 769.128 405.054 754.933C405.058 750.206 405.02 745.351 404.984 740.7V740.695L404.984 740.687C404.956 737.106 404.929 733.647 404.923 730.461C404.969 720.884 406.499 711.73 408.002 702.731C409.478 693.903 410.928 685.225 410.928 676.444C410.928 670.418 411.357 657.819 411.927 643.766L411.855 643.84L411.874 643.373C416.615 638.678 425.031 630.025 430.131 622.944C434.525 616.844 439.586 607.566 442.148 602.706C446.307 604.516 450.971 605.699 455.933 606.095C461.523 616.018 474.196 622.944 488.934 622.944C508.846 622.944 524.987 610.303 524.987 594.709C524.987 586.18 520.158 578.534 512.524 573.356C523.336 565.326 530 554.336 530 542.215C530 523.171 513.547 506.918 490.404 500.549C487.852 478.151 467.192 460.691 442.085 460.691C438.812 460.691 435.615 460.988 432.524 461.553C425.237 449.858 411.698 442 396.199 442C383.973 442 372.966 446.89 365.286 454.696ZM353.087 650.751C350.822 651.84 348.385 652.791 345.805 653.586C350.494 654.73 353.562 655.119 358.604 655.156L353.087 650.751ZM361.747 645.214C360.435 646.33 358.993 647.382 357.436 648.359C358.808 649.582 367.684 657.398 374.413 661.122C377.312 662.726 379.789 664.002 381.902 665.018C382.275 659.316 381.005 654.247 379.648 648.83C379.367 647.71 379.083 646.575 378.808 645.416C376.23 646.315 373.452 646.805 370.557 646.805C367.452 646.805 364.481 646.242 361.747 645.214ZM395.042 622.944C395.042 631.129 390.814 638.351 384.369 642.649C385.283 646.616 386.803 653.442 387.138 656.349C387.582 660.206 387.826 665.931 387.891 667.605C388.432 667.805 388.924 667.975 389.372 668.119C393.039 647.4 396.697 627.644 399.543 612.531C396.954 612.385 394.441 612.024 392.032 611.472C393.951 614.876 395.042 618.786 395.042 622.944ZM438.196 600.713C436.669 599.827 435.234 598.849 433.905 597.789C431.361 601.471 427.803 604.659 423.524 607.125C423.83 608.262 424.178 609.433 424.54 610.417C425.669 613.484 428.203 618.172 428.203 618.172C432.775 612.06 436.454 605.029 438.196 600.713ZM420.091 608.878C417.947 609.842 415.664 610.637 413.272 611.243C412.938 618.505 412.583 626.419 412.254 634.184C413.989 632.999 415.849 631.615 417.214 630.301C420.602 627.04 424.733 620.558 424.733 620.558C424.733 620.558 422.093 614.568 420.684 610.616C420.491 610.073 420.291 609.487 420.091 608.878Z" fill="#F0F5FB"/>
<path fill-rule="evenodd" clip-rule="evenodd" d="M232.206 530.391C232.831 531.024 233.423 531.687 233.979 532.376C235.525 532.535 237.041 532.843 238.519 533.289C248.864 536.413 257.349 546.32 261.362 559.43C262.129 559.59 262.883 559.779 263.624 559.995C274.738 563.241 282.781 572.715 282.781 583.897L282.781 583.976L282.781 584.05C282.776 584.809 282.734 585.561 282.656 586.304C283.455 586.563 284.237 586.836 285.002 587.121C296.473 591.406 304 598.605 304 606.764C304 607.059 303.99 607.352 303.971 607.645C303.678 612.028 301.213 616.108 297.145 619.574C297.287 619.866 297.42 620.161 297.545 620.458C298.419 622.537 298.887 624.733 298.887 627.002C298.887 627.907 298.813 628.8 298.668 629.679C297.653 635.83 293.186 641.272 286.612 645.089C286.614 645.193 286.616 645.296 286.616 645.401C286.616 646.031 286.565 646.654 286.467 647.268C285.575 652.818 280.755 657.634 273.791 660.585C269.198 662.532 263.672 663.668 257.727 663.668C254.998 663.668 252.357 663.428 249.854 662.981L249.93 663.011C244.041 664.75 240.611 664.791 234.719 664.85C228.364 670.745 224.275 673.644 217.196 676.88C223.132 710.726 228.683 746.473 226.027 748.403C222.4 751.037 215.414 751.902 210.986 750.78C211.121 751.214 211.256 751.621 211.388 752C209.387 751.561 207.841 750.743 207.246 749.528C206.04 747.064 205.83 738.205 205.84 728.823C205.837 725.699 205.862 722.49 205.886 719.417V719.413L205.886 719.408C205.905 717.042 205.923 714.755 205.927 712.649C205.896 706.32 204.882 700.27 203.885 694.322C202.907 688.488 201.945 682.752 201.945 676.948C201.945 672.966 201.66 664.639 201.283 655.351L201.33 655.4L201.318 655.092C198.175 651.988 192.595 646.269 189.213 641.589C186.3 637.558 182.945 631.426 181.246 628.214C178.489 629.41 175.396 630.192 172.107 630.454C168.401 637.012 159.998 641.59 150.227 641.59C137.025 641.59 126.323 633.235 126.323 622.928C126.323 617.291 129.525 612.238 134.586 608.816C127.418 603.508 123 596.245 123 588.234C123 575.647 133.908 564.905 149.252 560.696C150.944 545.893 164.642 534.353 181.288 534.353C183.458 534.353 185.577 534.549 187.627 534.923C192.458 527.194 201.435 522 211.71 522C219.816 522 227.114 525.232 232.206 530.391ZM240.294 659.968C241.796 660.687 243.412 661.316 245.122 661.841C242.013 662.597 239.979 662.855 236.636 662.879L240.294 659.968ZM234.552 656.308C235.422 657.046 236.378 657.741 237.411 658.387C236.501 659.195 230.616 664.361 226.155 666.822C224.233 667.882 222.59 668.726 221.189 669.397C220.943 665.628 221.784 662.278 222.684 658.698C222.87 657.958 223.059 657.208 223.241 656.442C224.95 657.036 226.792 657.36 228.711 657.36C230.77 657.36 232.74 656.987 234.552 656.308ZM212.477 641.59C212.477 646.999 215.281 651.772 219.554 654.613C218.948 657.235 217.94 661.746 217.718 663.668C217.424 666.217 217.262 670 217.219 671.107C216.86 671.239 216.534 671.351 216.237 671.447C213.806 657.753 211.38 644.696 209.493 634.707C211.21 634.611 212.876 634.372 214.474 634.007C213.201 636.257 212.477 638.841 212.477 641.59ZM183.866 626.897C184.879 626.311 185.83 625.665 186.711 624.964C188.398 627.397 190.757 629.505 193.594 631.135C193.391 631.886 193.16 632.66 192.92 633.31C192.172 635.337 190.492 638.435 190.492 638.435C187.461 634.396 185.021 629.749 183.866 626.897ZM195.87 632.293C197.292 632.93 198.805 633.456 200.391 633.856C200.613 638.656 200.848 643.886 201.066 649.018C199.915 648.235 198.682 647.32 197.778 646.452C195.531 644.296 192.792 640.012 192.792 640.012C192.792 640.012 194.543 636.054 195.477 633.442C195.605 633.083 195.737 632.695 195.87 632.293Z" fill="#F0F5FB"/>
<path fill-rule="evenodd" clip-rule="evenodd" d="M803.092 174.975C801.123 176.937 799.258 178.988 797.507 181.122C792.638 181.614 787.865 182.567 783.211 183.948C750.634 193.619 723.912 224.287 711.275 264.871C708.86 265.365 706.484 265.949 704.151 266.619C669.151 276.667 643.822 305.997 643.822 340.613L643.822 340.857L643.823 341.084C643.839 343.436 643.972 345.764 644.216 348.063C641.701 348.865 639.237 349.709 636.829 350.593C600.704 363.857 577 386.144 577 411.4C577 412.313 577.031 413.222 577.092 414.126C578.013 427.694 585.776 440.325 598.586 451.056C598.141 451.96 597.722 452.873 597.329 453.792C594.576 460.228 593.102 467.025 593.102 474.051C593.102 476.852 593.336 479.617 593.792 482.337C596.986 501.378 611.056 518.223 631.759 530.04C631.75 530.361 631.746 530.683 631.746 531.005C631.746 532.957 631.905 534.886 632.216 536.787C635.023 553.968 650.204 568.876 672.132 578.012C686.598 584.039 703.999 587.554 722.72 587.554C731.316 587.554 739.633 586.813 747.515 585.428L747.275 585.52C765.821 590.903 776.623 591.03 795.178 591.215C815.191 609.462 828.068 618.438 850.361 628.456C831.667 733.23 814.185 843.891 822.55 849.865C833.971 858.02 855.972 860.698 869.918 857.224C869.492 858.566 869.068 859.826 868.652 861C874.954 859.641 879.821 857.108 881.695 853.347C885.494 845.719 886.154 818.297 886.123 789.253C886.133 779.582 886.053 769.649 885.978 760.134V760.123L885.977 760.108C885.919 752.781 885.863 745.703 885.85 739.184C885.947 719.59 889.14 700.861 892.28 682.45C895.36 664.388 898.387 646.632 898.387 628.666C898.387 616.338 899.285 590.562 900.474 561.808L900.324 561.959L900.363 561.005C910.261 551.398 927.835 533.694 938.483 519.207C947.656 506.727 958.224 487.744 963.572 477.802C972.256 481.503 981.995 483.925 992.354 484.735C1004.03 505.037 1030.49 519.208 1061.26 519.208C1102.83 519.208 1136.53 493.344 1136.53 461.439C1136.53 443.988 1126.45 428.345 1110.51 417.752C1133.09 401.321 1147 378.837 1147 354.038C1147 315.073 1112.65 281.82 1064.33 268.79C1059 222.964 1015.86 187.242 963.44 187.242C956.608 187.242 949.933 187.848 943.479 189.005C928.265 165.078 899.996 149 867.636 149C842.109 149 819.128 159.005 803.092 174.975ZM777.62 576.1C772.892 578.328 767.803 580.274 762.417 581.901C772.207 584.24 778.613 585.037 789.139 585.113L777.62 576.1ZM795.703 564.771C792.963 567.055 789.953 569.207 786.701 571.206C789.566 573.708 808.099 589.699 822.148 597.318C828.2 600.6 833.373 603.212 837.785 605.289C838.562 593.623 835.911 583.252 833.078 572.17C832.492 569.878 831.898 567.556 831.325 565.185C825.942 567.025 820.142 568.026 814.097 568.026C807.613 568.026 801.411 566.874 795.703 564.771ZM865.22 519.208C865.22 535.953 856.391 550.73 842.936 559.523C844.843 567.64 848.016 581.606 848.716 587.554C849.644 595.444 850.154 607.157 850.289 610.583C851.418 610.992 852.446 611.339 853.381 611.635C861.037 569.243 868.675 528.824 874.618 497.902C869.212 497.603 863.964 496.865 858.934 495.736C862.941 502.701 865.22 510.7 865.22 519.208ZM955.322 473.723C952.133 471.911 949.137 469.91 946.362 467.741C941.05 475.273 933.621 481.797 924.688 486.843C925.326 489.169 926.053 491.565 926.809 493.578C929.167 499.853 934.457 509.444 934.457 509.444C944.002 496.94 951.684 482.553 955.322 473.723ZM917.519 490.429C913.042 492.4 908.276 494.028 903.282 495.267C902.584 510.126 901.844 526.317 901.157 542.203C904.78 539.779 908.664 536.947 911.512 534.26C918.586 527.587 927.212 514.326 927.212 514.326C927.212 514.326 921.7 502.071 918.758 493.984C918.354 492.873 917.938 491.674 917.519 490.429Z" fill="#F0F5FB"/>
<path d="M1414.35 636.034C1413.97 652.753 1415.79 673.206 1426.05 675.595C1436.09 677.932 1444.43 671.977 1454.61 656.514C1460 648.317 1462.87 641.948 1465.22 633.636C1470.65 614.455 1475.17 587.127 1475.17 587.127L1466.04 584.271C1496.86 564.256 1538.55 549.694 1543.44 544.31C1545.92 541.579 1493.74 544.291 1493.74 544.291L1494.14 538.828C1494.14 538.828 1478.19 539.138 1474.09 546.441C1470.83 552.251 1473.14 558.149 1473.14 558.149L1465.7 548.581C1465.7 548.581 1452.5 555.528 1450.06 563.652C1448.18 569.882 1451.61 580.238 1451.61 580.238L1438 563.33C1438 563.33 1424.3 580.538 1426.84 592.453C1428.4 599.799 1436.91 608.832 1436.91 608.832L1423.31 603.182C1423.31 603.182 1414.66 622.739 1414.35 636.034Z" fill="#B3EBE3"/>
<path d="M1463.9 622.861C1463.9 622.861 1426.96 677.77 1436.65 688.44C1447.59 700.489 1508.57 662.058 1508.57 662.058C1508.57 662.058 1494.44 653.161 1497.37 646.146C1498.03 644.546 1522.28 647.122 1522.28 647.122L1536.46 633.318L1529.39 621.001C1529.39 621.001 1538.48 628.509 1544.12 626.183C1547.51 624.78 1551.36 615.903 1558.82 608.847C1565.65 602.391 1582.09 592.902 1580.12 591.44C1574.39 587.182 1565.05 595.757 1558.01 597.257C1542.53 600.559 1522.17 595.492 1522.17 595.492C1522.17 595.492 1516.52 609.089 1514.65 604.559C1513.61 602.039 1513.78 597.632 1513.78 597.632C1513.78 597.632 1500.97 595.737 1493.66 598.65C1480.28 603.983 1476.84 630.112 1474.1 629.914C1469.04 629.547 1463.9 622.861 1463.9 622.861Z" fill="#40CDB8"/>
<path d="M1436.36 687.292L1435.98 686.959L1435.98 686.966L1435.97 686.974L1436.36 687.292ZM1490.93 634.945L1491.22 635.352L1491.22 635.352L1490.93 634.945ZM1547.43 608.184C1547.69 608.095 1547.83 607.811 1547.74 607.549C1547.65 607.288 1547.37 607.148 1547.11 607.238L1547.43 608.184ZM1423.11 703.36L1423.48 703.699L1423.49 703.689L1423.5 703.678L1423.11 703.36ZM1436.36 687.292C1436.73 687.625 1436.73 687.625 1436.73 687.625C1436.73 687.624 1436.73 687.624 1436.73 687.623C1436.73 687.622 1436.73 687.621 1436.74 687.618C1436.74 687.614 1436.75 687.607 1436.75 687.598C1436.77 687.581 1436.79 687.554 1436.82 687.519C1436.89 687.449 1436.98 687.344 1437.1 687.208C1437.35 686.934 1437.71 686.529 1438.19 686.01C1439.13 684.97 1440.5 683.467 1442.21 681.616C1445.64 677.912 1450.44 672.815 1455.91 667.237C1466.85 656.073 1480.47 643.015 1491.22 635.352L1490.64 634.537C1479.81 642.257 1466.14 655.372 1455.19 666.537C1449.71 672.123 1444.91 677.228 1441.48 680.936C1439.76 682.791 1438.39 684.296 1437.45 685.338C1436.97 685.859 1436.61 686.264 1436.36 686.539C1436.24 686.676 1436.14 686.781 1436.08 686.852C1436.05 686.887 1436.02 686.914 1436.01 686.932C1436 686.941 1435.99 686.948 1435.99 686.952C1435.99 686.954 1435.99 686.956 1435.98 686.957C1435.98 686.958 1435.98 686.958 1435.98 686.959C1435.98 686.959 1435.98 686.959 1436.36 687.292ZM1491.22 635.352C1501.98 627.692 1516.02 620.9 1527.4 616.018C1533.08 613.579 1538.09 611.62 1541.68 610.271C1543.47 609.596 1544.91 609.074 1545.9 608.721C1546.4 608.544 1546.78 608.41 1547.04 608.32C1547.17 608.275 1547.27 608.241 1547.33 608.218C1547.36 608.207 1547.39 608.198 1547.41 608.192C1547.41 608.19 1547.42 608.187 1547.42 608.186C1547.43 608.185 1547.43 608.185 1547.43 608.184C1547.43 608.184 1547.43 608.184 1547.43 608.184C1547.43 608.184 1547.43 608.184 1547.27 607.711C1547.11 607.238 1547.11 607.238 1547.11 607.238C1547.11 607.238 1547.11 607.238 1547.11 607.238C1547.1 607.239 1547.1 607.239 1547.1 607.24C1547.1 607.241 1547.09 607.244 1547.08 607.246C1547.06 607.252 1547.04 607.261 1547.01 607.273C1546.94 607.296 1546.84 607.33 1546.71 607.376C1546.45 607.466 1546.06 607.602 1545.57 607.779C1544.57 608.134 1543.13 608.658 1541.33 609.335C1537.73 610.688 1532.7 612.653 1527 615.1C1515.61 619.989 1501.48 626.814 1490.64 634.537L1491.22 635.352ZM1422.75 703.02C1418.84 707.251 1415.69 710.874 1413.52 713.439C1412.43 714.722 1411.59 715.741 1411.02 716.439C1410.73 716.788 1410.51 717.057 1410.37 717.239C1410.29 717.33 1410.24 717.4 1410.2 717.446C1410.18 717.47 1410.17 717.487 1410.16 717.499C1410.15 717.505 1410.15 717.51 1410.15 717.513C1410.15 717.514 1410.15 717.515 1410.15 717.516C1410.15 717.517 1410.15 717.517 1410.15 717.517C1410.15 717.517 1410.14 717.517 1410.14 717.517C1410.14 717.517 1410.14 717.517 1410.54 717.828C1410.93 718.139 1410.93 718.139 1410.93 718.139C1410.93 718.138 1410.93 718.138 1410.93 718.138C1410.93 718.138 1410.93 718.138 1410.93 718.138C1410.93 718.137 1410.93 718.136 1410.93 718.134C1410.93 718.132 1410.94 718.127 1410.94 718.122C1410.95 718.11 1410.96 718.093 1410.98 718.07C1411.02 718.025 1411.07 717.956 1411.15 717.866C1411.29 717.686 1411.51 717.419 1411.79 717.072C1412.36 716.378 1413.2 715.364 1414.28 714.085C1416.44 711.529 1419.58 707.918 1423.48 703.699L1422.75 703.02ZM1435.97 686.974L1422.73 703.042L1423.5 703.678L1436.74 687.61L1435.97 686.974Z" fill="#D8B096"/>
<path d="M1423.26 716.55C1423.26 716.55 1444.48 609.073 1456.24 583.014C1458.98 576.958 1463.18 572.77 1468.02 568.214C1476.92 559.837 1493.12 555.199 1493.12 555.199" stroke="#D8B096" stroke-linecap="round"/>
<path d="M1318.31 633.553C1277.86 638.607 1298.17 682.761 1224.92 685.415C1208.12 686.023 1200.58 681.653 1182.4 674.231C1147.57 660.015 1102.04 688.075 1067.65 667.094C1035.96 647.758 1026.47 638.882 1020.65 602.23C1014.1 560.946 1074.97 548.975 1052.59 484.112C1041.21 451.112 1061.27 420.932 1087.79 398.222C1127.4 364.315 1176.75 359.551 1228.79 362.902C1279.02 366.136 1311.09 389.896 1350.25 421.484C1373.42 440.166 1388.02 452.184 1399.49 479.638C1409.01 502.437 1412.26 515.628 1408.44 542.265C1401.01 594.145 1372.03 626.843 1318.31 633.553Z" fill="#40CDB8"/>
<path d="M1318.31 633.553C1277.86 638.607 1298.17 682.761 1224.92 685.415C1208.12 686.023 1200.58 681.653 1182.4 674.231C1147.57 660.015 1102.04 688.075 1067.65 667.094C1035.96 647.758 1026.47 638.882 1020.65 602.23C1014.1 560.946 1074.97 548.975 1052.59 484.112C1041.21 451.112 1061.27 420.932 1087.79 398.222C1127.4 364.315 1176.75 359.551 1228.79 362.902C1279.02 366.136 1311.09 389.896 1350.25 421.484C1373.42 440.166 1388.02 452.184 1399.49 479.638C1409.01 502.437 1412.26 515.628 1408.44 542.265C1401.01 594.145 1372.03 626.843 1318.31 633.553Z" fill="#40CDB8"/>
<path d="M1369.38 614.752L1025.22 622.792C1023.39 617.011 1021.93 610.292 1020.65 602.23C1017.89 584.85 1027.08 572.665 1036.98 559.543C1050.6 541.493 1065.55 521.669 1052.59 484.112C1051.45 480.796 1050.62 477.508 1050.09 474.254C1069.71 460 1094.28 452.641 1121.36 454.279C1144.37 455.671 1156.78 472.17 1169.2 488.692C1181.58 505.151 1193.97 521.632 1216.88 523.223C1229.82 524.122 1239.89 518.536 1249.65 513.12C1260.84 506.914 1271.62 500.931 1285.86 505.191C1299.02 509.126 1304.2 520.594 1309.32 531.937C1314.6 543.619 1319.81 555.169 1333.62 558.225C1353.79 562.688 1361.82 540.816 1369.8 519.081C1376.93 499.676 1384.01 480.382 1399.66 480.038C1409.05 502.592 1412.24 515.784 1408.44 542.265C1403.86 574.25 1391.09 598.943 1369.38 614.752Z" fill="#00BDA1"/>
<path d="M1318.31 633.554C1301.39 635.668 1295.1 644.623 1288.15 654.52C1279.86 666.317 1270.64 679.454 1241.34 683.939C1235.82 684.517 1229.79 684.929 1223.18 685.168C1219.11 685.316 1215.58 685.171 1212.32 684.761C1204.74 683.56 1198.35 680.885 1189.33 677.106C1187.18 676.209 1184.89 675.249 1182.4 674.232C1177.88 672.387 1173.18 671.254 1168.35 670.634C1155.48 668.631 1141.61 670.485 1127.68 672.348C1114.22 674.148 1100.69 675.957 1087.92 674.31C1080.87 673.217 1074.07 671.01 1067.65 667.095C1035.96 647.758 1026.47 638.882 1020.65 602.23C1019.04 592.087 1021.5 583.713 1025.8 575.889C1051.06 550.556 1084.87 525.32 1117.38 528.172C1138.23 530.001 1150.9 542.431 1163.61 554.912C1176.12 567.193 1188.68 579.523 1209.14 581.853C1225.47 583.713 1238.98 575.582 1251.83 567.847C1267.15 558.62 1281.54 549.957 1298.67 559.486C1306.78 564.002 1310.23 571.285 1313.62 578.448C1317.25 586.127 1320.81 593.667 1330 597.51C1344.8 603.705 1355.18 592.608 1365.93 581.11C1376.12 570.208 1386.65 558.946 1401.62 561.723C1401.8 561.757 1402.77 561.993 1403.58 562.191C1403.81 562.247 1404.03 562.299 1404.21 562.343C1392.67 602.556 1364.72 627.756 1318.31 633.554Z" fill="#019F85"/>
<path d="M1210.81 480.374C1212.38 480.33 1213.69 481.568 1213.73 483.138L1215.77 556.641L1260.26 508.136C1261.33 506.978 1263.13 506.9 1264.28 507.961C1265.44 509.022 1265.52 510.821 1264.46 511.979L1216.02 564.789L1227.16 809.647C1227.23 811.216 1226.01 812.546 1224.44 812.618C1222.87 812.689 1221.54 811.475 1221.47 809.906L1210.28 563.842L1208.04 483.296C1208 481.726 1209.24 480.418 1210.81 480.374Z" fill="#C98D76"/>
<path d="M1292.59 545.474C1294.03 546.1 1294.69 547.776 1294.07 549.216L1271.91 600.146L1267.45 812.074C1267.41 813.644 1266.11 814.89 1264.54 814.857C1262.97 814.824 1261.72 813.524 1261.76 811.954L1266.23 599.496V554.792C1266.23 553.221 1267.5 551.948 1269.08 551.948C1270.65 551.948 1271.92 553.221 1271.92 554.792V585.853L1288.85 546.948C1289.47 545.508 1291.15 544.848 1292.59 545.474Z" fill="#C98D76"/>
<path d="M1314.25 551.978C1315.81 552.206 1316.88 553.651 1316.65 555.205L1305.46 631.253L1280.85 812.396C1280.64 813.952 1279.2 815.042 1277.65 814.831C1276.09 814.62 1275 813.187 1275.21 811.63L1299.71 631.326L1284.44 600.797C1283.73 599.392 1284.3 597.684 1285.71 596.982C1287.11 596.279 1288.82 596.849 1289.53 598.254L1301.15 621.483L1311.02 554.377C1311.25 552.823 1312.7 551.749 1314.25 551.978Z" fill="#C98D76"/>
<path d="M1254.01 577.277C1254.08 575.708 1252.86 574.383 1251.29 574.317C1249.72 574.252 1248.39 575.471 1248.33 577.04L1246.67 616.903L1233.69 582.856C1233.13 581.389 1231.48 580.652 1230.02 581.211C1228.55 581.77 1227.81 583.413 1228.37 584.881L1246.07 631.311L1239.38 809.67C1239.32 811.239 1240.54 812.56 1242.11 812.618C1243.68 812.677 1245 811.453 1245.06 809.883L1251.78 630.958L1251.78 630.946L1254.01 577.277Z" fill="#C98D76"/>
<path d="M1173.45 489.927C1173.45 488.357 1172.17 487.083 1170.6 487.083C1169.03 487.083 1167.76 488.357 1167.76 489.927V542.508L1155.12 521.987C1154.3 520.65 1152.54 520.233 1151.21 521.056C1149.87 521.879 1149.45 523.631 1150.27 524.968L1167.93 553.638C1170.1 563.461 1171.74 572.187 1172.83 578.485C1173.39 581.683 1173.81 584.254 1174.09 586.022C1174.22 586.907 1174.33 587.59 1174.4 588.051C1174.43 588.282 1174.46 588.456 1174.47 588.573L1174.49 588.704L1174.49 588.708L1175.55 597.817C1176.22 603.644 1177.18 611.979 1178.34 622.008C1180.64 642.068 1183.72 668.907 1186.8 696.025C1189.88 723.144 1192.95 750.539 1195.26 771.711C1196.41 782.298 1197.37 791.324 1198.05 797.979C1198.73 804.745 1199.09 808.843 1199.09 809.777C1199.09 811.348 1200.36 812.621 1201.93 812.621C1203.51 812.621 1204.78 811.348 1204.78 809.777C1204.78 808.474 1204.37 803.975 1203.71 797.408C1203.03 790.73 1202.07 781.687 1200.92 771.095C1198.61 749.91 1195.53 722.505 1192.45 695.384C1189.38 668.262 1186.3 641.42 1183.99 621.359C1182.84 611.328 1181.87 602.992 1181.2 597.164L1180.23 588.788L1197.82 549.237C1198.46 547.802 1197.81 546.121 1196.38 545.483C1194.94 544.845 1193.26 545.491 1192.62 546.927L1178.6 578.446C1178.55 578.141 1178.5 577.829 1178.44 577.511C1177.33 571.112 1175.66 562.237 1173.45 552.243V489.927Z" fill="#C98D76"/>
<path d="M1145.59 540.791C1147.15 540.577 1148.59 541.664 1148.8 543.22L1157.73 607.882L1157.85 608.306C1157.96 608.712 1158.14 609.312 1158.36 610.088C1158.8 611.641 1159.44 613.896 1160.22 616.713C1161.8 622.346 1163.97 630.226 1166.34 639.213C1171.1 657.17 1176.72 679.617 1180.11 697.409C1184.26 719.139 1187.63 747.198 1189.95 769.771C1191.12 781.069 1192.03 791.013 1192.64 798.134C1192.95 801.695 1193.18 804.55 1193.34 806.516C1193.42 807.499 1193.48 808.26 1193.52 808.775L1193.58 809.56C1193.58 809.56 1193.58 809.563 1190.74 809.777C1187.91 809.991 1187.91 809.991 1187.91 809.99L1187.85 809.216C1187.81 808.706 1187.75 807.95 1187.67 806.972C1187.51 805.016 1187.28 802.172 1186.97 798.624C1186.36 791.527 1185.45 781.614 1184.29 770.354C1181.97 747.811 1178.62 719.953 1174.52 698.474C1171.16 680.889 1165.59 658.601 1160.84 640.668C1158.47 631.711 1156.31 623.857 1154.74 618.242C1153.96 615.435 1153.32 613.189 1152.88 611.644C1152.66 610.872 1152.49 610.276 1152.38 609.873L1152.3 609.608L1123.39 560.712C1122.59 559.36 1123.04 557.616 1124.39 556.817C1125.75 556.018 1127.49 556.466 1128.29 557.819L1150.18 594.843L1143.16 543.997C1142.95 542.441 1144.04 541.006 1145.59 540.791Z" fill="#C98D76"/>
<path d="M1190.74 809.777L1193.58 809.563C1193.7 811.129 1192.53 812.495 1190.96 812.613C1189.39 812.731 1188.03 811.557 1187.91 809.99L1190.74 809.777Z" fill="#C98D76"/>
<path d="M1125.27 583.94C1126.47 583.627 1127.69 584.343 1128.01 585.538L1128.05 585.711L1128.18 586.216C1128.3 586.66 1128.47 587.317 1128.68 588.168C1129.12 589.872 1129.75 592.355 1130.53 595.48C1132.08 601.728 1134.23 610.542 1136.59 620.804C1141.32 641.318 1146.93 667.664 1150.43 690.895L1168.34 809.441C1168.52 810.662 1167.68 811.802 1166.46 811.986C1165.24 812.171 1164.1 811.33 1163.91 810.109L1146.01 691.563C1143.91 677.667 1141.05 662.627 1138.08 648.388C1137.94 648.301 1137.81 648.197 1137.69 648.076L1113.07 623.473C1112.19 622.599 1112.19 621.183 1113.07 620.309C1113.94 619.436 1115.36 619.436 1116.23 620.309L1136.39 640.456C1134.98 633.912 1133.57 627.628 1132.23 621.808C1129.87 611.575 1127.73 602.788 1126.18 596.559C1125.41 593.445 1124.78 590.971 1124.35 589.276C1124.13 588.428 1123.96 587.776 1123.85 587.336L1123.72 586.837L1123.68 586.669C1123.36 585.474 1124.08 584.252 1125.27 583.94Z" fill="#C98D76"/>
<path d="M1469.07 787.844C1469.07 855.486 1406.14 849.337 1344.82 849.337C1283.49 849.337 1247 816.277 1247 771.702C1247 727.127 1287.02 681 1348.34 681C1409.66 681 1458.5 724.045 1469.07 787.844Z" fill="#D9E6F5"/>
<path d="M1393.2 689.342C1415.17 709.677 1444.01 742.993 1431.18 768.627C1423.94 783.085 1409.46 787.251 1394.5 791.555C1381.12 795.405 1367.35 799.366 1358.04 810.904C1349.75 821.164 1345.31 835.177 1343.08 849.328C1282.8 848.709 1247 815.854 1247 771.702C1247 727.127 1287.02 681 1348.34 681C1364.29 681 1379.39 683.911 1393.2 689.342Z" fill="#F0F5FB"/>
<path d="M1296.54 813.816C1296.54 847.404 1264.99 852.226 1220.79 852.226C1176.6 852.226 1121.56 852.226 1136.5 813.816C1149.31 787.142 1172.33 753 1216.52 753C1260.72 753 1296.54 780.228 1296.54 813.816Z" fill="#F0F5FB"/>
<path fill-rule="evenodd" clip-rule="evenodd" d="M1187.59 758.578C1193.84 766.842 1198.57 775.901 1199.45 785.008C1200.12 791.909 1197.12 797.822 1194.27 803.421C1190.68 810.492 1187.34 817.062 1191.98 824.485C1195.84 830.644 1201.37 830.382 1207.23 830.105C1212.54 829.853 1218.11 829.59 1222.92 834.088C1224.73 835.78 1226.03 837.712 1227.33 839.631C1228.82 841.844 1230.29 844.039 1232.53 845.824C1243.2 854.36 1268.15 838.798 1281.61 822.351C1287.33 815.359 1290.72 805.235 1292.72 795.193C1295.2 801.062 1296.54 807.32 1296.54 813.816C1296.54 847.404 1264.98 852.226 1220.79 852.226C1176.59 852.226 1121.56 852.226 1136.5 813.816C1146.15 793.704 1161.62 769.345 1187.59 758.578Z" fill="#D9E6F5"/>
<path d="M1455.11 827.159C1447.13 829.528 1434.78 834.6 1439.37 841.55C1442.78 846.719 1448.83 844.078 1455.02 844.11C1463.52 844.153 1472.58 847.195 1476.3 839.553C1477.66 836.768 1478.1 834.78 1477.58 831.725C1476.1 822.895 1463.7 824.613 1455.11 827.159Z" fill="#F0F5FB"/>
<path d="M1477.11 830.06C1475.89 830.828 1474.69 831.55 1474.27 833.129C1473.63 835.56 1474.36 837.779 1472.75 839.085C1471.02 840.489 1468.19 840.287 1465.7 839.967C1464.18 839.77 1462.04 838.295 1459.53 838.204C1457.44 838.128 1455.55 838.61 1454.24 839.085C1452.34 839.781 1449.42 841.392 1447.2 840.848C1445.43 840.416 1444.55 839.085 1443.68 836.769C1442.66 835.796 1441.67 834.86 1440.34 834.502C1438.33 836.564 1437.61 838.946 1439.37 841.604C1441.88 845.411 1445.83 844.98 1450.2 844.502C1451.77 844.331 1453.39 844.154 1455.02 844.163C1456.92 844.173 1458.85 844.332 1460.74 844.489C1467.31 845.033 1473.42 845.538 1476.3 839.606C1477.66 836.821 1478.1 834.833 1477.58 831.779C1477.48 831.154 1477.32 830.582 1477.11 830.06Z" fill="#D9E6F5"/>
<ellipse cx="1426.93" cy="849.662" rx="5.2874" ry="4.40616" fill="#D9E6F5"/>
<path d="M1418.13 786.038C1416.46 784.66 1409.63 802.388 1408.95 813.765C1408.18 826.694 1416.28 844.316 1417.3 844.744C1417.36 844.772 1417.44 844.771 1417.51 844.742C1417.51 844.742 1417.52 844.743 1417.52 844.743C1420.76 845.051 1431.26 828.016 1435.08 818.054C1438.07 810.26 1440.5 799.701 1439.27 799.63C1437.97 799.554 1431.14 810.095 1427.35 817.509C1425.54 821.044 1423.56 825.556 1421.84 829.885C1422.88 823.267 1423.46 815.5 1422.75 808.916C1421.8 800.165 1420.35 787.877 1418.13 786.038Z" fill="#40CDB8"/>
<path d="M1390.9 817.02C1387.81 809.266 1385.24 798.739 1386.46 798.652C1387.76 798.56 1394.74 809.009 1398.63 816.373C1403.76 826.102 1407.24 842.665 1405.72 842.83C1402.49 843.18 1394.85 826.93 1390.9 817.02Z" fill="#40CDB8"/>
<path d="M1397.26 808.906C1397.76 798.617 1402.83 783.052 1403.6 783.291C1405.9 784.003 1411.18 798.254 1412.23 808.657C1413.65 822.596 1407.9 843.264 1404.95 843.796C1402.77 844.188 1396.59 822.837 1397.26 808.906Z" fill="#B3EBE3"/>
<path d="M1427.5 785.112C1425.77 784.68 1421.1 798.19 1419.98 806.914C1419.41 811.359 1419.74 819.61 1419.74 819.61C1419.74 819.61 1418.96 816.026 1417.71 814.103C1417.48 813.749 1417.29 813.374 1417.11 813.012C1416.61 812.003 1416.15 811.097 1414.97 811.056C1414.39 811.035 1414.07 812.812 1413.74 814.656C1413.63 815.243 1413.53 815.837 1413.41 816.382C1412.04 822.769 1412.3 836.821 1417.06 844.567C1418.64 847.125 1430.75 827.338 1431.82 804.878C1432.19 796.989 1429.17 785.524 1427.5 785.112Z" fill="#00BDA1"/>
<path d="M1381.61 824.618C1382.63 823.651 1392.15 826.473 1397.06 830.682C1401.62 834.594 1405.09 843.767 1405.09 843.767C1405.09 843.767 1396.29 844.233 1391.65 841.656C1384.88 837.889 1380.54 825.639 1381.61 824.618Z" fill="#00BDA1"/>
<path d="M963.243 417.542C951.052 429.012 909.06 454.137 905.809 453.318C902.558 452.498 857.856 393.782 851.354 348.994C846.477 314.31 870.86 261.602 874.924 236.203C866.254 235.657 861.649 231.834 864.629 229.922C879.8 220.09 885.219 185.134 905.809 189.503C917.458 179.125 942.383 193.327 951.865 212.17C954.303 215.721 957.283 222.002 961.618 232.926C975.164 267.883 978.144 277.168 996.837 290.004C996.837 290.004 989.793 288.092 981.666 283.45C1020.68 344.078 988.168 394.328 963.243 417.542Z" fill="#071D30"/>
<path d="M886.302 233.472C886.302 233.472 894.429 267.063 881.425 280.718C868.421 294.373 869.234 322.229 869.234 322.229H969.745C969.745 322.229 962.701 290.276 958.095 277.441C953.76 264.605 956.47 310.759 951.864 293.554C947.258 276.348 940.215 239.753 940.215 239.753L886.302 233.472Z" fill="#071219"/>
<path d="M936.422 357.459C893.075 368.383 865.441 315.128 865.441 315.128C865.441 315.128 867.066 314.582 870.047 314.036H870.317H870.588C870.859 314.036 871.13 314.036 871.401 313.763C871.943 313.763 872.214 313.49 872.756 313.49H873.027C875.194 312.944 878.716 311.851 882.238 310.759C889.282 308.574 897.409 305.297 901.202 301.746C903.369 299.562 905.266 297.104 905.808 294.919C906.079 293.827 905.808 290.549 905.808 290.549V288.638V285.907C902.828 284.268 900.389 282.083 897.951 279.352C889.553 269.521 884.676 253.954 883.051 241.391C883.051 240.572 882.78 239.48 882.78 238.66C882.78 238.114 882.509 237.295 882.509 236.476C882.509 236.476 882.509 236.476 882.78 236.476C885.76 235.929 889.282 234.837 893.075 233.198C902.015 229.375 904.724 222.821 910.684 216.539C912.31 214.628 914.477 213.262 916.374 212.443C923.688 208.892 931.274 209.985 931.816 209.985C937.505 216.812 941.569 225.005 942.382 232.379C944.007 232.925 945.904 234.291 945.633 236.202C945.362 239.207 948.071 252.042 943.194 251.496C942.653 251.496 942.382 251.223 941.84 250.677C940.485 260.781 937.505 270.067 933.441 276.894C933.441 278.533 933.712 280.172 933.712 281.81L933.983 283.722C933.983 284.268 933.983 284.814 934.254 285.36C934.525 286.726 934.796 288.091 935.067 289.457C936.422 295.192 938.318 300.927 940.485 302.293C943.736 304.477 951.051 306.116 958.366 308.574L961.346 310.213C966.223 311.851 969.744 312.944 969.744 312.944C969.744 312.944 979.768 346.535 936.422 357.459Z" fill="#D8B096"/>
<path d="M906.797 223.95C910.636 218.461 915.585 213.654 917.907 211.314C916.011 212.406 912.31 214.082 910.414 215.993C908.67 217.831 907.205 219.692 905.78 221.501C902.335 225.876 899.129 229.947 892.804 232.652C889.011 234.291 885.489 235.383 882.509 235.93H882.238C882.509 236.749 882.509 237.568 882.509 238.114C882.509 238.524 882.577 238.319 882.645 238.114C882.712 237.909 882.78 237.705 882.78 238.114C887.386 237.841 898.222 236.203 903.37 228.829C904.566 227.141 905.71 225.505 906.797 223.95Z" fill="#BA9680"/>
<path d="M918.27 294.646C922.063 294.646 933.984 282.903 933.984 282.903V280.718L933.442 276.075C929.107 283.176 920.709 289.457 918.27 289.457C915.29 289.457 908.788 286.726 905.808 285.088L906.079 288.092H905.808V294.373C904.724 296.831 903.37 299.016 901.203 301.2C897.41 304.751 889.282 308.028 882.238 310.213C882.238 310.213 903.099 307.209 906.35 300.927C906.892 299.835 911.497 294.646 918.27 294.646Z" fill="#BA9680"/>
<path d="M915.832 208.893C915.832 208.893 937.777 247.127 956.47 240.572L944.279 215.174C944.008 215.174 932.9 194.145 915.832 208.893Z" fill="#071D30"/>
<path d="M1018.78 848.493L1020.41 828.283C1020.41 828.283 1020.68 828.283 1021.49 828.556C1022.03 828.83 1022.57 828.83 1023.66 829.103C1025.55 829.649 1028.53 830.741 1032.06 831.834C1035.58 832.926 1036.12 829.376 1036.12 826.918C1036.12 826.099 1036.12 825.279 1036.12 825.279C1036.12 825.279 1058.88 839.207 1067.55 847.947C1073.51 854.774 1018.78 848.493 1018.78 848.493Z" fill="#0031AA"/>
<path d="M933.713 851.224C933.713 851.224 912.31 852.544 895.242 851.224C878.175 849.904 907.434 832.926 907.434 832.926V832.653C907.434 832.653 909.059 834.019 912.31 834.292C914.749 834.565 917.729 834.019 922.063 832.107L933.713 851.224Z" fill="#0031AA"/>
<path d="M1043.43 647.491C1043.43 647.491 1029.89 651.588 1009.03 655.684C1008.76 655.684 1008.49 655.684 1008.21 655.957C996.836 658.142 983.561 660.327 968.932 661.419C954.031 662.785 938.318 663.331 922.063 662.239C907.162 661.419 892.262 659.235 878.174 655.138C877.903 655.138 877.632 654.865 877.361 654.865C870.047 652.68 863.003 649.949 855.959 646.945C855.688 646.945 855.417 646.672 855.146 646.672C854.875 646.672 854.604 646.399 854.333 646.126C854.062 645.853 853.791 645.853 853.521 645.58C849.999 642.029 847.56 633.563 847.56 630.286C847.56 628.92 847.56 627.555 847.56 625.916C849.186 599.153 862.461 540.436 873.839 502.202C874.381 500.017 874.923 497.832 874.923 495.921C876.278 495.921 878.445 495.921 881.425 496.194C881.696 496.194 882.238 496.194 882.509 496.194C882.78 496.194 883.051 496.194 883.322 496.194C883.592 496.194 883.863 496.194 884.134 496.194C884.676 496.194 884.947 496.194 885.489 496.467C888.469 496.74 891.991 497.013 896.326 497.559C896.597 497.559 897.138 497.559 897.409 497.832C899.577 498.106 901.744 498.379 904.182 498.652C908.788 499.198 914.206 500.017 920.166 501.11C931.545 503.021 953.76 497.832 970.286 494.009C973.808 493.19 976.788 492.37 979.768 491.824C985.458 490.732 989.522 489.913 990.605 490.459L991.418 491.551C1022.84 610.623 1043.43 647.491 1043.43 647.491Z" fill="#2957C8"/>
<path d="M917.728 521.046C909.871 522.958 895.242 520.5 885.218 518.315C887.656 513.399 893.887 510.941 904.453 507.937C910.492 506 915.356 506.088 921.071 506.191C932.278 506.394 946.755 506.655 979.768 491.824L978.693 492.073C961.913 495.957 931.573 502.981 920.437 501.11C914.477 500.017 909.059 499.198 904.453 498.652C902.017 498.379 899.851 498.106 897.685 497.833L897.68 497.832H896.596C893.097 497.391 890.127 497.128 887.544 496.9C886.928 496.845 886.334 496.793 885.76 496.74C885.218 496.467 884.947 496.467 884.405 496.467H881.696C878.716 496.194 876.548 496.194 875.194 496.194C875.194 498.106 874.652 500.29 874.11 502.475C862.732 540.709 849.186 599.426 847.831 626.189V630.559C847.831 633.836 850.269 642.302 853.791 645.853C853.791 646.021 853.895 646.086 854.038 646.175C854.126 646.23 854.23 646.295 854.333 646.399C854.604 646.672 854.875 646.945 855.146 646.945C855.417 647.218 855.688 647.491 855.959 647.491C863.002 650.495 870.046 653.226 877.361 655.411C870.046 633.017 868.421 579.216 877.09 542.075C898.222 539.07 899.576 534.974 897.409 535.52C889.562 537.63 881.968 538.721 878.04 539.285L877.632 539.344C878.174 536.613 878.987 533.882 879.799 531.424C891.72 529.512 911.226 523.231 917.728 521.046Z" fill="#0736A8"/>
<path d="M978.143 527.054C984.645 525.688 996.565 514.218 996.565 514.218C996.565 514.218 990.063 530.058 980.039 533.062C970.286 536.066 965.41 522.684 965.41 522.684C965.41 522.684 971.641 528.146 978.143 527.054Z" fill="#0736A8"/>
<path d="M993.856 495.648L991.147 491.551L990.335 490.459C989.251 489.912 985.187 490.459 979.498 491.824C976.789 492.37 973.538 493.19 970.016 494.009C953.49 497.832 931.274 503.021 920.167 501.11C891.991 496.467 879.8 495.921 874.923 495.921C874.111 495.921 873.298 495.921 873.027 495.921C872.756 495.921 872.485 495.921 872.485 495.921C872.485 495.921 872.756 492.097 873.298 486.908V486.635C873.298 485.816 873.569 484.724 873.569 483.631C874.381 473.253 875.736 456.594 877.091 438.023C877.903 426.553 878.174 414.264 877.903 402.52C877.632 400.336 876.278 395.966 874.652 391.05C874.111 388.865 873.298 386.954 872.485 384.496C871.672 381.765 870.86 374.937 870.318 372.206C870.318 371.933 870.318 371.933 870.318 371.66C870.318 371.66 870.318 371.387 870.318 371.114C861.377 368.929 845.393 359.917 841.059 352.27C839.975 350.358 839.704 348.72 840.246 347.081C840.517 346.262 841.329 344.896 842.413 342.985C847.29 334.245 859.21 316.494 859.21 316.494C859.752 316.494 869.776 313.49 876.549 311.851C879.8 311.032 882.509 310.486 882.509 310.486C885.218 318.679 891.991 330.695 915.29 332.061C916.645 332.061 917.728 332.061 919.083 332.061C948.071 332.061 958.095 306.935 958.095 306.935C958.095 306.935 959.992 307.755 962.43 308.574C969.203 311.032 980.852 315.675 981.123 316.221C982.207 318.952 997.107 342.712 997.107 342.712C997.378 344.35 997.107 346.535 996.566 348.993C996.566 348.993 996.566 348.993 996.566 349.266C996.024 351.451 994.669 353.362 993.315 355.001C991.689 356.913 989.251 358.278 987.083 359.644C980.852 362.921 974.079 363.74 974.079 363.74L974.35 368.383V370.295L974.621 377.122C974.621 377.122 974.621 386.681 974.621 392.962C974.621 394.601 974.621 395.966 974.621 396.785C974.35 441.028 996.837 486.362 996.837 486.362L998.733 494.009C998.191 494.282 998.733 497.832 993.856 495.648Z" fill="#FBFCFE"/>
<path d="M973.808 363.74C973.808 363.74 974.35 389.958 974.079 389.958C972.182 390.777 968.931 360.463 970.015 353.362C971.099 346.535 974.079 346.262 974.079 346.262L973.808 361.009L973.905 360.466C974.445 357.449 975.225 353.089 976.246 353.089C977.343 353.089 975.597 357.926 974.462 361.07C974.195 361.808 973.962 362.454 973.808 362.921V363.74Z" fill="#D7E6F5"/>
<path d="M964.055 377.395C963.964 377.456 963.733 377.635 963.384 377.905C960.6 380.061 950.327 388.016 944.549 387.773C937.776 387.5 933.17 386.954 929.648 386.135C939.13 385.588 951.863 383.677 964.055 377.395Z" fill="#D7E6F5"/>
<path d="M913.664 385.315C916.373 385.861 922.062 386.408 929.377 386.135C928.659 386.019 927.98 385.906 927.332 385.798C921.866 384.89 918.549 384.339 911.767 385.315C907.433 385.588 899.847 386.408 893.345 388.319C884.676 390.777 872.755 375.211 870.317 371.66C870.859 369.475 872.755 360.463 872.213 358.005C871.671 355.001 865.169 350.358 865.169 350.358L869.775 371.114V371.66C870.036 373.238 870.269 374.759 870.492 376.215C870.963 379.296 871.39 382.085 871.942 384.496V384.769C872.755 386.681 873.568 388.865 874.11 391.05C874.494 392.405 874.878 393.691 875.237 394.896C875.893 397.093 876.469 399.022 876.819 400.609C876.892 400.828 876.964 401.028 877.031 401.214C877.216 401.721 877.361 402.121 877.361 402.521C877.632 414.264 877.361 426.553 876.548 438.023C875.768 451.396 874.706 463.777 873.87 473.535C873.545 477.329 873.254 480.726 873.026 483.631C877.632 469.157 885.217 422.73 885.759 413.444C886.572 404.978 884.676 397.332 883.321 392.689C887.114 393.235 891.99 393.508 893.887 391.87C896.596 389.412 908.787 386.408 913.664 385.315Z" fill="#D7E6F5"/>
<path d="M922.064 663.058V832.107C918 834.018 914.749 834.564 912.311 834.291L896.056 683.54C909.872 675.62 920.167 665.242 922.064 663.058Z" fill="#D8B096"/>
<path d="M1035.85 827.464C1035.85 829.649 1035.58 833.472 1031.79 832.38C1027.99 831.014 1025.28 830.195 1023.39 829.649L983.02 681.902C992.502 674.801 1003.34 664.423 1008.22 657.05L1035.85 827.464Z" fill="#D8B096"/>
<path d="M922.064 663.058V662.239C907.163 661.419 892.263 659.235 878.446 654.865L878.988 658.688L882.239 679.171L883.052 683.54L883.323 684.36L884.135 689.549L907.705 832.926V832.653C907.705 832.653 909.331 834.019 912.582 834.292L896.327 683.54C909.873 675.621 920.167 665.243 922.064 663.058Z" fill="#BA9680"/>
<path d="M1023.39 829.376L983.02 681.629C992.774 674.528 1003.34 664.15 1008.22 656.776L1007.94 655.684C1006.86 655.684 1005.51 655.957 1004.42 656.23C1003.07 656.503 1001.44 656.776 999.817 657.05L990.064 658.688C988.181 658.916 986.277 659.165 984.345 659.417C979.332 660.073 974.138 660.752 968.662 661.146V663.331C968.933 664.15 969.204 665.243 969.475 666.335C970.287 670.158 971.371 674.255 972.455 678.078C972.726 678.351 972.726 678.624 972.726 678.898C972.861 679.171 972.929 679.444 972.997 679.717C973.064 679.99 973.132 680.263 973.267 680.536C973.267 681.629 973.538 682.448 973.809 683.267C974.263 684.182 974.527 685.289 974.76 686.266C974.805 686.456 974.849 686.64 974.893 686.817C975.028 687.364 975.164 687.842 975.299 688.32C975.435 688.797 975.57 689.275 975.706 689.822C976.022 691.256 976.431 692.691 976.824 694.072C977.104 695.056 977.377 696.013 977.602 696.922C978.837 701.544 980.186 706.05 981.5 710.441C982.205 712.795 982.9 715.117 983.562 717.405C1000.09 773.39 1017.16 818.179 1021.22 828.829C1021.76 828.829 1022.57 829.103 1023.39 829.376Z" fill="#BA9680"/>
<path d="M1011.74 489.093C1011.47 490.186 1010.92 491.005 1010.65 492.097C1006.86 501.656 1002.53 509.576 997.108 514.492L987.625 494.282C987.625 494.282 976.518 508.21 971.37 506.845C969.745 506.299 970.287 503.568 973.267 499.744C975.163 497.559 977.33 494.282 979.498 491.551C981.665 488.82 983.833 486.362 985.729 485.27C988.167 483.904 993.856 486.089 993.856 486.089C994.94 486.635 995.753 486.635 996.566 486.635C997.92 486.362 997.92 484.997 997.92 483.904V483.631C997.92 483.085 997.92 482.812 997.649 482.812V481.993C997.649 474.892 996.837 424.095 995.482 418.633L974.079 377.395L973.809 370.568V368.656L973.538 364.013C973.538 364.013 992.502 361.282 996.024 349.539C1006.59 372.753 1020.95 403.886 1022.3 418.907C1023.39 434.2 1020.14 465.334 1011.74 489.093Z" fill="#D8B096"/>
<path d="M997.649 483.904C997.649 483.904 1008.76 485.815 1010.65 492.097L1011.74 489.093C1011.74 489.093 1010.38 483.904 997.649 481.719C997.378 481.719 996.566 482.811 997.649 483.904Z" fill="#FF5A5F"/>
<path d="M1010.91 488.095C1011.46 486.53 1010.76 484.855 1009.35 484.353C1007.94 483.851 1006.35 484.712 1005.8 486.277C1005.25 487.841 1005.95 489.517 1007.36 490.019C1008.77 490.521 1010.36 489.659 1010.91 488.095Z" fill="#66758D"/>
<path d="M1010.4 487.913C1010.85 486.632 1010.3 485.269 1009.17 484.868C1008.04 484.466 1006.76 485.178 1006.31 486.458C1005.86 487.738 1006.42 489.102 1007.54 489.503C1008.67 489.905 1009.95 489.193 1010.4 487.913Z" fill="white"/>
<path d="M883.593 511.761C882.509 511.761 879.8 509.303 877.091 506.845C871.402 501.929 878.987 510.395 879.8 514.218C880.071 515.311 879.258 518.042 877.633 516.949C875.736 515.857 872.485 515.038 872.485 515.038C872.485 515.038 877.362 520.5 874.382 522.138C873.569 522.411 868.151 520.773 868.151 520.773C868.151 520.773 869.505 527.327 867.067 527.6C865.712 527.6 862.461 522.138 861.919 519.68C861.648 518.042 861.378 515.311 861.378 512.034C851.895 491.824 826.429 438.024 825.075 429.557C824.533 426.826 826.971 407.983 831.577 386.681C833.744 376.576 836.453 366.198 839.433 356.367C839.975 355.001 840.246 353.636 840.788 351.997C845.122 359.644 861.107 368.656 870.047 370.841C870.047 370.841 870.047 371.114 870.047 371.387C870.047 371.66 870.047 371.66 870.047 371.933C867.067 382.311 860.836 402.794 853.25 424.915L865.441 478.169C865.441 478.169 866.796 488.82 868.963 492.097C871.131 493.736 871.943 484.997 873.027 486.089C873.027 486.089 873.027 486.089 873.027 486.362V486.635C872.485 491.824 872.214 495.648 872.214 495.648C872.214 495.648 872.485 495.648 872.756 495.648C873.298 500.017 881.696 504.387 884.135 507.664C884.677 508.483 884.947 511.761 883.593 511.761Z" fill="#D8B096"/>
<path d="M997.598 483.348C997.65 483.456 997.65 483.59 997.65 483.904C1001.98 469.43 1000.09 418.907 999.817 418.907L975.434 368.11C980.311 366.471 993.857 361.282 997.108 351.997L996.024 349.539C995.482 351.724 994.399 353.636 992.773 355.274C991.148 357.186 988.709 358.825 986.542 359.917C980.311 362.921 973.538 364.013 973.538 364.013L973.809 368.656V370.568L974.08 377.395L995.211 418.907C996.566 424.915 997.379 480.627 997.379 483.085C997.494 483.201 997.56 483.268 997.598 483.348Z" fill="#BA9680"/>
<path d="M870.318 371.114C858.127 371.66 839.433 356.367 839.433 356.367C839.749 355.571 839.973 354.776 840.212 353.926C840.383 353.318 840.562 352.681 840.788 351.997C845.123 359.644 860.836 368.656 870.047 370.841C870.047 370.841 870.047 371.114 870.318 371.114Z" fill="#BA9680"/>
<path d="M866.254 503.295C864.191 504.254 864.731 506.433 865.151 508.127C865.448 509.326 865.685 510.282 864.9 510.395C864.358 510.668 863.816 510.941 863.545 511.488L865.171 519.681C864.9 519.407 863.816 517.223 862.191 513.672C861.649 515.584 861.378 517.223 861.378 517.223C861.378 517.223 855.418 503.022 854.876 498.106C843.497 474.073 826.158 436.658 825.075 429.558C824.533 426.827 826.971 407.983 831.577 386.681L828.868 429.285L859.752 495.102C860.535 494.313 861.176 493.488 861.625 492.911C862.42 491.89 862.612 491.642 861.92 493.736C861.514 495.509 863.269 497.554 864.792 499.327C866.319 501.106 867.611 502.611 866.254 503.295Z" fill="#BA9680"/>
</g>
<defs>
<clipPath id="clip0">
<rect width="1595" height="854" fill="white"/>
</clipPath>
</defs>
</svg>
