<svg enable-background="new 0 0 460.1 460.1" viewBox="0 0 460.1 460.1" xmlns="http://www.w3.org/2000/svg"><path d="m405.4 354c-86.9 89.3-229.8 91.2-319 4.3s-117.7-197-30.7-286.3 145.2 1.7 296.3 13.4c124.3 9.6 140.3 179.4 53.4 268.6z" fill="#f0f5fb"/><g fill="#a2bbee" opacity=".2"><circle cx="144.7" cy="260.8" r="127"/><circle cx="144.7" cy="260.8" r="77.6"/></g><circle cx="144.1" cy="257.9" fill="#fff" r="127"/><circle cx="142.8" cy="257.9" fill="#f0f5fb" r="77.6"/><g fill="#a2bbee" opacity=".2"><circle cx="304.9" cy="110.5" r="68"/><circle cx="304.9" cy="110.5" r="41.5"/></g><circle cx="308" cy="106.4" fill="#fff" r="68"/><circle cx="308" cy="106.4" fill="#f0f5fb" r="41.5"/><g fill="#a2bbee" opacity=".2"><circle cx="374.4" cy="254.2" r="68"/><circle cx="374.4" cy="254.2" r="41.5"/></g><circle cx="377.5" cy="250.1" fill="#fff" r="68"/><circle cx="377.5" cy="250.1" fill="#f0f5fb" r="41.5"/><g fill="#a2bbee" opacity=".2"><circle cx="377.1" cy="244.5" r="68"/><circle cx="377.1" cy="244.5" r="41.5"/></g><circle cx="380.2" cy="240.4" fill="#fff" r="68"/><circle cx="380.2" cy="240.4" fill="#f0f5fb" r="41.5"/><path d="m-38.5 341.9c-.5 1.6-1.8 2.9-3.5 3.5 1.7-.6 2.9-1.9 3.5-3.5z" fill="#002cb1"/><path d="m315 126.5c-.5 1.1-1 2.2-1.6 3.2-.1.1-.1.2-.2.3-6.6 10.8-20.2 15.4-32.1 10.4-1.8-.8-3.5-1.7-5-2.8-4.3-3.1-7.5-7.3-9.3-12.1-2.2-5.9-2.2-12.7.4-19 5.5-13.2 20.7-19.4 33.9-13.9 2.2.9 4.3 2.2 6.1 3.6 4.2 3.3 7.2 7.8 8.7 12.7s1.6 10.2-.1 15.4c0 .1 0 .2-.1.2-.2.7-.5 1.3-.7 2z" fill="#94bfe1"/><path d="m315.8 108.9-39.8 28.7c-4.3-3.1-7.5-7.3-9.3-12.1l40.4-29.3c4.2 3.2 7.2 7.7 8.7 12.7z" fill="#a2bbee"/><g fill="#a2bbee" opacity=".2"><path d="m314.2 104.7c.6 1 1.2 2.1 1.6 3.2 0 .1.1.2.1.4 4.8 11.7.5 25.4-10.6 32.1-1.7 1-3.4 1.8-5.2 2.4-5 1.7-10.4 1.7-15.3.3-6.1-1.7-11.6-5.7-15.1-11.6-7.4-12.3-3.4-28.2 8.9-35.6 2.1-1.2 4.3-2.2 6.5-2.8 5.1-1.4 10.5-1.2 15.4.5 4.8 1.7 9.2 4.8 12.4 9.2.1.1.1.1.1.2.5.5.9 1.1 1.2 1.7z"/><path d="m300.5 93.6-.4 49.1c-5 1.7-10.4 1.7-15.3.3l.3-49.9c5.2-1.5 10.6-1.2 15.4.5z"/><path d="m315.9 128.1c-.5 1.1-1 2.2-1.6 3.2-.1.1-.1.2-.2.3l-6.5-2.7-8.8-5.4-7.2-4.4 1.3-3.1 23.8 10c0 .1 0 .2-.1.2-.2.5-.4 1.2-.7 1.9z"/><path d="m325.4 128.1s4.1-11 3.2-17.2l2.1-.3s1.8 5.7 1.2 8.3-2.8 10.7-2.8 10.7z"/><path d="m399.7 161.9-2 4.8c-1.2 2.8-4.4 4-7.2 2.9l-65.8-27.6c-.6-.3-.9-1-.7-1.6l5.3-12.6c.3-.6 1-.9 1.6-.7l65.8 27.6c2.8 1.1 4.1 4.4 3 7.2z"/><path d="m327.6 129-2.4 5.8-17.1-7.2-13.7-8.4-.6-.4-1.7-1 1.3-3.1z"/><path d="m295.3 117.3c-.3.7-.9 1.2-1.5 1.5s-1.4.3-2.1 0c-.6-.2-1-.7-1.3-1.2-.4-.7-.5-1.6-.2-2.5.6-1.4 2.2-2.1 3.6-1.5.8.3 1.4 1 1.6 1.8v.1c.2.6.2 1.2-.1 1.8z"/><path d="m295.6 117.9c-.2.6-.6 1-1.1 1.3l-.7-.4c.7-.3 1.2-.8 1.5-1.5.2-.6.3-1.2.1-1.8 0 0 0 0 0-.1v.1c.4.7.5 1.6.2 2.4z"/><path d="m295.3 117.3c-.6 1.4-2.2 2.1-3.6 1.5-.6-.2-1-.7-1.3-1.2-.2-.6-.1-1.2.1-1.8.6-1.4 2.2-2.1 3.6-1.5.6.2 1 .7 1.3 1.2.2.5.2 1.2-.1 1.8z"/><path d="m291.2 115.9h2.8v.6h-2.8z" transform="matrix(.946 -.3242 .3242 .946 -21.8514 101.1386)"/><path d="m397.7 166.6c-1.2 2.8-4.4 4-7.2 2.9l-65.8-27.6c-.6-.3-.9-1-.7-1.6l1.6-3.9z"/></g><path d="m312.9 102.5c.6 1 1.2 2.1 1.6 3.2 0 .1.1.2.1.4 4.8 11.7.5 25.4-10.6 32.1-1.7 1-3.4 1.8-5.2 2.4-5 1.7-10.4 1.7-15.3.3-6.1-1.7-11.6-5.7-15.1-11.6-7.4-12.3-3.4-28.2 8.9-35.6 2.1-1.2 4.3-2.2 6.5-2.8 5.1-1.4 10.5-1.2 15.4.5 4.8 1.7 9.2 4.8 12.4 9.2.1.1.1.1.1.2.5.5.8 1 1.2 1.7z" fill="#c9dbf0"/><path d="m299.2 91.3-.4 49.1c-5 1.7-10.4 1.7-15.3.3l.3-49.9c5.2-1.4 10.5-1.2 15.4.5z" fill="#dce9f7"/><path d="m314.6 125.8c-.5 1.1-1 2.2-1.6 3.2-.1.1-.1.2-.2.3l-6.5-2.7-8.8-5.4-7.2-4.4 1.3-3.1 23.8 10c0 .1 0 .2-.1.2-.2.6-.4 1.3-.7 1.9z" fill="#94bfe1"/><path d="m324.1 125.8s4.1-11 3.2-17.2l2.1-.3s1.8 5.7 1.2 8.3-2.8 10.7-2.8 10.7z" fill="#c9dbf0"/><path d="m397.9 158-2 4.8c-1.2 2.8-4.4 4-7.2 2.9l-65.8-27.7c-.6-.3-.9-1-.7-1.6l5.3-12.6c.3-.6 1-.9 1.6-.7l65.8 27.6c2.8 1.3 4.1 4.5 3 7.3z" fill="#19375d"/><path d="m326.3 126.8-2.4 5.8-17.1-7.2-13.7-8.4-.6-.4-1.7-1.1 1.3-3.1z" fill="#c9dbf0"/><path d="m294 115c-.3.7-.9 1.2-1.5 1.5s-1.4.3-2.1 0c-.6-.2-1-.7-1.3-1.2-.4-.7-.5-1.6-.2-2.5.6-1.4 2.2-2.1 3.6-1.5.8.3 1.4 1 1.6 1.8v.1c.2.7.1 1.3-.1 1.8z" fill="#c9dbf0"/><path d="m294.3 115.7c-.2.6-.6 1-1.1 1.3l-.7-.4c.7-.3 1.2-.8 1.5-1.5.2-.6.3-1.2.1-1.8 0 0 0 0 0-.1v.1c.4.7.5 1.6.2 2.4z" fill="#94bfe1"/><path d="m294 115c-.6 1.4-2.2 2.1-3.6 1.5-.6-.2-1-.7-1.3-1.2-.2-.6-.1-1.2.1-1.8.6-1.4 2.2-2.1 3.6-1.5.6.2 1 .7 1.3 1.2.2.6.2 1.2-.1 1.8z" fill="#c9dbf0"/><path d="m289.9 113.6h2.8v.6h-2.8z" fill="#94bfe1" transform="matrix(.946 -.3242 .3242 .946 -21.1965 100.5912)"/><path d="m395.9 162.7c-1.2 2.8-4.4 4-7.2 2.9l-65.8-27.6c-.6-.3-.9-1-.7-1.6l1.6-3.9z" fill="#02131a"/><path d="m229.1 329.8-10.3-8.6-2.9-2.4-32.4-27.1-.7-.6-2.3-1.9-.9-.8-7-5.8-.7-.6-20.1-16.8-5.3-4.4-2.5-7-.4-1.3-3.3-9.4-.1-.2-1-2.7-.1-.2-.6-1.6-.3-1-.8-2.2-.2-.5-23-65.6-1-2.7-4.7-13.5-.7-2.1c-37.6 9.8-69 38.1-78.5 76.5-15.6 63.1 21.9 127 85.2 142.7 44.6 11.1 89.7-4.9 117.8-37.5z" fill="#a2bbee" opacity=".2"/><g fill="#a2bbee" opacity=".2"><path d="m224.5 282.9v.4c0 .2-.1.3-.2.4v.1c0 .2-.1.3-.2.4s-.3.2-.4.1c-.1 0-.2 0-.3.1s-.1.2-.2.3v.1c0 .1-.1.1-.1.2 0 .1 0 .2.1.3.2.3.2.6-.1.8h-.1c0 .2-.1.3-.2.5l-.3.3c-.1.1-.3.2-.4.1-.1 0-.3-.1-.4-.2s-.3-.2-.4-.1c-.3.1-.5.2-.8.3h-.1c0 .1-.1.2-.2.2v.1c0 .3-.3.6-.6.6h-.4c-.2 0-.3-.1-.4-.2s-.2-.3-.1-.4c0-.2-.1-.3-.2-.4-.3-.1-.6-.2-.8-.4 0 0-.1-.1-.2-.1s-.2 0-.3.1c-.3.2-.6.2-.8-.1l-.3-.3c-.1-.1-.2-.3-.1-.4 0-.2.1-.3.2-.4 0 0 0 0 .1-.1 0-.1 0-.2.1-.2v-.1c-.1-.3-.2-.6-.3-.9 0-.2-.2-.3-.3-.3-.3 0-.6-.3-.6-.6v-.4c0-.2.1-.3.2-.4h.1v-.1c0-.2.1-.3.2-.4s.3-.2.4-.1c.1 0 .2 0 .3-.1 0-.1.1-.2.1-.3s.1-.2.1-.3c0-.1 0-.2-.1-.3-.2-.3-.2-.6.1-.8h.1c0-.2.1-.3.2-.5l.3-.3c.1-.1.3-.2.4-.1.2 0 .3.1.4.2s.3.2.4.1c.3-.1.6-.2.8-.3h.1c0-.1.1-.2.2-.2 0 0 0 0 0-.1 0-.3.3-.6.6-.6h.4c.2 0 .3.1.4.2s.2.3.1.4c0 .2.1.3.2.4.3.1.5.2.8.4.1.1.3.1.4 0 .3-.2.6-.2.8.1l.3.3c.1.1.2.3.1.4 0 .1-.1.3-.2.4v.1c0 .1 0 .2-.1.2v.1c.1.3.2.5.3.8 0 .2.2.3.3.3.4.1.7.3.6.7z"/><path d="m237.7 284.6c-.2 0-.3-.1-.3-.3-.1-.3-.2-.6-.3-.8-.1-.1 0-.3.1-.4s.1-.1.1-.2.1-.2.1-.2c0-.1 0-.3-.1-.4l-.3-.3c-.2-.3-.6-.3-.8-.1-.1.1-.2.1-.3.1s-.1 0-.2-.1c-.2-.2-.5-.3-.8-.4-.1-.1-.2-.2-.2-.4s0-.3-.1-.4-.2-.2-.4-.2h-.4c-.1 0-.3 0-.4.1s-.1.1-.2.2c0 .1-.1.1-.1.2 0 .2-.1.3-.3.3-.3.1-.6.1-.9.3-.1.1-.3 0-.4-.1s-.3-.2-.4-.2c-.2 0-.3 0-.4.1l-.3.2h-.1c-.3.2-.3.6-.1.8.1.1.1.2.1.3 0 .1 0 .1-.1.2 0 0-.1.1-.1.1-.1.1-.1.2-.1.3-.1.1-.1.3-.2.4s-.2.2-.4.2c-.1 0-.3 0-.4.1 0 0 0 0-.1 0-.1.1-.2.2-.2.4v.4c0 .3.2.6.6.6.2 0 .3.1.3.3.1.3.2.6.3.9v.1c0 .1 0 .2-.1.3 0 0 0 0-.1.1s-.2.3-.2.4 0 .3.1.4l.3.3c.2.3.6.3.8.1.1-.1.2-.1.3-.1 0 0 .1 0 .2.1.2.2.5.3.8.4.1.1.2.2.2.4s0 .3.1.4.2.2.4.2h.4c.3 0 .6-.2.6-.6v-.1c0-.1.1-.2.2-.2h.1c.3-.1.6-.1.8-.3.1-.1.3 0 .4.1s.3.2.4.2.3 0 .4-.1l.3-.3c.1-.1.2-.3.2-.5 0-.1 0-.3-.1-.4s-.1-.2-.1-.3 0-.1.1-.2.1-.2.2-.4c0-.1.1-.1.1-.2 0 0 0 0 0-.1s.1-.1.1-.2.1-.1.1-.1c.1-.1.2-.1.3-.1.2 0 .3 0 .4-.1s.2-.2.2-.4v-.4c.5-.1.3-.3-.1-.4zm-4.2 2.7c-1.2-.1-2.1-1.1-2-2.3 0-.4.2-.8.4-1.1.4-.6 1.2-1 1.9-.9 1.2.1 2.1 1.1 2 2.3 0 .2-.1.4-.1.6-.4.8-1.3 1.4-2.2 1.4z"/><path d="m238 284.1c-.2 0-.3-.1-.3-.3-.1-.3-.1-.6-.3-.8v-.1c0-.1 0-.2.1-.3 0 0 0 0 0-.1.1-.1.2-.3.2-.4 0-.2 0-.3-.1-.4l-.3-.3c-.2-.3-.6-.3-.8-.1-.1.1-.3.1-.4 0-.2-.2-.5-.3-.8-.4-.1-.1-.2-.2-.2-.4s0-.3-.1-.4-.2-.2-.4-.2h-.4c-.3 0-.6.2-.6.6v.1c0 .1-.1.2-.2.2h-.1c-.3.1-.6.2-.8.3-.1.1-.3 0-.4-.1s-.3-.2-.4-.2-.3 0-.4.1l-.3.3c-.1.1-.2.3-.2.5 0 .1.1.3.1.4.1.1.1.2.1.3s0 .1-.1.2-.1.2-.2.3c0 .1-.1.2-.1.3 0 0 0 .1-.1.1 0 0-.1.1-.1.1-.1.1-.2.1-.3.1-.2 0-.3 0-.4.1s-.2.3-.2.4v.4c0 .3.2.6.6.6.1 0 .3.1.3.3.1.3.1.6.3.9.1.1 0 .3-.1.4s-.1.1-.1.2-.1.2-.1.2c0 .1 0 .3.1.4l.3.3c.2.3.6.3.8.1.1-.1.2-.1.3-.1s.1 0 .2.1c.2.2.5.3.8.4.2.1.2.2.2.4s0 .3.1.4.2.2.4.2h.4c.1 0 .3 0 .4-.1l.2-.2c0-.1.1-.1.1-.2 0-.2.1-.3.3-.3.3-.1.6-.2.8-.3.1-.1.3 0 .4.1.2.3.6.3.8.1l.2-.2h.1c.3-.2.3-.6.1-.8-.1-.1-.1-.2-.1-.3s0-.1.1-.2 0 0 0-.1c.1-.1.1-.2.2-.3s.1-.3.2-.4.2-.2.4-.2c.1 0 .3 0 .4-.1.1-.1.2-.3.2-.4v-.4c-.2-.5-.5-.8-.8-.8zm-2.4 1.7c-.4.6-1.1 1-1.9.9-1.2-.1-2.1-1.1-2-2.3 0-.2.1-.4.1-.6.3-.9 1.2-1.5 2.2-1.4 1.2.1 2.1 1.1 2 2.3 0 .5-.1.8-.4 1.1z"/><path d="m235.8 285.3c0 .2-.1.4-.1.6-.4.6-1.1 1-1.9.9-1.2-.1-2.1-1.1-2-2.3 0-.2.1-.4.1-.6.4-.6 1.2-1 1.9-.9 1.2 0 2.1 1.1 2 2.3z"/><path d="m215.6 288.3v.5c0 .2 0 .3-.1.5 0 .2-.1.3-.1.5s-.1.3-.1.5-.1.3-.1.5c0 .1-.1.2-.1.4 0 .1 0 .1-.1.2 0 .1-.1.2-.1.3-.1.3-.3.6-.6.8-.1.1-.2.1-.3.2s-.2.1-.3.1c0 0-.1 0-.2 0s-.3 0-.5 0l-5.6-.8c-.9-.1-1.7.6-1.9 1.6v.1l-.7-.6-2.3-1.9-.9-.8-7-5.8c0-.1.1-.3.1-.4s0-.1.1-.2c0-.1.1-.2.1-.3.2-.5.3-.9.5-1.4 2.1-4.6 6.6-7.4 11.2-6.7h.1c.1 0 .1 0 .2.1 0 0 .1 0 .1.1 0 0 .1.1.1.1.1 0 .1.1.2.1.3.3.5.8.5 1.4v.1.2l-.7 4.5v.1.1c-.1.8.3 1.5.9 1.8.1.1.3.1.4.1l5.6.8c.3.1.6.2.9.5s.5.7.5 1.2v.3.2.4c.2.3.2.4.2.6z"/><path d="m215.1 286.6v.5c0 .2 0 .3-.1.5 0 .2 0 .3-.1.5 0 .2-.1.3-.1.5s-.1.3-.1.5l-.1.4c0 .1 0 .1-.1.2 0 .1-.1.2-.1.3-.1.3-.3.6-.6.8-.1.1-.2.1-.3.2-.1 0-.2.1-.3.1s-.1 0-.1 0c-.2 0-.3 0-.5 0l-5.6-.8s-.1 0-.2 0-.2 0-.3 0 0 0-.1 0h-.1c-.1 0-.1 0-.2.1h-.1c-.1 0-.1.1-.1.1s-.1.1-.1.1-.1.1-.1.1-.1.1-.1.1-.1.1-.1.1c0 .1-.1.1-.1.2 0 0 0 .1-.1.1 0 .1-.1.1-.1.2s0 .1-.1.2l-.1.7-.1.6-2.3-1.9-.9-.8-7-5.8-.7-.6v-.1c0-.2.1-.3.1-.5s.1-.3.1-.5c0-.1.1-.3.1-.4l.1-.2c0-.1.1-.2.1-.3.2-.5.3-.9.5-1.4 2.1-4.6 6.6-7.4 11.2-6.7h.1c.1 0 .1.1.2.1 0 0 .1 0 .1.1 0 0 .1 0 .1.1.1 0 .1.1.2.1.3.3.5.8.5 1.4v.3.1.1l-.1.6-.2 1.7-.1.4-.3 1.7v.5c0 .1 0 .2.1.3 0 .1 0 .2.1.2 0 0 0 .1.1.1.1.1.1.2.2.4 0 0 .1.1.1.1.1.1.1.1.2.2s.1.1.2.1c.1.1.3.1.4.1l5.6.8c.7.1 1.3.8 1.3 1.6v.3.2.4c.1.5.1.7.1.9z"/><path d="m206.9 290.4c-.1 0-.2 0-.3 0s0 0-.1 0c0 0 0 0-.1 0h-.1c-.1 0-.1 0-.2.1h-.1c-.1 0-.1.1-.1.1s-.1.1-.1.1c-.1.1-.1.1-.2.2v.1s-.1.1-.1.1c-.1.1-.1.2-.1.2s0 .1-.1.1c0 .1-.1.1-.1.2s0 .1-.1.2l-.1.7-.1.6-2.3-1.9-.9-.8c0-.4 0-.7 0-.8.2-.7 4.6.6 5.2.8.1-.1.1-.1 0 0z" opacity=".5"/><path d="m207.7 282.4c-.1 0-.2 0-.2 0-1.7 0-4.5.1-4.4-.5.1-.7 1.2-4.8 4.6-5.7l-.1.6-.2 1.7-.1.4-.2 1.3-.1.4v.5c0 .1 0 .2.1.3 0 .1 0 .2.1.2 0 0 0 .1.1.1.1.1.1.2.2.4 0 0 .1.1.1.1-.1.1 0 .1.1.2z" opacity=".5"/><path d="m205.1 292.7-.1.6-2.3-1.9c-.2-.4-.5-.9-.7-1.5z" opacity=".5"/><path d="m202.6 289.7 3.4.9c-.3.2-.5.5-.6.9z" opacity=".5"/><path d="m236.4 253.3c.1-3.7-1.4-7.2-4.2-9.6l-7.1 2.2-1.6.5-4.4 1.3-1 .3-5.4 1.6c-.2.6-.3 1.2-.4 1.8-.7 5.4 2.4 10.8 7.8 12.8 6.3 2.3 13.2-.9 15.6-7.1.4-1.2.6-2.5.7-3.8z"/><path d="m219.7 252.6 11 4.1c.2-.4.4-.7.6-1.2s.3-.8.3-1.3l-9.6-3.6z"/><path d="m217 254.8c.2.7.4 1.3.7 1.9l8.9 3.3c1-.4 2-.9 2.8-1.7l-11.4-4.3z"/><path d="m231.7 252.2-10.1-3.8-4.8 4c0-.4.1-.8.2-1.2.1-.3.2-.7.3-1.1.4-1 .9-1.9 1.6-2.6l4.4-1.3 7.4 2.7c.4.6.6 1.3.8 2 .1.5.2.9.2 1.3z"/><path d="m233.1 243.4-.9.3-7.1 2.2-1.6.5-4.4 1.3-1 .3-5.4 1.6-.2.1c-.1.6-.2 1.2-.2 1.8-.2 5.1 2.9 9.9 7.9 11.8 6.3 2.3 13.2-.9 15.6-7.1.3-.9.6-1.8.7-2.8.3-3.8-.9-7.4-3.4-10z"/><path d="m219.8 251.5 11 4.1c.2-.4.4-.7.6-1.2s.3-.8.3-1.3l-9.6-3.6z"/><path d="m217.1 253.8c.2.7.4 1.3.7 1.9l8.9 3.3c1-.4 2-.9 2.8-1.7l-11.5-4.3z"/><path d="m260.2 235.2-27.1 8.2c2.5 2.6 3.7 6.2 3.3 9.9 0 1.3-.3 2.6-.8 3.8-2.3 6.3-9.3 9.5-15.6 7.1-5.4-2-8.5-7.4-7.8-12.8 0-.6.1-1.2.2-1.8l-39.2 11.9-3-1.2.3 2.9 3.4 4 20.1 16.8v-.1c0-.2.1-.3.1-.5s.1-.3.1-.5c0-.1.1-.3.1-.4l.1-.2c0-.1.1-.2.1-.3.2-.5.3-.9.5-1.4 2.1-4.6 6.6-7.4 11.2-6.7h.1c.1 0 .1.1.2.1 0 0 .1 0 .1.1 0 0 .1 0 .1.1.1 0 .1.1.2.1.3.3.5.8.5 1.4v.3.1c.3.3.5.8.5 1.4v.1.2l-.7 4.5.2.2s.1.1.2.1c.1.1.3.1.4.1l5.6.8c.7.1 1.3.8 1.3 1.6v.3.2c.3.3.5.7.5 1.2v.3.2.4.5.5c0 .2 0 .3-.1.5 0 .2-.1.3-.1.5s-.1.3-.1.5-.1.3-.1.5c0 .1-.1.2-.1.4 0 .1 0 .1-.1.2 0 .1-.1.2-.1.3-.1.3-.3.6-.6.8-.1.1-.2.1-.3.2s-.2.1-.3.1c0 0-.1 0-.2 0s-.3 0-.5 0l-5.6-.8c-.9-.1-1.7.6-1.9 1.6v.1l32.4 27.1c9.8-11.2 17.1-24.8 20.9-40.2 4.7-17.1 5-32.1 1.6-45.3zm-21.7 50c0 .2-.1.3-.2.4v.1c0 .2-.1.3-.2.4s-.3.2-.4.1c-.1 0-.2 0-.3.1s-.1.2-.2.3v.1c0 .1-.1.1-.1.2 0 .1 0 .2.1.3.2.3.2.6-.1.8h-.1c0 .2-.1.3-.2.5l-.3.3c-.1.1-.3.2-.4.1-.1 0-.3-.1-.4-.2s-.3-.2-.4-.1c-.3.1-.5.2-.8.3h-.1c0 .1-.1.2-.2.2v.1c0 .3-.3.6-.6.6h-.4c-.2 0-.3-.1-.4-.2s-.2-.3-.1-.4c0-.2-.1-.3-.2-.4-.3-.1-.6-.2-.8-.4 0 0-.1-.1-.2-.1s-.2 0-.3.1c-.3.2-.6.2-.8-.1l-.3-.3c-.1-.1-.2-.3-.1-.4 0-.2.1-.3.2-.4 0 0 0 0 .1-.1 0-.1 0-.2.1-.2v-.1c-.1-.3-.2-.6-.3-.9 0-.2-.2-.3-.3-.3-.3 0-.6-.3-.6-.6v-.4c0-.2.1-.3.2-.4h.1v-.1c0-.2.1-.3.2-.4s.3-.2.4-.1c.1 0 .2 0 .3-.1 0-.1.1-.2.1-.3s.1-.2.1-.3c0-.1 0-.2-.1-.3-.2-.3-.2-.6.1-.8h.1c0-.2.1-.3.2-.5l.3-.3c.1-.1.3-.2.4-.1.2 0 .3.1.4.2s.3.2.4.1c.3-.1.6-.2.8-.3h.1c0-.1.1-.2.2-.2 0 0 0 0 0-.1 0-.3.3-.6.6-.6h.4c.2 0 .3.1.4.2s.2.3.1.4c0 .2.1.3.2.4.3.1.5.2.8.4.1.1.3.1.4 0 .3-.2.6-.2.8.1l.3.3c.1.1.2.3.1.4 0 .1-.1.3-.2.4v.1c0 .1 0 .2-.1.2v.1c.1.3.2.5.3.8 0 .2.2.3.3.3.3 0 .6.3.6.6z"/><path d="m262.4 282.1c-3.9 15.8-11.4 29.8-21.3 41.3l-2.9-2.4c9.8-11.2 17.1-24.8 20.9-40.2 4.3-17.3 4.6-32.4 1.2-45.5l3.2-1c3.6 13.7 3.4 29.5-1.1 47.8z"/><path d="m276.2 284.4c-4.5 18.3-13.2 34.4-24.8 47.6l-10.3-8.6c10-11.5 17.4-25.5 21.3-41.3 4.5-18.3 4.7-34.1 1-47.8 0 0 5.8-3.3 7.3-3.7 2.2-.5 6.7-.5 6.7-.5 4.1 15.6 3.9 33.6-1.2 54.3z"/><path d="m282.8 270.3c-.7 5.1-1.7 10.3-3 15.7-2.9 11.9-7.6 22.9-13.6 32.8l-11.5 15.9-3.2-2.7c11.6-13.2 20.3-29.4 24.8-47.6 5.1-20.7 5.4-38.7 1.2-54.4l3.1-.9c3.5 12.2 4.3 25.9 2.2 41.2z"/></g><path d="m240.4 227.3-27.1 8.2-.9.3-7.1 2.2-1.6.5-4.4 1.3-1 .3-5.4 1.6-.2.1-39.2 11.9-.5.2-4 1.2 1.9-4.1.4-.8 23.4-50.8.2-.5 1.2-2.7.2-.4.3-.6.3-.6 1.2-2.6.2-.5 9.1-19.9c.2.1.5.2.7.4 28 13.7 46.2 31.4 52.3 55.3z" fill="#0050d2"/><path d="m187.4 171.4-9.1 19.9-.2.5-1.2 2.6-.3.6-.3.6-.2.4-1.2 2.7-.2.5-23.4 50.8-.4.8-1.9 4.2-2.5-7-.4-1.3-3.3-9.4-.1-.2-1-2.7-.1-.2-.6-1.6-.3-1-.8-2.2-.2-.5-23-65.6c20.3-5.4 42.7-4.5 63.4 4.8 2.6 1 5 2.1 7.3 3.3z" fill="#0050d2"/><path d="m241.9 220.7c-.2-.6-.5-1.3-.7-1.9-.3-.8-.7-1.7-1-2.5-.3-.7-.6-1.4-.9-2 0-.1-.1-.1-.1-.2-.2-.3-.3-.7-.5-1s-.4-.7-.5-1c-.5-1-1.1-2.1-1.7-3.1-.2-.3-.4-.7-.6-1-.4-.7-.9-1.4-1.3-2.1-.2-.3-.4-.6-.6-.9-.4-.7-.9-1.3-1.4-1.9-.3-.4-.6-.8-.9-1.2-.2-.2-.3-.5-.5-.7-1.6-2.1-3.4-4.2-5.3-6.2-.3-.3-.5-.6-.8-.8-1.2-1.2-2.4-2.4-3.7-3.6-.5-.5-1-.9-1.5-1.4-.1-.1-.2-.2-.3-.3-.4-.4-.8-.7-1.3-1.1-.5-.5-1.1-.9-1.6-1.3-.4-.4-.9-.7-1.3-1.1-.1-.1-.3-.2-.4-.3-.6-.4-1.1-.9-1.7-1.3-.1-.1-.3-.2-.4-.3-.6-.5-1.2-.9-1.8-1.3 0 0 0 0-.1 0-.7-.5-1.4-1-2.1-1.5-1.4-1-2.9-1.9-4.3-2.9-.7-.4-1.4-.9-2.1-1.3-.1 0-.1-.1-.2-.1-.6-.4-1.3-.7-1.9-1.1-.2-.1-.5-.3-.7-.4-.8-.4-1.5-.9-2.3-1.3-.8-.5-1.6-.9-2.5-1.4 0 0-.1 0-.1-.1-.9-.5-1.7-.9-2.6-1.4s-1.8-.9-2.7-1.4c-.2-.1-.5-.3-.7-.4l-1.2 2.5c.2.1.5.2.7.4 27.9 13.9 46.1 31.6 52.3 55.6l3.2-1c-.7-2-1.2-3.9-1.9-5.7zm-10.3 103.4-10.3-8.6-2.9-2.4-32.4-27.1-.7-.6-2.3-1.9-.9-.8-7-5.8-.7-.6-20.1-16.8-5.3-4.5-2.5-7-.4-1.3-3.3-9.4-.1-.2-1-2.7-.1-.2-.6-1.6-.3-1-.8-2.2-.2-.5-23-65.6-1-2.7-4.7-13.5-.7-2.1c-37.6 9.8-69 38.1-78.5 76.5-15.6 63.2 21.9 127.1 85.2 142.8 44.6 11.1 89.7-4.9 117.8-37.5z" fill="#8eb0f5"/><path d="m260.7 221.2-3.1.9c-7.5-28.2-29.2-49.1-62.4-65.5-.3-.1-.6-.3-.9-.4l.6-1.2c.3.1.6.3.9.4 34 16.7 56.7 37.5 64.9 65.8z" fill="#8eb0f5"/><path d="m195 155-.6 1.2c-.5-.2-.9-.5-1.4-.7-1.5-.7-3-1.4-4.5-2.1-.7-.3-1.3-.6-2-.9-24.6-11-51.3-12.1-75.4-5.5l-.7-2.1c24.3-6.4 51.2-5 76.4 6.3 2.3 1 4.5 2.1 6.7 3.1.5.2 1 .4 1.5.7z" fill="#8eb0f5"/><path d="m221.3 315.5-2.9-2.4-32.4-27.1-.7-.6-2.3-1.9-.9-.8-7-5.8-.7-.6-20.1-16.8-5.3-4.5-2.5-7-.4-1.3-3.3-9.4-.1-.2-1-2.7-.1-.2-.6-1.6-.3-1-.8-2.2-.2-.5-23-65.6-1-2.7-4.7-13.5c-36.6 10-67.4 37.6-76.6 74.5-15 61.2 22.3 123.1 83.6 138.3 43 10.7 86.3-4.6 113.6-35.8zm20.6-94.8c-.2-.6-.5-1.3-.7-1.9-.3-.8-.7-1.7-1-2.5-.3-.7-.6-1.4-.9-2 0-.1-.1-.1-.1-.2-.2-.3-.3-.7-.5-1s-.4-.7-.5-1c-.5-1-1.1-2.1-1.7-3.1-.2-.3-.4-.7-.6-1-.4-.7-.9-1.4-1.3-2.1-.2-.3-.4-.6-.6-.9-.4-.7-.9-1.3-1.4-1.9-.3-.4-.6-.8-.9-1.2-.2-.2-.3-.5-.5-.7-1.6-2.1-3.4-4.2-5.3-6.2-.3-.3-.5-.6-.8-.8-1.2-1.2-2.4-2.4-3.7-3.6-.5-.5-1-.9-1.5-1.4-.1-.1-.2-.2-.3-.3-.4-.4-.8-.7-1.3-1.1-.5-.5-1.1-.9-1.6-1.3-.4-.4-.9-.7-1.3-1.1-.1-.1-.3-.2-.4-.3-.6-.4-1.1-.9-1.7-1.3-.1-.1-.3-.2-.4-.3-.6-.5-1.2-.9-1.8-1.3 0 0 0 0-.1 0-.7-.5-1.4-1-2.1-1.5-1.4-1-2.9-1.9-4.3-2.9-.7-.4-1.4-.9-2.1-1.3-.1 0-.1-.1-.2-.1-.6-.4-1.3-.7-1.9-1.1-.2-.1-.5-.3-.7-.4-.8-.4-1.5-.9-2.3-1.3-.8-.5-1.6-.9-2.5-1.4 0 0-.1 0-.1-.1-.9-.5-1.7-.9-2.6-1.4s-1.8-.9-2.7-1.4c-.2-.1-.5-.3-.7-.4l-1.2 2.5c.2.1.5.2.7.4 27.9 13.9 46.1 31.6 52.3 55.6l3.2-1c-.7-2-1.2-3.9-1.9-5.7z" fill="#a2bbee"/><path d="m257.6 222.1-14 4.2c-.5-1.9-1.1-3.8-1.8-5.7-.2-.6-.5-1.3-.7-1.9-.3-.8-.7-1.7-1-2.5-.3-.7-.6-1.4-.9-2 0-.1-.1-.1-.1-.2-.2-.3-.3-.7-.5-1s-.4-.7-.5-1c-.5-1-1.1-2.1-1.7-3.1-.2-.3-.4-.7-.6-1-.4-.7-.9-1.4-1.3-2.1-.2-.3-.4-.6-.6-.9-.4-.7-.9-1.3-1.4-1.9-.3-.4-.6-.8-.9-1.2-.2-.2-.3-.5-.5-.7-1.6-2.1-3.4-4.2-5.3-6.2-.3-.3-.5-.6-.8-.8-1.2-1.2-2.4-2.4-3.7-3.6-.5-.5-1-.9-1.5-1.4-.1-.1-.2-.2-.3-.3-.4-.4-.8-.7-1.3-1.1-.5-.5-1.1-.9-1.6-1.3-.4-.4-.9-.7-1.3-1.1-.1-.1-.3-.2-.4-.3-.6-.4-1.1-.9-1.7-1.3-.1-.1-.3-.2-.4-.3-.6-.5-1.2-.9-1.8-1.3 0 0 0 0-.1 0-.7-.5-1.4-1-2.1-1.5-1.4-1-2.9-1.9-4.3-2.9-.7-.4-1.4-.9-2.1-1.3-.1 0-.1-.1-.2-.1-.6-.4-1.3-.8-1.9-1.1-.2-.1-.5-.3-.7-.4-.8-.4-1.5-.9-2.3-1.3-.8-.5-1.6-.9-2.5-1.4 0 0-.1 0-.1-.1-.9-.5-1.7-.9-2.6-1.4s-1.8-.9-2.7-1.4c-.2-.1-.5-.3-.7-.4l5.8-12.7c.3.1.6.3.9.4 33 16.6 54.8 37.4 62.2 65.6z" fill="#a2bbee"/><path d="m218.4 313.1-32.4-27.1-.7-.6-2.3-1.9-.9-.8-7-5.8-.7-.6-20.1-16.8-5.3-4.5-2.5-7-.4-1.3-3.3-9.4-.1-.2-1-2.7-.1-.2-.6-1.6-.3-1-.8-2.2-.2-.5-23-65.6-1-2.7c-32.4 8.6-59.7 32.9-67.7 65.5-13.3 53.7 19.4 108 73.1 121.4 37.9 9.4 76.1-4.1 100-31.8zm23.5-92.4c-.2-.6-.5-1.3-.7-1.9-.3-.8-.7-1.7-1-2.5-.3-.7-.6-1.4-.9-2 0-.1-.1-.1-.1-.2-.2-.3-.3-.7-.5-1s-.4-.7-.5-1c-.5-1-1.1-2.1-1.7-3.1-.2-.3-.4-.7-.6-1-.4-.7-.9-1.4-1.3-2.1-.2-.3-.4-.6-.6-.9-.4-.7-.9-1.3-1.4-1.9-.3-.4-.6-.8-.9-1.2-.2-.2-.3-.5-.5-.7-1.6-2.1-3.4-4.2-5.3-6.2-.3-.3-.5-.6-.8-.8-1.2-1.2-2.4-2.4-3.7-3.6-.5-.5-1-.9-1.5-1.4-.1-.1-.2-.2-.3-.3-.4-.4-.8-.7-1.3-1.1-.5-.5-1.1-.9-1.6-1.3-.4-.4-.9-.7-1.3-1.1-.1-.1-.3-.2-.4-.3-.6-.4-1.1-.9-1.7-1.3-.1-.1-.3-.2-.4-.3-.6-.5-1.2-.9-1.8-1.3 0 0 0 0-.1 0-.7-.5-1.4-1-2.1-1.5-1.4-1-2.9-1.9-4.3-2.9-.7-.4-1.4-.9-2.1-1.3-.1 0-.1-.1-.2-.1-.6-.4-1.3-.7-1.9-1.1-.2-.1-.5-.3-.7-.4-.8-.4-1.5-.9-2.3-1.3-.8-.5-1.6-.9-2.5-1.4 0 0-.1 0-.1-.1-.9-.5-1.7-.9-2.6-1.4s-1.8-.9-2.7-1.4c-.2-.1-.5-.3-.7-.4l-1.2 2.5c.2.1.5.2.7.4 27.9 13.9 46.1 31.6 52.3 55.6l3.2-1c-.7-2-1.2-3.9-1.9-5.7z" fill="#0037d2"/><path d="m218.4 313.1c-23.1 26.5-59.8 39.4-96.2 30.3-51.8-12.8-83.4-65.3-70.6-117.1 7.8-31.4 34-54.8 65.2-63.1l23 65.6.2.5.8 2.2.3 1 .6 1.6.1.2 1 2.7.1.2 3.3 9.4.4 1.3 2.5 7 5.3 4.4 20.1 16.8.7.6 7 5.8.9.8 2.3 1.9.7.6z" fill="#0050d2"/><path d="m99.8 240.7-.2-13.1-1.9-.7-8.3 10.1-.5.7 2.5.9 1.5-1.9 4.4 1.5v2.5l2.5.9zm-5-6.5 2.6-3.3-.1 4.2v.8l-3.1-1.1z" fill="#0037d2"/><path d="m107.3 233.9c-1.4-.5-2.3-.5-3.3 0-.1 0-.3.1-.4.2l.9 1.9c.7-.4 1.2-.5 2-.2s1.2.6 1.3 1.2c0 .2 0 .5-.1.9l-.2.4-2.1-.7c-2.1-.8-3.6.1-4.1 1.5 0 .1-.1.3-.1.4-.2.7-.1 1.3.1 1.9.3.7 1 1.2 2 1.6s1.7.3 2.5-.1h.1l-.3.7 2.2.8 2.1-6c.2-.5.3-.9.2-1.4.2-1.4-.8-2.4-2.8-3.1zm-3.6 5.8s0-.1.1-.1c.3-.6.8-.7 1.6-.4l1.5.5.2.1-.2.5c-.2.6-.4.9-.7 1-.5.2-.9.2-1.5 0-1-.4-1.3-.9-1-1.6z" fill="#0037d2"/><path d="m186.3 319-6.1-11.6-2 .3-2.8 12.8-.2.8 2.7-.4.5-2.4 4.6-.6 1.1 2.2 2.7-.4zm-7.4-3.5.8-4.1 1.9 3.8.4.7-3.2.4z" fill="#0037d2"/><path d="m195.2 317.8-.8-5.5c-.3-2.2-1.8-3.2-4.5-2.8-1.3.2-2.1.5-2.8 1.3-.1.2-.3.3-.4.6l1.7 1.3c.4-.7.9-1 1.7-1.1 1.1-.2 1.7.1 1.9 1 0 .1 0 .2.1.3l.1.5-2.2.3c-1.7.2-2.6 1-2.9 2.1-.1.4-.1.7-.1 1.1.1.8.5 1.6 1.1 2 .6.5 1.5.7 2.5.5 1.1-.1 1.7-.5 2.2-1.2l.1.8 2.3-.3zm-5.8-2.1c.2-.3.6-.5 1.1-.6l1.8-.2.1.5v.2c0 .5 0 .8-.2 1-.4.4-.8.6-1.3.6-1 .1-1.5-.2-1.6-.9 0-.2 0-.4.1-.6z" fill="#0037d2"/><path d="m178.5 194.3c-.2 0-.3-.1-.3-.3-.1-.3-.1-.6-.3-.8-.1-.1 0-.3.1-.4.1 0 .1-.1.1-.2s.1-.2.1-.2c0-.1 0-.3-.1-.4l-.1-.1-.2-.2c-.2-.3-.6-.3-.8-.1-.1.1-.2.1-.3.1s-.1 0-.2-.1c-.2-.2-.5-.3-.8-.4-.1-.1-.2-.2-.2-.4s0-.3-.1-.4-.2-.2-.4-.2h-.4c-.1 0-.3 0-.4.1s-.1.1-.2.2c0 .1-.1.1-.1.2 0 .2-.1.3-.3.3-.3.1-.6.1-.9.3-.1.1-.3 0-.4-.1s-.3-.2-.4-.2c-.2 0-.3 0-.4.1l-.3.2h-.1c-.3.2-.3.6-.1.8.1.1.1.2.1.3 0 .1 0 .1-.1.2 0 0-.1.1-.1.1-.1.1-.1.2-.2.3s-.1.2-.2.4c-.1.1-.2.2-.4.2-.1 0-.3 0-.4.1-.1.1-.2.2-.2.4v.4c0 .3.2.6.6.6.2 0 .3.1.3.3.1.3.2.6.3.9v.1c0 .1 0 .2-.1.3 0 0 0 0-.1.1s-.2.3-.2.4c0 .2 0 .3.1.4l.3.3c.2.3.6.3.8.1.1-.1.2-.1.3-.1 0 0 .1 0 .2.1.2.2.5.3.8.4.1.1.2.2.2.4s0 .3.1.4.2.2.4.2h.4c.1 0 .3 0 .4-.1.2-.1.3-.3.3-.5v-.1c0-.1.1-.2.2-.2h.1c.3-.1.6-.2.8-.3.1-.1.3 0 .4.1s.3.2.4.2c.2 0 .3 0 .4-.1l.3-.3c.1-.1.2-.3.2-.5 0-.1 0-.3-.1-.4s-.1-.2-.1-.3 0-.1.1-.2.1-.2.2-.4c0-.1.1-.2.1-.3 0 0 0-.1.1-.2 0 0 .1-.1.1-.1.1-.1.2-.1.3-.1.2 0 .3 0 .4-.1s.2-.2.2-.4v-.4c.4-.1.1-.4-.2-.4zm-5.9-.8c.4-.6 1.2-1 1.9-.9 1.2.1 2.1 1.1 2 2.3v.2c0 .1-.1.3-.1.4-.1.2-.2.5-.4.7-.4.5-1.1.8-1.8.7-1.2-.1-2.1-1.1-2-2.3.1-.5.2-.8.4-1.1z" fill="#002cb1"/><path d="m178.8 193.7c-.2 0-.3-.1-.3-.3-.1-.3-.2-.6-.3-.8 0 0 0 0 0-.1s0-.2.1-.3c0 0 0 0 0-.1.1-.1.2-.3.2-.4 0-.2 0-.3-.1-.4l-.1-.1-.2-.2c-.2-.3-.6-.3-.8-.1-.1.1-.3.1-.4 0-.2-.2-.5-.3-.8-.4-.1-.1-.2-.2-.2-.4s0-.3-.1-.4-.2-.2-.4-.2h-.4c-.3 0-.6.2-.6.6v.1c0 .1-.1.2-.2.2h-.1c-.3.1-.6.2-.8.3-.1.1-.3 0-.4-.1s-.3-.2-.4-.2-.3 0-.4.1l-.3.3c-.1.1-.2.3-.2.5 0 .1.1.3.1.4.1.1.1.2.1.3s0 .1-.1.2-.2.2-.2.4c0 .1-.1.2-.1.3 0 0 0 .1-.1.1 0 0-.1.1-.1.1-.1.1-.2.1-.3.1-.2 0-.3 0-.4.1s-.2.3-.2.4v.4c0 .3.2.6.6.6.1 0 .3.1.3.3.1.3.1.6.3.9.1.1 0 .3-.1.4s-.1.1-.1.2-.1.2-.1.2c0 .2 0 .3.1.4l.3.3c.2.3.6.3.8.1.1-.1.2-.1.3-.1s.1 0 .2.1c.2.2.5.3.8.4.2.1.2.2.2.4s0 .3.1.4.2.2.4.2h.4c.1 0 .2 0 .3-.1 0 0 .1 0 .1-.1.1-.1.1-.1.2-.2 0-.1.1-.1.1-.2 0-.2.1-.3.3-.3l.9-.3c.1-.1.3 0 .4.1.2.3.6.3.8.1l.3-.2h.1c.3-.2.3-.6.1-.8-.1-.1-.1-.2-.1-.3s0-.1.1-.2c0 0 .1-.1.1-.1.1-.1.1-.2.2-.3s.1-.3.2-.4.2-.2.4-.2c.1 0 .3 0 .4-.1.1-.1.2-.3.2-.4v-.4c-.5-.4-.8-.7-1.1-.8zm-2.4 1.8c-.1.1-.1.1-.2.2-.4.5-1.1.7-1.8.7-1.2-.1-2.1-1.1-2-2.3 0-.2.1-.4.1-.6.3-.9 1.2-1.5 2.2-1.4 1.2.1 2.1 1.1 2 2.3v.1c.1.3-.1.7-.3 1z" fill="#19375d"/><path d="m81.1 205.6c-.2 0-.3-.1-.3-.3-.1-.3-.1-.6-.3-.8-.1-.1 0-.3.1-.4s.1-.1.1-.2.1-.2.1-.2c0-.1 0-.3-.1-.4l-.3-.3c-.2-.3-.6-.3-.8-.1-.1.1-.2.1-.3.1s-.1 0-.2-.1c-.2-.2-.5-.3-.8-.4-.1-.1-.2-.2-.2-.4s0-.3-.1-.4-.2-.2-.4-.2h-.4c-.2 0-.3 0-.4.1s-.1.1-.2.2c0 .1-.1.1-.1.2 0 .2-.1.3-.3.3-.3.1-.6.2-.8.3-.1.1-.3 0-.4-.1s-.3-.2-.4-.2-.3 0-.4.1l-.2.2-.1.1c-.3.2-.3.6-.1.8.1.1.1.2.1.3s0 .1-.1.2c0 .1-.1.1-.1.2s-.1.1-.1.2c-.1.1-.1.3-.2.4s-.2.2-.4.2c-.1 0-.3 0-.4.1-.1.1-.2.2-.2.4v.4c0 .3.2.6.5.7.2 0 .3.1.3.3.1.3.1.6.3.8v.1c0 .1 0 .2-.1.3v.1c-.1.1-.2.3-.2.4s0 .3.1.4l.3.3c.2.3.6.3.8.1.1-.1.2-.1.3-.1s.1 0 .2.1c.2.2.5.3.8.4.2.1.2.2.2.4s0 .3.1.4.2.2.4.2h.4c.3 0 .6-.2.6-.6v-.1c0-.1.1-.2.2-.2h.1c.3-.1.6-.2.8-.3.1-.1.3 0 .4.1s.3.2.4.2.3 0 .4-.1l.3-.3c.1-.1.2-.3.2-.5 0-.1-.1-.3-.1-.4-.1-.1-.1-.2-.1-.3 0 0 0-.1.1-.2s.1-.2.2-.3c.1-.1.1-.2.1-.3 0 0 0-.1.1-.1 0 0 0-.1.1-.1.1-.1.2-.1.3-.1.2 0 .3 0 .4-.1s.2-.2.2-.4v-.4c.2-.3-.1-.6-.4-.7zm-4.3 2.7c-1.2-.1-2.1-1.1-2-2.3 0-.4.2-.8.4-1.1.4-.6 1.2-1 1.9-.9 1.2.1 2.1 1.1 2 2.3 0 .2-.1.4-.1.5-.3.9-1.2 1.5-2.2 1.5z" fill="#002cb1"/><path d="m81.3 205.1c-.2 0-.3-.1-.3-.3-.1-.3-.2-.6-.3-.9v-.1c0-.1 0-.2.1-.3 0 0 0 0 .1-.1s.2-.3.2-.4 0-.3-.1-.4l-.3-.3c-.2-.3-.6-.3-.8-.1-.1.1-.2.1-.3.1s-.1 0-.2-.1c-.2-.2-.5-.3-.8-.4-.1-.1-.2-.2-.2-.4s0-.3-.1-.4-.2-.2-.4-.2h-.4c-.3 0-.6.2-.7.5v.1c0 .1-.1.2-.2.2h-.1c-.3.1-.6.2-.8.3-.1.1-.3 0-.4-.1s-.3-.2-.4-.2-.3 0-.4.1l-.3.3c-.1.1-.2.3-.2.5 0 .1 0 .3.1.4s.1.2.1.3 0 .1-.1.2-.1.2-.2.4c-.1.1-.1.2-.2.3v.1s0 .1-.1.1c-.1.1-.2.1-.3.1-.2 0-.3 0-.4.1s-.2.2-.2.4v.4c0 .3.2.6.6.6.2 0 .3.1.3.3.1.3.2.6.3.8.1.1 0 .3-.1.4-.1 0-.1.1-.1.2s-.1.2-.1.2c0 .1 0 .3.2.4l.3.3c.2.3.6.3.8.1.1-.1.2-.1.3-.1s.1 0 .2.1c.2.2.5.3.8.4.1.1.2.2.2.4s0 .3.1.4.2.2.4.2h.4c.1 0 .3 0 .4-.1.1 0 .1-.1.2-.2 0-.1.1-.2.1-.2 0-.1.1-.3.3-.3.3-.1.6-.1.8-.3.1-.1.3 0 .4.1s.3.2.4.2c.2 0 .3 0 .4-.1l.3-.2h.1c.3-.2.3-.6.1-.8-.1-.1-.1-.2-.1-.3 0-.1 0-.1.1-.2 0 0 .1-.1.1-.1.1-.1.1-.2.1-.3.1-.1.1-.3.2-.4s.2-.2.4-.2c.1 0 .3 0 .4-.1.1-.1.2-.2.2-.4v-.4c-.3-.3-.5-.5-.9-.6zm-2.3 1.7c-.4.6-1.2 1-2 .9-1.2-.1-2.1-1.1-2-2.3 0-.2.1-.4.1-.6.3-.9 1.2-1.5 2.2-1.4 1.2.1 2.1 1.1 2 2.3.1.5-.1.8-.3 1.1z" fill="#19375d"/><path d="m96.8 297.5c-.2 0-.3-.1-.3-.3-.1-.3-.2-.6-.3-.8-.1-.1 0-.3.1-.4s.1-.1.1-.2.1-.2.1-.2c0-.2 0-.3-.1-.4l-.3-.3c-.2-.3-.6-.3-.8-.1-.1.1-.3.1-.4 0-.2-.2-.5-.3-.8-.4-.1-.1-.2-.2-.2-.4s0-.3-.1-.4-.2-.2-.4-.2h-.4c-.1 0-.3 0-.4.1s-.1.1-.2.2c0 .1-.1.1-.1.2 0 .2-.1.3-.3.3-.3.1-.6.1-.8.3-.1.1-.3 0-.4-.1s-.3-.2-.4-.2-.3 0-.4.1l-.2.2h-.1c-.3.2-.3.6-.1.8.1.1.1.2.1.3 0 .1 0 .1-.1.2 0 0 0 .1-.1.1-.1.1-.1.2-.2.3s-.1.2-.2.4c-.1.1-.2.2-.4.2-.1 0-.3 0-.4.1 0 0 0 0-.1 0-.1.1-.2.2-.2.4v.4c0 .3.2.6.6.6.1 0 .3.1.3.3.1.3.2.6.3.9v.1c0 .1 0 .2-.1.3v.1c-.1.1-.2.3-.2.4 0 .2 0 .3.1.4l.3.3c.2.3.6.3.8.1.1-.1.2-.1.3-.1s.1 0 .2.1c.2.2.5.3.8.4.1.1.2.2.2.4s0 .3.1.4.2.2.4.2h.4c.3 0 .6-.2.6-.6 0 0 0 0 0-.1s.1-.2.2-.2h.1l.9-.3c.1-.1.3 0 .4.1.2.3.6.3.8.1l.3-.3c.1-.1.2-.3.2-.5 0-.1-.1-.3-.1-.4-.1-.1-.1-.2-.1-.3 0 0 0-.1.1-.2s.1-.2.2-.4c0-.1.1-.2.1-.3 0 0 0-.1.1-.2 0-.1.1-.1.1-.1.1-.1.2-.1.3-.1.2 0 .3 0 .4-.1s.2-.2.2-.4v-.4c.1-.1-.2-.3-.5-.4zm-4.3 2.6c-1.2-.1-2.1-1.1-2-2.3 0-.4.2-.7.4-1 .4-.6 1.2-1 1.9-.9 1.2.1 2.1 1.1 2 2.3 0 .2-.1.4-.1.5-.3.9-1.2 1.5-2.2 1.4z" fill="#002cb1"/><path d="m97.1 297c-.2 0-.3-.1-.3-.3-.1-.3-.2-.6-.3-.8v-.1c0-.1 0-.2.1-.3 0 0 0 0 .1-.1s.2-.3.2-.4c0-.2 0-.3-.1-.4l-.3-.3c-.2-.3-.6-.3-.8-.1-.1.1-.2.1-.3.1s-.1 0-.2-.1c-.2-.2-.5-.3-.8-.4-.1-.1-.2-.2-.2-.4s0-.3-.1-.4-.2-.2-.4-.2h-.4c-.3 0-.6.2-.6.6v.1c0 .1-.1.2-.2.2h-.1c-.3.1-.6.2-.9.3-.1.1-.3 0-.4-.1s-.3-.2-.4-.2c-.2 0-.3 0-.4.1l-.3.3c-.1.1-.2.3-.2.5 0 .1 0 .3.1.4s.1.2.1.3c0 0 0 .1-.1.2s-.1.2-.2.3c-.1.1-.1.2-.1.3 0 0 0 .1-.1.2 0 .1-.1.1-.1.1-.1.1-.2.1-.3.1-.2 0-.3 0-.4.1s-.2.3-.2.4v.4c0 .3.2.6.5.7.2 0 .3.1.3.3.1.3.2.6.3.8.1.1 0 .3-.1.4s-.1.1-.1.2-.1.2-.1.2c0 .1 0 .3.1.4l.3.3c.2.3.6.3.8.1.1-.1.2-.1.3-.1 0 0 .1 0 .2.1.2.2.5.3.8.4.1.1.2.2.2.4s0 .3.1.4.2.2.4.2h.4c.1 0 .3 0 .4-.1s.1-.1.2-.2c0-.1.1-.1.1-.2 0-.2.1-.3.3-.3.3-.1.6-.2.8-.3.1-.1.3 0 .4.1s.3.2.4.2.3 0 .4-.1l.3-.2h.1c.3-.2.3-.6.1-.8-.1-.1-.1-.2-.1-.3s0-.1.1-.2c0 0 0-.1.1-.1.1-.1.1-.2.2-.3s.1-.2.2-.4c.1-.1.2-.2.4-.2.1 0 .3 0 .4-.1h.1c.1-.1.2-.3.2-.4v-.4c-.3-.6-.6-.9-.9-.9zm-2.4 1.7c-.4.6-1.1 1-1.9.9-1.2-.1-2.1-1.1-2-2.3 0-.2.1-.4.1-.5.3-.9 1.2-1.5 2.2-1.4 1.2.1 2.1 1.1 2 2.3 0 .3-.2.7-.4 1z" fill="#19375d"/><path d="m143.6 233.5c-.2 0-.3-.1-.3-.3-.1-.3-.2-.6-.3-.8-.1-.1 0-.3.1-.4s.1-.1.1-.2.1-.2.1-.2c0-.1 0-.3-.1-.4l-.3-.3c-.2-.3-.6-.3-.8-.1-.1.1-.3.1-.4 0-.2-.2-.5-.3-.8-.4-.2-.1-.2-.2-.2-.4s0-.3-.1-.4-.2-.2-.4-.2h-.4c-.1 0-.3 0-.4.1s-.1.1-.2.2c0 .1-.1.1-.1.2 0 .2-.1.3-.3.3-.3.1-.6.1-.8.3-.1.1-.3 0-.4-.1s-.3-.2-.4-.2-.3 0-.4.1l-.3.3c-.3.2-.3.6-.1.8.1.1.1.2.1.3 0 .1 0 .1-.1.2 0 0 0 .1-.1.1v.1c-.1.1-.1.1-.1.2-.1.1-.1.3-.2.4s-.2.2-.4.2c-.1 0-.3 0-.4.1-.1.1-.2.2-.2.4v.4c0 .3.2.6.6.6.1 0 .3.1.3.3.1.3.1.6.3.9v.1c0 .1 0 .2-.1.3v.1c-.1.1-.2.3-.2.4s0 .3.1.4l.3.3c.2.3.6.3.8.1.1-.1.2-.1.3-.1s.1 0 .2.1c.2.2.5.3.8.4.2.1.2.2.2.4s0 .3.1.4.2.2.4.2h.4c.3 0 .6-.2.6-.6 0 0 0 0 0-.1s.1-.2.2-.2h.1c.3-.1.6-.1.8-.3.1-.1.3 0 .4.1.2.3.6.3.8.1l.3-.3s.1-.1.1-.1c.1-.1.1-.2.1-.4 0-.1 0-.3-.1-.4s-.1-.2-.1-.3 0-.1.1-.2.1-.2.2-.4c0-.1.1-.2.1-.3s.1-.1.1-.2.1-.1.1-.1c.1-.1.2-.1.3-.1.2 0 .3 0 .4-.1s.2-.2.2-.4v-.4c0-.2-.3-.5-.6-.5zm-4.3 2.6c-1.2-.1-2.1-1.1-2-2.3 0-.4.2-.8.4-1.1.4-.6 1.2-1 1.9-.9.6 0 1.1.3 1.4.7.4.4.6 1 .6 1.6 0 .2-.1.4-.1.5-.3 1-1.2 1.6-2.2 1.5z" fill="#002cb1"/><path d="m143.9 233c-.2 0-.3-.1-.3-.3-.1-.3-.2-.6-.3-.8v-.1c0-.1 0-.2.1-.3 0 0 0 0 .1-.1s.2-.3.2-.4c0-.2 0-.3-.1-.4l-.3-.3c-.2-.3-.6-.3-.8-.1-.1.1-.2.1-.3.1s-.1 0-.2-.1c-.2-.2-.5-.3-.8-.4-.1-.1-.2-.2-.2-.4s0-.3-.1-.4-.2-.2-.4-.2h-.4c-.1 0-.1 0-.2 0-.3 0-.5.3-.5.5v.1c0 .1-.1.2-.2.2h-.1c-.3.1-.6.1-.8.3-.1.1-.3 0-.4-.1s-.3-.2-.4-.2c-.2 0-.3 0-.4.1l-.3.3c-.1.1-.2.3-.2.5 0 .1.1.3.1.4.1.1.1.2.1.3s0 .1-.1.2-.1.2-.2.3c0 .1-.1.2-.1.3v.1.1s0 .1-.1.1c-.1.1-.2.1-.3.1-.2 0-.3 0-.4.1s-.2.3-.2.4v.4c0 .3.2.6.6.6.2 0 .3.1.3.3.1.3.2.6.3.9.1.1 0 .3-.1.4-.1 0-.1.1-.1.2s-.1.2-.1.2c0 .1 0 .3.2.4l.3.3c.2.3.6.3.8.1.1-.1.2-.1.3-.1 0 0 .1 0 .2.1.2.2.5.3.8.4.1.1.2.2.2.4s0 .3.1.4.2.2.4.2h.4c.1 0 .3 0 .4-.1s.1-.1.2-.2c0-.1.1-.1.1-.2 0-.2.1-.3.3-.3.3-.1.6-.2.8-.3.1-.1.3 0 .4.1s.3.2.4.2.3 0 .4-.1l.3-.3c.3-.2.3-.6.1-.8-.1-.1-.1-.2-.1-.3s0-.1.1-.1c0 0 0-.1.1-.1.1-.1.1-.2.2-.3s.1-.2.2-.4c.1-.1.2-.2.4-.2.1 0 .3 0 .4-.1.1-.1.2-.3.2-.4v-.4c-.5-.5-.7-.8-1-.8zm-2.4 1.7c-.4.6-1.1 1-1.9.9-1.2-.1-2.1-1.1-2-2.3 0-.2.1-.4.1-.6.3-.9 1.2-1.5 2.2-1.4.3 0 .6.1.8.2.8.4 1.2 1.2 1.2 2.1 0 .3-.1.5-.2.7 0 .2-.1.3-.2.4z" fill="#19375d"/><path d="m132.2 287.7v.1.2.1s0 .1-.1.1c0 .1-.1.1-.1.2-.3.4-.7.7-1.2.8h-.1c-.1 0-.1 0-.2 0l-4.6.2c-.8 0-1.5.6-1.7 1.2 0 .1-.1.3-.1.4l.2 5.6c0 .7-.5 1.4-1.4 1.6-.1 0-.2 0-.3.1-.1 0-.2 0-.2 0-.1 0-.3 0-.4.1-.2 0-.3 0-.5.1-.2 0-.3 0-.5 0s-.3 0-.5 0-.3 0-.5 0-.3 0-.5 0-.3 0-.5 0c-.1 0-.3 0-.4 0s-.1 0-.2 0-.2 0-.3 0c-.4-.1-.7-.2-.9-.4-.1-.1-.2-.1-.2-.2-.1-.1-.1-.2-.2-.3 0 0 0-.1-.1-.1-.1-.1-.1-.3-.1-.5l-.2-5.6c0-.9-.9-1.6-1.9-1.5l-4.6.2c-.1 0-.1 0-.2 0-.9 0-1.7-.7-1.8-1.5-.2-4.7 3.1-8.8 7.9-10.4.5-.2.9-.3 1.4-.4.1 0 .2 0 .3-.1h.2c.1 0 .3 0 .4-.1.2 0 .3 0 .5-.1h.5.5.5.5.5.4.2.3c.5.1 1 .2 1.4.3 4.9 1.4 8.6 5.2 8.8 9.9z" fill="#002cb1"/><path d="m132.9 286.1v.2.1.1c0 .1-.1.1-.1.2-.3.4-.7.7-1.2.8h-.1c-.1 0-.1 0-.2 0h-.2l-4.4.2c-.8 0-1.4.5-1.7 1.1 0 .1-.1.1-.1.2s-.1.3-.1.4l.2 5.6c0 .7-.5 1.4-1.4 1.6-.1 0-.2 0-.3.1-.1 0-.2 0-.2 0-.1 0-.3 0-.4.1-.2 0-.3 0-.5.1-.2 0-.3 0-.5.1-.2 0-.3 0-.5 0s-.3 0-.5 0-.3 0-.5 0-.3 0-.5 0h-.4c-.1 0-.1 0-.2 0s-.2 0-.3 0c-.4-.1-.7-.2-.9-.4-.1-.1-.2-.1-.2-.2-.1-.1-.1-.2-.2-.3 0 0-.1-.1-.1-.1-.1-.1-.1-.3-.1-.5l-.2-5.6c0-.1 0-.1 0-.1-.1-.8-.9-1.4-1.9-1.4l-3.9.2h-.7c-.1 0-.1 0-.2 0-.9 0-1.7-.7-1.8-1.5-.2-4.7 3.1-8.8 7.9-10.4.5-.2.9-.3 1.4-.4.1 0 .2 0 .3-.1h.2c.1 0 .2 0 .4-.1.2 0 .3 0 .5-.1h.5.5.5.5s.3 0 .5 0h.4.2.3c.5.1 1 .2 1.4.3 4.9 1.2 8.5 5 8.7 9.7.1 0 .1 0 .1.1z" fill="#a2bbee"/><path d="m116.8 289.7c-.2-.8.1.2 0 0 0-.3-.2-.7-.5-.9-.2-.2-.6-.4-1-.4-.1 0-.3 0-.4 0h-.7l-1.5.1-1.7.1c1.7-3.1 4.8-3.9 5.4-3.9 1-.2.4 5 .4 5z" fill="#0050d2" opacity=".5"/><path d="m130.9 287.6h-.6l-1.7.1-1.7.1h-.5c-.3 0-.6.1-.8.2-.4.2-.7.5-.9.9-.3-1.6-1-4.7-.4-4.7.8-.1 5 .2 6.6 3.4z" fill="#0050d2" opacity=".5"/><path d="m116.4 284.8-2.2 3.5-1.5.1s1.2-2.1 3.7-3.6z" fill="#0050d2" opacity=".5"/><path d="m116.6 285.3-.3 3.5c-.2-.2-.6-.4-1-.4z" fill="#0050d2" opacity=".5"/><path d="m126.9 287.8h-.5c-.3 0-.6.1-.8.2l-.7-2.8z" fill="#0050d2" opacity=".5"/><path d="m130.3 287.6-1.7.1-3.4-2.8c.3 0 3.7 1.2 5.1 2.7z" fill="#0050d2" opacity=".5"/><path d="m193.4 224.7c0 .1-.1.1-.1.1 0 .1-.1.1-.2.2 0 0-.1.1-.1.1s-.1.1-.1.1c-.1 0-.1.1-.2.1-.4.2-1 .2-1.5 0h-.1c-.1 0-.1-.1-.2-.1l-4-2.2c-.7-.4-1.6-.3-2.1.2-.1.1-.2.2-.3.3l-2.7 4.9c-.4.7-1.2.9-2 .7-.1 0-.2-.1-.3-.1s-.1-.1-.2-.1-.2-.1-.4-.1c-.2-.1-.3-.1-.5-.2s-.3-.1-.5-.2-.3-.2-.5-.2-.3-.2-.4-.3-.3-.2-.4-.3-.3-.2-.4-.3c-.1-.1-.2-.1-.3-.2-.1 0-.1-.1-.2-.1-.1-.1-.2-.1-.3-.2-.3-.2-.5-.5-.6-.8 0-.1-.1-.2-.1-.3s0-.2 0-.3 0-.1 0-.2c0-.2.1-.3.2-.4l2.7-4.9c.4-.8 0-1.8-.8-2.3l-4-2.2s-.1-.1-.1-.1c-.8-.5-1.1-1.5-.7-2.2 2.3-4.1 7.2-5.9 12.1-4.8.5.1.9.2 1.4.4.1 0 .2.1.3.1s.1.1.2.1.2.1.4.1c.2.1.3.1.5.2s.3.1.5.2.3.2.5.2.3.2.4.3.3.2.4.3.3.2.4.3c.1.1.2.1.3.2.1 0 .1.1.2.1.1.1.2.1.3.2.4.3.7.6 1.1 1 3.5 3.4 4.7 8.6 2.4 12.7z" fill="#002cb1"/><path d="m194.4 223.3c0 .1-.1.1-.2.2 0 0-.1.1-.1.1s-.1.1-.1.1c-.1 0-.1.1-.2.1-.4.2-1 .2-1.5 0h-.1c-.1 0-.1-.1-.2-.1l-.1-.1-3.9-2.2c-.7-.4-1.4-.3-2 0-.1 0-.1.1-.1.1-.1.1-.2.2-.3.3l-2.7 4.9c-.4.7-1.2.9-2 .7-.1 0-.2-.1-.3-.1s-.1-.1-.2-.1c-.1-.1-.2-.1-.4-.1-.1-.1-.3-.1-.5-.2-.1-.1-.3-.1-.5-.2s-.3-.2-.5-.2c-.2-.1-.3-.2-.4-.3s-.3-.2-.4-.3-.3-.2-.4-.3l-.3-.3c-.1 0-.1-.1-.2-.1-.1-.1-.2-.1-.3-.2-.3-.2-.5-.5-.6-.8 0-.1-.1-.2-.1-.3s0-.2 0-.3 0-.1 0-.2c0-.2.1-.3.2-.4l2.7-4.9s0-.1.1-.1c.3-.8-.1-1.7-.9-2.2l-3.4-1.9-.6-.3c-.1 0-.1-.1-.1-.1-.8-.5-1.1-1.5-.7-2.2 2.3-4.1 7.2-5.9 12.1-4.8.5.1.9.2 1.4.4.1 0 .2.1.3.1s.1 0 .2.1c.1 0 .2.1.4.1.2.1.3.1.5.2s.3.1.5.2.3.2.5.2c.1.1.3.2.4.3s.3.2.4.3.3.2.4.3c.1.1.2.1.3.2l.2.1c.1.1.2.1.3.2.4.3.8.6 1.1 1 3.5 3.6 4.7 8.7 2.4 12.8z" fill="#a2bbee"/><path d="m178.8 218c.2-.8 0 .3 0 0 .1-.3.2-.7 0-1-.1-.3-.3-.6-.6-.9-.1-.1-.2-.2-.4-.3l-.6-.3-1.3-.7-1.5-.8c3-1.8 6.1-.9 6.7-.5.9.4-2.3 4.5-2.3 4.5z" fill="#0050d2" opacity=".5"/><path d="m191.9 223.6-.5-.3-1.5-.8-1.5-.8-.4-.2c-.3-.1-.5-.2-.8-.3-.4 0-.8.1-1.2.3.6-1.5 1.5-4.5 2.1-4.2.7.3 4.1 2.8 3.8 6.3z" fill="#0050d2" opacity=".5"/><path d="m181 213.6-3.7 1.9-1.3-.7s2-1.1 5-1.2z" fill="#0050d2" opacity=".5"/><path d="m180.9 214.2-2.1 2.8c-.1-.3-.3-.6-.6-.9z" fill="#0050d2" opacity=".5"/><path d="m188.4 221.7-.4-.2c-.3-.1-.5-.2-.8-.3l.9-2.7z" fill="#0050d2" opacity=".5"/><path d="m191.4 223.3-1.5-.8-1.4-4.2c.2.2 2.5 3 2.9 5z" fill="#0050d2" opacity=".5"/><path d="m99.8 193.6s.1-.1.1-.1c.1-.1.1-.1.2-.2 0 0 .1 0 .1-.1 0 0 .1-.1.1-.1.1 0 .1-.1.2-.1.5-.1 1-.1 1.5.1s.1 0 .1.1c.1 0 .1.1.2.1l3.7 2.7c.7.5 1.6.5 2.1.1l.3-.3 3.3-4.6c.4-.6 1.3-.8 2.1-.4.1 0 .2.1.3.2.1 0 .1.1.2.1.1.1.2.1.3.2.1.1.3.2.4.3s.3.2.4.3.3.2.4.3.3.2.4.3.3.2.4.3.3.2.4.3c.1.1.2.2.3.3s.1.1.2.2.2.2.2.2c.2.3.4.6.5.9v.3.3.2c0 .1-.1.3-.2.4l-3.3 4.6c-.5.7-.3 1.8.6 2.4l3.7 2.7s.1.1.1.1c.7.6.9 1.6.5 2.3-2.7 3.8-7.9 5-12.6 3.3-.5-.2-.9-.4-1.4-.6-.1 0-.2-.1-.3-.1s-.1-.1-.2-.1c-.1-.1-.2-.1-.3-.2-.1-.1-.3-.2-.4-.3s-.3-.2-.4-.3-.3-.2-.4-.3-.3-.2-.4-.3-.3-.2-.4-.3-.3-.2-.4-.3c-.1-.1-.2-.2-.3-.3s-.1-.1-.2-.2-.2-.2-.2-.2c-.3-.4-.7-.7-1-1.1-3.1-4.1-3.6-9.4-.9-13.1z" fill="#002cb1"/><path d="m100.5 191.9.2-.2s.1 0 .1-.1c0 0 .1-.1.1-.1.1 0 .1-.1.2-.1.5-.1 1-.1 1.5.1s.1 0 .1.1c.1 0 .1.1.2.1l.1.1 3.6 2.6c.6.5 1.4.5 2 .2.1 0 .1-.1.2-.1.1-.1.2-.2.3-.3l3.3-4.6c.4-.6 1.3-.8 2.1-.4.1 0 .2.1.3.1s.1.1.2.1c.1.1.2.1.3.2.1.1.3.2.4.3s.3.2.4.3.3.2.4.3.3.2.4.3.3.2.4.3.3.2.4.3l.3.3.2.2c.1.1.2.2.2.2.2.3.4.6.5.9v.3.3.1c0 .1-.1.3-.2.4l-3.3 4.6s-.1.1-.1.1c-.4.7-.1 1.7.6 2.3l3.2 2.3.6.4s.1.1.1.1c.7.6.9 1.6.5 2.3-2.7 3.8-7.9 4.9-12.6 3.3-.5-.2-.9-.4-1.4-.6-.1 0-.2-.1-.3-.1s-.1-.1-.2-.1c-.1-.1-.2-.1-.3-.2-.2-.1-.3-.2-.4-.3s-.3-.2-.4-.3-.3-.2-.4-.3-.3-.2-.4-.3-.3-.2-.4-.3-.3-.2-.4-.3c-.1-.1-.2-.2-.3-.3l-.2-.2c-.1-.1-.2-.2-.2-.2-.3-.4-.7-.7-1-1.1-3.1-4-3.6-9.2-.8-13h-.1c-.1 0 0 0 0 0z" fill="#a2bbee"/><path d="m115.3 199c-.3.8.1-.3 0 0-.2.3-.2.7-.2 1 .1.3.2.7.5.9.1.1.2.2.3.3l.6.4 1.2.9 1.4 1c-3.2 1.4-6.2.1-6.7-.3-.8-.5 2.9-4.2 2.9-4.2z" fill="#0050d2" opacity=".5"/><path d="m103 191.9.5.4 1.4 1 1.4 1 .4.3c.2.2.5.3.8.3.4.1.8 0 1.2-.1-.8 1.4-2.1 4.3-2.6 3.9-.7-.5-3.9-3.4-3.1-6.8z" fill="#0050d2" opacity=".5"/><path d="m112.6 203.1 3.9-1.4 1.2.9c0-.1-2.2.8-5.1.5z" fill="#0050d2" opacity=".5"/><path d="m112.8 202.6 2.4-2.6c.1.3.2.7.5.9z" fill="#0050d2" opacity=".5"/><path d="m106.2 194.2.4.3c.2.2.5.3.8.3l-1.2 2.6z" fill="#0050d2" opacity=".5"/><path d="m103.5 192.2 1.4 1 .9 4.3c-.2-.2-2.2-3.2-2.3-5.3z" fill="#0050d2" opacity=".5"/><path d="m185.9 285.9-.7 4.4v.2c-.2.9-1 1.6-1.8 1.4-4.3-.6-7.6-4.2-8.5-8.7 1.4 3.7 4.3 6.4 8 7 .8.1 1.6-.5 1.8-1.4 0 0 0-.1 0-.2l.1-.7.3-1.7.1-.9z" fill="#002cb1"/><path d="m184.8 287.9-.1.7v.2c-.2.9-1 1.6-1.8 1.4-3.7-.6-6.7-3.3-8-7 0 0 0 0 0-.1-.3-.8-.5-1.7-.7-2.7-.1-.5-.1-1-.1-1.5 0-.1 0-.2 0-.3s0-.1 0-.2 0-.3 0-.4c0-.2 0-.3 0-.5s0-.3.1-.5c0-.2 0-.3.1-.5 0-.1 0-.2 0-.4l.7.6 7 5.8c.1 1.4.7 3.7 2.8 5.4z" fill="#a2bbee"/><path d="m185.1 286.2-.3 1.7c-2.1-1.7-2.7-4-2.8-5.3l.9.8c1 1.8 2.2 2.8 2.2 2.8z" fill="#a2bbee" opacity=".5"/><path d="m185.3 285.4-.1.9s-1.2-1-2.1-2.8z" fill="#a2bbee" opacity=".5"/><g fill="#0037d2"><circle cx="146.7" cy="186.2" r="12.1"/><path d="m142.5 188 11.6-1.3c0-.4 0-.8 0-1.3s-.1-.9-.3-1.3l-10.2 1.2z"/><path d="m141.1 191.2c.4.5 1 1 1.5 1.3l9.4-1.1c.8-.8 1.3-1.7 1.7-2.8l-12.2 1.4z"/><path d="m153 182.2c-.6-1-1.4-1.8-2.3-2.4l-9.4 1.1c-1.5 1.6-2.3 3.8-2 6.1.1.8.3 1.5.6 2.2l2.4-5.8z"/><circle cx="147.7" cy="323.4" r="12.1"/><path d="m143.3 324.7h11.7c0-.4.1-.8.1-1.3s0-.9-.1-1.3h-10.2z"/><path d="m141.6 327.8c.4.6.8 1.1 1.3 1.5h9.5c.8-.7 1.5-1.6 2-2.6h-12.2z"/><path d="m154.5 320.3c-.5-1-1.2-1.9-2-2.6h-9.5c-1.6 1.4-2.7 3.5-2.7 5.8 0 .8.1 1.5.3 2.2l3.1-5.4z"/><circle cx="72.8" cy="260.8" r="12.1"/><path d="m68.2 261.2 11.5 2.3c.1-.4.3-.8.4-1.3s.1-.9.1-1.3l-10-2z"/><path d="m65.9 263.9c.3.6.6 1.2 1 1.7l9.3 1.9c1-.5 1.8-1.3 2.5-2.2l-12-2.4z"/><path d="m80 259c-.3-1.1-.8-2.1-1.5-2.9l-9.3-1.9c-1.9 1.1-3.3 2.9-3.8 5.2-.2.8-.2 1.5-.1 2.3l4.1-4.7z"/><path d="m142.1 271.4c-6.7 0-12.1-5.5-12.1-12.2 0-.5 0-1 .1-1.4.7-6 5.9-10.7 12.1-10.6 1.5 0 3 .3 4.3.8 1.7.6 3.1 1.6 4.4 2.9.8.9 1.5 1.8 2 2.9l-4 1.2 5.3 4.4v.2c-.2 6.6-5.5 11.8-12.1 11.8z"/><path d="m137.7 260.6h11.7c0-.4.1-.8.1-1.3s0-.9-.1-1.3h-10.2z"/><path d="m136 263.6c.4.6.8 1.1 1.3 1.5h9.5c.8-.7 1.5-1.6 2-2.6h-12.2z"/><path d="m148.9 256.1c-.5-1-1.2-1.9-2-2.6h-9.5c-1.6 1.4-2.7 3.5-2.7 5.8 0 .8.1 1.5.3 2.2l3.1-5.4z"/></g><text fill="#fff" font-family="'DINPro-Bold'" font-size="10.02" transform="matrix(.4099 .9121 -.9121 .4099 67.9392 228.1455)">8</text><text fill="#fff" font-family="'DINPro-Bold'" font-size="10.02" transform="matrix(-.306 .952 -.952 -.306 158.5115 290.6035)">8</text><text fill="#fff" font-family="'DINPro-Bold'" font-size="10.02" transform="matrix(.8897 .4566 -.4566 .8897 205.2906 210.7212)">8</text><text fill="#fff" font-family="'DINPro-Bold'" font-size="10.02" transform="matrix(.7872 -.6167 .6167 .7872 135.1185 210.4495)">8</text><circle cx="146.8" cy="185.1" fill="#fff" r="12.1"/><path d="m142.6 186.9 11.6-1.3c0-.4 0-.8 0-1.3s-.1-.9-.3-1.3l-10.2 1.2z" fill="#0050d2"/><path d="m141.2 190.1c.4.5 1 1 1.5 1.3l9.4-1.1c.8-.8 1.3-1.7 1.7-2.8l-12.2 1.4z" fill="#0050d2"/><path d="m153.1 181.2c-.6-1-1.4-1.8-2.3-2.4l-9.4 1.1c-1.5 1.6-2.3 3.8-2 6.1.1.8.3 1.5.6 2.2l2.4-5.8z" fill="#0050d2"/><path d="m220.9 231.8-.9.3-7.1 2.2-3.1-1.1c-1.6.6-3 1.7-4 3.3l-5.4 1.6-.2.1c.1-.7.3-1.4.6-2.1 2.3-6.3 9.3-9.5 15.6-7.1 1.8.5 3.3 1.5 4.5 2.8z" fill="#fff"/><path d="m212.8 234.2-1.6.5-4.4 1.3-1 .3c.9-1.6 2.4-2.7 4-3.3z" fill="#0050d2"/><circle cx="147.8" cy="322.4" fill="#fff" r="12.1"/><path d="m143.4 323.6h11.7c0-.4.1-.8.1-1.3s0-.9-.1-1.3h-10.2z" fill="#0050d2"/><path d="m141.7 326.7c.4.6.8 1.1 1.3 1.5h9.5c.8-.7 1.5-1.6 2-2.6h-12.2z" fill="#0050d2"/><path d="m154.5 319.2c-.5-1-1.2-1.9-2-2.6h-9.5c-1.6 1.4-2.7 3.5-2.7 5.8 0 .8.1 1.5.3 2.2l3.1-5.4z" fill="#0050d2"/><circle cx="72.8" cy="259.7" fill="#fff" r="12.1"/><path d="m68.3 260.2 11.5 2.3c.1-.4.3-.8.4-1.3s.1-.9.1-1.3l-10-2z" fill="#0050d2"/><path d="m66 262.8c.3.6.6 1.2 1 1.7l9.3 1.9c1-.5 1.8-1.3 2.5-2.2l-12-2.4z" fill="#0050d2"/><path d="m80.1 257.9c-.3-1.1-.8-2.1-1.5-2.9l-9.3-1.9c-1.9 1.1-3.3 2.9-3.8 5.2-.2.8-.2 1.5-.1 2.3l4.1-4.7z" fill="#0050d2"/><path d="m154.3 259.4v.2c-.7 6-5.8 10.7-12.1 10.7-6.7 0-12.1-5.5-12.1-12.2 0-.1 0-.2 0-.4.2-6.5 5.6-11.7 12.2-11.7 1.3 0 2.6.2 3.8.6 2 .7 3.8 1.8 5.2 3.4.9 1 1.7 2.2 2.2 3.5l-.5.2-4 1.2z" fill="#fff"/><path d="m137.8 259.5h11.7c0-.4.1-.8.1-1.3s0-.9-.1-1.3h-10.2z" fill="#0050d2"/><path d="m136.1 262.5c.4.6.8 1.1 1.3 1.5h9.5c.8-.7 1.5-1.6 2-2.6h-12.2z" fill="#0050d2"/><path d="m149 255c-.5-1-1.2-1.9-2-2.6h-9.5c-1.6 1.4-2.7 3.5-2.7 5.8 0 .8.1 1.5.3 2.2l3.1-5.4z" fill="#0050d2"/><path d="m99.7 226.7-1.9-.7-8.8 10.8.4.2 2.1.7 1.5-1.9 4.4 1.5v2.5l2.4.9h.1zm-2.3 8.4-2.6-.9-.4-.2 3.1-4z" fill="#19375d"/><path d="m107.4 233.1c-1.5-.5-2.5-.5-3.7.2l.3.6.6 1.3c.7-.4 1.2-.5 2-.2 1.2.4 1.5 1 1.2 2v.1l-.2.4-2.1-.7c-2.1-.8-3.6.1-4.1 1.5-.1.4-.2.8-.2 1.2s.1.8.2 1.1c.3.7 1 1.2 2 1.6s1.7.3 2.5-.1l-.3.8h.1l2 .7 2.1-6c.1-.2.1-.4.2-.5.7-1.9-.2-3.2-2.6-4zm-.4 6.4c0 .1-.1.2-.1.3-.2.4-.4.7-.6.8-.5.2-.9.2-1.5 0s-.9-.5-1-.8c-.1-.2-.1-.4 0-.7.2-.7.8-.9 1.7-.6l1.7.6z" fill="#19375d"/><path d="m180.2 306.6-2 .3-3 13.6h.1l2.6-.3.5-2.4 4.6-.6 1.1 2.2 2.2-.3.5-.1zm1.4 8.5-2.7.4h-.1l1-5 2.2 4.5z" fill="#19375d"/><path d="m194.5 311.5c-.3-2.2-1.8-3.2-4.5-2.8-1.6.2-2.4.7-3.2 1.8l.3.3 1.4 1c.4-.7.9-1 1.7-1.1 1.3-.2 1.8.2 2 1.3l.1.5h-.2l-2 .3c-2.1.3-3 1.5-2.9 2.9v.3c.1.8.5 1.6 1.1 2 .6.5 1.5.7 2.5.5 1.1-.1 1.7-.5 2.2-1.2l.1.8 2.1-.3h.2zm-2 4.1c0 .1-.1.1-.1.2-.4.4-.8.6-1.3.6-.9.1-1.4-.2-1.6-.8v-.1c-.1-.7.3-1.2 1.3-1.3l1.8-.2.1.5c-.1.6-.1.9-.2 1.1z" fill="#19375d"/><path d="m226.2 278.5v.4c0 .2-.1.3-.2.4v.1c0 .2-.1.3-.2.4s-.3.2-.4.1c-.1 0-.2 0-.3.1s-.1.2-.2.3v.1c0 .1-.1.1-.1.2 0 .1 0 .2.1.3.2.3.2.6-.1.8h-.1c0 .2-.1.3-.2.5l-.3.3c-.1.1-.3.2-.4.1-.1 0-.3-.1-.4-.2s-.3-.2-.4-.1c-.3.1-.5.2-.8.3h-.1c0 .1-.1.2-.2.2v.1c0 .3-.3.6-.6.6h-.4c-.2 0-.3-.1-.4-.2s-.2-.3-.1-.4c0-.2-.1-.3-.2-.4-.3-.1-.6-.2-.8-.4 0 0-.1-.1-.2-.1s-.2 0-.3.1c-.3.2-.6.2-.8-.1l-.3-.3c-.1-.1-.2-.3-.1-.4 0-.2.1-.3.2-.4 0 0 0 0 .1-.1 0-.1 0-.2.1-.2v-.1c-.1-.3-.2-.6-.3-.9 0-.2-.2-.3-.3-.3-.3 0-.6-.3-.6-.6v-.4c0-.2.1-.3.2-.4h.1v-.1c0-.2.1-.3.2-.4s.3-.2.4-.1c.1 0 .2 0 .3-.1 0-.1.1-.2.1-.3s.1-.2.1-.3c0-.1 0-.2-.1-.3-.2-.3-.2-.6.1-.8h.1c0-.2.1-.3.2-.5l.3-.3c.1-.1.3-.2.4-.1.2 0 .3.1.4.2s.3.2.4.1c.3-.1.6-.2.8-.3h.1c0-.1.1-.2.2-.2 0 0 0 0 0-.1 0-.3.3-.6.6-.6h.4c.2 0 .3.1.4.2s.2.3.1.4c0 .2.1.3.2.4.3.1.5.2.8.4.1.1.3.1.4 0 .3-.2.6-.2.8.1l.3.3c.1.1.2.3.1.4 0 .1-.1.3-.2.4v.1c0 .1 0 .2-.1.2v.1c.1.3.2.5.3.8 0 .2.2.3.3.3.4.1.6.4.6.7z" fill="#0050d2"/><path d="m239.4 280.3c-.2 0-.3-.1-.3-.3-.1-.3-.2-.6-.3-.8-.1-.1 0-.3.1-.4s.1-.1.1-.2.1-.2.1-.2c0-.1 0-.3-.1-.4l-.3-.3c-.2-.3-.6-.3-.8-.1-.1.1-.2.1-.3.1s-.1 0-.2-.1c-.2-.2-.5-.3-.8-.4-.1-.1-.2-.2-.2-.4s0-.3-.1-.4-.2-.2-.4-.2h-.4c-.1 0-.3 0-.4.1s-.1.1-.2.2c0 .1-.1.1-.1.2 0 .2-.1.3-.3.3-.3.1-.6.1-.9.3-.1.1-.3 0-.4-.1s-.3-.2-.4-.2c-.2 0-.3 0-.4.1l-.3.2h-.1c-.3.2-.3.6-.1.8.1.1.1.2.1.3 0 .1 0 .1-.1.2 0 0-.1.1-.1.1-.1.1-.1.2-.1.3-.1.1-.1.3-.2.4s-.2.2-.4.2c-.1 0-.3 0-.4.1 0 0 0 0-.1 0-.1.1-.2.2-.2.4v.4c0 .3.2.6.6.6.2 0 .3.1.3.3.1.3.2.6.3.9v.1c0 .1 0 .2-.1.3 0 0 0 0-.1.1s-.2.3-.2.4 0 .3.1.4l.3.3c.2.3.6.3.8.1.1-.1.2-.1.3-.1 0 0 .1 0 .2.1.2.2.5.3.8.4.1.1.2.2.2.4s0 .3.1.4.2.2.4.2h.4c.3 0 .6-.2.6-.6v-.1c0-.1.1-.2.2-.2h.1c.3-.1.6-.1.8-.3.1-.1.3 0 .4.1s.3.2.4.2.3 0 .4-.1l.3-.3c.1-.1.2-.3.2-.5 0-.1 0-.3-.1-.4s-.1-.2-.1-.3 0-.1.1-.2.1-.2.2-.4c0-.1.1-.1.1-.2 0 0 0 0 0-.1s.1-.1.1-.2.1-.1.1-.1c.1-.1.2-.1.3-.1.2 0 .3 0 .4-.1s.2-.2.2-.4v-.4c.5-.1.2-.4-.1-.4zm-4.3 2.6c-1.2-.1-2.1-1.1-2-2.3 0-.4.2-.8.4-1.1.4-.6 1.2-1 1.9-.9 1.2.1 2.1 1.1 2 2.3 0 .2-.1.4-.1.6-.3.9-1.2 1.5-2.2 1.4z" fill="#002cb1"/><path d="m239.7 279.7c-.2 0-.3-.1-.3-.3-.1-.3-.1-.6-.3-.8v-.1c0-.1 0-.2.1-.3 0 0 0 0 0-.1.1-.1.2-.3.2-.4 0-.2 0-.3-.1-.4l-.3-.3c-.2-.3-.6-.3-.8-.1-.1.1-.3.1-.4 0-.2-.2-.5-.3-.8-.4-.1-.1-.2-.2-.2-.4s0-.3-.1-.4-.2-.2-.4-.2h-.4c-.3 0-.6.2-.6.6v.1c0 .1-.1.2-.2.2h-.1c-.3.1-.6.2-.8.3-.1.1-.3 0-.4-.1s-.3-.2-.4-.2-.3 0-.4.1l-.3.3c-.1.1-.2.3-.2.5 0 .1.1.3.1.4.1.1.1.2.1.3s0 .1-.1.2-.1.2-.2.3c0 .1-.1.2-.1.3 0 0 0 .1-.1.1 0 0-.1.1-.1.1-.1.1-.2.1-.3.1-.2 0-.3 0-.4.1s-.2.3-.2.4v.4c0 .3.2.6.6.6.1 0 .3.1.3.3.1.3.1.6.3.9.1.1 0 .3-.1.4s-.1.1-.1.2-.1.2-.1.2c0 .1 0 .3.1.4l.3.3c.2.3.6.3.8.1.1-.1.2-.1.3-.1s.1 0 .2.1c.2.2.5.3.8.4.2.1.2.2.2.4s0 .3.1.4.2.2.4.2h.4c.1 0 .3 0 .4-.1l.2-.2c0-.1.1-.1.1-.2 0-.2.1-.3.3-.3.3-.1.6-.2.8-.3.1-.1.3 0 .4.1.2.3.6.3.8.1l.2-.2h.1c.3-.2.3-.6.1-.8-.1-.1-.1-.2-.1-.3s0-.1.1-.2 0 0 0-.1c.1-.1.1-.2.2-.3s.1-.3.2-.4.2-.2.4-.2c.1 0 .3 0 .4-.1.1-.1.2-.3.2-.4v-.4c-.3-.4-.5-.7-.8-.8zm-2.4 1.8c-.4.6-1.1 1-1.9.9-1.2-.1-2.1-1.1-2-2.3 0-.2.1-.4.1-.6.3-.9 1.2-1.5 2.2-1.4 1.2.1 2.1 1.1 2 2.3 0 .4-.2.8-.4 1.1z" fill="#19375d"/><path d="m237.4 280.9c0 .2-.1.4-.1.6-.4.6-1.1 1-1.9.9-1.2-.1-2.1-1.1-2-2.3 0-.2.1-.4.1-.6.4-.6 1.2-1 1.9-.9 1.3.1 2.1 1.1 2 2.3z" fill="#0050d2"/><path d="m217.3 283.9v.5c0 .2 0 .3-.1.5 0 .2-.1.3-.1.5s-.1.3-.1.5-.1.3-.1.5c0 .1-.1.2-.1.4 0 .1 0 .1-.1.2 0 .1-.1.2-.1.3-.1.3-.3.6-.6.8-.1.1-.2.1-.3.2s-.2.1-.3.1c0 0-.1 0-.2 0s-.3 0-.5 0l-5.6-.8c-.9-.1-1.7.6-1.9 1.6v.1l-.7-.6-2.3-1.9-.9-.8-7-5.8c0-.1.1-.3.1-.4s0-.1.1-.2c0-.1.1-.2.1-.3.2-.5.3-.9.5-1.4 2.1-4.6 6.6-7.4 11.2-6.7h.1c.1 0 .1 0 .2.1 0 0 .1 0 .1.1 0 0 .1.1.1.1.1 0 .1.1.2.1.3.3.5.8.5 1.4v.1.2l-.7 4.5v.1.1c-.1.8.3 1.5.9 1.8.1.1.3.1.4.1l5.6.8c.3.1.6.2.9.5s.5.7.5 1.2v.3.2.4c.2.3.2.5.2.6z" fill="#002cb1"/><path d="m216.8 282.2v.5c0 .2 0 .3-.1.5 0 .2 0 .3-.1.5 0 .2-.1.3-.1.5s-.1.3-.1.5l-.1.4c0 .1 0 .1-.1.2 0 .1-.1.2-.1.3-.1.3-.3.6-.6.8-.1.1-.2.1-.3.2-.1 0-.2.1-.3.1s-.1 0-.1 0c-.2 0-.3 0-.5 0l-5.6-.8s-.1 0-.2 0-.2 0-.3 0 0 0-.1 0h-.1c-.1 0-.1 0-.2.1h-.1c-.1 0-.1.1-.1.1s-.1.1-.1.1-.1.1-.1.1-.1.1-.1.1-.1.1-.1.1c0 .1-.1.1-.1.2 0 0 0 .1-.1.1 0 .1-.1.1-.1.2s0 .1-.1.2l-.1.7-.1.6-2.3-1.9-.9-.8-7-5.8-.7-.6v-.1c0-.2.1-.3.1-.5s.1-.3.1-.5c0-.1.1-.3.1-.4l.1-.2c0-.1.1-.2.1-.3.2-.5.3-.9.5-1.4 2.1-4.6 6.6-7.4 11.2-6.7h.1c.1 0 .1.1.2.1 0 0 .1 0 .1.1 0 0 .1 0 .1.1.1 0 .1.1.2.1.3.3.5.8.5 1.4v.3.1.1l-.1.6-.2 1.7-.1.4-.3 1.7v.5c0 .1 0 .2.1.3 0 .1 0 .2.1.2 0 0 0 .1.1.1.1.1.1.2.2.4 0 0 .1.1.1.1l.2.2s.1.1.2.1c.1.1.3.1.4.1l5.6.8c.7.1 1.3.8 1.3 1.6v.3.2.4c.1.6.1.7.1.9z" fill="#a2bbee"/><path d="m208.6 286c-.1 0-.2 0-.3 0s0 0-.1 0c0 0 0 0-.1 0h-.1c-.1 0-.1 0-.2.1h-.1c-.1 0-.1.1-.1.1s-.1.1-.1.1c-.1.1-.1.1-.2.2v.1s-.1.1-.1.1c-.1.1-.1.2-.1.2s0 .1-.1.1c0 .1-.1.1-.1.2s0 .1-.1.2l-.1.7-.1.6-2.3-1.9-.9-.8c0-.4 0-.7 0-.8.2-.7 4.5.6 5.2.8 0 0 .1 0 0 0z" fill="#0050d2" opacity=".5"/><path d="m209.3 278c-.1 0-.2 0-.2 0-1.7 0-4.5.1-4.4-.5.1-.7 1.2-4.8 4.6-5.7l-.1.6-.2 1.7-.1.4-.2 1.3-.1.4v.5c0 .1 0 .2.1.3 0 .1 0 .2.1.2 0 0 0 .1.1.1.1.1.1.2.2.4 0 0 .1.1.1.1 0 .1.1.1.1.2z" fill="#0050d2" opacity=".5"/><path d="m206.8 288.3-.1.6-2.3-1.9c-.2-.4-.5-.9-.7-1.5z" fill="#0050d2" opacity=".5"/><path d="m204.3 285.4 3.4.9c-.3.2-.5.5-.6.9z" fill="#0050d2" opacity=".5"/><path d="m238 248.9c.1-3.7-1.4-7.2-4.2-9.6l-7.1 2.2-1.7.5-4.4 1.3-1 .3-5.4 1.6c-.2.6-.3 1.2-.4 1.8-.7 5.4 2.4 10.8 7.8 12.8 6.3 2.3 13.2-.9 15.6-7.1.6-1.2.8-2.5.8-3.8z" fill="#0037d2"/><path d="m221.4 248.2 11 4.1c.2-.4.4-.7.6-1.2s.3-.8.3-1.3l-9.6-3.6z" fill="#0037d2"/><path d="m218.7 250.5c.2.7.4 1.3.7 1.9l8.9 3.3c1-.4 2-.9 2.8-1.7l-11.5-4.3z" fill="#0037d2"/><path d="m233.4 247.9-10.1-3.8-4.8 4c0-.4.1-.8.2-1.2.1-.3.2-.7.3-1.1.4-1 .9-1.9 1.6-2.6l4.4-1.3 7.4 2.7c.4.6.6 1.3.8 2 .1.5.1.9.2 1.3z" fill="#0037d2"/><path d="m234.8 239.1-.9.3-7.1 2.2-1.8.4-4.4 1.3-1 .3-5.4 1.6-.2.1c-.1.6-.2 1.2-.2 1.8-.2 5.1 2.9 9.9 7.9 11.8 6.3 2.3 13.2-.9 15.6-7.1.3-.9.6-1.8.7-2.8.5-3.7-.7-7.4-3.2-9.9z" fill="#fff"/><path d="m221.5 247.1 11 4.1c.2-.4.4-.7.6-1.2.2-.4.3-.8.3-1.3l-9.6-3.6z" fill="#0050d2"/><path d="m218.8 249.4c.2.7.4 1.3.7 1.9l8.9 3.3c1-.4 2-.9 2.8-1.7l-11.5-4.3z" fill="#0050d2"/><path d="m261.9 230.8-27.1 8.2c2.5 2.6 3.7 6.2 3.3 9.9 0 1.3-.3 2.6-.8 3.8-2.3 6.3-9.3 9.5-15.6 7.1-5.4-2-8.5-7.4-7.8-12.8 0-.6.1-1.2.2-1.8l-39.2 11.9-.5.2-4 1.2 5.3 4.4 20.1 16.8v-.1c0-.2.1-.3.1-.5s.1-.3.1-.5c0-.1.1-.3.1-.4l.1-.2c0-.1.1-.2.1-.3.2-.5.3-.9.5-1.4 2.1-4.6 6.6-7.4 11.2-6.7h.1c.1 0 .1.1.2.1 0 0 .1 0 .1.1 0 0 .1 0 .1.1.1 0 .1.1.2.1.3.3.5.8.5 1.4v.3.1c.3.3.5.8.5 1.4v.1.2l-.7 4.5c.1.1.1.1.2.2s.1.1.2.1c.1.1.3.1.4.1l5.6.8c.7.1 1.3.8 1.3 1.6v.3.2c.3.3.5.7.5 1.2v.3.2.4.5.5c0 .2 0 .3-.1.5 0 .2-.1.3-.1.5s-.1.3-.1.5-.1.3-.1.5c0 .1-.1.2-.1.4 0 .1 0 .1-.1.2 0 .1-.1.2-.1.3-.1.3-.3.6-.6.8-.1.1-.2.1-.3.2s-.2.1-.3.1c0 0-.1 0-.2 0s-.3 0-.5 0l-5.6-.8c-.9-.1-1.7.6-1.9 1.6v.1l32.4 27.1c9.8-11.2 17.1-24.8 20.9-40.2 4.6-17.1 4.9-32.2 1.5-45.4zm-21.7 50c0 .2-.1.3-.2.4v.1c0 .2-.1.3-.2.4s-.3.2-.4.1c-.1 0-.2 0-.3.1s-.1.2-.2.3v.1c0 .1-.1.1-.1.2 0 .1 0 .2.1.3.2.3.2.6-.1.8h-.1c0 .2-.1.3-.2.5l-.3.3c-.1.1-.3.2-.4.1-.1 0-.3-.1-.4-.2s-.3-.2-.4-.1c-.3.1-.5.2-.8.3h-.1c0 .1-.1.2-.2.2v.1c0 .3-.3.6-.6.6h-.4c-.2 0-.3-.1-.4-.2s-.2-.3-.1-.4c0-.2-.1-.3-.2-.4-.3-.1-.6-.2-.8-.4 0 0-.1-.1-.2-.1s-.2 0-.3.1c-.3.2-.6.2-.8-.1l-.3-.3c-.1-.1-.2-.3-.1-.4 0-.2.1-.3.2-.4 0 0 0 0 .1-.1 0-.1 0-.2.1-.2v-.1c-.1-.3-.2-.6-.3-.9 0-.2-.2-.3-.3-.3-.3 0-.6-.3-.6-.6v-.4c0-.2.1-.3.2-.4h.1v-.1c0-.2.1-.3.2-.4s.3-.2.4-.1c.1 0 .2 0 .3-.1 0-.1.1-.2.1-.3s.1-.2.1-.3c0-.1 0-.2-.1-.3-.2-.3-.2-.6.1-.8h.1c0-.2.1-.3.2-.5l.3-.3c.1-.1.3-.2.4-.1.2 0 .3.1.4.2s.3.2.4.1c.3-.1.6-.2.8-.3h.1c0-.1.1-.2.2-.2 0 0 0 0 0-.1 0-.3.3-.6.6-.6h.4c.2 0 .3.1.4.2s.2.3.1.4c0 .2.1.3.2.4.3.1.5.2.8.4.1.1.3.1.4 0 .3-.2.6-.2.8.1l.3.3c.1.1.2.3.1.4 0 .1-.1.3-.2.4v.1c0 .1 0 .2-.1.2v.1c.1.3.2.5.3.8 0 .2.2.3.3.3.3 0 .6.3.6.6z" fill="#0050d2"/><path d="m264 277.7c-3.9 15.8-11.4 29.8-21.3 41.3l-2.9-2.4c9.8-11.2 17.1-24.8 20.9-40.2 4.3-17.3 4.6-32.4 1.2-45.5l3.2-1c3.7 13.8 3.5 29.6-1.1 47.8z" fill="#0037d2"/><path d="m277.8 280c-4.5 18.3-13.2 34.4-24.8 47.6l-10.3-8.6c10-11.5 17.4-25.5 21.3-41.3 4.5-18.3 4.7-34.1 1-47.8 0 0 5.8-3.3 7.3-3.7 2.2-.5 6.7-.5 6.7-.5 4.2 15.6 4 33.6-1.2 54.3z" fill="#a2bbee"/><path d="m284.5 265.9c-.7 5.1-1.7 10.3-3 15.7-2.9 11.9-7.6 22.9-13.6 32.8l-11.5 15.9-3.2-2.7c11.6-13.2 20.3-29.4 24.8-47.6 5.1-20.7 5.4-38.7 1.2-54.4l3.1-.9c3.4 12.3 4.3 25.9 2.2 41.2z" fill="#8eb0f5"/><path d="m188.6 168.9-1.2 2.5c-2.3-1.2-4.8-2.3-7.2-3.4-20.7-9.3-43.1-10.2-63.4-4.8l-1-2.7c21-5.6 44.1-4.6 65.5 5 2.6 1.1 5 2.2 7.3 3.4z" fill="#0037d2"/><path d="m194.4 156.2-5.8 12.7c-2.3-1.1-4.7-2.3-7.2-3.4-21.4-9.6-44.5-10.6-65.5-5l-4.7-13.5c24.1-6.6 50.7-5.5 75.4 5.5 2.6 1.2 5.3 2.4 7.8 3.7z" fill="#a2bbee"/><path d="m200.2 238 .4 1.4 20.4-6.2-.1-1.4z" fill="#a2bbee"/><path d="m208.6 275.4-.1.5v.8l-2.9.2z" fill="#0050d2" opacity=".5"/><path d="m209.1 272.1-.3 1.7-3.4 2.8c.1-.3 2-3.4 3.7-4.5z" fill="#0050d2" opacity=".5"/><path d="m233.5 246.8-.3-.1-9.9-3.7-4.7 4-.1.1c.1-.7.2-1.5.5-2.2.2-.4.4-.8.6-1.2l1-.3 4.4-1.3 1.6-.5 5.8 2.2c.6.8 1 1.9 1.1 3z" fill="#0050d2"/><path d="m260.7 221.2-.1 2-109.2 33.9-2.4-2.1z" fill="#c7d6f5"/><path d="m243.7 226.4s-5.3 4-7.8 3.6c-2.5-.5-38.7 11.2-43.2 11.8s-39.3 13.6-41.5 13.4-2.2-.2-2.2-.2z" fill="#0050d2"/><path d="m170.4 258.5-.2 1.9 84 70.9 2.1-.9z" fill="#a2bbee"/><path d="m277.2 216.9c-2.1.1-2.9 2.6-3.9 2.5s.1-1.6.2-2.8 1-2.1 2-2.1c1.1.2 2.9 2.4 1.7 2.4z" fill="#a2bbee"/><path d="m284.7 215.4c0 .5-.8.8-1.7.7s-1.5-1-1.5-1 .8-.8 1.7-.7c.8.1 1.5.5 1.5 1z" fill="#a2bbee"/><circle cx="278" cy="211.6" fill="#a2bbee" r=".5"/><path d="m282.1 330.4c-.4.3-1.1 0-1.7-.6-.6-.7-.4-1.8-.4-1.8s1.1 0 1.7.6.7 1.5.4 1.8z" fill="#a2bbee"/><circle cx="277.8" cy="317.6" fill="#a2bbee" r=".5"/><ellipse cx="267.2" cy="225.7" fill="#a2bbee" rx=".3" ry=".5" transform="matrix(.08114831 -.9967 .9967 .08114831 20.5305 473.7418)"/><path d="m243.7 226.4s4.2-3.9 8-4.7c3.8-.9 9.1-.4 9.1-.4l-.2 2-17.1 5.3z" fill="#c7d6f5"/><path d="m181 148.8-2.1-.7s-1 .7-2.3 5.1c-1.3 4-1.4 9.9-1.4 9.9l-.7 2.7-7.6 30.1-17.9 59.1 22.8-90.3.7-2.7s.2-5.9 1.4-9.9c1.4-4.3 2.3-5.1 2.3-5.1z" fill="#c7d6f5"/><path d="m181 148.8-.4 1.3-4.1 13.4-.8 2.7-8.9 29.6 7.6-30.1.7-2.7s.2-5.9 1.4-9.9c1.4-4.3 2.3-5.1 2.3-5.1z" fill="#fff"/><path d="m260.6 223.2-.2 2.3-107.4 32.7-1.6-1.1z" fill="#a2bbee" opacity=".2"/><path d="m131.7 192.9c-9.5-.8-17.8 6.3-18.6 15.8s6.3 17.8 15.8 18.6 17.8-6.3 18.6-15.8c.7-9.5-6.4-17.8-15.8-18.6zm-2.5 33.6c-8.6-.7-15-8.5-14.3-17.4s8.3-15.6 16.9-14.9 15 8.5 14.3 17.4-8.2 15.6-16.9 14.9z" fill="#f0f5fb"/><path d="m105.7 256.8c-9.5-.8-17.8 6.3-18.6 15.8s6.3 17.8 15.8 18.6 17.8-6.3 18.6-15.8-6.3-17.8-15.8-18.6zm-2.4 33.6c-8.6-.7-15-8.5-14.3-17.4s8.3-15.6 16.9-14.9 15 8.5 14.3 17.4c-.7 9-8.3 15.6-16.9 14.9z" fill="#f0f5fb"/><path d="m239.2 261.7c-9.5-.8-17.8 6.3-18.6 15.8s6.3 17.8 15.8 18.6 17.8-6.3 18.6-15.8-6.3-17.8-15.8-18.6zm-2.4 33.6c-8.6-.7-15-8.5-14.3-17.4s8.3-15.6 16.9-14.9 15 8.5 14.3 17.4c-.7 9-8.3 15.6-16.9 14.9z" fill="#f0f5fb"/><path d="m263.2 244.2v.1c0 .1-.1.1-.1.2 0 0 0 .1-.1.1 0 0-.1.1-.1.1 0 .1-.1.1-.2.2-.4.3-.9.5-1.5.4h-.1c-.1 0-.1 0-.2 0l-4.6-1.2c-.9-.2-1.7.1-2.1.7-.1.1-.1.3-.2.4l-1.4 5.6c-.2.7-.9 1.3-1.8 1.2-.1 0-.2 0-.4 0-.1 0-.2 0-.2 0-.1 0-.3 0-.4-.1-.2 0-.3 0-.5-.1-.2 0-.3-.1-.5-.1s-.3-.1-.5-.1-.3-.1-.5-.1-.3-.1-.5-.2-.3-.1-.5-.2c-.1 0-.2-.1-.4-.1-.1 0-.1-.1-.2-.1s-.2-.1-.3-.1c-.3-.2-.6-.4-.8-.7-.1-.1-.1-.2-.2-.3 0-.1-.1-.2-.1-.3s0-.1 0-.2c0-.2 0-.3 0-.5l1.4-5.6c.2-.9-.4-1.8-1.5-2.1l-4.6-1.2c-.1 0-.1 0-.2 0-.9-.3-1.5-1.2-1.3-2 1.2-4.7 5.6-7.8 10.8-8h1.5.3.2c.1 0 .3 0 .4.1.2 0 .3 0 .5.1.2 0 .3.1.5.1s.3.1.5.1.3.1.5.1.3.1.5.2.3.1.5.2c.1 0 .3.1.4.1s.1.1.2.1.2.1.3.1c.5.2.9.4 1.3.7 4.9 2.8 7.4 7.7 6.2 12.4z" fill="#002cb1"/><path d="m263.8 242.6c0 .1-.1.1-.1.2 0 0 0 .1-.1.1 0 0-.1.1-.1.1 0 .1-.1.1-.2.2-.4.3-.9.5-1.5.4h-.1c-.1 0-.1 0-.2 0h-.2l-4.5-1.1c-.8-.2-1.5 0-2 .6s-.1.1-.1.2c-.1.1-.1.3-.2.4l-1.4 5.6c-.2.8-.9 1.3-1.8 1.2-.1 0-.2 0-.4 0-.1 0-.2 0-.2 0-.1 0-.3 0-.4-.1-.2 0-.3 0-.5-.1-.2 0-.3-.1-.5-.1s-.3-.1-.5-.1-.3-.1-.5-.1-.3-.1-.5-.1c-.2-.1-.3-.1-.5-.2l-.4-.2c-.1 0-.1-.1-.2-.1s-.2-.1-.3-.1c-.3-.2-.6-.4-.8-.7-.1-.1-.1-.2-.2-.3 0-.1-.1-.2-.1-.3s0-.1 0-.2c0-.2 0-.3 0-.5l1.4-5.6c0-.1 0-.1 0-.1.1-.8-.5-1.7-1.5-1.9l-3.9-1-.7-.2c-.1 0-.1 0-.2 0-.9-.3-1.5-1.2-1.3-2 1.2-4.7 5.6-7.8 10.8-8h1.5.3.2.4c.2 0 .3 0 .5.1.2 0 .3.1.5.1s.4.1.5.1c.2 0 .3.1.5.1s.3.1.5.2.3.1.5.2c.1 0 .3.1.4.1l.2.1c.1.1.2.1.3.1.5.2.9.4 1.4.7 4.5 2.6 7 7.5 5.8 12.2.4 0 .4 0 .4.1z" fill="#a2bbee"/><path d="m246.9 241.5c0-.9 0 .2 0 0 .1-.4 0-.7-.2-1s-.5-.6-.8-.7c-.1-.1-.3-.1-.4-.2l-.7-.2-1.5-.4-1.7-.4c2.6-2.6 5.9-2.5 6.5-2.3.9.2-1.2 5.2-1.2 5.2z" fill="#0050d2" opacity=".5"/><path d="m261.5 243.5-.6-.2-1.7-.4-1.7-.4-.5-.1c-.3-.1-.6-.1-.9 0-.4.1-.8.3-1.1.6.2-1.7.3-4.9 1-4.7.7.1 4.8 1.6 5.5 5.2z" fill="#0050d2" opacity=".5"/><path d="m247.8 236.5-3.2 2.9-1.5-.4c.1 0 1.8-1.7 4.7-2.5z" fill="#0050d2" opacity=".5"/><path d="m247.9 237-1.3 3.4c-.2-.3-.5-.6-.8-.7z" fill="#0050d2" opacity=".5"/><path d="m257.4 242.5-.5-.1c-.3-.1-.6-.1-.9 0l.1-3z" fill="#0050d2" opacity=".5"/><path d="m260.8 243.4-1.7-.4-2.5-3.8c.2.1 3.3 2.3 4.2 4.2z" fill="#0050d2" opacity=".5"/><path d="m275.3 199.5c-.2 0-.3-.1-.3-.3-.1-.3-.2-.6-.3-.8-.1-.1 0-.3.1-.4s.1-.1.1-.2.1-.2.1-.2c0-.1 0-.3-.1-.4l-.3-.3c-.2-.3-.6-.3-.8-.1-.1.1-.3.1-.4 0-.2-.2-.5-.3-.8-.4-.2-.1-.2-.2-.2-.4s0-.3-.1-.4-.2-.2-.4-.2h-.4c-.1 0-.3 0-.4.1s-.1.1-.2.2c0 .1-.1.1-.1.2 0 .2-.1.3-.3.3-.3.1-.6.1-.8.3-.1.1-.3 0-.4-.1s-.3-.2-.4-.2-.3 0-.4.1l-.3.3c-.3.2-.3.6-.1.8.1.1.1.2.1.3 0 .1 0 .1-.1.2 0 0 0 .1-.1.1v.1c-.1.1-.1.1-.1.2-.1.1-.1.3-.2.4s-.2.2-.4.2c-.1 0-.3 0-.4.1-.1.1-.2.2-.2.4v.4c0 .3.2.6.6.6.1 0 .3.1.3.3.1.3.1.6.3.9v.1c0 .1 0 .2-.1.3v.1c-.1.1-.2.3-.2.4s0 .3.1.4l.3.3c.2.3.6.3.8.1.1-.1.2-.1.3-.1s.1 0 .2.1c.2.2.5.3.8.4.2.1.2.2.2.4s0 .3.1.4.2.2.4.2h.4c.3 0 .6-.2.6-.6 0 0 0 0 0-.1s.1-.2.2-.2h.1c.3-.1.6-.1.8-.3.1-.1.3 0 .4.1.2.3.6.3.8.1l.3-.3s.1-.1.1-.1c.1-.1.1-.2.1-.4 0-.1 0-.3-.1-.4s-.1-.2-.1-.3 0-.1.1-.2.1-.2.2-.4c0-.1.1-.2.1-.3s.1-.1.1-.2.1-.1.1-.1c.1-.1.2-.1.3-.1.2 0 .3 0 .4-.1s.2-.2.2-.4v-.4c0-.2-.2-.5-.6-.5zm-4.2 2.6c-1.2-.1-2.1-1.1-2-2.3 0-.4.2-.8.4-1.1.4-.6 1.2-1 1.9-.9.6 0 1.1.3 1.4.7.4.4.6 1 .6 1.6 0 .2-.1.4-.1.5-.4 1-1.2 1.6-2.2 1.5z" fill="#002cb1"/><path d="m275.6 199c-.2 0-.3-.1-.3-.3-.1-.3-.2-.6-.3-.8v-.1c0-.1 0-.2.1-.3 0 0 0 0 .1-.1s.2-.3.2-.4c0-.2 0-.3-.1-.4l-.3-.3c-.2-.3-.6-.3-.8-.1-.1.1-.2.1-.3.1s-.1 0-.2-.1c-.2-.2-.5-.3-.8-.4-.1-.1-.2-.2-.2-.4s0-.3-.1-.4-.2-.2-.4-.2h-.4c-.1 0-.1 0-.2 0-.3 0-.5.3-.5.5v.1c0 .1-.1.2-.2.2h-.1c-.3.1-.6.1-.8.3-.1.1-.3 0-.4-.1s-.3-.2-.4-.2c-.2 0-.3 0-.4.1l-.3.3c-.1.1-.2.3-.2.5 0 .1.1.3.1.4.1.1.1.2.1.3s0 .1-.1.2-.1.2-.2.3c0 .1-.1.2-.1.3v.1.1s0 .1-.1.1c-.1.1-.2.1-.3.1-.2 0-.3 0-.4.1s-.2.3-.2.4v.4c0 .3.2.6.6.6.2 0 .3.1.3.3.1.3.2.6.3.9.1.1 0 .3-.1.4-.1 0-.1.1-.1.2s-.1.2-.1.2c0 .1 0 .3.2.4l.3.3c.2.3.6.3.8.1.1-.1.2-.1.3-.1 0 0 .1 0 .2.1.2.2.5.3.8.4.1.1.2.2.2.4s0 .3.1.4.2.2.4.2h.4c.1 0 .3 0 .4-.1s.1-.1.2-.2c0-.1.1-.1.1-.2 0-.2.1-.3.3-.3.3-.1.6-.2.8-.3.1-.1.3 0 .4.1s.3.2.4.2.3 0 .4-.1l.3-.3c.3-.2.3-.6.1-.8-.1-.1-.1-.2-.1-.3s0-.1.1-.1c0 0 0-.1.1-.1.1-.1.1-.2.2-.3s.1-.2.2-.4c.1-.1.2-.2.4-.2.1 0 .3 0 .4-.1.1-.1.2-.3.2-.4v-.4c-.4-.5-.7-.8-1-.8zm-2.3 1.7c-.4.6-1.1 1-1.9.9-1.2-.1-2.1-1.1-2-2.3 0-.2.1-.4.1-.6.3-.9 1.2-1.5 2.2-1.4.3 0 .6.1.8.2.8.4 1.2 1.2 1.2 2.1 0 .3-.1.5-.2.7s-.2.3-.2.4z" fill="#19375d"/></svg>