<svg enable-background="new 0 0 460.1 460.1" viewBox="0 0 460.1 460.1" xmlns="http://www.w3.org/2000/svg"><path d="m428.4 197.8c9 111.3-73.9 208.7-185.2 217.7s-208.8-73.9-217.7-185.2 93.3-59.9 190.3-154.9c79.7-78.1 203.6 11.1 212.6 122.4z" fill="#f0f5fb"/><path d="m150.2 259.5c-1 0-2.1.1-3.1.2-4.2-7.7-12.4-12.9-21.8-12.9-9.9 0-18.5 5.8-22.5 14.2-2.2-.9-4.6-1.4-7.2-1.4-10.2 0-18.5 8.3-18.5 18.5h24.1 13 11.9 23.2 24.9c-2.8-10.8-12.5-18.6-24-18.6z" fill="#d4e6f7"/><path d="m339.4 361.6h-190.6c-4.4 0-8-3.6-8-8v-249.5c0-4.4 3.6-8 8-8h190.6c4.4 0 8 3.6 8 8v249.4c0 4.5-3.6 8.1-8 8.1z" fill="#a2bbee"/><path d="m339.2 135.6c-.5 76.6-1.6 140.8-2.5 217.4-62.1-.9-124.1-.7-186.2-.1 0-81.9 1-163.8 2.4-245.7 55.6 1.1 97.6 1.6 153.2 1.6z" fill="#002cb1"/><path d="m339.2 133.9c.1 72.6-1 145.1-2.8 217.7-60.8-1.8-121.5-3.8-182.3-3.9-.7-80.7-1.9-161.3-1.4-242 51.2.4 102.3 1.1 153.5 1.3 10.9 9 21.9 18 33 26.9z" fill="#fff"/><path d="m279.5 112.7h-69.9c-1.2 0-2.3-1-2.3-2.3l.9-15.8c0-1.2 1-2.3 2.3-2.3h68.1c1.2 0 2.3 1 2.3 2.3l.9 15.8c-.1 1.3-1.1 2.3-2.3 2.3z" fill="#243859"/><path d="m255.3 92.1c0-1.2-.7-3.3-1.1-4.4-1-3-2-5.4-4-5.6-3.9-.3-8-.2-11.9-.1-2 .1-3 2.5-3.8 5.6-.3 1.1-1 3.2-.9 4.4.2 3.4-.5 5.5 2.2 5.7 5.2.5 12.3 0 17.5-.1 2.7 0 2-2.2 2-5.5zm-10.8.3c-2 0-3.7-1.6-3.7-3.6s1.6-3.7 3.7-3.7c2 0 3.6 1.6 3.6 3.7.1 1.9-1.6 3.6-3.6 3.6z" fill="#243859"/><path d="m304.5 137.6c.6-9.3 1.8-21.1 1.4-30.4 11.5 8.5 23 17.1 33.2 27.2-11.6-.3-23.1 2.7-34.6 3.2z" fill="#e8eefb"/><path d="m185.1 235.1h-5.6c-.7 0-1.3-.6-1.3-1.3v-5.6c0-.7.6-1.3 1.3-1.3h5.6c.7 0 1.3.6 1.3 1.3v5.6c0 .8-.6 1.3-1.3 1.3z" fill="#19375d"/><path d="m308.6 233.9h-107.3c-1.5 0-2.7-1.3-2.7-2.8s1.2-2.8 2.7-2.8h107.3c1.5 0 2.7 1.3 2.7 2.8s-1.2 2.8-2.7 2.8z" fill="#f5f9fc"/><path d="m185.1 213.8h-5.6c-.7 0-1.3-.6-1.3-1.3v-5.5c0-.7.6-1.3 1.3-1.3h5.6c.7 0 1.3.6 1.3 1.3v5.6c0 .6-.6 1.2-1.3 1.2z" fill="#19375d"/><g fill="#f5f9fc"><path d="m308.6 212.6h-107.3c-1.5 0-2.7-1.3-2.7-2.8 0-1.6 1.2-2.8 2.7-2.8h107.3c1.5 0 2.7 1.3 2.7 2.8s-1.2 2.8-2.7 2.8z"/><path d="m185.1 192.5h-5.6c-.7 0-1.3-.6-1.3-1.3v-5.6c0-.7.6-1.3 1.3-1.3h5.6c.7 0 1.3.6 1.3 1.3v5.6c0 .7-.6 1.3-1.3 1.3z"/><path d="m308.6 191.3h-107.3c-1.5 0-2.7-1.3-2.7-2.8s1.2-2.8 2.7-2.8h107.3c1.5 0 2.7 1.3 2.7 2.8s-1.2 2.8-2.7 2.8z"/><path d="m185.1 171.2h-5.6c-.7 0-1.3-.6-1.3-1.3v-5.6c0-.7.6-1.3 1.3-1.3h5.6c.7 0 1.3.6 1.3 1.3v5.6c0 .7-.6 1.3-1.3 1.3z"/><path d="m308.6 169.9h-107.3c-1.5 0-2.7-1.3-2.7-2.8s1.2-2.8 2.7-2.8h107.3c1.5 0 2.7 1.3 2.7 2.8s-1.2 2.8-2.7 2.8z"/></g><path d="m185.1 258.7h-5.6c-.7 0-1.3-.6-1.3-1.3v-5.6c0-.7.6-1.3 1.3-1.3h5.6c.7 0 1.3.6 1.3 1.3v5.6c0 .7-.6 1.3-1.3 1.3z" fill="#19375d"/><path d="m308.6 257.4h-107.3c-1.5 0-2.7-1.3-2.7-2.8 0-1.6 1.2-2.8 2.7-2.8h107.3c1.5 0 2.7 1.3 2.7 2.8s-1.2 2.8-2.7 2.8z" fill="#f5f9fc"/><path d="m185.1 280.8h-5.6c-.7 0-1.3-.6-1.3-1.3v-5.5c0-.7.6-1.3 1.3-1.3h5.6c.7 0 1.3.6 1.3 1.3v5.6c0 .6-.6 1.2-1.3 1.2z" fill="#19375d"/><path d="m308.6 279.6h-107.3c-1.5 0-2.7-1.3-2.7-2.8 0-1.6 1.2-2.8 2.7-2.8h107.3c1.5 0 2.7 1.3 2.7 2.8s-1.2 2.8-2.7 2.8z" fill="#f5f9fc"/><path d="m185.1 303h-5.6c-.7 0-1.3-.6-1.3-1.3v-5.6c0-.7.6-1.3 1.3-1.3h5.6c.7 0 1.3.6 1.3 1.3v5.6c0 .7-.6 1.3-1.3 1.3z" fill="#19375d"/><path d="m308.6 301.8h-107.3c-1.5 0-2.7-1.3-2.7-2.8 0-1.6 1.2-2.8 2.7-2.8h107.3c1.5 0 2.7 1.3 2.7 2.8s-1.2 2.8-2.7 2.8z" fill="#f5f9fc"/><path d="m142.4 165.1c0-2.8 2.3-5.1 5.1-5.1h34.7c1.4 0 2.7.6 3.6 1.5s1.5 2.2 1.5 3.6c0 2.8-2.3 5.1-5.1 5.1h-34.7c-1.4 0-2.7-.6-3.6-1.5s-1.5-2.1-1.5-3.6zm-45-20.1c0-2.8 2.3-5.1 5.1-5.1h79.7c1.4 0 2.7.6 3.6 1.5s1.5 2.2 1.5 3.6c0 2.8-2.3 5.1-5.1 5.1h-79.7c-1.4 0-2.7-.6-3.6-1.5s-1.5-2.2-1.5-3.6zm90.1-22.6h-90.9c-3.8 0-7.2 1.6-9.6 4.1-2.4 2.4-3.8 5.7-3.8 9.4v38.4c0 7.4 6 13.4 13.4 13.4h77l15.1 15.1v-15.2c6.8-.6 12.2-6.4 12.2-13.4v-38.4c0-7.4-6-13.4-13.4-13.4z" fill="#0050d2"/><path d="m142.4 165.1c0 1.4.6 2.7 1.5 3.6s2.2 1.5 3.6 1.5h34.7c2.8 0 5.1-2.3 5.1-5.1 0-1.4-.6-2.7-1.5-3.6s-2.2-1.5-3.6-1.5h-34.7c-2.8 0-5.1 2.3-5.1 5.1z" fill="#f1c726"/><path d="m97.4 145c0 1.4.6 2.7 1.5 3.6s2.2 1.5 3.6 1.5h79.7c2.8 0 5.1-2.3 5.1-5.1 0-1.4-.6-2.7-1.5-3.6s-2.2-1.5-3.6-1.5h-79.7c-2.8 0-5.1 2.3-5.1 5.1z" fill="#f1c726"/><path d="m97.4 145c0 1.4.6 2.7 1.5 3.6s2.2 1.5 3.6 1.5h79.7c2.8 0 5.1-2.3 5.1-5.1 0-1.4-.6-2.7-1.5-3.6s-2.2-1.5-3.6-1.5h-79.7c-2.8 0-5.1 2.3-5.1 5.1z" fill="#fff"/><path d="m142.4 165.1c0 1.4.6 2.7 1.5 3.6s2.2 1.5 3.6 1.5h34.7c2.8 0 5.1-2.3 5.1-5.1 0-1.4-.6-2.7-1.5-3.6s-2.2-1.5-3.6-1.5h-34.7c-2.8 0-5.1 2.3-5.1 5.1z" fill="#fff"/><path d="m356.6 230.4-1.6-.9c-.2-.1-.2-.3-.2-.5l3.5-10.8v-.1l19.1-32.2c.1-.2.4-.2.5-.1 2.2 1.3 3 4.2 1.6 6.5l-22.5 38c0 .2-.2.3-.4.1z" fill="#a2bbee"/><path d="m373.6 184.7h2.5v8.3h-2.5z" fill="#a2bbee" transform="matrix(.8599 .5104 -.5104 .8599 148.8907 -164.8804)"/><path d="m373.7 174.9-1.1-.7c-.8-.5-1.9-.2-2.4.6l-1.2 1.9c-.5.8-.2 1.9.6 2.4l1.1.7c.8.5 1.9.2 2.4-.6l1.2-1.9c.5-.9.2-1.9-.6-2.4z" fill="#a2bbee"/><path d="m308.3 298.8-21.3 24.6-3.2-2 11.4-30.4z" fill="#243859"/><path d="m377 183-68.7 115.8-13.1-7.8 68.7-115.8c.9-1.5 2.8-2 4.3-1.1l7.6 4.5c1.6 1 2.1 2.9 1.2 4.4z" fill="#19375d"/><path d="m336.7 222.4h15.2v1.5h-15.2z" fill="#a2bbee" transform="matrix(.8599 .5104 -.5104 .8599 162.1361 -144.4809)"/><path d="m136.3 187.7h-39.7c-7.4 0-13.4-6-13.4-13.4v-38.4c0-3.6 1.5-7 3.8-9.4 8.2 22.7 22.9 46.2 49.3 61.2z" fill="#002cb1"/></svg>