<svg width="80" height="80" viewBox="0 0 80 80" fill="none" xmlns="http://www.w3.org/2000/svg">
<path d="M5.1434 0C2.30218 0 0 2.30293 0 5.14349V74.8579C0 77.6978 2.30218 80 5.1434 80H74.8566C77.6971 80 80 77.6978 80 74.8579V5.14349C80 2.30293 77.6971 0 74.8566 0H5.1434Z" fill="url(#paint0_linear)"/>
<path d="M48.7856 11C50.1547 12.1483 51.2809 13.5836 52.0537 15.2177H34.3439L29.265 24.0726C28.9117 22.9243 28.713 21.7098 28.713 20.4511C28.713 16.653 30.4575 13.2524 33.1736 11H48.7856Z" fill="white"/>
<path d="M33.7698 22.571H53.0254C53.1358 21.8865 53.2241 21.1798 53.2241 20.4732C53.2241 19.7445 53.1358 19.06 53.0254 18.3754H36.1988L33.7698 22.571Z" fill="white"/>
<path d="M30.9433 27.4953C31.5837 28.4007 32.3124 29.2177 33.1515 29.9243H48.7635C50.1547 28.7761 51.2809 27.3407 52.0537 25.7067H31.9591L30.9433 27.4953Z" fill="white"/>
<path d="M20.101 42.8203V39.3755C19.5931 39.3755 8.50789 39.3755 8 39.3534V61.59H11.8864V52.2493H17.3407V48.8045H11.8864V42.8203H20.101Z" fill="white"/>
<path d="M68.7478 47.0159C69.4544 46.1768 70.956 45.3376 72.7667 45.3156C73.0979 45.3156 73.385 45.3376 73.65 45.3597C73.594 45.5356 73.46 45.9661 73.3043 46.4658C73.03 47.3466 72.6887 48.4424 72.5901 48.7383C72.2147 48.5837 71.8172 48.4954 71.3314 48.4954C69.8077 48.4954 68.2399 49.6436 68.2399 51.8298V61.59H64.6847V45.5805H68.2399V47.5679L68.7478 47.0159Z" fill="white"/>
<path d="M46.758 49.7086L46.7529 49.7223C44.6952 55.2855 41.2934 64.4828 41.2777 64.4828C40.9023 65.4323 40.549 66.0727 40.0853 66.5143C39.2682 67.3314 38.1641 67.7068 36.7067 67.6847H35.3597V64.527H36.0442C37.3692 64.527 37.9433 64.1074 38.3849 62.8487L39.1136 60.7288C39.1136 60.7288 33.7919 46.3092 33.5269 45.6026H37.1042C37.2367 45.9559 40.9685 56.2241 40.9685 56.2241C40.9685 56.2241 44.5458 45.9559 44.6783 45.6026H48.2777C48.2014 45.8061 47.5902 47.4587 46.758 49.7086Z" fill="white"/>
<path fill-rule="evenodd" clip-rule="evenodd" d="M31.142 47.2809C30.4575 46.5522 28.8896 45.3156 26.1736 45.3156C23.612 45.3156 22.0663 46.3755 21.2272 47.2809C19.9022 48.672 19.4164 50.3061 19.4164 53.5522C19.4164 56.7982 19.8802 58.4544 21.2272 59.8456C22.0663 60.7288 23.612 61.8109 26.1736 61.8109C28.8896 61.8109 30.4575 60.5743 31.142 59.8456C32.4669 58.4544 32.9527 56.7982 32.9527 53.5522C32.9527 50.7698 32.6657 48.8487 31.142 47.2809ZM28.3155 57.7919C27.7635 58.3219 27.0568 58.609 26.1736 58.609C25.3123 58.609 24.6057 58.344 24.0537 57.7919C23.0821 56.8203 23.0158 55.2304 23.0158 53.5301C23.0158 51.8519 23.1041 50.2619 24.0537 49.3124C24.6057 48.7604 25.2903 48.4954 26.1736 48.4954C27.0568 48.4954 27.7855 48.7604 28.3155 49.3124C29.265 50.284 29.3534 51.8519 29.3534 53.5301C29.3534 55.2304 29.2871 56.8424 28.3155 57.7919Z" fill="white"/>
<path fill-rule="evenodd" clip-rule="evenodd" d="M62.3881 52.978V54.568C61.8508 54.568 51.9654 54.568 51.9875 54.59V54.855C51.9875 57.262 53.5112 58.8298 55.896 58.8298C57.7288 58.8298 58.6784 58.3219 59.6721 57.3724C59.8129 57.5132 60.2515 57.9412 60.6983 58.3771L60.6995 58.3783C61.1628 58.8304 61.6346 59.2908 61.7919 59.4481C60.2462 60.9276 58.7225 61.7888 55.8519 61.7888C50.9276 61.7888 48.4323 59.0064 48.4323 53.5301C48.4323 48.4512 51.1042 45.2935 55.4102 45.2935C59.65 45.2935 62.3881 48.3187 62.3881 52.978ZM51.9654 52.0064L51.9433 52.2935H58.855L58.8329 52.0064C58.8109 51.2335 58.7004 50.7698 58.4355 50.1294C57.8834 48.9149 56.7793 48.2304 55.3881 48.2304C53.997 48.2304 52.8929 48.9149 52.3629 50.1074C52.0979 50.7698 52.0096 51.2335 51.9654 52.0064Z" fill="white"/>
<defs>
<linearGradient id="paint0_linear" x1="40" y1="80" x2="40" y2="9.53673e-05" gradientUnits="userSpaceOnUse">
<stop stop-color="#0088C9"/>
<stop offset="1" stop-color="#005591"/>
</linearGradient>
</defs>
</svg>
