<svg width="149" height="45" viewBox="0 0 149 45" fill="none" xmlns="http://www.w3.org/2000/svg">
<path d="M143.606 43.5681C146.193 43.5681 148.352 41.4514 148.352 38.8992V5.21275C148.352 2.66153 146.195 0.551514 143.606 0.551514H5.21606C2.64481 0.551514 0.551514 2.64328 0.551514 5.21275V38.8992C0.551514 41.4697 2.64692 43.5681 5.21606 43.5681H143.606Z" stroke="white" stroke-width="1.10299"/>
<path d="M33.2309 21.8217C33.2673 26.0825 36.9579 27.4911 37.0031 27.5065C36.9811 27.6058 36.4252 29.5393 35.0409 31.5026C33.885 33.231 32.6739 34.9208 30.7503 34.9517C28.8818 34.9947 28.2531 33.852 26.11 33.852C23.947 33.852 23.2775 34.9208 21.4852 34.9947C19.6531 35.062 18.2534 33.1494 17.0556 31.4365C14.661 27.9389 12.7969 21.5801 15.2963 17.2531C16.5074 15.131 18.7156 13.7643 21.076 13.7279C22.9102 13.6904 24.6122 14.9666 25.7394 14.9666C26.8446 14.9666 28.9491 13.4401 31.1187 13.6684C32.0265 13.6949 34.6097 14.0269 36.2763 16.4567C36.1417 16.5373 33.1989 18.2668 33.2309 21.8217ZM29.7013 11.3675C28.6954 12.5544 27.0862 13.4621 25.5188 13.3452C25.3137 11.7437 26.1078 10.0407 26.9968 9.00164C28.0016 7.82254 29.7466 6.91919 31.1419 6.85742C31.3249 8.52183 30.6654 10.162 29.7013 11.3675Z" fill="white"/>
<path d="M59.1699 34.7487H56.665L55.2929 30.4371H50.5236L49.2165 34.7487H46.7778L51.503 20.0701H54.4216L59.1699 34.7487ZM54.8793 28.6282L53.6384 24.7953C53.5072 24.4037 53.2612 23.4816 52.8983 22.0301H52.8542C52.7097 22.6544 52.477 23.5765 52.1571 24.7953L50.9383 28.6282H54.8793ZM71.3216 29.3264C71.3216 31.1264 70.8351 32.5493 69.8623 33.5938C68.9909 34.5236 67.9089 34.988 66.6173 34.988C65.2231 34.988 64.2216 34.4872 63.6117 33.4857H63.5675V39.0613H61.216V27.6487C61.216 26.517 61.1862 25.3556 61.1288 24.1644H63.1969L63.3282 25.842H63.3723C64.1565 24.578 65.3467 23.9471 66.9438 23.9471C68.1924 23.9471 69.2347 24.4401 70.0686 25.4273C70.9046 26.4156 71.3216 27.7149 71.3216 29.3264ZM68.9259 29.4124C68.9259 28.3822 68.6942 27.5329 68.2288 26.8645C67.7203 26.1674 67.0376 25.8188 66.1816 25.8188C65.6015 25.8188 65.0742 26.013 64.6032 26.3957C64.1312 26.7818 63.8223 27.2858 63.6778 27.9101C63.605 28.2013 63.5686 28.4396 63.5686 28.6271V30.3918C63.5686 31.1617 63.8047 31.8114 64.2768 32.3419C64.7488 32.8725 65.3621 33.1372 66.1166 33.1372C67.0023 33.1372 67.6916 32.7953 68.1847 32.1136C68.6788 31.4309 68.9259 30.5308 68.9259 29.4124ZM83.4953 29.3264C83.4953 31.1264 83.0088 32.5493 82.0349 33.5938C81.1646 34.5236 80.0826 34.988 78.791 34.988C77.3968 34.988 76.3953 34.4872 75.7865 33.4857H75.7423V39.0613H73.3908V27.6487C73.3908 26.517 73.361 25.3556 73.3036 24.1644H75.3717L75.503 25.842H75.5471C76.3302 24.578 77.5204 23.9471 79.1186 23.9471C80.3661 23.9471 81.4084 24.4401 82.2445 25.4273C83.0772 26.4156 83.4953 27.7149 83.4953 29.3264ZM81.0996 29.4124C81.0996 28.3822 80.8668 27.5329 80.4014 26.8645C79.8929 26.1674 79.2124 25.8188 78.3553 25.8188C77.7741 25.8188 77.2479 26.013 76.7758 26.3957C76.3038 26.7818 75.996 27.2858 75.8515 27.9101C75.7799 28.2013 75.7423 28.4396 75.7423 28.6271V30.3918C75.7423 31.1617 75.9784 31.8114 76.4483 32.3419C76.9203 32.8714 77.5336 33.1372 78.2903 33.1372C79.176 33.1372 79.8653 32.7953 80.3584 32.1136C80.8525 31.4309 81.0996 30.5308 81.0996 29.4124ZM97.1062 30.6323C97.1062 31.8809 96.6727 32.8967 95.8024 33.681C94.8461 34.538 93.5148 34.9659 91.8041 34.9659C90.2246 34.9659 88.9584 34.6615 87.9999 34.0516L88.5448 32.0916C89.5772 32.7158 90.7099 33.0291 91.9442 33.0291C92.8299 33.0291 93.5192 32.8283 94.0145 32.4291C94.5075 32.0298 94.7535 31.4937 94.7535 30.8253C94.7535 30.2297 94.5505 29.7278 94.1435 29.3208C93.7387 28.9138 93.0626 28.5355 92.1184 28.1859C89.5485 27.2274 88.2646 25.8233 88.2646 23.9769C88.2646 22.7702 88.7146 21.7808 89.6158 21.0109C90.5136 20.2399 91.7114 19.855 93.2093 19.855C94.545 19.855 95.6546 20.0877 96.5403 20.5521L95.9524 22.4691C95.1252 22.019 94.1899 21.794 93.1431 21.794C92.3159 21.794 91.6695 21.9981 91.2063 22.404C90.8147 22.7669 90.6184 23.2092 90.6184 23.7331C90.6184 24.3133 90.8423 24.7931 91.2923 25.1703C91.6839 25.5188 92.3953 25.8961 93.4277 26.3031C94.6906 26.8115 95.6182 27.4061 96.2149 28.0877C96.8095 28.7671 97.1062 29.6175 97.1062 30.6323ZM104.881 25.9291H102.289V31.068C102.289 32.375 102.746 33.028 103.661 33.028C104.081 33.028 104.43 32.9916 104.706 32.9188L104.771 34.7045C104.308 34.8777 103.698 34.9648 102.942 34.9648C102.013 34.9648 101.288 34.6814 100.764 34.1155C100.242 33.5486 99.9795 32.5978 99.9795 31.2621V25.9269H98.4353V24.1622H99.9795V22.2242L102.289 21.5271V24.1622H104.881V25.9291ZM116.576 29.3694C116.576 30.9963 116.111 32.332 115.182 33.3765C114.208 34.452 112.915 34.988 111.304 34.988C109.751 34.988 108.514 34.4729 107.592 33.4427C106.67 32.4125 106.209 31.1121 106.209 29.5447C106.209 27.9046 106.683 26.5612 107.635 25.5166C108.585 24.471 109.867 23.9482 111.478 23.9482C113.031 23.9482 114.281 24.4633 115.224 25.4946C116.126 26.495 116.576 27.7866 116.576 29.3694ZM114.136 29.4455C114.136 28.4693 113.928 27.6322 113.505 26.934C113.012 26.0891 112.308 25.6677 111.394 25.6677C110.449 25.6677 109.731 26.0902 109.238 26.934C108.816 27.6333 108.607 28.4837 108.607 29.4896C108.607 30.4657 108.816 31.3029 109.238 32C109.746 32.8449 110.457 33.2662 111.373 33.2662C112.271 33.2662 112.976 32.8361 113.484 31.9779C113.918 31.2665 114.136 30.4205 114.136 29.4455ZM124.22 26.2325C123.987 26.1895 123.739 26.1674 123.479 26.1674C122.651 26.1674 122.012 26.4795 121.562 27.1049C121.17 27.6564 120.974 28.3535 120.974 29.1951V34.7487H118.623L118.645 27.4976C118.645 26.2777 118.616 25.167 118.557 24.1655H120.605L120.691 26.1906H120.756C121.005 25.4946 121.396 24.9343 121.932 24.514C122.456 24.1357 123.022 23.9471 123.632 23.9471C123.849 23.9471 124.046 23.9625 124.22 23.9901V26.2325ZM134.737 28.9558C134.737 29.3771 134.709 29.7323 134.651 30.0223H127.596C127.624 31.068 127.965 31.8676 128.62 32.4191C129.214 32.9122 129.983 33.1592 130.927 33.1592C131.972 33.1592 132.925 32.9927 133.782 32.6585L134.15 34.2909C133.149 34.7277 131.966 34.945 130.602 34.945C128.961 34.945 127.672 34.4619 126.735 33.4968C125.799 32.5316 125.331 31.2356 125.331 29.6098C125.331 28.0138 125.766 26.6847 126.639 25.6247C127.552 24.4931 128.786 23.9272 130.339 23.9272C131.865 23.9272 133.02 24.4931 133.804 25.6247C134.425 26.5237 134.737 27.6355 134.737 28.9558ZM132.494 28.3458C132.51 27.6487 132.357 27.0465 132.038 26.538C131.631 25.8839 131.005 25.5574 130.164 25.5574C129.395 25.5574 128.77 25.8762 128.292 26.5159C127.901 27.0244 127.668 27.6344 127.596 28.3447H132.494V28.3458Z" fill="white"/>
<path d="M54.1017 11.0398C54.1017 12.338 53.7123 13.3153 52.9347 13.9716C52.2144 14.5771 51.1909 14.8804 49.8651 14.8804C49.2077 14.8804 48.6452 14.8518 48.1742 14.7944V7.70108C48.7886 7.60181 49.4504 7.55107 50.1651 7.55107C51.428 7.55107 52.3799 7.82571 53.0218 8.375C53.741 8.99598 54.1017 9.88389 54.1017 11.0398ZM52.8829 11.0718C52.8829 10.2302 52.6601 9.58498 52.2144 9.13496C51.7688 8.68604 51.1181 8.46104 50.2611 8.46104C49.8971 8.46104 49.5871 8.4853 49.3301 8.53604V13.9286C49.4724 13.9506 49.7327 13.9605 50.111 13.9605C50.9956 13.9605 51.6784 13.7146 52.1593 13.2226C52.6402 12.7307 52.8829 12.0138 52.8829 11.0718ZM60.5641 12.1737C60.5641 12.9734 60.3358 13.6285 59.8791 14.1425C59.4004 14.6709 58.7662 14.9345 57.9743 14.9345C57.211 14.9345 56.6032 14.6819 56.1499 14.1745C55.6977 13.6683 55.4716 13.0296 55.4716 12.2597C55.4716 11.4545 55.7043 10.7939 56.172 10.281C56.6396 9.76808 57.2683 9.51108 58.0603 9.51108C58.8236 9.51108 59.4368 9.76367 59.9012 10.2699C60.3424 10.7619 60.5641 11.3972 60.5641 12.1737ZM59.3651 12.2112C59.3651 11.7314 59.2614 11.32 59.0552 10.977C58.8125 10.5622 58.4673 10.3549 58.0184 10.3549C57.554 10.3549 57.2011 10.5622 56.9584 10.977C56.751 11.32 56.6485 11.738 56.6485 12.2322C56.6485 12.712 56.7521 13.1234 56.9584 13.4664C57.2088 13.8811 57.5573 14.0885 58.0073 14.0885C58.4485 14.0885 58.7949 13.8778 59.0442 13.4554C59.2581 13.1057 59.3651 12.691 59.3651 12.2112ZM69.2292 9.61697L67.6023 14.8165H66.5434L65.8695 12.5586C65.6985 11.995 65.5595 11.4347 65.4514 10.8788H65.4305C65.3301 11.4501 65.1911 12.0094 65.0124 12.5586L64.2966 14.8165H63.2256L61.6957 9.61697H62.8837L63.4716 12.0888C63.6138 12.6734 63.7308 13.2304 63.8245 13.7576H63.8455C63.9315 13.323 64.0738 12.7693 64.2745 12.0998L65.0124 9.61807H65.9544L66.6614 12.0469C66.8324 12.6392 66.9713 13.2094 67.0783 13.7587H67.1103C67.1886 13.2237 67.3067 12.6535 67.4633 12.0469L68.0942 9.61807H69.2292V9.61697ZM75.2217 14.8165H74.0658V11.8384C74.0658 10.9207 73.7172 10.4619 73.0179 10.4619C72.6749 10.4619 72.3981 10.5876 72.183 10.8402C71.9701 11.0928 71.862 11.3906 71.862 11.7314V14.8154H70.7061V11.1027C70.7061 10.6461 70.6917 10.1508 70.6642 9.61476H71.68L71.7341 10.4277H71.766C71.9006 10.1751 72.1014 9.96662 72.365 9.80006C72.6782 9.60594 73.029 9.50777 73.4128 9.50777C73.8981 9.50777 74.3018 9.6644 74.6228 9.97875C75.0221 10.3637 75.2217 10.9384 75.2217 11.7016V14.8165ZM78.4094 14.8165H77.2545V7.2312H78.4094V14.8165ZM85.2148 12.1737C85.2148 12.9734 84.9865 13.6285 84.5298 14.1425C84.0511 14.6709 83.4158 14.9345 82.625 14.9345C81.8606 14.9345 81.2529 14.6819 80.8006 14.1745C80.3484 13.6683 80.1223 13.0296 80.1223 12.2597C80.1223 11.4545 80.355 10.7939 80.8227 10.281C81.2904 9.76808 81.9191 9.51108 82.7099 9.51108C83.4743 9.51108 84.0864 9.76367 84.5519 10.2699C84.9931 10.7619 85.2148 11.3972 85.2148 12.1737ZM84.0147 12.2112C84.0147 11.7314 83.9111 11.32 83.7048 10.977C83.4633 10.5622 83.1169 10.3549 82.6691 10.3549C82.2036 10.3549 81.8507 10.5622 81.6091 10.977C81.4018 11.32 81.2992 11.738 81.2992 12.2322C81.2992 12.712 81.4029 13.1234 81.6091 13.4664C81.8595 13.8811 82.2081 14.0885 82.6581 14.0885C83.0993 14.0885 83.4445 13.8778 83.6938 13.4554C83.9089 13.1057 84.0147 12.691 84.0147 12.2112ZM90.8092 14.8165H89.7713L89.6852 14.2175H89.6532C89.2981 14.6951 88.7918 14.9345 88.1344 14.9345C87.6436 14.9345 87.2465 14.7768 86.9476 14.4635C86.6763 14.1789 86.5406 13.8249 86.5406 13.4046C86.5406 12.7693 86.8053 12.2851 87.3381 11.9498C87.8697 11.6145 88.6175 11.4501 89.5804 11.4579V11.3608C89.5804 10.6758 89.2209 10.3339 88.5006 10.3339C87.9877 10.3339 87.5355 10.463 87.145 10.7189L86.9101 9.96C87.3932 9.66109 87.9899 9.51108 88.6936 9.51108C90.0525 9.51108 90.7342 10.228 90.7342 11.6619V13.5767C90.7342 14.0962 90.7595 14.5098 90.8092 14.8165ZM89.6091 13.0296V12.2277C88.3341 12.2057 87.6965 12.5553 87.6965 13.2756C87.6965 13.5469 87.7693 13.7499 87.9182 13.8855C88.0671 14.0212 88.2569 14.0885 88.483 14.0885C88.7367 14.0885 88.9738 14.008 89.19 13.848C89.4073 13.687 89.5407 13.4829 89.5904 13.2326C89.6025 13.1763 89.6091 13.1079 89.6091 13.0296ZM97.3775 14.8165H96.3517L96.2976 13.9815H96.2657C95.9381 14.6168 95.38 14.9345 94.5957 14.9345C93.9692 14.9345 93.4475 14.6885 93.0339 14.1966C92.6203 13.7046 92.414 13.066 92.414 12.2818C92.414 11.4402 92.6379 10.7586 93.0879 10.238C93.5236 9.75264 94.0575 9.50998 94.6928 9.50998C95.391 9.50998 95.8796 9.74492 96.1576 10.2159H96.1796V7.2312H97.3367V13.4157C97.3367 13.9219 97.3499 14.3885 97.3775 14.8165ZM96.1796 12.6237V11.7568C96.1796 11.6068 96.1686 11.4854 96.1476 11.3928C96.0826 11.1148 95.9425 10.881 95.7296 10.6924C95.5145 10.5038 95.2553 10.4089 94.9564 10.4089C94.5251 10.4089 94.1876 10.5799 93.9395 10.9229C93.6935 11.2659 93.5688 11.7038 93.5688 12.2388C93.5688 12.7528 93.6869 13.1697 93.924 13.4907C94.1744 13.8326 94.5119 14.0036 94.9343 14.0036C95.3138 14.0036 95.6171 13.8613 95.8476 13.5756C96.0704 13.312 96.1796 12.9943 96.1796 12.6237ZM107.264 12.1737C107.264 12.9734 107.035 13.6285 106.579 14.1425C106.1 14.6709 105.467 14.9345 104.674 14.9345C103.912 14.9345 103.304 14.6819 102.849 14.1745C102.397 13.6683 102.171 13.0296 102.171 12.2597C102.171 11.4545 102.404 10.7939 102.871 10.281C103.339 9.76808 103.968 9.51108 104.761 9.51108C105.523 9.51108 106.137 9.76367 106.601 10.2699C107.042 10.7619 107.264 11.3972 107.264 12.1737ZM106.066 12.2112C106.066 11.7314 105.962 11.32 105.756 10.977C105.512 10.5622 105.168 10.3549 104.718 10.3549C104.255 10.3549 103.902 10.5622 103.658 10.977C103.451 11.32 103.348 11.738 103.348 12.2322C103.348 12.712 103.452 13.1234 103.658 13.4664C103.908 13.8811 104.257 14.0885 104.707 14.0885C105.148 14.0885 105.495 13.8778 105.745 13.4554C105.958 13.1057 106.066 12.691 106.066 12.2112ZM113.479 14.8165H112.324V11.8384C112.324 10.9207 111.976 10.4619 111.275 10.4619C110.932 10.4619 110.655 10.5876 110.441 10.8402C110.227 11.0928 110.12 11.3906 110.12 11.7314V14.8154H108.963V11.1027C108.963 10.6461 108.95 10.1508 108.922 9.61476H109.937L109.991 10.4277H110.023C110.159 10.1751 110.36 9.96662 110.622 9.80006C110.937 9.60594 111.286 9.50777 111.671 9.50777C112.155 9.50777 112.559 9.6644 112.88 9.97875C113.28 10.3637 113.479 10.9384 113.479 11.7016V14.8165ZM121.258 10.4828H119.985V13.0087C119.985 13.6506 120.212 13.9716 120.659 13.9716C120.867 13.9716 121.039 13.9539 121.174 13.9175L121.204 14.7944C120.976 14.8804 120.676 14.9235 120.306 14.9235C119.85 14.9235 119.495 14.7845 119.238 14.5065C118.98 14.2286 118.852 13.7609 118.852 13.1046V10.4828H118.092V9.61697H118.852V8.66399L119.984 8.32206V9.61587H121.257V10.4828H121.258ZM127.378 14.8165H126.221V11.8605C126.221 10.9284 125.872 10.4619 125.174 10.4619C124.638 10.4619 124.272 10.7321 124.071 11.2726C124.037 11.3862 124.017 11.5251 124.017 11.6884V14.8154H122.862V7.2312H124.017V10.3648H124.039C124.403 9.79455 124.925 9.50998 125.601 9.50998C126.079 9.50998 126.475 9.6666 126.79 9.98096C127.181 10.3725 127.378 10.9549 127.378 11.7248V14.8165ZM133.69 11.9707C133.69 12.1781 133.675 12.3524 133.647 12.4947H130.18C130.196 13.0087 130.361 13.4002 130.682 13.6716C130.976 13.9142 131.354 14.0355 131.817 14.0355C132.33 14.0355 132.798 13.9539 133.219 13.7896L133.4 14.5926C132.907 14.8065 132.327 14.9135 131.655 14.9135C130.85 14.9135 130.216 14.6764 129.757 14.2021C129.296 13.7278 129.067 13.0914 129.067 12.2928C129.067 11.5086 129.28 10.8556 129.709 10.335C130.157 9.77911 130.763 9.50115 131.527 9.50115C132.275 9.50115 132.843 9.77911 133.227 10.335C133.537 10.7762 133.69 11.3222 133.69 11.9707ZM132.587 11.6718C132.596 11.3288 132.52 11.0332 132.363 10.7839C132.162 10.463 131.857 10.3019 131.443 10.3019C131.066 10.3019 130.758 10.4585 130.523 10.7729C130.332 11.0233 130.218 11.3222 130.18 11.6718H132.587Z" fill="white"/>
</svg>
