<svg fill="none" height="117" viewBox="0 0 140 117" width="140" xmlns="http://www.w3.org/2000/svg"><path d="m133.982 69.5273c.494-1.0181.932-2.0891 1.311-3.2113 4.336-12.8421-2.222-28.2262-16.031-31.9399-1.492-18.8153-14.669-31.72181-29.55-33.924961-17.0322-2.520489-32.6348 8.336611-37.8263 25.593261-6.2572-2.2246-12.3546-1.9536-18.1012 1.4164-2.6073 1.2099-4.9922 2.9949-7.1318 5.3435-3.1409 3.4477-5.1833 7.7994-6.015 12.3875-1.232.1951-2.4426.3901-3.584.8-6.6541 2.3949-10.8525 7.3234-12.00379 14.7477-.71647 4.6228.72965 9.2341 1.53671 11.0968 3.18706 7.3631 10.57738 11.5364 18.08638 10.4323.3739-.0545.9174.114 1.2386.3851.3969 11.7678 6.0908 22.1753 14.6324 28.1203 13.7052 9.54 31.3386 6.601 42.4629-6.48 4.7665 4.892 10.439 7.268 17.1031 6.406 6.626-.858 11.771-4.527 15.525-10.494 1.734.468 3.378 1.142 5.078 1.329 6.657.731 12.063-1.9255 16.029-7.9333 1.519-2.299 2.955-5.279 2.955-10.5018 0-5.3797-2.131-10.2835-5.715-13.5726z" fill="#dfeaf5"/><path d="m102.343 96.4375s-5.9256 0-9.9709 0c-4.0454 0-7.3256-3.2744-7.3256-7.3125 0-3.7911 2.9009-6.8721 6.6012-7.2394-.0358-.2941-.0896-.5817-.0896-.8856 0-4.0381 3.2803-7.3125 7.3256-7.3125 2.3413 0 4.4003 1.1147 5.7413 2.821.228-4.2835 3.748-7.696 8.096-7.696 4.495 0 8.139 3.6384 8.139 8.125 0 .7247-.125 1.4137-.304 2.0833 1.045-1.2627 2.605-2.0833 4.374-2.0833 2.9 0 5.265 2.1694 5.625 4.9644.294-.0358.582-.0894.887-.0894 4.045 0 7.325 3.2744 7.325 7.3125s-3.28 7.3125-7.325 7.3125-15.465 0-15.465 0h-8.75v.8125h-4.884z" fill="#f7fbff"/><path d="m112.721 68c4.937 0 8.953 4.0089 8.953 8.9375v.0764c.98-.5769 2.1-.8889 3.256-.8889 2.981 0 5.553 2.0491 6.281 4.8831.076-.0048.153-.0081.231-.0081 4.488 0 8.139 3.6449 8.139 8.125s-3.651 8.125-8.139 8.125h-24.215c-.45 0-.814-.364-.814-.8125s.364-.8125.814-.8125h24.215c3.591 0 6.511-2.9153 6.511-6.5s-2.92-6.5-6.511-6.5c-.191 0-.375.0276-.559.052l-.229.0309c-.034.0049-.067.0065-.101.0065-.4 0-.752-.3007-.806-.7102-.311-2.4261-2.381-4.2542-4.817-4.2542-1.44 0-2.805.6516-3.746 1.7875-.159.1917-.392.2958-.628.2958-.127 0-.254-.0293-.371-.091-.34-.1739-.511-.5623-.414-.9312.188-.7069.275-1.3016.275-1.8736 0-4.0316-3.286-7.3125-7.325-7.3125-3.876 0-7.077 3.042-7.283 6.9274-.018.338-.245.6288-.568.7312-.082.026-.165.039-.248.039-.244 0-.482-.1121-.638-.312-1.255-1.5957-3.113-2.5106-5.1003-2.5106-3.5912 0-6.5116 2.9152-6.5116 6.5 0 .1901.0277.3737.0521.5574l.0309.2291c.026.2177-.0358.4355-.1726.6061-.1367.1706-.3369.2795-.5534.3006-3.347.3332-5.8686 3.0989-5.8686 6.4318 0 3.5847 2.9204 6.5 6.5116 6.5h9.9709c.449 0 .814.364.814.8125s-.365.8125-.814.8125h-9.9709c-4.4882 0-8.1396-3.6449-8.1396-8.125 0-3.8951 2.7496-7.1711 6.5166-7.9251-.0033-.0666-.0049-.1333-.0049-.1999 0-4.4801 3.6514-8.125 8.1395-8.125 1.9143 0 3.7323.676 5.1813 1.8915.974-3.9065 4.497-6.7665 8.656-6.7665z" fill="#472b29"/><path d="m115.163 79.375c2.284 0 4.247 1.6234 4.742 3.8041.597-.3607 1.279-.5541 1.973-.5541 1.957 0 3.578 1.4576 3.83 3.3605.331-.0747.645-.1105.953-.1105 2.489 0 4.576 1.95 4.75 4.4395.015.2243-.155.4193-.378.4355-.009 0-.019 0-.029 0-.212 0-.391-.1641-.405-.377-.145-2.0654-1.874-3.6855-3.938-3.6855-.373 0-.765.0683-1.202.2064-.035.0114-.073.0162-.109.0162-.089 0-.179-.0325-.254-.0877-.104-.0748-.166-.208-.166-.338 0-1.6803-1.369-3.0469-3.052-3.0469-.728 0-1.441.273-2.004.7686-.077.0667-.173.1024-.269.1024-.052 0-.102-.0098-.151-.0309-.143-.0569-.241-.1901-.252-.3445-.17-2.1011-1.942-3.7456-4.039-3.7456-.339 0-.692.0552-1.11.1739-.038.0113-.077.0162-.114.0162-.178 0-.337-.1186-.389-.2957-.062-.2162.063-.4404.28-.5021.491-.1398.916-.2048 1.333-.2048z" fill="#472b29"/><path d="m92.5625 81.8125c2.1586 0 4.0828 1.4576 4.6786 3.5457.0619.2162-.0635.4404-.28.5022-.039.0097-.0765.0146-.1123.0146-.1774 0-.3402-.117-.3907-.2957-.4965-1.7388-2.0984-2.9543-3.8956-2.9543-.1904 0-.3744.0227-.5567.0471-.0196.0033-.0375.0049-.057.0049-.197 0-.3728-.1495-.4005-.3526-.0309-.2226.1254-.4274.3484-.4566.2181-.0293.4395-.0553.6658-.0553z" fill="#472b29"/><path d="m48.1163 35.8125h5.6977c3.1467 0 5.6976-2.5464 5.6976-5.6875 0-2.8941-2.1732-5.2552-4.9732-5.6144.0456-.2909.0895-.5817.0895-.8856 0-3.1411-2.5509-5.6875-5.6977-5.6875-1.68 0-3.1744.7394-4.2162 1.8931-.6252-2.938-3.2347-5.1431-6.3652-5.1431-3.596 0-6.5116 2.9104-6.5116 6.5 0 .3104.0489.6077.0912.9067-.6968-.559-1.5693-.9067-2.533-.9067-1.9991 0-3.6547 1.4414-3.9966 3.3394-.2913-.0455-.5827-.0894-.8872-.0894-3.1467 0-5.6976 2.5464-5.6976 5.6875s2.5509 5.6875 5.6976 5.6875h12.2093v.8125h11.3954z" fill="#f7fbff"/><path d="m50.9651 28.5c-.2246 0-.4069-.182-.4069-.4062 0-1.9874 1.6197-3.6043 3.6107-3.6043.0553.0146 1.1997-.0016 2.0251.221.2165.0585.3451.2811.2865.4973-.0586.2177-.2816.3461-.4981.2859-.7228-.195-1.7907-.1949-1.8119-.1917-1.5433 0-2.7984 1.2529-2.7984 2.7918 0 .2242-.1823.4062-.407.4062z" fill="#472b29"/><path d="m39.9767 36.8125c.5523 0 1-.4477 1-1s-.4477-1-1-1c-.5522 0-1 .4477-1 1s.4478 1 1 1z" fill="#472b29"/><path d="m53.814 36.625h-5.6977c-.4493 0-.814-.364-.814-.8125s.3647-.8125.814-.8125h5.6977c2.6925 0 4.8837-2.1873 4.8837-4.875 0-2.431-1.8314-4.498-4.2619-4.8084-.2181-.0292-.4151-.143-.547-.3185-.1318-.1755-.1872-.3965-.153-.6126.0375-.2502.0782-.5005.0782-.7605 0-2.6877-2.1912-4.875-4.8838-4.875-1.3837 0-2.6665.5769-3.6123 1.625-.2035.2259-.5226.3218-.8139.2405-.2963-.0796-.5226-.3169-.5861-.6159-.5551-2.6065-2.8977-4.4996-5.5691-4.4996-3.1418 0-5.6976 2.5512-5.6976 5.6875 0 .2324.0341.455.0667.6792.0472.3299-.1026.7118-.3939.8776-.2914.1657-.6447.1917-.9052-.0163-.5941-.4761-1.2925-.728-2.0235-.728-1.5725 0-2.9172 1.1229-3.1955 2.6715-.0782.4339-.4819.7247-.9263.6581-.2507-.039-.5014-.0796-.7619-.0796-2.6925 0-4.8837 2.1873-4.8837 4.875s2.1912 4.875 4.8837 4.875h12.2093c.4493 0 .814.364.814.8125s-.3647.8125-.814.8125h-12.2093c-3.5911 0-6.5116-2.9153-6.5116-6.5 0-3.5848 2.9205-6.5 6.5116-6.5.0961 0 .1889.0033.2833.0098.6739-1.9273 2.5021-3.2598 4.6004-3.2598.5682 0 1.1217.0991 1.6459.2925.2686-3.7911 3.443-6.7925 7.3076-6.7925 2.9807 0 5.6424 1.8314 6.7607 4.5078 1.107-.8093 2.4452-1.2578 3.8207-1.2578 3.5912 0 6.5117 2.9152 6.5117 6.5 0 .078-.0017.1544-.0066.2308 2.8375.7279 4.8903 3.2938 4.8903 6.2692 0 3.5847-2.9205 6.5-6.5116 6.5z" fill="#472b29"/><path d="m44.8604 35c-.2588 0-1.369 0-1.6279 0-.4493 0-.8139.364-.8139.8125s.3646.8125.8139.8125h1.6279c.4493 0 .814-.364.814-.8125s-.3647-.8125-.814-.8125z" fill="#472b29"/><g fill="#fff"><path d="m18.1358 56.3646h-16.52168c-.45459 0-.823532-.3702-.823532-.8264 0-.4561.368942-.8264.823532-.8264h16.52168c.4546 0 .8235.3703.8235.8264 0 .4562-.3689.8264-.8235.8264z"/><path d="m22.8793 56.3646h-2.3816c-.4546 0-.8236-.3702-.8236-.8264 0-.4561.369-.8264.8236-.8264h2.3816c.4546 0 .8235.3703.8235.8264 0 .4562-.3673.8264-.8235.8264z"/><path d="m29.5581 56.3646h-4.1934c-.4546 0-.8235-.3702-.8235-.8264 0-.4561.3689-.8264.8235-.8264h4.1934c.4546 0 .8236.3703.8236.8264 0 .4562-.369.8264-.8236.8264z"/><path d="m29.5581 59.447h-15.8381c-.4546 0-.8235-.3702-.8235-.8263 0-.4562.3689-.8264.8235-.8264h15.8381c.4546 0 .8236.3702.8236.8264 0 .4561-.369.8263-.8236.8263z"/><path d="m10.8673 59.447h-.95527c-.45459 0-.82353-.3702-.82353-.8263 0-.4562.36894-.8264.82353-.8264h.95527c.4546 0 .8236.3702.8236.8264 0 .4561-.3673.8263-.8236.8263z"/><path d="m6.95224 59.447h-2.39812c-.45459 0-.82353-.3702-.82353-.8263 0-.4562.36894-.8264.82353-.8264h2.39812c.45459 0 .82353.3702.82353.8264 0 .4561-.3673.8263-.82353.8263z"/><path d="m21.9998 53.2822h-8.2798c-.4546 0-.8235-.3702-.8235-.8264s.3689-.8264.8235-.8264h8.2798c.4546 0 .8235.3702.8235.8264s-.3673.8264-.8235.8264z"/><path d="m21.9998 50.1998h-2.0704c-.4546 0-.8235-.3703-.8235-.8264 0-.4562.3689-.8264.8235-.8264h2.0704c.4546 0 .8235.3702.8235.8264 0 .4561-.3673.8264-.8235.8264z"/><path d="m16.6172 62.5295h-2.8972c-.4546 0-.8235-.3702-.8235-.8264s.3689-.8264.8235-.8264h2.8972c.4546 0 .8235.3702.8235.8264s-.3689.8264-.8235.8264z"/><path d="m110.412 19.473h-16.5197c-.4546 0-.8236-.3703-.8236-.8264 0-.4562.369-.8264.8236-.8264h16.5197c.455 0 .824.3702.824.8264 0 .4561-.368.8264-.824.8264z"/><path d="m115.159 19.473h-2.382c-.454 0-.823-.3703-.823-.8264 0-.4562.369-.8264.823-.8264h2.382c.455 0 .824.3702.824.8264 0 .4561-.369.8264-.824.8264z"/><path d="m121.836 19.473h-4.193c-.455 0-.824-.3703-.824-.8264 0-.4562.369-.8264.824-.8264h4.193c.455 0 .824.3702.824.8264 0 .4561-.369.8264-.824.8264z"/><path d="m121.836 22.5554h-15.838c-.454 0-.823-.3702-.823-.8264s.369-.8264.823-.8264h15.838c.455 0 .824.3702.824.8264s-.369.8264-.824.8264z"/><path d="m103.145 22.5554h-.955c-.454 0-.823-.3702-.823-.8264s.369-.8264.823-.8264h.955c.455 0 .824.3702.824.8264s-.367.8264-.824.8264z"/><path d="m99.2304 22.5554h-2.3981c-.4546 0-.8236-.3702-.8236-.8264s.369-.8264.8236-.8264h2.3981c.4546 0 .8236.3702.8236.8264s-.3674.8264-.8236.8264z"/><path d="m114.278 16.3922h-8.28c-.454 0-.823-.3702-.823-.8264s.369-.8264.823-.8264h8.28c.455 0 .823.3702.823.8264s-.368.8264-.823.8264z"/><path d="m114.278 13.3097h-2.07c-.455 0-.824-.3702-.824-.8263 0-.4562.369-.8264.824-.8264h2.07c.455 0 .823.3702.823.8264 0 .4561-.368.8263-.823.8263z"/><path d="m108.895 25.6378h-2.897c-.454 0-.823-.3702-.823-.8264 0-.4561.369-.8264.823-.8264h2.897c.455 0 .824.3703.824.8264 0 .4562-.369.8264-.824.8264z"/></g><path d="m55.0476 62.815h52.4044c.351-1.9507.535-3.9262.548-5.9062-.016-1.9731-.199-3.9416-.548-5.8858h-45.8065zm48.2934 7.3726h-53.3526l-2.635 5.0101c1.6175 2.5016 3.5663 4.7884 5.797 6.8023h41.4639c3.7411-3.2888 6.7157-7.3083 8.7267-11.792zm-46.9204-26.2038h48.3704c-2.161-4.2726-5.2713-8.0244-9.1064-10.9838h-42.5237c-10.4817 8.1056-14.7107 21.6749-10.6204 34.0765z" style="fill-rule:evenodd;clip-rule:evenodd;fill:#3f7ab1;stroke:#472b29;stroke-width:1.4;stroke-linecap:round;stroke-linejoin:bevel"/></svg>