<svg fill="none" height="24" viewBox="0 0 19 24" width="19" xmlns="http://www.w3.org/2000/svg"><path d="m5.28948 0c-.09863 0-.19484.0304928-.27556.0871713l-4.789398 3.3525787c-.001567.00093-.003129.00187-.004686.00281l-.004686.00375c-.012968.00906-.02548.01876-.037491.02906-.012119.01065-.023693.02192-.034678.03374-.010545.01107-.020553.02265-.029993.03468-.002538.00309-.005038.00621-.007498.00937-.0076084.01033-.0147999.02096-.0215567.03187-.0049234.00798-.0096117.01611-.0140589.02437-.0022454.00402-.0044326.00809-.0065608.01218-.0061812.01256-.0118102.02538-.0168707.03843-.0009535.00218-.0018908.00436-.0028118.00656-.0006303.00124-.0012551.00249-.0018745.00375-.0049653.01323-.0093434.02668-.0131216.0403-.0016878.00622-.0032502.01247-.0046863.01874-.006393.02679-.0104695.05407-.0121845.08155-.0005871.00936-.0008996.01873-.0009372.02811v8.63778c.0000265.265.214859.4799.479877.4799h1.906386l-2.172568 1.5202c-.001567.001-.003129.0019-.004686.0028l-.004686.0038c-.011613.0079-.022871.0164-.033742.0253-.1430037.1136-.2091283.2985-.170581.4771v8.4475c-.0264516.1557.0254217.3145.138715.4246.000933.0009.00187.0018.002811.0028.002166.0022.004353.0044.006561.0065.108632.1037.259496.1505.407708.1266h12.880778c.0264-.0004.0527-.0029.0787-.0075.0261-.0042.0518-.0104.0769-.0188.0019-.0009.0037-.0018.0056-.0028.013-.0044.0258-.0094.0384-.015.0248-.0111.0487-.0242.0713-.0393.0041-.0028.0081-.0056.0121-.0085.0084-.0063.0165-.0128.0244-.0197l.0019-.0009c.0019-.0019.0038-.0037.0056-.0056l4.3114-3.5925c.1092-.0912.1726-.2261.1726-.3684v-8.3978c-.0003-.0467-.0072-.0931-.0208-.1378-.0003-.0013-.0006-.0025-.0009-.0038-.0283-.0911-.0831-.1717-.1575-.2315-.0009-.0009-.0018-.0018-.0028-.0028-.0239-.019-.0497-.0356-.0768-.0497-.0013-.0006-.0025-.0012-.0038-.0018-.0131-.0069-.0266-.0132-.0403-.0188-.0009-.0003-.0018-.0006-.0028-.0009-.0288-.0113-.0586-.0198-.089-.0253-.0013-.0003-.0025-.0006-.0038-.001-.0269-.0045-.0542-.0067-.0815-.0065h-1.8417l2.1491-1.79112c.1092-.09115.1726-.22607.1726-.36834v-1.16971-.20994-.76106c0-.00625 0-.0125 0-.01874v-1.80329-4.435117c-.0003-.046684-.0072-.093099-.0208-.137777-.0003-.001251-.0006-.002501-.0009-.003749-.0283-.091103-.0831-.171701-.1575-.231503-.0009-.000941-.0018-.001879-.0028-.002812-.0239-.0189685-.0497-.0356024-.0768-.0496748-.0013-.0006303-.0025-.0012551-.0038-.0018745-.0131-.0068675-.0266-.0131226-.0403-.0187452-.0009-.0003153-.0018-.0006278-.0028-.0009373-.0288-.0112846-.0586-.0197593-.089-.02530601-.0013-.00031745-.0025-.00062988-.0038-.00093726-.0269-.0045037-.0542-.00656693-.0815-.00656693zm.1509.959761h10.92752l-3.0855 2.399389h-11.26959zm11.84602.500499v4.41449.84354.76105c-.0001.00625-.0001.0125 0 .01875v.20994.94476l-2.9505 2.45941c-.0344.0218-.0659.0479-.0937.0778l-.3149.2624v-.4152-1.80331-5.16055zm-16.315819 2.85864h11.996919v5.8747.6618.1818.9597h-.4799-.8435-.1059-.0103-.3637-7.18033c-.01275-.0017-.02557-.003-.03842-.0037-.01593-.0008-.03188-.0008-.04781 0-.01066.0009-.02128.0021-.03186.0037h-2.895199zm13.802119 7.678h1.5952l-2.0564 1.5999-1.0281.7995h-2.7153-.95973-7.59556l2.05635-1.4396h6.13534 1.3234.1059.8538.8642c.1284.0232.2607-.007.3665-.0834.0006-.0003.0012-.0006.0018-.001.012-.0085.0236-.0176.0347-.0271l.0019-.001c.0019-.0018.0038-.0037.0056-.0056zm2.5137.5005v7.1926l-3.3591 2.7996v-7.3791zm-16.315819 2.8587h8.637789.95973 2.3994v7.678h-11.996919z" fill="#fff"/></svg>