<svg width="33" height="32" viewBox="0 0 33 32" fill="none" xmlns="http://www.w3.org/2000/svg">
<path fill-rule="evenodd" clip-rule="evenodd" d="M13.3194 0L19.6806 0C24.1382 0 25.7546 0.464128 27.3842 1.33566C29.0139 2.2072 30.2928 3.48614 31.1643 5.11577C32.0359 6.7454 32.5 8.36183 32.5 12.8194V19.1806C32.5 23.6382 32.0359 25.2546 31.1643 26.8842C30.2928 28.5139 29.0139 29.7928 27.3842 30.6643C25.7546 31.5359 24.1382 32 19.6806 32H13.3194C8.86183 32 7.2454 31.5359 5.61577 30.6643C3.98614 29.7928 2.7072 28.5139 1.83566 26.8842C0.964128 25.2546 0.5 23.6382 0.5 19.1806L0.5 12.8194C0.5 8.36183 0.964128 6.7454 1.83566 5.11577C2.7072 3.48614 3.98614 2.2072 5.61577 1.33566C7.2454 0.464128 8.86183 0 13.3194 0ZM25.1011 16.9829H22.2143V28.5714H17.9286V16.9829H15.3571V13.4171H17.9286V11.2688C17.9303 8.14167 19.1791 6.28571 22.7217 6.28571H25.6429V9.85143H23.6826C22.3034 9.85143 22.2143 10.3863 22.2143 11.3874V13.4171H25.6429L25.1011 16.9829Z" fill="white"/>
</svg>
