<svg height="84" viewBox="0 0 62 84" width="62" xmlns="http://www.w3.org/2000/svg"><path d="m88.0048185 76.5c-10.8542175 0-19.6785555 8.8807235-19.6785555 19.7913266 0 3.0730123 1.3321081 6.6112064 3.3831328 10.4313264 2.0510247 3.820121 4.8562047 7.865783 7.9503619 11.615422 3.0941573 3.749639 6.4631928 7.196205 9.7546995 9.7547 2.2131336 1.719759 4.3557843 3.065964 6.4843378 3.777831l-1.4096387 4.17253h2.5937351c-.1409638.859881-.4017465 1.52241-.6766265 2.199037-.4228916 1.05723-1.0149398 2.318855-1.0149398 4.116145 0 2.297712 1.1770487 4.052711 2.0862652 5.525783.9092164 1.473072 1.5224097 2.671266 1.5224097 3.495904 0 3.559337-1.4096386 5.18747-1.4096386 5.18747-.6202411.775302-.5004222 1.917109.2819277 2.53735.7753021.620241 1.9171085.500422 2.5373499-.281928 0 0 2.199036-2.826325 2.199036-7.442892 0-2.241325-1.191144-3.904698-2.086265-5.356627-.8951213-1.451927-1.52241-2.692409-1.52241-3.66506 0-1.029036.3171682-1.635181.7893976-2.819278.3524104-.873976.7259644-2.008734.9021684-3.495904h2.819278l-1.409639-4.17253c2.128555-.711867 4.271206-2.058072 6.484338-3.777831 3.291507-2.558495 6.660542-6.005061 9.754699-9.7547 3.094158-3.749639 5.899338-7.795301 7.950362-11.615422 2.051025-3.82012 3.383133-7.3583141 3.383133-10.4313264 0-10.9035554-8.824338-19.7913266-19.678556-19.7913266-4.109097 0-7.844638 1.4378314-10.995181 3.6086749-3.1505428-2.1708435-6.8860843-3.6086749-10.9951815-3.6086749zm0 3.6086749c3.7355434 0 7.1327716 1.2827721 9.8674706 3.4395183.662531.528615 1.5928926.528615 2.2554219 0 2.734699-2.1567462 6.131929-3.4395183 9.86747-3.4395183 8.887772 0 16.069881 7.2103022 16.069881 16.1826517 0 1.8959635-1.085421 5.1874704-2.988434 8.7397594-1.903011 3.55229-4.60247 7.407652-7.555663 10.995182s-6.195362 6.864941-9.190844 9.190844c-2.995482 2.325904-5.779518 3.608675-7.330121 3.608675-1.5506025 0-4.3346393-1.282771-7.330121-3.608675-2.9954816-2.325903-6.2376505-5.603314-9.190844-9.190844-2.9531934-3.58753-5.65265-7.442892-7.5556631-10.995182-1.9030113-3.552289-2.9884339-6.8437959-2.9884339-8.7397594 0-8.9723495 7.1821093-16.1826517 16.0698805-16.1826517z" fill="#3aaee6" fill-rule="evenodd" transform="translate(-68 -76)"/></svg>