<svg fill="none" height="117" viewBox="0 0 140 117" width="140" xmlns="http://www.w3.org/2000/svg"><path d="m133.982 69.5274c.494-1.0182.932-2.0892 1.311-3.2114 4.336-12.8421-2.222-28.2261-16.031-31.9399-1.492-18.8152-14.669-31.72179-29.55-33.924946-17.0322-2.520484-32.6348 8.336616-37.8263 25.593246-6.2572-2.2246-12.3546-1.9536-18.1012 1.4164-2.6073 1.2099-4.9922 2.9949-7.1318 5.3435-3.1409 3.4477-5.1833 7.7994-6.015 12.3875-1.232.1951-2.4426.3901-3.584.8-6.6541 2.3949-10.8525 7.3235-12.00379 14.7477-.71647 4.6229.72965 9.2341 1.53671 11.0968 3.18706 7.3631 10.57738 11.5364 18.08638 10.4323.3739-.0545.9174.1141 1.2386.3851.3969 11.7678 6.0908 22.1753 14.6324 28.1203 13.7052 9.54 31.3386 6.601 42.4629-6.48 4.7665 4.892 10.439 7.268 17.1031 6.406 6.626-.858 11.771-4.527 15.525-10.494 1.734.468 3.378 1.142 5.078 1.329 6.657.731 12.063-1.9254 16.029-7.9333 1.519-2.299 2.955-5.279 2.955-10.5017 0-5.3798-2.131-10.2836-5.715-13.5726z" fill="#dfeaf5"/><g fill="#fff"><path d="m18.1358 56.3646h-16.52168c-.45459 0-.823532-.3702-.823532-.8264 0-.4561.368942-.8263.823532-.8263h16.52168c.4546 0 .8235.3702.8235.8263 0 .4562-.3689.8264-.8235.8264z"/><path d="m22.8793 56.3646h-2.3816c-.4546 0-.8236-.3702-.8236-.8264 0-.4561.369-.8263.8236-.8263h2.3816c.4546 0 .8235.3702.8235.8263 0 .4562-.3673.8264-.8235.8264z"/><path d="m29.5581 56.3646h-4.1934c-.4546 0-.8235-.3702-.8235-.8264 0-.4561.3689-.8263.8235-.8263h4.1934c.4546 0 .8236.3702.8236.8263 0 .4562-.369.8264-.8236.8264z"/><path d="m29.5581 59.4471h-15.8381c-.4546 0-.8235-.3703-.8235-.8264 0-.4562.3689-.8264.8235-.8264h15.8381c.4546 0 .8236.3702.8236.8264 0 .4561-.369.8264-.8236.8264z"/><path d="m10.8673 59.4471h-.95527c-.45459 0-.82353-.3703-.82353-.8264 0-.4562.36894-.8264.82353-.8264h.95527c.4546 0 .8236.3702.8236.8264 0 .4561-.3673.8264-.8236.8264z"/><path d="m6.95224 59.4471h-2.39812c-.45459 0-.82353-.3703-.82353-.8264 0-.4562.36894-.8264.82353-.8264h2.39812c.45459 0 .82353.3702.82353.8264 0 .4561-.3673.8264-.82353.8264z"/><path d="m21.9998 53.2822h-8.2798c-.4546 0-.8235-.3702-.8235-.8264s.3689-.8264.8235-.8264h8.2798c.4546 0 .8235.3702.8235.8264s-.3673.8264-.8235.8264z"/><path d="m21.9998 50.1998h-2.0704c-.4546 0-.8235-.3702-.8235-.8264s.3689-.8264.8235-.8264h2.0704c.4546 0 .8235.3702.8235.8264s-.3673.8264-.8235.8264z"/><path d="m16.6172 62.5295h-2.8972c-.4546 0-.8235-.3702-.8235-.8264s.3689-.8264.8235-.8264h2.8972c.4546 0 .8235.3702.8235.8264s-.3689.8264-.8235.8264z"/><path d="m110.412 19.473h-16.5197c-.4546 0-.8236-.3703-.8236-.8264 0-.4562.369-.8264.8236-.8264h16.5197c.455 0 .824.3702.824.8264 0 .4561-.368.8264-.824.8264z"/><path d="m115.159 19.473h-2.382c-.454 0-.823-.3703-.823-.8264 0-.4562.369-.8264.823-.8264h2.382c.455 0 .824.3702.824.8264 0 .4561-.369.8264-.824.8264z"/><path d="m121.836 19.473h-4.193c-.455 0-.824-.3703-.824-.8264 0-.4562.369-.8264.824-.8264h4.193c.455 0 .824.3702.824.8264 0 .4561-.369.8264-.824.8264z"/><path d="m121.836 22.5554h-15.838c-.454 0-.823-.3702-.823-.8264s.369-.8264.823-.8264h15.838c.455 0 .824.3702.824.8264s-.369.8264-.824.8264z"/><path d="m103.145 22.5554h-.955c-.454 0-.823-.3702-.823-.8264s.369-.8264.823-.8264h.955c.455 0 .824.3702.824.8264s-.367.8264-.824.8264z"/><path d="m99.2304 22.5554h-2.3981c-.4546 0-.8236-.3702-.8236-.8264s.369-.8264.8236-.8264h2.3981c.4546 0 .8236.3702.8236.8264s-.3674.8264-.8236.8264z"/><path d="m114.278 16.3922h-8.28c-.454 0-.823-.3702-.823-.8264s.369-.8264.823-.8264h8.28c.455 0 .823.3702.823.8264s-.368.8264-.823.8264z"/><path d="m114.278 13.3098h-2.07c-.455 0-.824-.3703-.824-.8264 0-.4562.369-.8264.824-.8264h2.07c.455 0 .823.3702.823.8264 0 .4561-.368.8264-.823.8264z"/><path d="m108.895 25.6378h-2.897c-.454 0-.823-.3702-.823-.8264 0-.4561.369-.8264.823-.8264h2.897c.455 0 .824.3703.824.8264 0 .4562-.369.8264-.824.8264z"/></g><path d="m46.5854 98.3105h5.2953c3.1557 0 5.7136-2.5122 5.7136-5.6128 0-2.7039-1.9468-4.96-4.5393-5.4922.0297-.2363.0511-.476.0511-.7206 0-3.2097-2.6501-5.8128-5.9179-5.8128-1.9303 0-3.6383.9107-4.7188 2.3155-.2767-3.5733-3.5264-6.3301-7.3294-5.8739-2.7803.3338-5.0796 2.4444-5.5918 5.15-.1647.8677-.1466 1.709.0165 2.499-.7461-.7883-1.8068-1.2842-2.9878-1.2842-2.1626 0-3.9282 1.6545-4.0682 3.7436-.9817-.2132-2.0506-.2-3.1755.2148-2.1511.7934-3.6829 2.7817-3.7718 5.036-.1268 3.2015 2.4772 5.8376 5.7103 5.8376h1.3078 11.8654zm-9.688 0h.5386z" fill="#f7fbff"/><path d="m51.8807 99.1369h-5.2953c-.4546 0-.8235-.3702-.8235-.8264 0-.4561.3689-.8263.8235-.8263h5.2953c2.6962 0 4.8901-2.147 4.8901-4.7865 0-2.2511-1.6322-4.2212-3.8805-4.6807-.4216-.0876-.7066-.4842-.6522-.9139.0264-.2033.0428-.4099.0428-.6182 0-2.7485-2.2861-4.9864-5.0943-4.9864-1.6109 0-3.0916.7256-4.0683 1.9932-.2075.2711-.5616.3818-.8877.2876-.3261-.0991-.5584-.3867-.5847-.7272-.117-1.509-.8334-2.8775-2.021-3.8543-1.2221-1.0082-2.7769-1.4544-4.3894-1.2644-2.4294.2926-4.4372 2.1371-4.8802 4.484-.1384.7322-.1351 1.466.0132 2.1767.0741.362-.0989.7289-.425.9008-.3261.1702-.7247.1025-.9783-.1636-.6276-.6628-1.4758-1.028-2.3916-1.028-1.7096 0-3.1343 1.3056-3.2463 2.9733-.0165.2413-.1351.4611-.3278.6049-.191.1471-.4365.2-.6703.1471-.9356-.2033-1.825-.1438-2.716.1835-1.8596.6842-3.1575 2.4097-3.2332 4.2922-.0511 1.2925.4167 2.5222 1.3176 3.4643.9356.9768 2.2021 1.5139 3.5692 1.5139h13.1732c.4546 0 .8235.3702.8235.8264s-.3689.8264-.8235.8264h-13.1732c-1.7936 0-3.528-.7372-4.7583-2.023-1.2139-1.2677-1.8448-2.9271-1.7756-4.6724.1005-2.5436 1.8332-4.8658 4.3104-5.7798.9042-.3322 1.8381-.4578 2.7802-.3768.5468-2.0974 2.4805-3.6328 4.7468-3.6328.7099 0 1.4066.1553 2.044.4446.0182-.3273.0577-.6562.1203-.9867.5764-3.0478 3.1673-5.4393 6.3033-5.8162 2.0588-.2528 4.0567.3306 5.6296 1.6247 1.1002.9057 1.8892 2.0743 2.3042 3.3849 1.181-.9388 2.6518-1.4577 4.2116-1.4577 3.7174 0 6.7414 2.9783 6.7414 6.6392v.0991c2.6419.8578 4.4915 3.3238 4.4915 6.1137.0017 3.5534-2.9317 6.4408-6.5355 6.4408zm-14.4464 0h-.5369c-.4546 0-.8235-.3702-.8235-.8264 0-.4561.3689-.8263.8235-.8263h.5369c.4546 0 .8236.3702.8236.8263 0 .4562-.3673.8264-.8236.8264z" fill="#472b29"/><path d="m49.3261 90.3904c-.0297 0-.0593-.0033-.0906-.0099-.2224-.0496-.3607-.271-.3113-.4942.056-.2512.1416-.4958.2569-.7272.9141-1.8561 3.4341-2.542 5.6165-1.5271.2059.0958.2965.3404.2009.547-.0971.2083-.3409.2992-.5468.2017-1.7788-.8281-3.8129-.3141-4.531 1.1437-.084.1719-.1483.3553-.1911.5421-.0445.1934-.2141.3239-.4035.3239z" fill="#472b29"/><path d="m41.6096 99.1369h-1.6553c-.4546 0-.8235-.3702-.8235-.8264 0-.4561.3689-.8263.8235-.8263h1.6553c.4546 0 .8236.3702.8236.8263 0 .4562-.3673.8264-.8236.8264z" fill="#472b29"/><path d="m113.867 80.2703h17.592c4.039 0 7.312-3.2841 7.312-7.3367 0-3.5353-2.492-6.4855-5.81-7.1797.038-.309.065-.6231.065-.9421 0-4.1964-3.39-7.5994-7.572-7.5994-2.469 0-4.656 1.1916-6.038 3.0262-.354-4.6707-4.511-8.2754-9.377-7.6788-3.557.4363-6.501 3.1965-7.155 6.7318-.209 1.1338-.187 2.2345.022 3.2675-.954-1.0313-2.311-1.6792-3.8246-1.6792-2.767 0-5.0268 2.1618-5.2047 4.8939-1.2567-.2794-2.6237-.2612-4.0633.2809-2.7522 1.0363-4.7122 3.6361-4.8259 6.5831-.163 4.1864 3.1706 7.6308 7.3048 7.6308h1.6717 15.183" fill="#f7fbff"/><path d="m131.459 81.095h-17.592c-.455 0-.823-.3702-.823-.8264s.368-.8264.823-.8264h17.592c3.578 0 6.488-2.9204 6.488-6.5086 0-3.0643-2.167-5.7467-5.154-6.3715-.418-.0876-.7-.4826-.649-.909.035-.2777.058-.557.058-.8429 0-3.7353-3.027-6.7731-6.75-6.7731-2.128 0-4.089.9834-5.38 2.699-.206.2743-.56.3884-.89.2942-.329-.0975-.563-.3868-.59-.7289-.154-2.0461-1.154-3.9683-2.74-5.2724-1.604-1.3189-3.634-1.9006-5.717-1.6478-3.207.3934-5.857 2.8858-6.445 6.0641-.183.99-.176 1.9816.018 2.9502.074.3636-.102.7289-.43.8991-.326.1735-.728.0975-.98-.1719-.845-.914-1.99-1.4148-3.2215-1.4148-2.3059 0-4.2313 1.8115-4.3828 4.1204-.0165.2413-.1351.4628-.3278.6082-.1927.1455-.4398.1934-.672.1455-1.2452-.2761-2.4195-.1951-3.5955.2462-2.4673.9305-4.1918 3.2775-4.2923 5.8426-.0691 1.7916.5716 3.4857 1.8052 4.7749 1.2353 1.2875 2.8955 1.9982 4.6777 1.9982h16.854c.455 0 .824.3702.824.8264 0 .4561-.369.8264-.824.8264h-16.8508c-2.2334 0-4.3169-.8892-5.8651-2.5057-1.5466-1.6164-2.352-3.7418-2.2647-5.9847.1251-3.2196 2.2795-6.1632 5.3595-7.3251 1.1859-.4479 2.4063-.5966 3.6581-.4611.5962-2.7337 3.0339-4.7666 5.8998-4.7666.9932 0 1.9662.2496 2.8332.714.006-.5405.059-1.0842.159-1.6263.719-3.8791 3.953-6.9219 7.865-7.4012 2.528-.3124 5.006.4016 6.961 2.0098 1.48 1.2181 2.541 2.8791 3.042 4.7121 1.513-1.3355 3.449-2.0759 5.512-2.0759 4.63 0 8.397 3.7799 8.397 8.4258 0 .1058-.001.2116-.006.3174 3.373 1.0379 5.751 4.2096 5.751 7.806 0 4.4972-3.65 8.1598-8.135 8.1598z" fill="#472b29"/><path d="m109.631 64.1077c-2.705-.1785-5.032 1.6958-5.2 4.1865-.021.3091-.006.6132.038.9091-.522-.5917-1.295-.9917-2.181-1.0512-1.622-.1074-3.0237.9685-3.2263 2.4312-.2948-.081-.6028-.1355-.9224-.157-2.3668-.1554-4.4042 1.4842-4.5492 3.6626" fill="#fdfcef"/><path d="m93.5901 74.5037c-.0082 0-.0181 0-.028-.0016-.2272-.0149-.3985-.2116-.3837-.4397.163-2.4031 2.4162-4.2195 4.9873-4.0476.1927.0115.3887.0363.583.0727.4283-1.4511 1.9073-2.4709 3.5673-2.347.611.0381 1.199.2331 1.703.5471 0-.0066.002-.0149.002-.0215.181-2.7138 2.711-4.7798 5.636-4.5716.228.0149.399.2116.384.4397-.015.2264-.209.4165-.438.3834-2.486-.1603-4.61 1.5437-4.762 3.8031-.018.271-.006.547.035.8181.028.1801-.068.3603-.232.438-.162.0777-.361.0363-.483-.1008-.469-.5322-1.163-.8644-1.899-.914-1.39-.0843-2.6189.8214-2.7919 2.0759-.0164.1173-.0823.2231-.1811.2892-.1005.0645-.2207.0843-.336.0529-.28-.076-.5633-.124-.84-.1438-2.1429-.0859-3.981 1.3321-4.1127 3.2791-.0132.2198-.1944.3884-.4102.3884z" fill="#472b29"/><path d="m134.419 66.6117c-2.541-1.2016-5.48-.352-6.563 1.9007-.136.2793-.234.5686-.3.8611" fill="#fdfcef"/><path d="m127.554 69.7867c-.03 0-.061-.0033-.092-.0099-.222-.0513-.361-.2727-.31-.4959.074-.3272.186-.6478.331-.9487 1.181-2.4527 4.372-3.3915 7.111-2.0957.206.0992.294.3438.197.5504s-.344.2942-.548.1983c-2.336-1.1057-5.034-.3388-6.019 1.704-.118.2463-.209.5075-.27.7752-.041.1934-.21.3223-.4.3223z" fill="#472b29"/><path d="m32.3861 39.1825 64.3173-15.8925 15.8376 64.5405-64.3173 15.8925z" fill="#3f7ab1"/><path d="m52.6235 97.2478c-.3706 0-.7066-.2513-.7988-.6298l-12.964-52.8244c-.0527-.2115-.0181-.438.0955-.6247.112-.1868.2949-.3223.5073-.3752l52.6433-13.009c.4447-.1075.8878.1619.9965.6049l12.9637 52.8261c.053.2115.018.438-.095.6247-.112.1868-.297.3223-.508.3752l-52.6428 13.0074c-.0659.0165-.1318.0248-.1977.0248zm-11.9675-53.0459 12.5704 51.2179 45.1656-11.1596 5.878-1.4528-12.57-51.2195z" fill="#fff"/><path d="m95.3277 66.8603c.0099-.0033.0201-.0062.0304-.0088l5.1139-1.2644c.224-.0545.445.0827.498.3041l2.182 8.8936c.026.1058.008.2182-.048.3108-.056.0958-.148.1619-.253.1884l-51.8515 12.8123c-.0313.0116-.0642.0132-.0955.0132-.1861 0-.3541-.1256-.4002-.314-.0544-.2215.0807-.4462.3014-.5008l51.4508-12.7115-1.986-8.092-4.6871 1.1581c-.0099.0033-.0201.0062-.0304.0088l-.0363.0082-46.6974 11.5397c-.0329.0083-.0659.0116-.0988.0116-.1861 0-.3541-.1256-.4002-.314-.0544-.2215.0807-.4463.3014-.5008l41.3148-10.2092c.0066-.0017.0148-.0033.0231-.0066zm-53.1548-14.3235c-.1861 0-.3541-.1256-.4002-.314-.0543-.2215.0807-.4463.3014-.5008l51.8511-12.8123c.2273-.0513.4447.0826.4974.3041.0543.2214-.0807.4462-.3014.5008l-51.8511 12.8123c-.0313.0066-.0642.0099-.0972.0099zm2.1824 8.8936c-.1861 0-.3541-.1256-.4002-.314-.0544-.2215.0807-.4463.3014-.5008l51.851-12.8123c.224-.0546.4447.0826.4974.3041.0544.2214-.0807.4462-.3014.5008l-51.8494 12.8106c-.0329.0083-.0659.0116-.0988.0116zm2.184 8.8936c-.1861 0-.3541-.1256-.4002-.314-.0544-.2215.0807-.4463.3014-.5008l52.2463-12.9115c.2224-.0513.4447.0826.4974.3041.0544.2215-.0807.4462-.3014.5008l-52.2463 12.9115c-.033.0066-.0659.0099-.0972.0099z" fill="#fff" opacity=".37"/><path d="m87.7109 87.7426c-.1862 0-.3542-.1256-.4003-.314l-12.768-52.0295c-.0543-.2214.0807-.4462.3014-.5007.2273-.0513.4447.0826.4975.3041l12.768 52.0294c.0543.2215-.0807.4463-.3015.5008-.0313.0066-.0642.0099-.0971.0099zm-17.7257 4.3799c-.1861 0-.3541-.1256-.4002-.314l-12.768-52.0295c-.0544-.2215.0807-.4462.3014-.5008.224-.0529.4447.0827.4974.3041l12.768 52.0295c.0544.2214-.0807.4462-.3014.5008-.0313.0066-.0642.0099-.0972.0099zm8.8628-2.1899c-.1861 0-.3541-.1257-.4002-.3141l-12.768-52.0294c-.0543-.2215.0807-.4463.3014-.5008.2257-.0546.4447.0826.4974.3041l12.768 52.0294c.0544.2215-.0807.4463-.3014.5008-.0313.0066-.0642.01-.0972.01zm-17.7256 4.3798c-.1861 0-.3541-.1256-.4002-.314l-12.768-52.0295c-.0544-.2214.0807-.4462.3014-.5008.2273-.0561.4447.0827.4974.3042l12.768 52.0294c.0543.2215-.0807.4463-.3014.5008-.0313.0066-.0643.0099-.0972.0099zm35.4513-8.7581c-.1861 0-.3541-.1256-.4002-.314l-12.768-52.0311c-.0544-.2215.0807-.4462.3014-.5008.224-.0529.4447.0827.4974.3041l12.768 52.0311c.0543.2215-.0807.4463-.3014.5008-.0313.0066-.0643.0099-.0972.0099z" fill="#fff" opacity=".37"/><path d="m48.2243 104.879c-.5172 0-.9899-.354-1.1184-.881l-15.8381-64.5413c-.1515-.6198.2256-1.2462.8433-1.3999l64.3176-15.8931c.6177-.1487 1.2436.2281 1.3951.8479l15.8382 64.541c.151.6197-.226 1.2462-.843 1.3999l-64.318 15.8935c-.0939.021-.1862.033-.2767.033zm-14.4431-64.8504 15.2864 62.2934 62.0774-15.3413-15.2862-62.2948z" fill="#472b29"/><path d="m63.224 80.0175c-.1861 0-.3541-.1256-.4002-.314l-5.0499-20.5754c-.0313-.1223-.0017-.2529.0757-.3537l10.1542-13.0256c.1136-.1454.3129-.1967.4809-.1272l15.9024 6.5863c.1218.0496.2108.157.2421.2843l5.0499 20.5754c.0263.1058.0082.2181-.0478.3107-.056.0959-.1482.162-.2537.1884l-26.0548 6.4392c-.0346.0083-.0675.0116-.0988.0116zm-4.6019-20.8927 4.9033 19.9787 25.2544-6.2392-4.9017-19.9722-15.4198-6.3863z" fill="#fff"/><path d="m97.6146 30.7648v42.6135 8.0821 6.6128h14.6444v-57.3084zm7.6884 54.0012c-.809 0-1.464-.6578-1.464-1.4693 0-.8116.655-1.4694 1.464-1.4694s1.464.6578 1.464 1.4694c0 .8115-.655 1.4693-1.464 1.4693z" fill="#d8a482"/><path d="m112.259 89.0979h-14.6444c-.5913 0-1.0706-.481-1.0706-1.0743v-6.6128c0-.5933.4793-1.0743 1.0706-1.0743s1.0706.481 1.0706 1.0743v5.5385h12.5028v-55.1598h-12.5028v41.5392c0 .5934-.4793 1.0743-1.0706 1.0743s-1.0706-.4809-1.0706-1.0743v-42.6135c0-.5934.4793-1.0743 1.0706-1.0743h14.6444c.591 0 1.07.4809 1.07 1.0743v57.3084c-.001.5933-.481 1.0743-1.07 1.0743z" fill="#472b29"/><path d="m111.855 46.1356h-3.261c-.318 0-.577-.2579-.577-.5785s.259-.5785.577-.5785h3.261c.318 0 .577.2579.577.5785s-.259.5785-.577.5785z" fill="#472b29"/><path d="m111.855 54.016h-3.261c-.318 0-.577-.2578-.577-.5784 0-.3207.259-.5785.577-.5785h3.261c.318 0 .577.2578.577.5785 0 .3206-.259.5784-.577.5784z" fill="#472b29"/><path d="m111.855 61.8965h-3.261c-.318 0-.577-.2579-.577-.5785s.259-.5785.577-.5785h3.261c.318 0 .577.2579.577.5785s-.259.5785-.577.5785z" fill="#472b29"/><path d="m111.855 69.7769h-3.261c-.318 0-.577-.2578-.577-.5784 0-.3207.259-.5785.577-.5785h3.261c.318 0 .577.2578.577.5785 0 .3206-.259.5784-.577.5784z" fill="#472b29"/><path d="m111.855 77.6574h-3.261c-.318 0-.577-.2579-.577-.5785s.259-.5785.577-.5785h3.261c.318 0 .577.2579.577.5785s-.259.5785-.577.5785z" fill="#472b29"/><path d="m111.855 38.2535h-3.261c-.318 0-.577-.2578-.577-.5785 0-.3206.259-.5784.577-.5784h3.261c.318 0 .577.2578.577.5784 0 .3207-.259.5785-.577.5785z" fill="#472b29"/><path d="m105.306 85.2965c-1.115 0-2.021-.909-2.021-2.0263 0-1.1189.906-2.028 2.021-2.028 1.114 0 2.021.9091 2.021 2.028s-.906 2.0263-2.021 2.0263zm0-2.8973c-.479 0-.868.39-.868.871 0 .4793.389.8694.868.8694.48 0 .867-.3901.867-.8694.001-.4793-.387-.871-.867-.871z" fill="#472b29"/><path d="m33.969 64.688c-2.7523 2.3651-3.869 5.6327-2.4805 7.259l27.0809 31.737c1.2535 1.469 11.228 5.784 13.5142 7.037.2306.126.5106.094.7115-.077l.3426-.295c.2635-.226.3623-.59.2437-.919-.9882-2.755-3.5675-12.9029-4.8011-14.3491l-27.081-31.7349c-1.3884-1.628-4.7764-1.0248-7.5303 1.342z" fill="#fdfcee"/><path d="m67.4619 108.467c2.0242.955 3.7866 1.781 4.6118 2.234.2487.136.5501.101.7642-.082l.369-.318c.2865-.246.387-.643.2602-1-.3426-.957-.8614-2.73-1.4511-4.748z" fill="#999"/><path d="m67.4998 108.351c-.1153 0-.2322-.048-.3129-.145-.1483-.172-.1285-.435.0444-.582l3.8937-3.344c.1746-.15.4348-.13.5814.045.1482.172.1285.435-.0445.582l-3.8936 3.343c-.0791.068-.173.101-.2685.101z" fill="#472b29"/><path d="m37.0594 78.4768 10.0113-8.6019 21.906 25.6727-10.0114 8.6014z" fill="#f5ae37"/><path d="m58.9647 104.561c-.1153 0-.2322-.048-.3129-.145-.1483-.172-.1285-.435.0444-.582l10.0109-8.601c.1729-.1487.4331-.1289.5814.0446.1482.1719.1285.4347-.0445.5818l-10.0108 8.6006c-.0791.068-.173.101-.2685.101z" fill="#472b29"/><path d="m59.7207 101.494c-.1153 0-.2322-.048-.3129-.144l-20.9539-24.5554c-.1482-.1735-.1285-.4363.0445-.5834.1746-.1504.4331-.1289.5814.043l20.9539 24.5568c.1482.174.1284.436-.0445.584-.0791.067-.1729.099-.2685.099z" fill="#472b29"/><path d="m62.9819 92.8877c-.1153 0-.2322-.0479-.3129-.1438l-18.0963-21.2068c-.1482-.1735-.1284-.4347.0445-.5834.1713-.1504.4348-.1289.5814.043l18.0963 21.2068c.1482.1735.1284.4346-.0445.5834-.0774.0694-.173.1008-.2685.1008z" fill="#472b29"/><path d="m64.1711 97.6709c-.1153 0-.2322-.048-.3129-.1438l-18.0963-21.2068c-.1482-.1736-.1284-.4347.0445-.5835.173-.1504.4332-.1289.5814.043l18.0963 21.2068c.1482.1735.1284.4347-.0445.5834-.0791.0678-.1746.1009-.2685.1009z" fill="#472b29"/><path d="m61.3892 100.061c-.1152 0-.2322-.048-.3129-.1457l-20.9522-24.5569c-.1483-.1719-.1285-.4347.0444-.5818.173-.1504.4332-.1306.5814.0446l20.9539 24.557c.1483.1719.1285.4347-.0444.5818-.0807.068-.1746.101-.2702.101z" fill="#472b29"/><path d="m64.886 95.1206c-.1153 0-.2323-.0479-.313-.1438l-.952-1.1156c-.1482-.1735-.1285-.4347.0445-.5834.1729-.1488.4348-.1273.5814.0429l.952 1.1157c.1482.1735.1285.4347-.0445.5834-.0774.0678-.1729.1008-.2684.1008z" fill="#472b29"/><path d="m45.1212 75.3468c-.1153 0-.2322-.0479-.3129-.1455l-1.904-2.2329c-.1483-.1719-.1285-.4346.0444-.5817.1746-.1504.4349-.1306.5815.0446l1.904 2.2329c.1482.1719.1284.4347-.0445.5818-.0774.0677-.173.1008-.2685.1008z" fill="#472b29"/><path d="m45.6812 68.2465-4.7864-5.6096c-1.3884-1.628-4.7764-1.023-7.5303 1.3421-2.7523 2.3651-3.869 5.6327-2.4805 7.259l4.5558 5.3385c3.3979-2.7916 6.8616-5.5137 10.2414-8.33z" fill="#f48e8f"/><path d="m33.2499 74.0114 10.0114-8.6019 3.8093 4.4644-10.0113 8.6018z" fill="#beace5"/><path d="m33.2903 73.9072c-.1153 0-.2322-.0479-.3129-.1454-.1482-.1719-.1285-.4347.0445-.5835l7.2339-6.2078c.1729-.1471.4331-.1289.5814.0463.1482.1719.1284.4347-.0445.5834l-7.2339 6.2079c-.079.0661-.1746.0991-.2685.0991z" fill="#472b29"/><path d="m34.7184 75.5798c-.1153 0-.2323-.0479-.313-.1454-.1482-.1719-.1284-.4347.0445-.5818l9.6155-8.2606c.1746-.1504.4332-.1305.5814.0446.1483.1719.1285.4347-.0444.5818l-9.6155 8.2606c-.0791.0694-.173.1008-.2685.1008z" fill="#472b29"/><path d="m36.8217 78.7746c-.1631 0-.3245-.0677-.4382-.2016-.2075-.2413-.1795-.6082.0626-.8148l10.0109-8.6011c.2404-.2066.6077-.1785.8119.0628.2076.2413.1796.6083-.0625.8149l-10.0109 8.601c-.1087.0942-.2421.1388-.3738.1388z" fill="#472b29"/><path d="m41.6327 66.7391c-.1152 0-.2305-.0479-.3129-.1438-.1482-.1735-.1285-.4347.0445-.5834l1.2715-1.0942c.1729-.1504.4315-.1289.5814.043.1483.1736.1285.4347-.0445.5835l-1.2715 1.0941c-.079.0678-.1746.1008-.2685.1008z" fill="#472b29"/><path d="m38.6202 76.4558c-.0197 0-.0395-.0033-.0593-.0083l-3.3188-.9966c-.1087-.0347-.1713-.1487-.1383-.2578.0329-.1074.1498-.1669.2553-.1388l3.3188.9966c.1087.0347.1713.1487.1383.2578-.0263.0893-.1087.1471-.196.1471z" fill="#472b29"/><path d="m39.9231 75.2642c-.0198 0-.0395-.0034-.0593-.0083l-3.3188-.9966c-.1087-.0347-.1713-.1488-.1384-.2579.033-.1074.1483-.1652.2553-.1388l3.3188.9966c.1087.0347.1713.1488.1384.2579-.0264.0892-.1087.1471-.196.1471z" fill="#472b29"/><path d="m41.4087 74.1287c-.0197 0-.0395-.0033-.0593-.0083l-3.6861-1.1057c-.1087-.0347-.1713-.1487-.1383-.2578.0329-.1074.1466-.1669.2553-.1388l3.6861 1.1057c.1087.0347.1713.1487.1383.2578-.0247.0876-.107.1471-.196.1471z" fill="#472b29"/><path d="m42.7313 72.9437c-.0198 0-.0395-.0033-.0593-.0083l-3.724-1.1173c-.1087-.0347-.1713-.1487-.1384-.2578.033-.1074.1483-.1653.2553-.1389l3.724 1.1173c.1087.0347.1713.1488.1384.2579-.0247.0892-.1071.1471-.196.1471z" fill="#472b29"/><path d="m44.0358 71.752c-.0198 0-.0395-.0033-.0593-.0083l-3.724-1.1172c-.1087-.0348-.1713-.1488-.1384-.2579.033-.1074.1516-.1636.2553-.1388l3.724 1.1173c.1087.0347.1713.1487.1384.2578-.0264.0892-.1087.1471-.196.1471z" fill="#472b29"/><path d="m45.3386 70.562c-.0198 0-.0395-.0033-.0593-.0083l-3.724-1.1189c-.1087-.0347-.1713-.1487-.1384-.2578.033-.1075.1499-.167.2553-.1389l3.724 1.119c.1087.0347.1713.1487.1384.2578-.0264.0893-.1087.1471-.196.1471z" fill="#472b29"/><path d="m46.6414 69.372c-.0197 0-.0395-.0033-.0593-.0083l-3.724-1.1189c-.1087-.0347-.1713-.1487-.1383-.2578.0329-.1075.1482-.1653.2553-.1389l3.724 1.119c.1087.0347.1713.1487.1383.2578-.0247.0876-.107.1471-.196.1471z" fill="#472b29"/><path d="m71.9073 111.068c-.2372 0-.476-.059-.695-.178-.6836-.375-2.1165-1.051-3.7751-1.833-5.0927-2.402-9.0605-4.325-9.9713-5.393l-27.0793-31.7385c-.8696-1.0181-1.0343-2.4957-.4661-4.1583.5172-1.514 1.596-3.0279 3.0372-4.2675 3.1574-2.7106 6.9736-3.2626 8.6915-1.2512l27.0809 31.7367c.8812 1.033 2.0523 4.8856 3.6088 10.2158.5517 1.892 1.0294 3.525 1.3407 4.39.2355.654.0461 1.372-.4826 1.826l-.3426.294c-.2734.237-.6078.357-.9471.357zm-37.879-46.3106c-1.204 1.0347-2.133 2.3272-2.5497 3.5469-.3673 1.071-.308 1.9999.1598 2.5469l27.0809 31.7368c.7527.882 6.1781 3.443 9.4196 4.973 1.596.752 2.9844 1.408 3.7421 1.813l.2421-.208c-.3212-.926-.8054-2.582-1.3654-4.499-.957-3.276-2.5596-8.7613-3.2793-9.6059l-27.081-31.7366c-.9404-1.1057-3.7866-.7834-6.3691 1.4329z" fill="#472b29"/></svg>