<svg height="24" viewBox="0 0 24 24" width="24" xmlns="http://www.w3.org/2000/svg"><path d="m12 0c-3.67244843 0-6.66044029 3.04279878-6.66044029 6.7826087 0 2.64945652 1.59106083 5.9205162 3.14609739 8.6046198 1.5530354 2.6841032 3.1060707 4.7567932 3.1060707 4.7567932l.4082722.5400814.4082722-.5400814s1.5530353-2.07269 3.1060707-4.7567932c1.5550366-2.6841036 3.1460974-5.95516328 3.1460974-8.6046198 0-3.73980992-2.9879919-6.7826087-6.6604403-6.7826087zm0 1.04347826c3.118079 0 5.6357572 2.56385896 5.6357572 5.73913044 0 2.19904904-1.4829886 5.4497285-3.0020014 8.0747285-1.3168776 2.2724181-2.3035358 3.5808423-2.6337558 4.0292118-.33022-.4483695-1.3168777-1.7567937-2.63375584-4.0292118-1.5190128-2.625-3.00200133-5.87567946-3.00200133-8.0747285 0-3.17527148 2.51767871-5.73913044 5.63575717-5.73913044zm0 3.13043478c-1.4089393 0-2.56170781 1.17391305-2.56170781 2.60869566 0 1.4347826 1.15276851 2.60869565 2.56170781 2.60869565s2.5617078-1.17391305 2.5617078-2.60869565c0-1.43478261-1.1527685-2.60869566-2.5617078-2.60869566zm0 1.04347826c.8545698 0 1.5370247.6949727 1.5370247 1.5652174 0 .87024469-.6824549 1.56521739-1.5370247 1.56521739s-1.5370247-.6949727-1.5370247-1.56521739c0-.8702447.6824549-1.5652174 1.5370247-1.5652174zm-9.0700467 10.4347826-2.9299533 8.3478261h24l-2.9299533-8.3478261h-3.9206139c-.2001334.3586957-.4002668.7072012-.6004002 1.0434783h3.8005338l2.1934623 6.2608695h-21.08605739l2.19346231-6.2608695h3.80053382c-.20013342-.3362771-.40026684-.6847826-.60040027-1.0434783z" fill="#fff"/></svg>