<svg fill="none" height="117" viewBox="0 0 140 117" width="140" xmlns="http://www.w3.org/2000/svg"><path d="m133.838 69.4037c1.848-3.5018 2.906-7.4831 2.906-11.7162 0-10.7591-6.77-19.9176-16.281-23.5267 0-.0114.002-.0228.002-.0358 0-18.8468-15.305-34.125-34.1859-34.125-15.9275 0-29.2714 10.8891-33.0677 25.6051-2.4028-.7881-4.9635-1.2301-7.63-1.2301-12.5219 0-22.8281 9.4136-24.2395 21.5345-8.4717 1.7891-14.83027 9.2901-14.83027 18.278 0 10.3204 8.38207 18.6875 18.72097 18.6875.2881 0 .573-.0195.8562-.0358-.0065.2844-.0423.5623-.0423.8483 0 18.3985 14.9409 33.3125 33.3721 33.3125 10.4788 0 19.8198-4.829 25.9391-12.373 3.5456 3.616 8.4749 5.873 13.9446 5.873 7.5697 0 14.1207-4.306 17.3637-10.5918 1.712.5448 3.534.8418 5.427.8418 9.89 0 17.907-8.0031 17.907-17.875 0-5.3804-2.393-10.1936-6.162-13.4713z" fill="#dfeaf5"/><path d="m101.134 54.4375s-5.9259 0-9.9712 0c-4.0454 0-7.3256-3.2744-7.3256-7.3125 0-3.7911 2.9009-6.8721 6.6012-7.2394-.0358-.2941-.0896-.5817-.0896-.8856 0-4.0381 3.2803-7.3125 7.3256-7.3125 2.3406 0 4.4006 1.1147 5.7416 2.821.228-4.2835 3.747-7.696 8.096-7.696 4.494 0 8.139 3.6384 8.139 8.125 0 .7247-.125 1.4137-.304 2.0833 1.045-1.2627 2.604-2.0833 4.374-2.0833 2.899 0 5.265 2.1694 5.624 4.9644.295-.0358.583-.0894.888-.0894 4.045 0 7.325 3.2744 7.325 7.3125s-3.28 7.3125-7.325 7.3125c-4.046 0-15.466 0-15.466 0h-8.75v.8125h-4.883z" fill="#f7fbff"/><path d="m111.512 26c4.937 0 8.953 4.0089 8.953 8.9375v.0764c.98-.5769 2.1-.8889 3.256-.8889 2.981 0 5.553 2.0491 6.28 4.8831.077-.0048.153-.0081.232-.0081 4.488 0 8.139 3.6449 8.139 8.125s-3.651 8.125-8.139 8.125h-24.216c-.449 0-.814-.364-.814-.8125s.365-.8125.814-.8125h24.216c3.591 0 6.511-2.9153 6.511-6.5s-2.92-6.5-6.511-6.5c-.191 0-.375.0276-.559.052l-.229.0309c-.035.0049-.067.0065-.101.0065-.401 0-.752-.3007-.806-.7102-.311-2.4261-2.382-4.2542-4.817-4.2542-1.441 0-2.805.6516-3.746 1.7875-.159.1917-.392.2958-.628.2958-.127 0-.254-.0293-.371-.091-.341-.1739-.512-.5623-.414-.9312.187-.7069.275-1.3016.275-1.8736 0-4.0316-3.287-7.3125-7.325-7.3125-3.876 0-7.077 3.042-7.284 6.9274-.018.338-.244.6288-.568.7312-.081.026-.164.039-.247.039-.244 0-.482-.1121-.638-.312-1.255-1.5957-3.1129-2.5106-5.1006-2.5106-3.5911 0-6.5116 2.9152-6.5116 6.5 0 .1901.0277.3737.0521.5574l.0309.2291c.0261.2177-.0358.4355-.1725.6061-.1368.1706-.337.2795-.5535.3006-3.347.3332-5.8686 3.0989-5.8686 6.4318 0 3.5847 2.9204 6.5 6.5116 6.5h9.9712c.449 0 .814.364.814.8125s-.365.8125-.814.8125h-9.9712c-4.4882 0-8.1395-3.6449-8.1395-8.125 0-3.8951 2.7495-7.1711 6.5165-7.9251-.0033-.0666-.0049-.1333-.0049-.1999 0-4.4801 3.6514-8.125 8.1395-8.125 1.9144 0 3.7326.676 5.1816 1.8915.974-3.9065 4.496-6.7665 8.656-6.7665z" fill="#472b29"/><path d="m113.953 37.375c2.284 0 4.248 1.6234 4.743 3.8041.597-.3607 1.279-.5541 1.973-.5541 1.956 0 3.578 1.4576 3.83 3.3605.331-.0747.645-.1105.952-.1105 2.489 0 4.576 1.95 4.751 4.4395.014.2243-.155.4193-.378.4355-.01 0-.02 0-.029 0-.212 0-.391-.1641-.406-.377-.145-2.0654-1.873-3.6855-3.938-3.6855-.372 0-.765.0683-1.201.2064-.036.0114-.073.0162-.109.0162-.09 0-.179-.0325-.254-.0877-.104-.0748-.166-.208-.166-.338 0-1.6803-1.369-3.0469-3.052-3.0469-.728 0-1.441.273-2.004.7686-.077.0667-.173.1024-.269.1024-.052 0-.103-.0098-.151-.0309-.144-.0569-.241-.1901-.253-.3445-.169-2.1011-1.942-3.7456-4.039-3.7456-.338 0-.691.0552-1.11.1739-.037.0113-.076.0162-.114.0162-.177 0-.337-.1186-.389-.2957-.062-.2162.064-.4404.28-.5021.492-.1398.917-.2048 1.333-.2048z" fill="#472b29"/><path d="m91.3533 39.8125c2.1586 0 4.0827 1.4576 4.6786 3.5457.0618.2162-.0635.4404-.28.5022-.0391.0097-.0766.0146-.1124.0146-.1774 0-.3402-.117-.3907-.2957-.4965-1.7388-2.0983-2.9543-3.8955-2.9543-.1905 0-.3745.0227-.5568.0471-.0195.0033-.0374.0049-.057.0049-.1969 0-.3728-.1495-.4004-.3526-.031-.2226.1253-.4274.3483-.4566.2182-.0293.4396-.0553.6659-.0553z" fill="#472b29"/><g fill="#fff"><path d="m16.9384 60.125h-16.124447c-.449302 0-.813953-.364-.813953-.8125s.364651-.8125.813953-.8125h16.124447c.4493 0 .8139.364.8139.8125s-.363.8125-.8139.8125z"/><path d="m21.9767 60.125h-1.6279c-.4493 0-.8139-.364-.8139-.8125s.3646-.8125.8139-.8125h1.6279c.4493 0 .814.364.814.8125s-.363.8125-.814.8125z"/><path d="m30.1016 63.375h-14.6365c-.4493 0-.8139-.364-.8139-.8125s.3646-.8125.8139-.8125h14.6365c.4493 0 .814.364.814.8125s-.3647.8125-.814.8125z"/><path d="m12.2093 63.375h-1.6279c-.4493 0-.81396-.364-.81396-.8125s.36466-.8125.81396-.8125h1.6279c.4493 0 .814.364.814.8125s-.3631.8125-.814.8125z"/><path d="m7.32558 63.375h-3.25581c-.44931 0-.81396-.364-.81396-.8125s.36465-.8125.81396-.8125h3.25581c.4493 0 .81395.364.81395.8125s-.36302.8125-.81395.8125z"/><path d="m17.093 66.625h-3.2558c-.4493 0-.8139-.364-.8139-.8125s.3646-.8125.8139-.8125h3.2558c.4493 0 .814.364.814.8125s-.3647.8125-.814.8125z"/><path d="m21.9767 52c-.2881 0-1.3397 0-1.6279 0-.4493 0-.8139.364-.8139.8125s.3646.8125.8139.8125h1.6279c.4493 0 .814-.364.814-.8125s-.3647-.8125-.814-.8125z"/><path d="m21.9767 55.25c-.2881 0-7.8514 0-8.1395 0-.4493 0-.8139.364-.8139.8125s.3646.8125.8139.8125h8.1395c.4493 0 .814-.364.814-.8125s-.3647-.8125-.814-.8125z"/><path d="m30.1163 58.5c-.2882 0-4.5956 0-4.8837 0-.4493 0-.814.364-.814.8125s.3647.8125.814.8125h4.8837c.4493 0 .8139-.364.8139-.8125s-.3646-.8125-.8139-.8125z"/><path d="m106.628 13h-16.2792c-.4493 0-.8139-.364-.8139-.8125s.3646-.8125.8139-.8125h16.2792c.449 0 .814.364.814.8125s-.365.8125-.814.8125z"/><path d="m113.14 13h-3.256c-.45 0-.814-.364-.814-.8125s.364-.8125.814-.8125h3.256c.449 0 .813.364.813.8125s-.364.8125-.813.8125z"/><path d="m121.279 16.25h-16.279c-.449 0-.814-.364-.814-.8125s.365-.8125.814-.8125h16.279c.449 0 .814.364.814.8125s-.363.8125-.814.8125z"/><path d="m101.744 16.25h-1.628c-.449 0-.8137-.364-.8137-.8125s.3647-.8125.8137-.8125h1.628c.449 0 .814.364.814.8125s-.365.8125-.814.8125z"/><path d="m96.657 16.25h-3.0523c-.4494 0-.814-.364-.814-.8125s.3646-.8125.814-.8125h3.0523c.4493 0 .8139.364.8139.8125s-.3646.8125-.8139.8125z"/><path d="m111.512 9.75h-8.14c-.449 0-.814-.364-.814-.8125s.365-.8125.814-.8125h8.14c.449 0 .814.364.814.8125s-.363.8125-.814.8125z"/><path d="m106.628 19.5h-3.256c-.449 0-.814-.364-.814-.8125s.365-.8125.814-.8125h3.256c.449 0 .814.364.814.8125s-.365.8125-.814.8125z"/></g><path d="m53.97 97.9875c-3.9981 0-7.2491-3.1964-7.2491-7.1256v-58.2238c0-3.9292 3.2526-7.1256 7.2491-7.1256h30.2954l18.7816 18.4974v46.852c0 3.9292-3.253 7.1256-7.2496 7.1256z" fill="#fcfeff"/><path d="m83.7998 26.65 6.7639 6.6609 11.3433 11.1735v46.3775c0 3.302-2.7414 5.9865-6.1096 5.9865h-41.8274c-3.3698 0-6.1095-2.6861-6.1095-5.9865v-58.2254c0-3.302 2.7414-5.9865 6.1095-5.9865h1.2177 2.7218 8.7468zm.9344-2.275h-18.0763-8.7467-2.7219-1.2177c-4.6151 0-8.3902 3.718-8.3902 8.2615v58.2254c0 4.5451 3.7751 8.2631 8.3886 8.2631h41.8258c4.6152 0 8.3882-3.718 8.3882-8.2615v-47.3297h.002c-7.5648-7.4507-11.8869-11.7082-19.4518-19.1588z" fill="#472b29"/><path d="m83.8372 26.2031v9.1325c0 4.251 3.2412 7.7269 7.2019 7.7269h10.0949" fill="#3f7ab1"/><path d="m101.134 43.875h-10.0949c-4.4198 0-8.0158-3.8301-8.0158-8.541v-9.1309h1.6279v9.1309c0 3.8139 2.8651 6.916 6.3879 6.916h10.0949z" fill="#472b29"/><path d="m94.5814 94.25h-39.3677c-2.6193 0-4.7486-2.0881-4.7486-4.654v-54.9055c0-2.5513 2.1179-4.628 4.721-4.628h2.6046c.4493 0 .814.364.814.8125s-.3647.8125-.814.8125h-2.6046c-1.7061 0-3.0931 1.3471-3.0931 3.003v54.9055c0 1.6705 1.4 3.029 3.1207 3.029h39.3677c1.706 0 3.093-1.3471 3.093-3.003v-22.5274c0-.4485.3647-.8125.814-.8125s.8139.364.8139.8125v22.5274c0 2.5529-2.1179 4.628-4.7209 4.628z" fill="#472b29"/><path d="m98.4884 63.375c-.4493 0-.814-.364-.814-.8125v-6.5c0-.4485.3647-.8125.814-.8125s.8139.364.8139.8125v6.5c0 .4485-.3646.8125-.8139.8125z" fill="#472b29"/><path d="m98.4884 53.625c-.4493 0-.814-.364-.814-.8125v-4.875c0-.4485.3647-.8125.814-.8125s.8139.364.8139.8125v4.875c0 .4485-.3646.8125-.8139.8125z" fill="#472b29"/><path d="m74.0698 51.5938h-16.2791c-.2246 0-.407-.182-.407-.4063s.1824-.4063.407-.4063h16.2791c.2246 0 .407.182.407.4063s-.1824.4063-.407.4063z" fill="#472b29"/><path d="m74.0698 58.0938h-16.2791c-.2246 0-.407-.182-.407-.4063s.1824-.4063.407-.4063h16.2791c.2246 0 .407.182.407.4063s-.1824.4063-.407.4063z" fill="#472b29"/><path d="m74.0698 64.5938h-16.2791c-.2246 0-.407-.182-.407-.4063s.1824-.4063.407-.4063h16.2791c.2246 0 .407.182.407.4063s-.1824.4063-.407.4063z" fill="#472b29"/><path d="m69.1861 71.0938h-11.3954c-.2246 0-.407-.182-.407-.4063s.1824-.4063.407-.4063h11.3954c.2246 0 .4069.182.4069.4063s-.1823.4063-.4069.4063z" fill="#472b29"/><path d="m74.0698 77.5938h-16.2791c-.2246 0-.407-.182-.407-.4063s.1824-.4063.407-.4063h16.2791c.2246 0 .407.182.407.4063s-.1824.4063-.407.4063z" fill="#472b29"/><path d="m75.6977 84.0938h-17.907c-.2246 0-.407-.182-.407-.4063s.1824-.4063.407-.4063h17.907c.2246 0 .407.182.407.4063s-.1824.4063-.407.4063z" fill="#472b29"/><path d="m91.9767 84.0938h-13.0232c-.2247 0-.407-.182-.407-.4063s.1823-.4063.407-.4063h13.0232c.2247 0 .407.182.407.4063s-.1823.4063-.407.4063z" fill="#472b29"/><path d="m91.9767 71.0938h-19.5348c-.2247 0-.407-.182-.407-.4063s.1823-.4063.407-.4063h19.5348c.2247 0 .407.182.407.4063s-.1823.4063-.407.4063z" fill="#472b29"/><path d="m91.9767 77.5938h-6.5116c-.2246 0-.407-.182-.407-.4063s.1824-.4063.407-.4063h6.5116c.2247 0 .407.182.407.4063s-.1823.4063-.407.4063z" fill="#472b29"/><path d="m82.2093 77.5938h-6.5116c-.2247 0-.407-.182-.407-.4063s.1823-.4063.407-.4063h6.5116c.2247 0 .407.182.407.4063s-.1823.4063-.407.4063z" fill="#472b29"/><path d="m77.3256 65.8125v-14.625h14.6511v14.625h-8.9534z" fill="#3f7ab1"/><path d="m77.7326 66.2188h-.814v-15.4376h15.4651v15.4376h-9.3604v-.8126h8.5465v-13.8124h-13.8372z" fill="#472b29"/><path d="m52.907 104.812h5.6976c3.1468 0 5.6977-2.546 5.6977-5.687 0-2.8941-2.1732-5.2552-4.9732-5.6144.0455-.2909.0895-.5817.0895-.8856 0-3.1411-2.5509-5.6875-5.6977-5.6875-1.68 0-3.1744.7394-4.2163 1.8931-.6251-2.938-3.2346-5.1431-6.3651-5.1431-3.596 0-6.5116 2.9104-6.5116 6.5 0 .3104.0488.6077.0912.9067-.6968-.559-1.5693-.9067-2.5331-.9067-1.999 0-3.6546 1.4414-3.9965 3.3394-.2914-.0455-.5828-.0894-.8872-.0894-3.1467 0-5.6977 2.5464-5.6977 5.6875 0 3.141 2.551 5.687 5.6977 5.687h12.2093v.813h11.3954z" fill="#f7fbff"/><path d="m55.7558 97.5c-.2246 0-.407-.182-.407-.4062 0-1.9874 1.6198-3.6043 3.6107-3.6043.0554.0146 1.1998-.0016 2.0251.221.2166.0585.3452.2811.2866.4973-.0586.2177-.2817.3461-.4982.286-.7228-.195-1.7907-.195-1.8118-.1918-1.5433 0-2.7984 1.2529-2.7984 2.7918 0 .2242-.1823.4062-.407.4062z" fill="#472b29"/><path d="m44.7674 105.812c.5523 0 1-.447 1-1 0-.552-.4477-1-1-1-.5522 0-1 .448-1 1 0 .553.4478 1 1 1z" fill="#472b29"/><path d="m58.6046 105.625h-5.6976c-.4493 0-.814-.364-.814-.813 0-.448.3647-.812.814-.812h5.6976c2.6926 0 4.8838-2.187 4.8838-4.875 0-2.431-1.8314-4.498-4.2619-4.8084-.2181-.0292-.4151-.143-.547-.3185-.1318-.1755-.1872-.3965-.153-.6126.0374-.2502.0781-.5005.0781-.7605 0-2.6877-2.1911-4.875-4.8837-4.875-1.3837 0-2.6665.5769-3.6123 1.625-.2035.2259-.5226.3218-.814.2405-.2962-.0796-.5225-.3169-.586-.6159-.5551-2.6065-2.8977-4.4996-5.5691-4.4996-3.1418 0-5.6976 2.5512-5.6976 5.6875 0 .2324.0341.455.0667.6792.0472.3299-.1026.7118-.394.8776-.2913.1657-.6446.1917-.9051-.0163-.5942-.4761-1.2925-.728-2.0235-.728-1.5725 0-2.9172 1.1229-3.1955 2.6715-.0782.4339-.4819.7247-.9263.6581-.2507-.039-.5014-.0796-.7619-.0796-2.6925 0-4.8837 2.1873-4.8837 4.875 0 2.688 2.1912 4.875 4.8837 4.875h12.2093c.4493 0 .814.364.814.812 0 .449-.3647.813-.814.813h-12.2093c-3.5911 0-6.5116-2.915-6.5116-6.5 0-3.5848 2.9205-6.5 6.5116-6.5.0961 0 .1889.0033.2833.0098.6739-1.9273 2.5021-3.2598 4.6004-3.2598.5682 0 1.1217.0991 1.6459.2925.2686-3.7911 3.443-6.7925 7.3076-6.7925 2.9807 0 5.6424 1.8314 6.7607 4.5078 1.107-.8093 2.4451-1.2578 3.8207-1.2578 3.5912 0 6.5117 2.9152 6.5117 6.5 0 .078-.0017.1544-.0066.2308 2.8375.7279 4.8903 3.2938 4.8903 6.2692 0 3.585-2.9205 6.5-6.5117 6.5z" fill="#472b29"/><path d="m49.6512 104c-.2589 0-1.3691 0-1.6279 0-.4493 0-.814.364-.814.812 0 .449.3647.813.814.813h1.6279c.4493 0 .8139-.364.8139-.813 0-.448-.3646-.812-.8139-.812z" fill="#472b29"/></svg>