<svg fill="none" height="461" viewBox="0 0 461 461" width="461" xmlns="http://www.w3.org/2000/svg"><path d="m0 0h460.1v460.1h-460.1z" fill="#fff"/><path d="m456.2 175.352c10.1 124.7-82.9 233.9-207.6 244-124.6 10.1-233.9-82.9-243.90001-207.5-10-124.6002 104.50001-67.1 213.20001-173.6002 89.3-87.6 228.2 12.4 238.3 137.1002z" fill="#f0f5fb"/><path d="m285.1 333.161-6.1 1.1-4.5.6-65.7 8.9-37.9 5-99.7 13.3-1.7-13.3-.6-5-10-74.8-4.4-33.3-24.5-177.8 24.5-3.3 4.5-.6 91.3-12.2 37.9-5.5 55.7-7.2 1.1 7.2 1.1 9.4 28.4 207.7 4.5 32.7z" fill="#c9dbf0"/><path d="m279 68.9612v271.8998c0 1.1-1.1 2.2-2.2 2.2h-216.1c-1.1 0-2.2-1.1-2.2-2.2v-302.3998c0-1.1 1.1-2.2 2.2-2.2h184.8c.6 0 1.1 0 1.7.6l31.2 31z" fill="#fff"/><path d="m54.5 54.5609 4.5-.6v214.9001l-4.5-33.2z" fill="#a1bedd"/><path d="m208.8 343.661-37.9 5h-101.3l-.6-5z" fill="#a1bedd"/><path d="m246.7 36.2612s-3.9 33.2-2.2 34.3c2.2 1.1 32.9.6 34-2.8z" fill="#d9e6f5"/><path d="m279 68.3612h-32.3v-32.1z" fill="#c9dbf0"/><path d="m86.1999 70.1611c-2.4 0-4.3 1.9-4.3 4.3s1.9 4.3 4.3 4.3h125.4001c2.4 0 4.3-1.9 4.3-4.3s-1.9-4.3-4.3-4.3z" fill="#f5f9fc"/><path d="m233.2 70.1611c-2.4 0-4.3 1.9-4.3 4.3s1.9 4.3 4.3 4.3h21.6c2.4 0 4.3-1.9 4.3-4.3s-1.9-4.3-4.3-4.3z" fill="#e8eefb"/><g fill="#f5f9fc"><path d="m81.8999 100.361c0-2.4 1.9-4.3 4.3-4.3h125.4001c2.4 0 4.3 1.9 4.3 4.3s-1.9 4.3-4.3 4.3h-125.4001c-2.4 0-4.3-1.9-4.3-4.3z"/><path d="m233.2 96.061c-2.4 0-4.3 1.9-4.3 4.3s1.9 4.3 4.3 4.3h21.6c2.4 0 4.3-1.9 4.3-4.3s-1.9-4.3-4.3-4.3z"/><path d="m81.8999 126.361c0-2.4 1.9-4.3 4.3-4.3h125.4001c2.4 0 4.3 1.9 4.3 4.3s-1.9 4.3-4.3 4.3h-125.4001c-2.4 0-4.3-2-4.3-4.3z"/><path d="m233.2 121.961c-2.4 0-4.3 1.9-4.3 4.3s1.9 4.3 4.3 4.3h21.6c2.4 0 4.3-1.9 4.3-4.3s-1.9-4.3-4.3-4.3z"/><path d="m81.8999 152.261c0-2.4 1.9-4.3 4.3-4.3h125.4001c2.4 0 4.3 1.9 4.3 4.3s-1.9 4.3-4.3 4.3h-125.4001c-2.4 0-4.3-1.9-4.3-4.3z"/><path d="m233.2 147.961c-2.4 0-4.3 1.9-4.3 4.3s1.9 4.3 4.3 4.3h21.6c2.4 0 4.3-1.9 4.3-4.3s-1.9-4.3-4.3-4.3z"/><path d="m81.8999 178.161c0-2.4 1.9-4.3 4.3-4.3h125.4001c2.4 0 4.3 1.9 4.3 4.3s-1.9 4.3-4.3 4.3h-125.4001c-2.4.1-4.3-1.9-4.3-4.3z"/><path d="m233.2 173.861c-2.4 0-4.3 1.9-4.3 4.3s1.9 4.3 4.3 4.3h21.6c2.4 0 4.3-1.9 4.3-4.3s-1.9-4.3-4.3-4.3z"/><path clip-rule="evenodd" d="m86.1999 204.161c-2.4 0-4.3 1.9-4.3 4.3s1.9 4.3 4.3 4.3h125.4001c2.4 0 4.3-1.9 4.3-4.3s-1.9-4.3-4.3-4.3zm147.0001 0c-2.4 0-4.3 1.9-4.3 4.3s1.9 4.3 4.3 4.3h21.6c2.4 0 4.3-1.9 4.3-4.3s-1.9-4.3-4.3-4.3z" fill-rule="evenodd"/></g><path d="m154.2 153.3c0 7.1-2.9 13.5-7.5 18.1-4.1 4.1-9.5 6.8-15.5 7.4-.9.1-1.7.1-2.6.1h-3v17.2l-19.9-17.1h-50c-14.2 0-25.7-11.5-25.7-25.7 0-7.1 2.9-13.5 7.5-18.1.6-.6 1.2-1.1 1.8-1.6 4.4-3.7 10.2-5.9 16.4-5.9h72.8c14.2 0 25.7 11.5 25.7 25.6z" fill="#002cb1"/><path d="m154.2 153.3c0 7.1-2.9 13.5-7.5 18.1-4.1 4.1-9.5 6.8-15.5 7.4-43.2001-5.2-78.0001-22.6-91.8001-45.3 4.4-3.7 10.2-5.9 16.4-5.9h72.8001c14.1.1 25.6 11.6 25.6 25.7z" fill="#0050d2"/><path d="m67.0002 158.9c3.4794 0 6.3-2.821 6.3-6.3 0-3.48-2.8206-6.3-6.3-6.3s-6.3 2.82-6.3 6.3c0 3.479 2.8206 6.3 6.3 6.3z" fill="#fff"/><path d="m90.1999 158.9c3.4794 0 6.3-2.821 6.3-6.3 0-3.48-2.8206-6.3-6.3-6.3s-6.3 2.82-6.3 6.3c0 3.479 2.8206 6.3 6.3 6.3z" fill="#fff"/><path d="m113.3 158.9c3.479 0 6.3-2.821 6.3-6.3 0-3.48-2.821-6.3-6.3-6.3s-6.3 2.82-6.3 6.3c0 3.479 2.821 6.3 6.3 6.3z" fill="#fff"/><rect fill="#d9e6f5" height="246.388" rx="7" transform="matrix(0 1 -1 0 738.7 -149.08)" width="89.205" x="443.89" y="294.81"/><rect fill="#fbfcfe" height="246.388" rx="7" transform="matrix(0 1 -1 0 730.7 -151.08)" width="89.205" x="440.89" y="289.81"/><path d="m406.882 298.271v72.349h-33.852v-72.349z" fill="#eeb8d8" opacity=".3"/><path d="m368.908 298.271v72.349h-34.324v-72.349z" fill="#d44d9e" opacity=".5"/><path d="m330.718 298.202v72.349h-34.325v-72.349z" fill="#9a1c6e" opacity=".8"/><path d="m354.776 154.105c2.732-2.745 7.173-2.751 9.911-.012l53.166 53.166c2.734 2.733 2.734 7.165 0 9.899l-163.429 163.429c-3.059 3.059-8.132 2.639-10.646-.882l-43.986-61.594c-1.985-2.779-1.675-6.585.734-9.006z" fill="#d9e6f5"/><path d="m355.776 148.094c2.733-2.74 7.17-2.743 9.907-.007l53.171 53.172c2.733 2.733 2.733 7.165 0 9.899l-163.507 163.507c-3.033 3.033-8.054 2.65-10.592-.806l-44.848-61.065c-2.044-2.784-1.753-6.642.685-9.087z" fill="#fbfcfe"/><path d="m342.662 173.161 51.158 51.158-23.937 23.938-51.158-51.158z" fill="#b3ebe3" opacity=".45"/><path d="m315.811 200.013 51.158 51.158-24.271 24.271-51.158-51.158z" fill="#40cdb8" opacity=".7"/><path d="m288.757 226.969 51.159 51.158-24.271 24.271-51.159-51.158z" fill="#019f85"/><rect fill="#d9e6f5" height="246.388" rx="7" width="89.205" x="197.502" y="132.7"/><rect fill="#fbfcfe" height="246.388" rx="7" width="89.205" x="194.502" y="127.7"/><path d="m202.964 161.708h72.349v33.853h-72.349z" fill="#2957c8" opacity=".3"/><path d="m202.964 199.682h72.349v34.324h-72.349z" fill="#2957c8" opacity=".6"/><path d="m202.896 237.873h72.348v34.324h-72.348z" fill="#2957c8"/></svg>