<svg width="1595" height="854" viewBox="0 0 1595 854" fill="none" xmlns="http://www.w3.org/2000/svg">
<g clip-path="url(#clip0)">
<path fill-rule="evenodd" clip-rule="evenodd" d="M652.176 55.3246L866.348 0.253764C876.01 -1.41505 885.672 5.2602 885.672 16.9419V918.101H639.294V72.0127C639.294 63.6687 645.735 56.9934 652.176 55.3246ZM690.824 876.381H716.589V849.68H690.824V876.381ZM690.824 801.284H716.589V774.583H690.824V801.284ZM690.824 727.856H716.589V701.155H690.824V727.856ZM690.824 579.332H716.589V552.631H690.824V579.332ZM690.824 504.235H716.589V477.534H690.824V504.235ZM690.824 429.139H716.589V402.438H690.824V429.139ZM690.824 355.711H716.589V329.01H690.824V355.711ZM690.824 280.614H716.589V253.913H690.824V280.614ZM690.824 205.518H716.589V178.817H690.824V205.518ZM752.016 876.381H777.781V849.68H752.016V876.381ZM752.016 801.284H777.781V774.583H752.016V801.284ZM752.016 727.856H777.781V701.155H752.016V727.856ZM752.016 652.76H777.781V626.059H752.016V652.76ZM752.016 579.332H777.781V552.631H752.016V579.332ZM752.016 504.235H777.781V477.534H752.016V504.235ZM752.016 429.139H777.781V402.438H752.016V429.139ZM752.016 280.614H777.781V253.913H752.016V280.614ZM752.016 205.518H777.781V178.817H752.016V205.518ZM752.016 132.09H777.781V105.389H752.016V132.09Z" fill="#F0F5FB"/>
<path fill-rule="evenodd" clip-rule="evenodd" d="M516.91 470.861H600.647C610.308 470.861 616.75 479.205 616.75 487.549V914.765H0V841.337C0 832.993 8.05156 824.649 16.1031 824.649H293.077V651.092C293.077 642.748 299.518 634.404 309.18 634.404H500.807V487.549C500.807 479.205 508.859 470.861 516.91 470.861ZM320.452 811.299H342.997V787.935H320.452V811.299ZM320.452 747.884H342.997V724.52H320.452V747.884ZM320.452 686.138H342.997V662.774H320.452V686.138ZM528.183 896.408H594.205V889.733H528.183V896.408ZM528.183 863.032H594.205V856.356H528.183V863.032ZM528.183 827.987H594.205V821.311H528.183V827.987ZM528.183 792.942H594.205V786.266H528.183V792.942ZM528.183 759.565H594.205V752.89H528.183V759.565ZM528.183 724.52H594.205V717.845H528.183V724.52ZM528.183 689.475H594.205V682.8H528.183V689.475ZM528.183 656.099H594.205V649.424H528.183V656.099ZM528.183 621.054H594.205V614.379H528.183V621.054ZM528.183 586.009H594.205V579.334H528.183V586.009ZM528.183 552.632H594.205V545.957H528.183V552.632ZM528.183 517.587H594.205V510.912H528.183V517.587Z" fill="#F0F5FB"/>
<path fill-rule="evenodd" clip-rule="evenodd" d="M1328.51 355.71H1167.48C1159.43 355.71 1151.37 362.385 1151.37 372.398V522.591H1120.78V158.79C1120.78 150.446 1112.73 142.102 1104.67 142.102H927.54C917.878 142.102 911.437 150.446 911.437 158.79V916.431H1346.22V372.398C1344.61 364.054 1338.17 355.71 1328.51 355.71ZM1207.73 893.068H1199.68V394.093H1207.73V893.068ZM1254.43 893.068H1246.38V394.093H1254.43V893.068ZM1301.13 893.068H1293.08V394.093H1301.13V893.068Z" fill="#F0F5FB"/>
<path d="M1571.66 861.36H1814.82C1824.48 861.36 1830.93 868.036 1830.93 878.049V916.431H1376.82V631.064C1376.82 619.383 1388.09 611.039 1399.36 616.045L1562 699.486C1568.44 702.823 1571.66 707.83 1571.66 714.505V861.36Z" fill="#F0F5FB"/>
<path d="M1196.17 157.826C1193.95 167.478 1190.34 170.465 1190.34 170.465C1190.34 170.465 1187.81 180.883 1183.81 187.548C1182.74 189.31 1181.59 190.842 1180.36 191.838C1180.36 191.838 1180.74 193.217 1181.36 195.208C1181.59 195.898 1181.82 196.664 1182.13 197.506C1183.81 202.792 1187.88 208.997 1193.26 211.678C1196.4 213.21 1187.12 231.825 1160.94 243.622C1134.68 255.419 1114.42 222.173 1114.42 222.173C1114.42 222.173 1130 217.5 1132.23 198.962C1132.3 198.119 1132.84 197.506 1133.07 196.817C1133.3 196.204 1133.46 195.668 1133.61 195.055C1133.61 194.979 1133.61 194.902 1133.69 194.825C1134.61 189.999 1131.77 187.625 1129.69 183.871C1128.39 181.649 1127.31 178.892 1127.47 174.755C1127.7 169.776 1127.24 157.979 1127.77 146.259C1127.85 144.114 1128 141.969 1128.16 139.9C1129.16 128.64 1131.38 118.605 1136.53 116.23C1147.81 110.944 1170 107.497 1181.36 122.358C1192.64 137.219 1192.64 149.476 1192.64 149.476C1192.64 149.476 1198.4 148.25 1196.17 157.826Z" fill="#F6DCCD"/>
<path d="M1180.36 191.915C1180.36 191.915 1180.74 193.293 1181.36 195.285C1176.91 207.389 1161.32 213.287 1153.65 211.908C1147.27 210.836 1139.37 203.941 1133.07 196.894C1133.3 196.281 1133.46 195.745 1133.61 195.132C1133.61 195.055 1133.61 194.979 1133.69 194.902C1134.61 190.076 1131.77 187.701 1129.69 183.948C1134.22 190.306 1146.51 206.469 1156.02 205.397C1164.01 204.478 1176.68 194.059 1183.89 187.548C1182.74 189.387 1181.59 190.919 1180.36 191.915Z" fill="#FCCAA5"/>
<path d="M1192.11 151.161C1189.88 145.722 1182.28 131.168 1164.7 130.785C1148.66 130.478 1142.51 124.963 1140.44 122.128C1141.67 120.367 1142.59 121.899 1143.59 122.741C1148.42 126.571 1152.65 127.108 1168 125.805C1180.9 124.733 1189.65 144.65 1192.11 151.161Z" fill="#FCCAA5"/>
<path d="M1143.08 181.076C1146.32 184.964 1156.3 190.603 1170.3 182.048C1164.14 183.02 1150.08 184.187 1143.08 181.076Z" fill="white"/>
<path d="M1192.87 153.229C1192.87 153.229 1192.64 152.463 1192.11 151.238C1189.65 144.726 1180.9 124.733 1168 125.882C1152.65 127.184 1148.43 126.724 1143.59 122.818C1142.59 122.052 1141.67 120.52 1140.44 122.205C1139.75 123.124 1139.06 125.039 1138.14 128.486C1135.22 139.517 1127.47 152.923 1127.47 152.923C1127.47 152.923 1119.18 126.724 1129.08 113.166C1135.14 104.969 1145.82 108.799 1145.82 108.799C1145.82 108.799 1145.82 105.275 1151.73 99.1471C1155.72 95.0105 1163.7 97.0022 1175.83 103.82C1181.82 105.735 1190.11 107.574 1196.94 106.195C1196.94 106.195 1197.1 111.863 1193.18 114.621C1194.03 115.157 1194.79 115.77 1195.64 116.306C1213.06 128.18 1192.87 153.229 1192.87 153.229Z" fill="#071D30"/>
<path d="M1128.39 165.18C1128.39 165.18 1122.55 151.774 1124.01 148.633C1125.47 145.569 1128.01 152.617 1128.01 152.617L1128.39 165.18Z" fill="#FFDBC4"/>
<path d="M1138.98 174.678C1143.05 175.674 1143.67 175.444 1147.27 180.807C1150.88 186.246 1153.11 186.782 1160.02 186.016C1166.93 185.25 1167.85 170.542 1174.68 174.908C1179.75 178.126 1191.49 168.474 1191.49 168.474C1191.49 168.474 1187.65 191.455 1173.91 199.958C1160.09 208.461 1156.18 207.924 1143.2 200.341C1121.48 187.701 1127.85 163.188 1127.85 163.188C1127.85 163.188 1133.07 173.223 1138.98 174.678Z" fill="#071D30"/>
<path d="M1135.76 176.593C1135.76 176.593 1140.21 172.61 1147.12 170.388C1153.65 168.32 1162.01 168.397 1165.85 170.235C1169.69 172.074 1182.43 179.121 1177.06 181.19C1172.45 182.951 1162.09 183.411 1157.41 181.419C1152.72 179.428 1144.82 187.778 1136.91 181.726C1129 175.674 1135.76 176.593 1135.76 176.593Z" fill="#071D30"/>
<path d="M1181.97 813.707C1181.97 813.707 1183.89 821.827 1196.02 813.631C1196.02 813.631 1212.06 837.378 1208.46 845.038C1203.77 855.074 1175.45 858.98 1169.38 843.506C1166.62 836.382 1181.97 813.707 1181.97 813.707Z" fill="#071219"/>
<path d="M1090.47 813.707C1090.47 813.707 1098.3 821.827 1110.5 813.631C1110.5 813.631 1123.32 844.732 1115.18 847.107C1098.22 852.086 1051.93 857.218 1064.98 846.953C1089.39 827.649 1090.47 813.707 1090.47 813.707Z" fill="#071219"/>
<path d="M1214.29 630.165C1214.29 630.165 1213.06 816.772 1203.08 821.674C1198.17 824.126 1190.34 824.509 1183.58 824.202C1176.6 823.896 1170.76 822.977 1170.76 822.977L1162.01 666.168L1149.81 530.81L1142.82 528.818L1129.85 650.235C1129.85 650.235 1126.39 808.269 1121.4 818.15C1118.33 824.202 1105.05 823.36 1095.22 821.674C1088.93 820.678 1084.09 819.376 1084.09 819.376L1077.87 636.599L1079.95 462.556L1080.1 450.069C1080.1 450.069 1213.29 413.299 1220.74 447.541C1221.2 449.763 1221.58 452.597 1221.89 455.968C1222.12 458.496 1222.27 461.33 1222.35 464.471C1224.12 514.033 1214.29 630.165 1214.29 630.165Z" fill="#243859"/>
<path d="M1222.35 464.547C1216.44 468.607 1192.33 483.315 1157.1 475.808C1116.33 467.228 1103.97 466.386 1103.97 466.386L1087.16 481.936C1088.01 481.63 1102.36 475.885 1102.36 477.417C1102.36 479.025 1085.47 501.24 1085.47 506.603C1085.47 511.965 1084.55 648.09 1084.55 648.09L1095.22 821.751C1088.93 820.755 1084.09 819.453 1084.09 819.453L1077.87 636.599L1079.95 462.556L1081.02 461.483L1088.85 451.448C1103.44 456.427 1127.39 463.781 1151.8 468.684C1182.05 474.736 1210.3 461.713 1221.66 455.508L1221.81 455.968C1222.12 458.496 1222.27 461.406 1222.35 464.547Z" fill="#071219"/>
<path d="M1126.7 521.924C1126.7 521.924 1156.56 529.814 1166.85 530.886C1177.21 531.959 1159.48 531.882 1142.74 528.741C1126.01 525.6 1126.7 521.924 1126.7 521.924Z" fill="#071219"/>
<path d="M1183.58 824.202C1176.6 823.896 1170.76 822.976 1170.76 822.976L1162.01 666.168L1149.81 530.81L1142.82 528.818L1156.94 530.733L1159.48 634.071C1159.48 634.071 1163.39 642.958 1164.93 654.295C1166.23 664.407 1180.36 792.871 1183.58 824.202Z" fill="#071219"/>
<path d="M1105.36 294.027L1095.3 442.792C1095.3 442.792 1083.63 466.769 1081.1 461.483C1061.22 419.964 1055.07 355.31 1055.07 355.31L1058.84 306.59L1059.45 299.083L1105.36 294.027Z" fill="#F6DCCD"/>
<path d="M1218.21 308.429C1217.59 308.582 1216.98 308.658 1216.52 308.658L1216.98 313.714L1217.59 320.226L1220.51 365.422L1222.12 387.79L1223.5 406.098L1225.11 428.16V428.467L1226.88 452.52C1226.88 452.52 1224.96 453.823 1221.58 455.661C1210.22 461.943 1181.89 474.889 1151.72 468.837C1127.31 463.934 1103.36 456.504 1088.78 451.601C1079.95 448.614 1074.5 446.545 1074.5 446.545C1074.5 446.545 1075.19 440.417 1076.72 431.608C1077.64 426.475 1078.87 420.423 1080.33 414.218C1082.25 406.405 1089.31 387.484 1088.85 365.805C1088.85 365.805 1088.85 365.422 1088.85 364.809V364.732C1089.16 356.995 1090.85 309.271 1090.85 309.271C1090.85 309.271 1069.05 310.037 1058.99 302.147C1056.07 299.849 1054.15 296.938 1054 292.955C1054 292.955 1075.88 231.135 1084.32 225.926C1092.84 220.717 1123.63 216.274 1123.63 216.274C1123.63 216.274 1138.83 237.953 1152.8 237.953C1157.1 237.953 1161.4 236.115 1165.54 233.357C1165.54 233.357 1165.54 233.357 1165.62 233.357C1177.98 225.007 1188.34 208.307 1188.34 208.307C1188.34 208.307 1191.95 209.61 1197.09 211.601C1200.7 212.98 1205 214.665 1209.45 216.427C1220.05 220.717 1231.1 225.543 1233.87 228.148C1238.63 232.667 1256.28 285.141 1256.28 286.979C1256.28 289.124 1255.05 291.269 1253.06 293.184C1245.15 300.998 1224.88 306.82 1218.28 308.275C1218.44 308.352 1218.36 308.352 1218.21 308.429Z" fill="#FBFCFE"/>
<path d="M1209.61 216.428C1207.92 216.428 1198.94 216.504 1193.26 220.871C1186.96 225.697 1185.81 221.637 1189.11 219.798C1189.53 219.567 1189.99 219.316 1190.47 219.052C1193.83 217.211 1198.34 214.742 1196.86 214.206C1196.03 213.847 1193.77 214.567 1192.1 215.103C1190.55 215.597 1189.5 215.933 1190.49 215.125C1191.95 213.976 1195.41 212.444 1197.25 211.678C1200.78 212.98 1205.16 214.666 1209.61 216.428Z" fill="#D9E6F5"/>
<path d="M1096.15 373.389C1086.86 405.026 1080.72 423.181 1076.88 431.531C1077.8 426.399 1079.03 420.347 1080.49 414.142C1080.84 412.685 1081.38 410.841 1082.01 408.665C1084.78 399.174 1089.38 383.364 1089.01 365.728L1091.08 309.195C1091.08 309.195 1092.09 304.862 1093.12 299.227C1092.45 294.359 1091.44 291.564 1090.79 289.751C1090.24 288.218 1089.94 287.387 1090.31 286.597C1090.9 285.332 1092.82 288.917 1094.3 292.071C1095.14 286.328 1095.65 280.505 1095.07 277.021C1095.07 277.021 1094.46 271.506 1096.3 272.961C1098.14 274.417 1095.3 294.18 1095.3 294.18C1095.3 294.18 1101.44 284.988 1103.9 285.218C1105.31 285.318 1102.86 308.387 1100.13 333.978C1098.7 347.405 1097.2 361.526 1096.15 373.389Z" fill="#D9E6F5"/>
<path d="M1217.67 320.149L1216.59 308.582C1217.05 308.582 1217.59 308.505 1218.21 308.352C1218.21 308.352 1211.53 285.907 1205.77 279.855C1202.59 276.514 1204.89 281.394 1207.58 287.119C1209.77 291.761 1212.22 296.959 1212.22 298.777C1212.22 300.985 1211.11 300.088 1209.66 298.922C1208.44 297.944 1207 296.777 1205.77 297.091C1204.98 297.294 1205.68 298.062 1207.05 299.569C1209.51 302.268 1214.14 307.34 1216.22 315.787C1213.64 321.835 1208.17 331.684 1196.56 345.658C1175.45 371.014 1160.02 376.223 1160.02 376.223L1136.76 380.13C1131.08 395.91 1115.95 439.192 1119.18 439.192C1122.63 439.192 1132.23 429.769 1132.84 429.156C1132.15 430.688 1119.75 458.343 1126.12 461.253C1130.95 463.475 1177.75 458.649 1202.7 454.665C1202.57 454.646 1202.43 454.627 1202.3 454.608C1201.34 454.473 1200.33 454.331 1199.32 454.129C1196.55 453.594 1195.39 454.15 1194.1 454.768C1193.18 455.211 1192.19 455.687 1190.49 455.815C1189.96 455.815 1189.42 455.738 1188.88 455.585C1186.73 454.895 1185.12 452.75 1184.97 451.295L1183.12 451.448L1225.19 428.161L1223.58 406.099L1222.2 387.79L1220.59 365.422L1217.67 320.226L1217.67 320.209C1217.67 320.189 1217.67 320.169 1217.67 320.149Z" fill="#D9E6F5"/>
<path d="M1234.94 388.02C1234.94 400.583 1220.51 425.02 1211.45 439.115C1208.46 443.788 1206 447.312 1204.93 448.92C1204.54 449.457 1203.93 449.84 1203.24 449.84L1139.98 455.049C1138.68 455.125 1137.6 454.129 1137.6 452.827L1136.76 380.207L1136.6 370.248C1136.6 368.869 1137.68 367.874 1139.06 367.95L1226.57 374.615C1227.19 374.691 1227.73 374.921 1228.11 375.457C1230.03 377.602 1234.94 373.006 1234.94 388.02Z" fill="#2957C8"/>
<path d="M1184.89 409.546H1193.72C1193.79 409.163 1193.79 408.704 1193.79 408.244C1193.79 407.784 1193.79 407.401 1193.72 406.942H1185.96L1184.89 409.546ZM1183.58 412.457C1183.89 412.993 1184.2 413.53 1184.58 413.913H1191.72C1192.34 413.223 1192.87 412.381 1193.26 411.385H1184.04L1183.58 412.457Z" fill="white"/>
<path d="M1193.26 405.103C1192.87 404.107 1192.41 403.265 1191.72 402.575H1184.58C1183.28 403.954 1182.51 406.099 1182.51 408.244C1182.51 409.01 1182.59 409.699 1182.74 410.465L1185.04 405.103H1193.26Z" fill="white"/>
<path d="M1260.89 353.319C1259.51 357.072 1230.1 424.484 1221.28 437.506L1208.99 414.755L1228.34 347.726L1221.66 320.839L1218.59 308.276C1225.19 306.82 1245.46 301.075 1253.37 293.185C1253.75 294.946 1254.13 296.785 1254.59 298.853C1258.28 317.774 1262.96 347.803 1260.89 353.319Z" fill="#F6DCCD"/>
<path d="M1223.96 428.697L1222.27 433.753C1222.27 433.753 1219.43 448.461 1218.05 452.138C1217.13 454.512 1214.98 454.053 1213.06 453.823C1211.99 453.67 1211.07 453.593 1210.38 454.129C1209.07 455.202 1206.15 455.125 1202.7 454.666C1201.62 454.512 1200.47 454.359 1199.32 454.129C1194.48 453.287 1194.48 455.508 1190.57 455.815C1190.03 455.815 1189.42 455.815 1188.96 455.585C1186.81 454.895 1185.2 452.751 1185.04 451.295C1184.97 450.606 1185.2 450.069 1185.81 449.916C1188.11 449.074 1196.02 441.413 1196.25 439.192C1196.56 436.97 1194.79 434.136 1194.79 434.136C1194.79 434.136 1191.03 437.123 1188.96 440.034C1188.73 440.417 1188.57 440.571 1188.57 440.571C1186.58 443.635 1182.66 442.869 1182.36 441.949C1182.05 441.107 1185.2 433.217 1185.73 431.531C1186.27 429.846 1190.8 426.169 1192.8 423.335C1194.79 420.5 1204.08 417.666 1204.08 417.666L1208.92 414.832L1223.96 428.697Z" fill="#F6DCCD"/>
<path d="M1191.11 433.906C1190.8 436.817 1189.65 438.962 1189.03 439.958C1188.8 440.341 1188.65 440.494 1188.65 440.494C1186.65 443.558 1182.74 442.792 1182.43 441.873C1182.12 441.03 1185.27 433.14 1185.81 431.455C1185.73 431.455 1191.49 429.846 1191.11 433.906Z" fill="#FCCAA5"/>
<path d="M1213.06 453.823C1211.99 453.67 1211.07 453.593 1210.37 454.129C1208.69 455.508 1204.16 454.972 1199.32 454.129C1194.48 453.287 1194.48 455.508 1190.57 455.815C1190.03 455.815 1189.42 455.815 1188.96 455.585C1190.57 455.202 1194.18 453.899 1198.63 449.61C1204.77 443.711 1201.85 447.618 1204.77 446.775C1207.61 445.933 1205.38 449.993 1209.84 449.456C1212.75 448.997 1212.06 452.138 1213.06 453.823Z" fill="#FCCAA5"/>
<path d="M1254.52 298.93C1246.84 304.292 1233.17 308.505 1233.17 308.505L1221.66 320.839L1218.59 308.276C1225.19 306.82 1245.46 301.075 1253.36 293.185C1253.67 295.023 1254.06 296.862 1254.52 298.93Z" fill="#FCCAA5"/>
<path d="M1091.08 309.271C1091.08 309.271 1089.31 356.996 1089.08 364.733C1088.24 348.722 1086.78 321.834 1086.78 317.774C1086.78 317.774 1074.27 316.089 1064.21 309.808C1062.29 308.582 1060.45 307.586 1058.84 306.667L1059.22 302.147C1069.28 310.037 1091.08 309.271 1091.08 309.271Z" fill="#FCCAA5"/>
<g clip-path="url(#clip1)">
<path d="M985.512 175.549L987.121 172.708L980.685 168.715C980.685 168.715 980.102 168.314 979.464 167.619C979.333 165.813 978.336 154.403 976.95 146.93C975.517 138.653 971.771 126.126 971.771 126.126L968.184 125.978C968.184 125.978 972.174 139.273 973.706 147.532C974.775 153.299 975.398 160.865 975.752 165.174C975.893 166.89 975.992 168.09 976.06 168.454C976.242 169.437 976.442 170.518 977.302 170.766L977.866 171.068L979.112 171.752L981.272 172.979L985.512 175.549Z" fill="#A1BEDD"/>
<path d="M894.964 172.913C893.957 169.54 892.95 166.167 892.312 162.726C891.094 156.159 890.422 149.409 889.772 142.87C889.701 142.164 889.631 141.46 889.561 140.759C889.342 140.839 889.101 140.915 888.852 140.994C887.795 141.327 886.589 141.708 886.338 142.577C886.002 143.984 886.406 146.132 886.742 147.921C886.864 148.567 886.977 149.167 887.043 149.668C887.765 156.856 888.882 163.972 890.587 170.979C891.386 174.187 892.301 177.475 893.197 180.665C893.258 180.876 893.317 181.076 893.373 181.265C893.858 182.897 894.131 183.814 893.071 185.469C892.581 186.181 892.006 186.851 891.43 187.523C890.687 188.389 889.942 189.258 889.376 190.222C889.112 190.677 888.975 190.744 888.948 190.843C888.927 190.917 888.969 191.008 889.066 191.296C889.27 191.665 889.995 192.164 890.6 192.579C890.902 192.787 891.174 192.974 891.335 193.113C891.792 192.509 892.434 191.799 893.134 191.023C895.316 188.607 898.071 185.556 897.615 183.101C896.977 179.659 895.97 176.286 894.964 172.913Z" fill="#A1BEDD"/>
<path d="M887.032 149.06L879.362 150.482C879.362 150.482 879.926 163.395 881.341 171.574C882.934 179.619 886.983 191.581 886.983 191.581C886.983 191.581 887.85 194.065 890.21 193.627C892.472 193.208 891.801 190.688 891.801 190.688C891.801 190.688 887.457 178.78 885.962 170.718C884.351 162.575 887.032 149.06 887.032 149.06Z" fill="#C9DBF0"/>
<path d="M973.655 132.998L981.324 131.576C981.324 131.576 985.526 143.815 987.039 151.976C988.436 160.057 988.945 172.675 988.945 172.675C988.945 172.675 989.026 175.305 986.666 175.742C984.404 176.161 984.127 173.569 984.127 173.569C984.127 173.569 983.913 160.895 982.418 152.833C981.003 144.654 973.655 132.998 973.655 132.998Z" fill="#C9DBF0"/>
<path d="M877.065 138.093C876.755 136.421 877.877 134.79 879.548 134.48L884.858 133.495C886.529 133.185 888.161 134.306 888.471 135.978L890.203 145.319C890.513 146.99 889.391 148.622 887.72 148.932L879.362 150.482L877.065 138.093Z" fill="#0736A8"/>
<path d="M979.027 119.187C978.717 117.515 977.085 116.394 975.414 116.704L970.104 117.689C968.433 117.999 967.312 119.63 967.622 121.302L969.354 130.643C969.663 132.314 971.295 133.435 972.967 133.125L981.324 131.576L979.027 119.187Z" fill="#0736A8"/>
<path d="M922.984 168.531C922.2 164.303 925.003 160.224 929.231 159.44L935.131 158.346C939.359 157.562 943.438 160.365 944.222 164.593C945.006 168.821 942.203 172.901 937.975 173.685L932.075 174.779C927.866 175.661 923.786 172.858 922.984 168.531Z" fill="#66758D"/>
<path d="M927.729 149.141L932.448 148.266L934.344 158.492L929.625 159.367L927.729 149.141Z" fill="#66758D"/>
<path d="M933.516 151.831L928.01 152.852L928.283 154.327L933.789 153.306L933.516 151.831Z" fill="#C9DBF0"/>
<path d="M928.352 150.856L932.383 150.109C932.973 150 933.556 150.4 933.665 150.99C933.774 151.58 933.374 152.163 932.784 152.272L928.753 153.02C928.163 153.129 927.58 152.729 927.471 152.139C927.361 151.549 927.762 150.966 928.352 150.856Z" fill="#243859"/>
<path d="M931.131 170.784C933.249 170.391 934.647 168.356 934.255 166.238C933.862 164.12 931.827 162.722 929.709 163.114C927.591 163.507 926.193 165.542 926.586 167.66C926.978 169.778 929.013 171.176 931.131 170.784Z" stroke="#243859" stroke-width="3.0546"/>
<path d="M931.277 171.57C933.829 171.097 935.515 168.644 935.041 166.092C934.568 163.54 932.116 161.855 929.563 162.328C927.011 162.801 925.326 165.254 925.799 167.806C926.272 170.358 928.725 172.044 931.277 171.57Z" fill="#C9DBF0"/>
<path d="M930.694 168.424C931.508 168.273 932.046 167.49 931.895 166.676C931.744 165.861 930.961 165.323 930.147 165.474C929.332 165.625 928.794 166.408 928.945 167.223C929.096 168.037 929.879 168.575 930.694 168.424Z" fill="#071219" stroke="#243859" stroke-width="1.0182"/>
<path d="M928.854 166.731C929.343 166.64 929.666 166.171 929.575 165.682C929.484 165.193 929.015 164.871 928.526 164.961C928.037 165.052 927.715 165.521 927.805 166.01C927.896 166.499 928.365 166.822 928.854 166.731Z" fill="white"/>
<path d="M939.064 157.617C939.064 157.617 940.637 157.325 941.784 158.028C942.483 158.508 942.95 158.829 943.212 159.695C943.719 161.33 944.904 167.722 945.068 168.606C945.214 169.393 945.108 169.921 944.861 170.781C944.613 171.64 944.391 172.088 943.659 172.529C943.026 172.952 941.828 173.072 941.828 173.072L938.965 157.635L939.064 157.617Z" fill="#243859"/>
<path d="M939.884 162.042C940.481 161.931 940.876 161.357 940.765 160.759C940.654 160.162 940.08 159.768 939.483 159.878C938.886 159.989 938.491 160.563 938.602 161.161C938.713 161.758 939.287 162.152 939.884 162.042Z" fill="#FF5A5F"/>
<path d="M939.389 161.015C939.606 160.974 939.749 160.766 939.709 160.548C939.669 160.331 939.46 160.188 939.243 160.228C939.025 160.268 938.882 160.477 938.922 160.694C938.963 160.912 939.171 161.055 939.389 161.015Z" fill="white"/>
<path d="M985.266 89.7562L987.429 89.3551C987.429 89.3551 989.477 94.3658 991.106 97.1149C992.734 99.8641 996.377 103.053 996.377 103.053L982.415 105.642C982.415 105.642 984.457 101.297 984.813 98.2817C985.366 95.2298 985.266 89.7562 985.266 89.7562Z" fill="#66758D"/>
<path d="M987.17 86.8606L984.614 87.3346C983.925 87.4623 983.445 88.1616 983.572 88.8499C983.7 89.5381 984.399 90.0187 985.088 89.8911L987.644 89.4171C988.332 89.2894 988.813 88.5901 988.685 87.9018C988.558 87.2136 987.957 86.7148 987.17 86.8606Z" fill="#C2C8D2"/>
<path d="M854.214 113.039L856.378 112.638C856.378 112.638 858.48 117.944 860.145 120.889C861.81 123.835 865.507 127.32 865.507 127.32L851.742 129.872C851.742 129.872 853.729 125.232 854.049 122.02C854.369 118.808 854.214 113.039 854.214 113.039Z" fill="#66758D"/>
<path d="M852.674 112.409C852.546 111.721 852.928 111.04 853.715 110.894L856.271 110.42C856.96 110.292 857.659 110.773 857.787 111.461C857.914 112.15 857.434 112.849 856.745 112.977L854.189 113.451C853.402 113.596 852.801 113.098 852.674 112.409Z" fill="#C2C8D2"/>
<path d="M856.401 134.703C854.704 135.425 853.798 137.119 854.144 138.987C854.545 141.15 856.643 142.592 858.806 142.19L884.665 137.396C885.103 139.755 886.524 141.933 889.23 143.363C898.711 148.42 910.103 152.816 918.952 151.176L940.977 147.092C949.415 145.426 958.798 137.889 966.535 130.25C969.102 127.638 969.753 124.568 968.947 121.87L993.922 117.239C996.085 116.838 997.526 114.74 997.125 112.577C996.797 110.807 995.326 109.452 993.581 109.369C985.7 109.101 962.4 109.048 924.84 116.013C887.754 122.788 864.154 131.537 856.401 134.703Z" fill="#2957C8"/>
<path d="M997.118 113.086C995.92 113.207 977.212 114.336 963.979 118.112C957.697 119.887 952.403 122.598 947.188 125.192C940.867 128.398 934.724 131.47 926.956 132.91C919.189 134.35 912.04 133.642 904.811 133.05C898.816 132.534 892.804 131.92 886.303 132.515C872.614 133.833 855.109 138.706 854.162 139.085C854.716 141.525 856.84 142.555 858.806 142.19L884.665 137.396C885.103 139.755 886.524 141.933 889.23 143.363C898.711 148.42 910.103 152.816 918.952 151.176L940.977 147.092C949.415 145.425 958.798 137.888 966.535 130.25C969.102 127.638 969.753 124.568 968.947 121.87L993.922 117.239C995.772 116.794 997.17 115.009 997.118 113.086Z" fill="#0B42C8"/>
<path d="M853.362 112.282C853.493 112.988 849.989 114.229 845.537 115.055C841.084 115.881 837.368 115.978 837.237 115.272C837.106 114.566 840.61 113.324 845.063 112.498C849.515 111.673 853.231 111.576 853.362 112.282Z" fill="#2957C8"/>
<path d="M865.3 111.39C869.753 110.565 873.256 109.323 873.125 108.617C872.994 107.911 869.279 108.008 864.826 108.834C860.373 109.66 856.869 110.901 857 111.607C857.131 112.313 860.847 112.216 865.3 111.39Z" fill="#2957C8"/>
<path d="M984.377 88.8023C984.508 89.5083 981.005 90.7499 976.552 91.5755C972.099 92.4012 968.383 92.4982 968.252 91.7923C968.121 91.0863 971.625 89.8447 976.078 89.0191C980.531 88.1934 984.246 88.0964 984.377 88.8023Z" fill="#2957C8"/>
<path d="M1004.14 85.1378C1004.27 85.8438 1000.77 87.0854 996.315 87.911C991.862 88.7367 988.146 88.8337 988.015 88.1278C987.884 87.4219 991.388 86.1803 995.841 85.3546C1000.29 84.529 1004.01 84.4319 1004.14 85.1378Z" fill="#2957C8"/>
<path d="M852.344 135.863C849.823 131.041 852.691 125.119 858.099 124.116C863.507 123.114 868.308 127.614 867.683 133.018L867.377 135.211C866.959 138.441 864.607 141.115 861.363 141.716C858.118 142.318 854.884 140.782 853.415 137.8L852.344 135.863Z" fill="#2957C8"/>
<path d="M988.575 99.9234C983.167 100.926 980.299 106.848 982.82 111.669L983.891 113.607C985.36 116.589 988.594 118.125 991.839 117.523C995.083 116.922 997.435 114.248 997.853 111.018L998.159 108.825C998.784 103.421 993.983 98.9206 988.575 99.9234Z" fill="#2957C8"/>
</g>
</g>
<defs>
<clipPath id="clip0">
<rect width="1595" height="854" fill="white"/>
</clipPath>
<clipPath id="clip1">
<rect width="170" height="88" fill="white" transform="translate(837 113.993) rotate(-10.5046)"/>
</clipPath>
</defs>
</svg>
