<svg width="93" height="80" viewBox="0 0 93 80" fill="none" xmlns="http://www.w3.org/2000/svg">
<path d="M57.5432 0.229126C59.4643 1.84038 61.0445 3.85446 62.129 6.1474H37.2785L30.1518 18.5727C29.656 16.9614 29.3771 15.2572 29.3771 13.491C29.3771 8.16148 31.825 3.38967 35.6362 0.229126H57.5432Z" fill="white"/>
<path d="M36.4729 16.4656H63.4924C63.6473 15.5051 63.7713 14.5135 63.7713 13.522C63.7713 12.4995 63.6473 11.5389 63.4924 10.5784H39.8813L36.4729 16.4656Z" fill="white"/>
<path d="M32.5067 23.3755C33.4053 24.6459 34.4278 25.7923 35.6053 26.7839H57.5122C59.4643 25.1726 61.0445 23.1586 62.129 20.8656H33.932L32.5067 23.3755Z" fill="white"/>
<path d="M17.2927 44.8796V40.0458C16.58 40.0458 1.02517 40.0458 0.3125 40.0148V71.2174H5.76599V58.1105H13.4195V53.2767H5.76599V44.8796H17.2927Z" fill="white"/>
<path d="M85.5543 50.7669C86.5458 49.5894 88.6528 48.412 91.1936 48.381C91.6584 48.381 92.0613 48.412 92.4331 48.4429C92.3546 48.6897 92.1664 49.2938 91.948 49.995C91.5631 51.2309 91.0842 52.7686 90.9458 53.1838C90.419 52.9669 89.8613 52.8429 89.1796 52.8429C87.0416 52.8429 84.8416 54.4542 84.8416 57.5218V71.2175H79.8529V48.7528H84.8416V51.5415L85.5543 50.7669Z" fill="white"/>
<path d="M54.698 54.5453L54.6909 54.5646C51.8035 62.3709 47.0301 75.2766 47.008 75.2766C46.4812 76.609 45.9855 77.5076 45.3348 78.1273C44.1883 79.2737 42.639 79.8005 40.594 79.7695H38.7038V75.3386H39.6644C41.5235 75.3386 42.3292 74.7498 42.9489 72.9836L43.9714 70.009C43.9714 70.009 36.5038 49.7753 36.132 48.7838H41.1517C41.3376 49.2796 46.5742 63.6879 46.5742 63.6879C46.5742 63.6879 51.5939 49.2796 51.7798 48.7838H56.8305C56.7234 49.0694 55.8657 51.3882 54.698 54.5453Z" fill="white"/>
<path fill-rule="evenodd" clip-rule="evenodd" d="M32.7856 51.1387C31.825 50.1162 29.625 48.381 25.8138 48.381C22.2194 48.381 20.0504 49.8683 18.873 51.1387C17.0138 53.0908 16.3321 55.3837 16.3321 59.9386C16.3321 64.4935 16.9828 66.8175 18.873 68.7696C20.0504 70.009 22.2194 71.5273 25.8138 71.5273C29.625 71.5273 31.825 69.7921 32.7856 68.7696C34.6447 66.8175 35.3264 64.4935 35.3264 59.9386C35.3264 56.0344 34.9236 53.3387 32.7856 51.1387ZM28.8194 65.8879C28.0447 66.6316 27.0532 67.0344 25.8138 67.0344C24.6053 67.0344 23.6138 66.6625 22.8391 65.8879C21.4758 64.5245 21.3828 62.2936 21.3828 59.9077C21.3828 57.5527 21.5067 55.3218 22.8391 53.9894C23.6138 53.2148 24.5743 52.8429 25.8138 52.8429C27.0532 52.8429 28.0757 53.2148 28.8194 53.9894C30.1518 55.3528 30.2757 57.5527 30.2757 59.9077C30.2757 62.2936 30.1827 64.5555 28.8194 65.8879Z" fill="white"/>
<path fill-rule="evenodd" clip-rule="evenodd" d="M76.6304 59.133V61.364C75.8764 61.364 62.0051 61.364 62.0361 61.395V61.7668C62.0361 65.1443 64.1741 67.3442 67.5206 67.3442C70.0924 67.3442 71.4248 66.6316 72.8191 65.2992C73.0168 65.4968 73.6322 66.0974 74.2591 66.709L74.2608 66.7107C74.9109 67.3451 75.573 67.9911 75.7938 68.2118C73.6248 70.2879 71.4867 71.4963 67.4586 71.4963C60.5488 71.4963 57.0474 67.5921 57.0474 59.9077C57.0474 52.7809 60.7967 48.35 66.8389 48.35C72.7881 48.35 76.6304 52.595 76.6304 59.133ZM62.0051 57.7696L61.9741 58.1725H71.6727L71.6417 57.7696C71.6107 56.6851 71.4558 56.0344 71.0839 55.1359C70.3093 53.4316 68.76 52.4711 66.8079 52.4711C64.8558 52.4711 63.3065 53.4316 62.5628 55.1049C62.191 56.0344 62.0671 56.6851 62.0051 57.7696Z" fill="white"/>
</svg>
