<svg fill="none" height="161" viewBox="0 0 481 161" width="481" xmlns="http://www.w3.org/2000/svg" xmlns:xlink="http://www.w3.org/1999/xlink"><clipPath id="a"><path d="m0 0h481v160.333h-481z"/></clipPath><clipPath id="b"><path d="m0-2.00417h131.556v160.333h-131.556z"/></clipPath><g clip-path="url(#a)" fill="#004c92"><path clip-rule="evenodd" d="m458.258 62.6343c3.263-3.7707 10.282-7.6067 18.61-7.6562h.02c1.576-.0218 2.885.0792 4.112.2198-.711 2.2081-4.231 13.1519-4.924 15.3165-1.744-.7387-3.617-1.0932-5.782-1.0932-7.098 0-14.278 5.1887-14.278 15.1402v44.2166h-16.434v-72.5503h16.434v9.0148zm-29.481 34.2899h-48.27v1.2437c0 10.9571 7.115 18.0331 18.154 18.0331 8.478 0 12.873-2.321 17.471-6.606 1.367 1.325 8.393 8.007 9.87 9.415-7.13 6.725-14.142 10.627-27.489 10.627-22.829 0-34.398-12.562-34.398-37.3906 0-22.9906 12.389-37.2693 32.324-37.2693 19.64 0 32.338 13.6628 32.338 34.7899zm-48.329-10.3913h31.982l-.061-1.3011c-.144-3.4835-.612-5.6343-1.856-8.5336-2.527-5.4719-7.652-8.5712-14.074-8.5712-6.423 0-11.541 3.1152-14.037 8.5475-1.261 2.923-1.735 5.0658-1.895 8.5573zm-17.078-30.3038c-1.222 3.2142-32.375 85.5079-32.381 85.5379-1.689 4.333-3.383 7.161-5.473 9.205-3.769 3.664-8.895 5.42-15.689 5.351h-6.275v-14.322h3.162c6.18 0 8.811-1.842 10.834-7.605l3.403-9.649s-24.674-65.3334-25.879-68.5179h16.58c.6 1.5625 17.889 48.0749 17.889 48.0749s16.588-46.4688 17.173-48.0749zm-79.285 7.6131c7.012 7.1631 8.379 15.8472 8.379 28.405 0 14.7338-2.185 22.2068-8.379 28.5238-3.184 3.315-10.431 8.866-23.062 8.866-11.863 0-19.007-4.816-22.916-8.866-6.185-6.317-8.385-13.79-8.385-28.5238 0-14.6491 2.2-22.0915 8.385-28.3912 3.909-4.0578 11.047-8.8781 22.916-8.8781 12.645 0 19.878 5.557 23.062 8.8643zm-13.119 47.6668c4.44-4.363 4.806-11.5996 4.806-19.2618 0-7.5929-.366-14.7837-4.806-19.1407-2.514-2.4418-5.86-3.6855-9.943-3.6855-4.055 0-7.239 1.214-9.775 3.6855-4.462 4.357-4.826 11.5478-4.826 19.1407 0 7.6622.364 14.8988 4.826 19.2618 2.536 2.479 5.736 3.685 9.775 3.685 4.083 0 7.421-1.232 9.943-3.685zm-38.088-83.4507v15.5997h-38.066v27.1634h25.253v15.5897h-25.253v42.3669h-18.034v-100.7197z" fill-rule="evenodd"/><g clip-path="url(#b)"><path d="m27.1407 89.3293h103.3483c.592-3.6248 1.067-7.3665 1.067-11.1083 0-3.8586-.475-7.4835-1.067-11.1083h-90.3112z"/><path d="m11.9704 115.404c3.437 4.795 7.3481 9.121 11.8518 12.863h83.7928c7.466-6.081 13.511-13.681 17.659-22.334h-107.8518z"/><path d="m125.274 50.3918c-4.148-8.6527-10.193-16.2531-17.541-22.3335h-83.7923c-14.57776 11.9268-23.9407 29.934-23.9407 50.0458 0 6.665 1.06667 13.096 2.96296 19.1764l27.25924-46.8887z"/></g></g></svg>