<svg fill="none" height="263" viewBox="0 0 304 263" width="304" xmlns="http://www.w3.org/2000/svg"><g fill="#004c92"><path d="m188.862 0c6.34 5.31719 11.555 11.9637 15.134 19.5304h-82.007l-23.5187 41.0037c-1.6361-5.3172-2.5564-10.9411-2.5564-16.7695 0-17.5877 8.0781-33.3347 20.6551-43.7646z"/><path d="m119.33 53.5809h89.165c.511-3.1699.92-6.442.92-9.7141 0-3.3744-.409-6.5442-.92-9.7141h-77.917z"/><path d="m106.242 76.3834c2.965 4.1924 6.339 7.9758 10.225 11.2479h72.293c6.442-5.3172 11.657-11.9636 15.236-19.5304h-93.051z"/><path d="m56.035 147.347v-15.951c-2.3518 0-53.68317 0-56.035-.102v102.969h17.9966v-43.253h25.2567v-15.952h-25.2567v-27.711z"/><path d="m281.3 166.776c3.272-3.886 10.225-7.772 18.61-7.874 1.534 0 2.863.102 4.09.205-.259.814-.88 2.808-1.601 5.122-1.27 4.078-2.85 9.152-3.307 10.522-1.738-.715-3.579-1.124-5.829-1.124-7.055 0-14.315 5.317-14.315 15.44v45.196h-16.463v-74.134h16.463v9.203z"/><path d="m179.473 179.245-.023.063c-9.528 25.761-25.281 68.35-25.354 68.35-1.738 4.397-3.374 7.363-5.521 9.408-3.784 3.783-8.897 5.521-15.645 5.419h-6.238v-14.622h3.17c6.135 0 8.794-1.943 10.839-7.771l3.374-9.817s-24.643-66.771-25.87-70.044h16.565c.614 1.637 17.895 49.185 17.895 49.185s16.565-47.548 17.178-49.185h16.668c-.354.943-3.184 8.595-7.038 19.014z"/><g clip-rule="evenodd" fill-rule="evenodd"><path d="m107.162 168.003c-3.17-3.375-10.4301-9.101-23.0073-9.101-11.8614 0-19.0191 4.908-22.9048 9.101-6.1352 6.442-8.3848 14.009-8.3848 29.04s2.1474 22.7 8.3848 29.142c3.8857 4.09 11.0434 9.101 22.9048 9.101 12.5772 0 19.8373-5.727 23.0073-9.101 6.135-6.442 8.385-14.111 8.385-29.142 0-12.884-1.33-21.78-8.385-29.04zm-13.0887 48.672c-2.5563 2.455-5.8284 3.784-9.9186 3.784-3.9878 0-7.26-1.227-9.8163-3.784-4.4992-4.499-4.8059-11.861-4.8059-19.734 0-7.772.409-15.134 4.8059-19.531 2.5563-2.556 5.7262-3.783 9.8163-3.783 4.0902 0 7.4645 1.227 9.9186 3.783 4.3969 4.499 4.806 11.759 4.806 19.531 0 7.873-.3068 15.338-4.806 19.734z"/><path d="m251.851 194.384v7.362c-2.488 0-48.264 0-48.162.103v1.227c0 11.145 7.056 18.405 18.099 18.405 8.487 0 12.884-2.351 17.485-6.748.653.652 2.684 2.634 4.752 4.652l.006.006c2.146 2.093 4.33 4.225 5.059 4.953-7.158 6.851-14.213 10.839-27.506 10.839-22.803 0-34.358-12.884-34.358-38.242 0-23.519 12.373-38.141 32.313-38.141 19.632 0 32.312 14.009 32.312 35.584zm-48.264-4.499-.102 1.329h32.005l-.102-1.329c-.102-3.579-.614-5.726-1.841-8.692-2.556-5.623-7.669-8.793-14.111-8.793s-11.554 3.17-14.008 8.691c-1.227 3.068-1.637 5.215-1.841 8.794z"/></g></g></svg>